<svg width="60" height="60" viewBox="0 0 60 60" fill="none" xmlns="http://www.w3.org/2000/svg">
    <rect width="60" height="60" rx="10" fill="#3AABE8" fill-opacity="0.1"/>
    <path d="M50.4585 30.1021C50.0194 30.585 49.4522 30.9333 48.8229 31.1065C48.4623 31.1067 48.15 30.8564 48.0717 30.5044C47.9934 30.1525 48.1701 29.7934 48.4968 29.6407C49.5668 29.1475 50.261 28.0865 50.2845 26.9086C50.308 25.7307 49.6566 24.6428 48.6072 24.1074C47.5577 23.5719 46.2947 23.6828 45.3547 24.3931C45.0149 24.6479 44.5329 24.579 44.2781 24.2393C44.0233 23.8995 44.0921 23.4175 44.4319 23.1627C44.9856 22.7485 45.6261 22.4653 46.3052 22.3345C45.5839 18.2918 42.0787 15.3407 37.9723 15.3189C37.8185 15.3189 37.9723 15.3073 37.9723 16.0879C37.9886 16.5126 37.6576 16.8701 37.2329 16.8865C36.8082 16.9028 36.4506 16.5718 36.4343 16.1471C36.4379 14.9663 35.7912 13.8795 34.7517 13.3195C33.7929 12.8468 32.6582 12.9016 31.7494 13.4645C30.8406 14.0274 30.2861 15.0189 30.2822 16.0879C30.2822 16.5126 29.9379 16.8569 29.5132 16.8569C29.0885 16.8569 28.7442 16.5126 28.7442 16.0879C28.744 15.4595 28.873 14.8378 29.1234 14.2615C27.3768 12.9978 25.12 12.6749 23.0891 13.3983C21.0583 14.1217 19.5138 15.7986 18.9595 17.8819C18.852 18.2931 18.4316 18.5392 18.0205 18.4318C17.6094 18.3243 17.3632 17.9039 17.4707 17.4928C17.5873 17.064 17.739 16.6455 17.9244 16.2417C16.7209 15.9163 15.4351 16.1395 14.4116 16.8515C13.3882 17.5634 12.7318 18.6913 12.6183 19.9329C13.4091 19.9351 14.186 20.1415 14.8738 20.5319C15.1125 20.6679 15.2606 20.921 15.2622 21.1957C15.2638 21.4705 15.1186 21.7252 14.8815 21.864C14.6443 22.0027 14.3512 22.0044 14.1124 21.8684C12.6506 21.0715 10.8201 21.5823 9.98209 23.0209C9.14409 24.4596 9.60285 26.3039 11.0172 27.1822C11.2528 27.3236 11.3951 27.5799 11.3905 27.8546C11.3858 28.1293 11.235 28.3807 10.9948 28.514C10.7546 28.6474 10.4615 28.6424 10.2259 28.5011C9.71796 28.1938 9.27429 27.7912 8.91937 27.3153C7.43425 30.1583 7.76923 33.6102 9.77326 36.1146C11.7773 38.6191 15.0718 39.7028 18.1712 38.8772C18.0447 38.3391 17.9799 37.7882 17.9782 37.2354C17.9782 37.1054 17.9974 36.9778 18.0044 36.8509C16.9801 36.8579 15.9954 36.4559 15.2686 35.734C14.5419 35.0122 14.1332 34.0302 14.1332 33.0059C14.1323 32.5783 14.4747 32.2291 14.9022 32.2215C15.1045 32.218 15.2998 32.2958 15.4444 32.4374C15.5889 32.5791 15.6706 32.7728 15.6712 32.9751C15.6636 33.6374 15.9409 34.271 16.4327 34.7147C16.9245 35.1583 17.5832 35.3692 18.2412 35.2937C18.4163 34.6551 18.6779 34.0435 19.0187 33.4758C19.2376 33.1118 19.7102 32.9942 20.0741 33.2131C20.4381 33.4321 20.5557 33.9046 20.3367 34.2686C18.7846 36.8373 19.4619 40.1671 21.8941 41.9254C24.3264 43.6837 27.7007 43.2828 29.6532 41.0035C29.8769 40.7753 30.2101 40.6926 30.5145 40.7897C32.6088 41.6105 34.9199 41.6951 37.0687 41.0297C37.4747 40.905 37.9049 41.1331 38.0296 41.5391C38.1542 41.9451 37.9261 42.3753 37.5201 42.5C36.673 42.7589 35.7987 42.9184 34.9147 42.9752C35.0262 45.1369 35.7875 46.3373 39.7533 47.6592C42.1113 48.3075 43.9714 50.1209 44.6795 52.4616C44.7776 52.7846 45.0772 53.0039 45.4147 52.9999H46.3375C46.5555 53.001 46.7637 52.9095 46.9103 52.7482C47.057 52.5869 47.1283 52.371 47.1065 52.154C46.8911 50.0147 46.2106 46.3281 44.0704 44.4117C43.8787 44.2325 43.7901 43.9688 43.8345 43.7101C43.879 43.4514 44.0506 43.2325 44.2911 43.1275C46.1561 42.3453 47.6806 40.9228 48.5899 39.1164C48.2257 39.3075 47.846 39.4672 47.4548 39.5939C47.1926 39.6764 46.9063 39.6126 46.7038 39.4267C46.5013 39.2408 46.4134 38.961 46.4731 38.6927C46.5328 38.4244 46.7312 38.2083 46.9934 38.1259C48.5977 37.6273 49.9042 36.4528 50.5703 34.9105C51.2363 33.3682 51.1955 31.6119 50.4585 30.1021ZM44.0804 36.8594C42.2348 40.5506 42.4578 40.6198 42.4578 45.3099C42.4578 45.7346 42.1136 46.0789 41.6888 46.0789C41.2641 46.0789 40.9198 45.7346 40.9198 45.3099C40.9198 40.566 40.6953 40.1953 42.7047 36.1719C42.983 35.6142 43.0238 34.9676 42.8178 34.3794C42.6118 33.7911 42.1766 33.3112 41.6112 33.049L40.4731 32.5207C38.9998 31.8804 37.2818 32.4787 36.525 33.8956L36.2074 34.4993C37.1856 35.4061 37.3509 36.8931 36.5955 37.9924C35.8402 39.0918 34.3928 39.4708 33.1956 38.8829C31.9983 38.2949 31.4134 36.9178 31.8216 35.6479C32.2298 34.3781 33.5076 33.5997 34.8232 33.8195L35.16 33.1789C35.6519 32.2476 36.4498 31.5142 37.4193 31.1026L33.6451 29.3516C32.1789 28.7329 30.4828 29.3329 29.7316 30.7358L27.34 35.2468C28.3271 36.1448 28.5057 37.6311 27.7596 38.7375C27.0135 39.8438 25.5686 40.2352 24.3661 39.6567C23.1636 39.0781 22.5677 37.7049 22.9665 36.4314C23.3653 35.158 24.6381 34.37 25.9558 34.5808L28.3743 30.0183C28.8653 29.0893 29.6621 28.3583 30.6298 27.9489C29.8962 27.609 28.5035 26.9685 28.5904 27.0069C27.1354 26.3753 25.4386 26.9538 24.6724 28.3427C25.6521 29.2509 25.8173 30.7403 25.0605 31.8412C24.3036 32.9421 22.8538 33.3213 21.655 32.7318C20.4561 32.1424 19.871 30.7628 20.2807 29.4912C20.6903 28.2196 21.9707 27.4409 23.2882 27.6621C23.7806 26.7327 24.5782 26.0014 25.5467 25.5912L21.5387 23.7317C20.2578 23.1332 18.7338 23.4869 17.8475 24.5884C18.7792 25.5452 18.8684 27.0406 18.057 28.1014C17.2457 29.1621 15.7791 29.4675 14.6118 28.8188C13.4444 28.17 12.9293 26.7634 13.4017 25.5142C13.8741 24.265 15.191 23.5511 16.4956 23.8371C17.7833 22.0314 20.1756 21.4007 22.1862 22.3368L22.9198 22.6774C22.7515 22.104 22.6974 21.503 22.7606 20.9087C21.7068 20.1044 21.3976 18.6513 22.0328 17.4876C22.6679 16.3239 24.0572 15.7979 25.3038 16.2491C26.5504 16.7002 27.2812 17.9936 27.0244 19.2942C26.7676 20.5949 25.6001 21.5135 24.2756 21.457C24.3164 22.6207 25.0126 23.6609 26.0727 24.1424L30.736 26.3056C30.0908 24.2139 31.0351 22.8551 31.7595 21.4886C30.7923 20.5663 30.6483 19.0741 31.4213 17.9839C32.1942 16.8937 33.6501 16.5358 34.8404 17.1433C36.0308 17.7509 36.595 19.1398 36.1657 20.4054C35.7363 21.6709 34.4434 22.4298 33.1291 22.1876C32.4155 23.5341 31.731 24.4446 32.224 25.9226C32.5615 26.8845 33.3271 27.6348 34.2957 27.9528C34.7002 28.1289 32.8346 27.2807 38.2576 29.7984C37.8773 28.5629 38.0307 27.2247 38.6805 26.1072C37.7519 25.217 37.5854 23.7932 38.2833 22.7127C38.9813 21.6321 40.3476 21.1986 41.5409 21.6789C42.7342 22.1593 43.419 23.4186 43.1737 24.6814C42.9283 25.9441 41.8217 26.8553 40.5353 26.8539C39.9248 26.8539 40.1201 26.6778 39.9455 27.0077C39.1586 28.5107 39.7266 30.3671 41.2198 31.1726C42.4625 31.7493 43.6736 32.1723 44.2696 33.8726C44.6164 34.8523 44.548 35.9312 44.0804 36.8594Z" fill="#48B7F2"/>
</svg>
