<svg width="60" height="60" viewBox="0 0 60 60" fill="none" xmlns="http://www.w3.org/2000/svg">
    <rect width="60" height="60" rx="10" fill="#F5A75F" fill-opacity="0.1"/>
    <path d="M36.7535 30.0981V18.0411C36.7535 14.1528 33.5187 11 29.5298 11C25.5397 11 22.3066 14.1528 22.3066 18.0411V30.0972C22.3066 33.9852 25.5397 37.1379 29.5298 37.1379C33.5187 37.1378 36.7535 33.9866 36.7535 30.0981Z" fill="#F5A75F"/>
    <path d="M42.3547 30.8196V25.0249C43.0893 24.51 44.0041 23.7383 44.058 23.0569C44.1429 21.9775 42.3547 20.9449 42.3547 20.9449H39.8282V30.8206C39.8282 36.3507 35.212 40.8489 29.5388 40.8489C23.8666 40.8489 19.2521 36.3507 19.2521 30.8206V20.9448H16.7237C16.7237 20.9448 14.913 21.9123 15.0033 23.0567C15.0565 23.743 15.9868 24.5222 16.7237 25.0373V30.8195C16.7237 36.6881 20.8985 41.6231 26.506 42.9553V47.3469H24.1596V49.9873H26.506H32.5551H34.9017V47.3469H32.5551V42.9599C38.1705 41.6345 42.3547 36.6962 42.3547 30.8196Z" fill="#F5A75F"/>
</svg>
