<svg width="60" height="60" viewBox="0 0 60 60" fill="none" xmlns="http://www.w3.org/2000/svg">
    <rect width="60" height="60" rx="10" fill="#E83A3A" fill-opacity="0.1"/>
    <path d="M28.334 7.5H49.6673C51.138 7.5 52.334 8.62125 52.334 10V25C52.334 26.3788 51.138 27.5 49.6673 27.5H45.6673V32.2088L37.298 27.5H28.334C26.8633 27.5 25.6673 26.3788 25.6673 25V10C25.6673 8.62125 26.8633 7.5 28.334 7.5ZM28.334 25H38.0367L43.0007 27.7913V25H49.6673V10H28.334V25Z" fill="#E83A3A"/>
    <path d="M45.666 13.75H32.3327V16.25H45.666V13.75ZM45.666 18.75H36.3327V21.25H45.666V18.75Z" fill="#E83A3A"/>
    <path d="M31.0195 32.5H11.0195C9.64078 32.5 8.51953 33.6212 8.51953 35V50C8.51953 51.3787 9.64078 52.5 11.0195 52.5H14.7695V57.2087L22.6158 52.5H31.0195C32.3983 52.5 33.5195 51.3787 33.5195 50V35C33.5195 33.6212 32.3983 32.5 31.0195 32.5ZM31.0195 50H21.9233L17.2695 52.7913V50H11.0195V35H31.0195V50Z" fill="#E83A3A"/>
    <path d="M27.5332 39.0088L25.7656 37.2413L19.7744 43.2325L16.9081 40.3663L15.1406 42.1338L19.7744 46.7675L27.5332 39.0088Z" fill="#E83A3A"/>
</svg>
