<svg width="60" height="60" viewBox="0 0 60 60" fill="none" xmlns="http://www.w3.org/2000/svg">
    <rect width="60" height="60" rx="10" fill="#10AA7F" fill-opacity="0.1"/>
    <path d="M42.3023 17.7638C42.0281 17.7638 41.7543 17.7828 41.4828 17.8203C41.1161 17.8737 40.7717 17.6312 40.697 17.2681C39.8967 13.4918 36.8206 10.6219 33.0027 10.0883C29.1844 9.55503 25.4412 11.4724 23.639 14.8849C23.4756 15.1936 23.1106 15.3359 22.7816 15.2191C22.2621 15.0351 21.7148 14.9411 21.1639 14.9418C18.4411 14.9449 16.2347 17.1544 16.2316 19.8803C16.232 20.301 16.2839 20.7195 16.3865 21.127C16.4429 21.3527 16.3851 21.5914 16.2316 21.7657C16.0799 21.9428 15.8487 22.0303 15.6178 21.9986C15.5889 21.9986 15.5594 21.9986 15.527 21.9986C13.717 21.9965 12.2001 23.3683 12.0181 25.1713C11.8361 26.9747 13.0485 28.6224 14.8224 28.9831V26.9354C14.8224 26.5458 15.1376 26.2299 15.527 26.2299H43.7116C44.1007 26.2299 44.4162 26.5458 44.4162 26.9354V28.6372C46.9129 27.6216 48.3428 24.9784 47.8278 22.3296C47.3131 19.6809 44.9973 17.7676 42.3023 17.7638Z" fill="#24C598"/>
    <path d="M42.8469 33.2203V27.6271H16.4062V33.2203H17.7979V36.017H16.4062V41.6102H17.7979V44.4068H16.4062V50H42.8469V44.4068H41.4553V41.6102H42.8469V36.017H41.4553V33.2203H42.8469ZM39.3679 29.7246H40.7595C41.1438 29.7246 41.4553 30.0376 41.4553 30.4237C41.4553 30.8102 41.1438 31.1229 40.7595 31.1229H39.3679C38.9833 31.1229 38.6721 30.8102 38.6721 30.4237C38.6721 30.0376 38.9833 29.7246 39.3679 29.7246ZM18.4937 29.7246H36.5847C36.9689 29.7246 37.2805 30.0376 37.2805 30.4237C37.2805 30.8102 36.9689 31.1229 36.5847 31.1229H18.4937C18.1091 31.1229 17.7979 30.8102 17.7979 30.4237C17.7979 30.0376 18.1091 29.7246 18.4937 29.7246ZM18.4937 39.5127C18.1091 39.5127 17.7979 39.2 17.7979 38.8136C17.7979 38.4275 18.1091 38.1144 18.4937 38.1144H36.5847C36.9689 38.1144 37.2805 38.4275 37.2805 38.8136C37.2805 39.2 36.9689 39.5127 36.5847 39.5127H18.4937ZM38.6721 38.8136C38.6721 38.4275 38.9833 38.1144 39.3679 38.1144H40.7595C41.1438 38.1144 41.4553 38.4275 41.4553 38.8136C41.4553 39.2 41.1438 39.5127 40.7595 39.5127H39.3679C38.9833 39.5127 38.6721 39.2 38.6721 38.8136ZM40.7595 46.5042C41.1438 46.5042 41.4553 46.8173 41.4553 47.2034C41.4553 47.5898 41.1438 47.9025 40.7595 47.9025H39.3679C38.9833 47.9025 38.6721 47.5898 38.6721 47.2034C38.6721 46.8173 38.9833 46.5042 39.3679 46.5042H40.7595ZM37.2805 47.2034C37.2805 47.5898 36.9689 47.9025 36.5847 47.9025H18.4937C18.1091 47.9025 17.7979 47.5898 17.7979 47.2034C17.7979 46.8173 18.1091 46.5042 18.4937 46.5042H36.5847C36.9689 46.5042 37.2805 46.8173 37.2805 47.2034ZM40.0637 44.4068H19.1895V41.6102H40.0637V44.4068ZM40.0637 36.017H19.1895V33.2203H40.0637V36.017Z" fill="#24C598"/>
</svg>
