<svg width="60" height="60" viewBox="0 0 60 60" fill="none" xmlns="http://www.w3.org/2000/svg">
    <rect width="60" height="60" rx="10" fill="#4770D9" fill-opacity="0.1"/>
    <path d="M46.3129 40.3333H45.743V36.5183C45.743 34.8795 44.4262 33.5469 42.8083 33.5469H30.9172V28.8106H36.5628C39.9047 28.8106 42.6128 26.067 42.6128 22.6836C42.6128 19.2999 39.9046 16.5586 36.5628 16.5586C36.5152 16.5586 36.4677 16.5638 36.4201 16.5664C35.7243 12.8287 32.4874 10 28.5936 10C24.1958 10 20.6271 13.6106 20.6271 18.068C20.6271 18.7479 20.7183 19.4047 20.8754 20.0351C20.7905 20.0293 20.7121 20.009 20.6271 20.009C18.2261 20.009 16.282 21.9792 16.282 24.4108C16.282 26.7415 18.0231 28.6573 20.2865 28.8106H28.2839V33.5469H16.3911C14.7721 33.5469 13.4569 34.8795 13.4569 36.5183V40.3333H12.887C11.2923 40.3333 10 41.642 10 43.2565V47.0768C10 48.6914 11.2923 50 12.887 50H16.66C18.2548 50 19.5471 48.6914 19.5471 47.0768V43.2565C19.5471 41.642 18.2548 40.3333 16.66 40.3333H16.0901V36.5183C16.0901 36.3502 16.2254 36.2135 16.3911 36.2135H28.2839V40.3333H27.7142C26.1193 40.3333 24.8271 41.642 24.8271 43.2565V47.0768C24.8271 48.6914 26.1193 50 27.7142 50H31.487C33.0818 50 34.3741 48.6914 34.3741 47.0768V43.2565C34.3741 41.642 33.0818 40.3333 31.487 40.3333H30.9172V36.2135H42.8084C42.9746 36.2135 43.1095 36.3502 43.1095 36.5183V40.3333H42.54C40.9452 40.3333 39.6529 41.642 39.6529 43.2565V47.0768C39.6529 48.6914 40.9452 50 42.54 50H46.313C47.9073 50 49.2 48.6914 49.2 47.0768V43.2565C49.1999 41.642 47.9073 40.3333 46.3129 40.3333Z" fill="#5D84E8"/>
</svg>
