<svg width="300" height="351" viewBox="0 0 300 351" fill="none" xmlns="http://www.w3.org/2000/svg">
    <ellipse cx="160.5" cy="338.222" rx="93.5" ry="12.1836" fill="#2A4261"/>
    <ellipse cx="160.5" cy="338.222" rx="93.5" ry="12.1836" fill="#2A4261"/>
    <g clip-path="url(#clip0)">
        <path d="M155.502 336.037C156.389 333.627 156.01 329.946 153.05 327.379C150.105 324.82 147.495 324.763 145.994 325.063C144.5 325.37 145.143 328.787 143.95 330.139C142.756 331.497 140.082 333.685 140.082 333.685C140.082 333.685 139.181 340.448 145.115 341.863C151.055 343.293 153.979 340.169 155.502 336.037Z"
              fill="#006ECF"/>
        <path d="M144.263 330.668C146.436 328.559 146.214 323.354 141.053 320.859C135.899 318.371 130.558 319.251 126.67 321.445C122.788 323.633 120.807 326.779 121.372 330.024C121.937 333.277 130.237 334.814 134.69 334.922C139.158 335.029 142.526 332.341 144.263 330.668Z"
              fill="#00CEFF"/>
        <path d="M136.8 334.736C136.121 334.85 135.428 334.936 134.691 334.914C130.238 334.807 121.938 333.27 121.373 330.017C121.059 328.23 121.545 326.478 122.674 324.891C129.423 325.263 136.479 328.487 136.8 334.736Z"
              fill="#00B4E8"/>
        <path d="M203.977 326.378C203.999 326.257 205.321 324.176 202.655 321.209C199.995 318.243 194.619 317.649 192.839 318.643C191.059 319.644 189.873 319.98 188.85 319.351C187.821 318.729 182.717 318.1 179.171 319.437C175.625 320.773 173.781 324.698 173.659 326.736C173.537 328.78 175.06 332.963 180.057 333.885C185.047 334.814 195.363 334.471 197.665 333.52C199.967 332.577 203.305 330.503 203.977 326.378Z"
              fill="#00CEFF"/>
        <path d="M190.974 334.371C187.214 334.521 182.824 334.4 180.065 333.885C175.075 332.963 173.545 328.78 173.667 326.736C173.674 326.55 173.717 326.335 173.753 326.121C180.208 325.999 187.657 329.46 190.974 334.371Z"
              fill="#00B4E8"/>
        <path d="M274.021 135.69L268.746 125.946C268.746 125.946 248.936 134.117 242.266 144.012C235.589 153.906 238.013 159.282 243.646 162.127C249.279 164.966 254.319 163.286 254.319 163.286L253.462 156.594C253.462 156.594 250.252 156.315 249.658 152.247C248.8 146.321 274.021 135.69 274.021 135.69Z"
              fill="#006ECF"/>
        <path d="M239.107 150.01C239.751 148.222 240.773 146.235 242.274 144.012C248.944 134.117 268.754 125.946 268.754 125.946L270.641 129.442C261.898 133.76 247.236 141.095 239.107 150.01Z"
              fill="#3A98FF"/>
        <path d="M294.826 126.232L283.552 130.085C283.552 130.085 286.855 139.794 284.059 147.314C281.271 154.835 278.841 155.536 276.246 156.787C273.651 158.038 269.497 157.609 269.497 157.609L268.332 169.262C268.332 169.262 280.671 169.734 292.338 156.53C303.99 143.311 295.969 126.653 294.826 126.232Z"
              fill="#006ECF"/>
        <path d="M290.192 132.43C289.37 132.752 286.939 133.931 284.659 134.689C284.187 131.951 283.551 130.078 283.551 130.078L294.824 126.225C295.132 126.339 295.954 127.654 296.747 129.771C294.531 130.586 292.365 131.579 290.192 132.43Z"
              fill="#3A98FF"/>
        <path d="M268.91 167.475C270.861 164.122 271.655 156.179 265.9 152.376C258.108 147.222 253.418 152.555 254.205 161.934C254.998 171.321 265.007 174.188 268.91 167.475Z"
              fill="#008AFF"/>
        <path d="M257.38 157.852C255.957 158.882 254.921 160.219 254.199 161.72C253.505 152.483 258.174 147.279 265.901 152.383C269.068 154.471 270.248 157.809 270.348 160.962C267.789 157.123 261.162 155.107 257.38 157.852Z"
              fill="#4BAFFF"/>
        <path d="M107.884 166.131C107.884 166.131 98.655 166.717 95.6168 167.954C92.5785 169.198 89.0542 171.436 88.4108 172.937C87.7674 174.446 89.0613 264.489 89.4616 266.462C89.862 268.428 96.9965 272.531 101.829 274.033C106.669 275.555 113.253 278.336 113.253 278.336L107.884 166.131Z"
              fill="#006ECF"/>
        <path d="M89.3761 221.422C93.8942 230.037 99.4846 238.087 105.997 245.415C107.906 247.559 109.872 249.869 111.995 252.056L113.253 278.329C113.253 278.329 106.669 275.548 101.829 274.025C96.9968 272.517 89.8623 268.42 89.4619 266.454C89.2618 265.468 88.84 242.634 88.5469 219.771C88.8257 220.321 89.0902 220.879 89.3761 221.422Z"
              fill="#0051B0"/>
        <path d="M211.212 177.484C210.526 176.519 159.912 172.622 147.208 171.15C134.505 169.684 107.883 166.131 107.883 166.131L109.391 223.009L112.887 277.529C112.887 277.529 139.066 283.57 158.675 287.158C178.284 290.747 204.07 294.658 209.66 292.856C215.258 291.055 215.108 257.232 214.872 243.213C214.622 229.193 212.82 179.743 211.212 177.484Z"
              fill="#008AFF"/>
        <path d="M107.984 170.185L107.877 166.131C107.877 166.131 134.499 169.684 147.203 171.15C159.906 172.615 210.52 176.519 211.206 177.484C211.47 177.848 211.728 179.471 211.992 181.974C192.662 179.486 122.868 173.209 107.984 170.185Z"
              fill="#4BAFFF"/>
        <path d="M37.7968 121.192L33.8149 128.884C33.8149 128.884 41.5571 133.774 44.0091 147.829C46.454 161.884 43.0083 168.912 40.9423 172.622C38.8834 176.347 38.4044 178.456 38.4044 178.456C38.4044 178.456 31.37 179.035 23.7708 174.281C16.1645 169.52 6.24905 159.732 6.24905 159.732C6.24905 159.732 -6.15414 180.336 9.90925 196.5C25.9798 212.665 43.2156 185.512 43.2156 185.512L46.0251 193.548C46.0251 193.548 65.3412 181.902 62.8248 156.337C60.3155 130.779 46.7685 122.121 37.7968 121.192Z"
              fill="#006ECF"/>
        <path d="M61.0948 162.063C60.4943 153.67 58.8858 145.52 53.9031 138.414C50.1285 133.023 43.5588 127.19 36.3027 124.08L37.7968 121.192C46.7758 122.121 60.3156 130.779 62.8391 156.33C63.4897 162.914 62.6819 168.562 61.1377 173.337C61.5238 169.534 61.345 165.616 61.0948 162.063Z"
              fill="#3A98FF"/>
        <path d="M38.404 178.456C38.404 178.456 38.4469 178.256 38.5613 177.913C39.3262 177.913 40.0912 177.841 40.8632 177.705C28.0812 186.649 13.4547 176.712 4.02539 164.565C5.14775 161.563 6.24867 159.718 6.24867 159.718C6.24867 159.718 16.1641 169.505 23.7704 174.267C31.3696 179.035 38.404 178.456 38.404 178.456Z"
              fill="#3A98FF"/>
        <path d="M183.683 138.371L152.707 136.848C152.707 136.848 152.9 148.723 153.887 157.974C154.88 167.218 155.481 171.35 155.481 171.35L180.03 173.509C180.03 173.509 183.711 163.521 184.291 153.684C184.877 143.861 183.683 138.371 183.683 138.371Z"
              fill="#006ECF"/>
        <path d="M153.143 143.797C152.957 139.486 152.707 136.848 152.707 136.848L183.683 138.371C183.683 138.371 184.155 142.332 184.333 146.921C177.614 144.676 156.038 143.633 153.143 143.797Z"
              fill="#0051B0"/>
        <path d="M181.151 170.063C180.508 172.194 180.029 173.509 180.029 173.509L155.48 171.35C155.48 171.35 155.344 170.413 155.094 168.455C160.384 169.763 173.881 170.435 181.151 170.063Z"
              fill="#0051B0"/>
        <path d="M159.169 0.00719412C166.854 -0.207279 173.26 5.6264 173.481 13.0329C173.696 20.4394 167.648 26.6233 159.963 26.8307C152.278 27.0451 145.88 21.2115 145.658 13.805C145.437 6.39135 151.485 0.214518 159.169 0.00719412Z"
              fill="#00CEFF"/>
        <path d="M218.16 55.863C217.41 54.9837 162.95 58.3009 161.27 58.1222C159.59 57.9434 102.056 46.369 101.377 47.7702C100.698 49.1715 98.8752 133.116 99.7545 134.467C100.627 135.826 161.656 135.99 166.346 136.905C171.042 137.82 224.244 139.093 227.232 138.886C230.213 138.693 232.222 137.72 232.365 134.596C232.522 131.479 219.897 57.8934 218.16 55.863Z"
              fill="#00BEDF"/>
        <path d="M162.672 65.0139C159.791 64.7422 106.383 53.1321 101.078 51.7666C101.193 49.3859 101.293 47.9418 101.378 47.7702C102.05 46.369 159.591 57.9434 161.271 58.1222C162.951 58.3009 217.411 54.9908 218.161 55.863C218.405 56.149 218.869 57.8505 219.477 60.5672C215.802 60.6744 165.56 65.2784 162.672 65.0139Z"
              fill="#52E6FF"/>
        <path d="M147.996 59.838C148.575 59.7236 157.018 61.0391 161.3 62.5261C161.665 62.7977 160.857 67.5519 160.092 67.6162C159.327 67.6806 147.996 65.0283 147.567 64.4563C147.138 63.8844 147.41 59.9524 147.996 59.838Z"
              fill="black"/>
        <path d="M10.4452 198.502C23.1486 208.511 35.3373 198.631 43.0438 188.129C47.8478 212.05 76.1714 226.763 87.4879 229.193C87.2592 232.689 87.7381 264.031 89.2251 267.691C90.6978 271.352 99.5122 275.026 104.745 277.121C112.194 280.088 127.1 283.955 133.648 285.214C132.118 292.349 128.222 315.683 128.601 319.594C124.605 320.759 121.831 323.254 121.724 325.792C119.515 325.885 114.839 327.851 114.51 332.848C114.089 339.018 118.021 341.999 122.882 341.906C127.071 341.828 129.587 339.819 131.01 336.23C133.455 336.337 136.515 336.144 139.202 335.608C138.981 337.717 140.096 339.926 142.198 341.463C145.286 343.743 150.655 343.586 154.143 340.341C157.275 337.438 157.818 332.584 155.616 328.809C153.715 325.535 149.59 323.99 145.744 324.584C144.922 320.688 138.917 317.885 131.711 318.907C131.968 310.886 134.298 294.6 136.557 286.115C144.986 287.952 174.389 292.034 188.98 293.357C187.9 300.52 187.721 311.444 187.586 318.336C180.387 316.291 172.981 318.55 172.123 327.343C168.527 328.802 167.262 332.505 167.941 335.694C168.749 339.511 172.552 341.62 176.269 341.263C179.243 340.977 181.452 339.025 182.281 336.523C186.306 336.845 193.812 336.523 196.464 335.887C199.839 338.503 204.693 338.496 207.116 335.765C209.375 333.22 209.139 328.587 205.694 325.706C205.779 319.215 198.209 315.276 190.681 318.307C190.817 311.565 191.267 300.763 192.268 293.857C205.372 294.822 209.933 295.537 212.556 292.742C217.889 287.058 216.395 238.394 216.081 234.777C243.997 246.287 264.586 207.925 269.297 186.785C270.519 181.301 271.834 176.805 271.248 171.164C293.238 169.949 305.82 145.792 297.391 124.938C296.669 123.165 281.65 129.763 281.836 130.278C285.067 139.3 284.659 156.272 271.184 156.887C271.184 156.887 271.177 156.887 271.17 156.887C269.161 151.132 263.62 147.715 258.53 149.509C255.485 150.575 253.819 152.405 253.069 155.179C251.389 155.114 250.166 153.384 251.525 151.404C255.878 145.07 275.58 137.427 275.43 136.669C275.001 134.525 269.568 124.781 269.039 124.974C257.794 129.213 245.484 137.742 239.965 145.277C235.132 151.869 235.554 157.859 240.351 162.12C244.083 165.43 248.908 165.373 252.983 164.887C254.17 168.662 258.066 174.781 266.802 171.915C267.452 193.498 245.67 243.241 215.924 230.745C215.309 223.953 213.35 189.015 213.243 178.249C213.243 177.462 212.95 176.726 212.163 176.526C206.008 174.989 193.869 173.38 182.546 172.115C185.012 164.551 186.835 149.388 185.491 140.151C204.736 141.374 213.55 141.002 232.28 140.659C233.645 140.637 234.625 139.636 234.618 138.314C234.553 124.595 223.451 72.3561 219.891 56.3064C219.612 55.0624 218.933 53.9328 217.704 54.0901C211.155 54.9194 167.633 57.4431 161.764 57.2572C162.815 50.68 161.114 27.3239 160.37 23.0701C165.074 22.9986 171.587 19.0094 170.428 11.1168C168.641 -0.993771 151.627 -0.822191 149.032 8.63608C146.43 18.1587 153.95 23.1988 157.132 23.2131C157.968 27.7957 158.719 51.1447 158.025 57.0713C156.932 56.8425 101.021 43.967 100.07 45.8544C97.339 51.3091 96.9172 136.512 97.6106 137.234C98.3041 137.949 141.826 138.943 150.433 138.907C150.176 147.865 150.562 162.063 153.557 170.342C140.346 168.326 119.836 165.516 107.476 164.537C104.609 164.301 87.2949 167.325 87.2878 172.315C87.2592 192.332 87.6381 214.723 87.6881 225.218C77.9443 222.201 55.0252 211.749 48.3053 193.24C54.0315 187.9 59.3716 183.01 62.4957 173.995C64.9263 166.982 65.8127 158.281 64.5116 151.118C62.4456 139.708 57.1341 123.823 37.8823 120.141C36.1809 121.385 33.0783 126.475 33.0354 130.078C35.5232 132.409 39.5837 138.014 40.7776 141.173C42.4004 145.456 43.2654 150.088 43.4441 154.65C43.6228 159.332 43.1224 163.686 41.4996 168.118C40.3201 171.343 38.5543 174.109 37.1245 177.212C37.1245 177.226 37.1245 177.234 37.1174 177.248C32.6136 176.94 28.1456 175.06 24.2281 172.908C17.3366 169.119 10.1449 163.1 5.77698 156.787C5.50532 156.394 -9.7431 182.588 10.4452 198.502ZM252.554 157.688C252.447 158.739 252.454 159.804 252.597 160.869C237.406 162.985 229.406 144.977 268.603 127.283C270.019 129.821 271.248 132.065 272.292 134.796C267.581 137.342 259.474 141.481 256.279 143.547C252.168 146.199 249.537 148.201 248.379 151.49C247.314 154.528 249.137 157.18 252.554 157.688ZM270.755 167.611C271.935 164.572 272.156 161.684 271.72 159.118C282.35 159.211 290.4 143.99 284.981 130.864C287.054 129.778 292.058 127.905 294.568 127.369C299.136 140.058 294.796 164.916 270.755 167.611ZM266.344 168.19C263.985 169.527 260.532 169.734 257.58 166.052C254.627 162.371 254.992 154.12 258.945 152.591C262.906 151.054 267.009 154.213 268.189 157.523C269.361 160.841 268.703 166.86 266.344 168.19ZM141.118 335.193C141.354 335.122 142.398 334.621 142.627 334.521C142.469 336.08 143.849 337.695 146.058 338.089C148.267 338.475 151.942 337.617 151.949 333.213C151.956 329.767 148.61 327.744 145.908 328.931C146.23 328.137 146.258 326.786 146.208 326.235C148.725 325.485 152.699 327.043 154.115 329.853C156.052 333.706 154.765 337.617 151.842 339.418C146.916 342.449 140.747 340.255 141.118 335.193ZM141.033 322.046C143.313 323.247 144.636 326.099 143.477 329.595C142.319 333.084 135.607 333.892 131.274 333.556C131.196 331.125 129.645 326.435 123.89 325.871C125.848 320.144 136.364 319.594 141.033 322.046ZM151.284 134.303C137.58 134.275 102.379 133.946 101.593 133.324C100.813 132.702 102.579 50.2939 103.222 49.4432C103.701 48.8141 159.534 60.0096 163.008 60.1454C166.482 60.2813 216.124 57.5003 216.717 58.0221C217.325 58.5512 229.242 123.98 230.235 136.648C211.391 137.463 164.738 134.332 151.284 134.303ZM182.496 148.802C178.464 147.672 162.651 145.942 154.451 145.928C154.365 143.611 154.344 141.266 154.465 138.921C157.117 138.893 175.947 139.329 182.303 139.679C182.517 143.225 182.624 145.263 182.496 148.802ZM154.937 153.27C154.608 151.654 154.458 149.974 154.508 147.922C163.601 147.643 173.438 148.88 182.381 150.517C182.396 150.524 182.403 150.51 182.41 150.51C182.346 151.883 182.26 153.248 182.131 154.607C173.638 153.048 163.609 152.698 154.937 153.27ZM164.724 166.488C169.771 167.404 174.718 167.175 179.608 167.954C179.3 169.012 178.878 171.021 178.507 172.065C171.537 171.65 164.173 171.243 157.382 170.513C156.195 168.197 155.194 160.791 155.159 154.814C163.687 153.956 177.148 154.364 181.988 156.072C182.138 158.281 181.559 159.361 181.18 161.42C175.154 159.654 166.74 158.224 158.876 159.361C158.225 159.454 158.454 160.948 159.634 160.726C164.631 159.775 174.468 160.662 180.994 162.442C180.694 163.908 180.358 165.359 179.965 166.81C175.061 165.416 169.764 164.973 164.845 165.43C164.252 165.502 164.087 166.381 164.724 166.488ZM190.953 320.924C196.214 317.27 202.448 320.895 202.52 324.534C195.721 323.311 193.569 328.816 194.77 332.898C190.545 333.635 186.685 333.735 182.424 333.27C182.124 330.503 179.05 327.258 175.361 326.907C176.484 319.258 184.161 318.672 188.694 320.931C189.309 320.966 190.152 320.938 190.953 320.924ZM109.635 167.911C130.531 170.249 163.609 174.245 175.804 174.731C182.581 175.003 210.033 178.242 210.033 178.635C210.004 181.637 211.506 211.442 212.249 223.009C213.021 234.998 212.585 276.177 211.47 282.783C210.44 288.874 209.525 291.576 205.894 291.476C202.255 291.369 191.954 290.332 188.558 290.011C173.238 288.567 124.476 281.496 115.447 277.128C113.881 276.37 109.435 177.763 109.635 167.911ZM90.998 226.906C90.8479 216.718 89.9328 183.489 89.8185 172.987C89.797 171.15 102.558 167.361 106.775 167.682C106.868 176.812 108.598 261.972 111.215 274.983C107.047 273.868 94.9942 270.336 92.728 266.269C91.8702 264.71 91.2411 243.584 90.998 226.906ZM7.60708 190.574C1.32327 180.958 2.45278 169.391 6.71347 161.777C12.3753 169.52 20.046 173.995 23.792 175.847C29.847 178.835 39.5551 182.531 44.8524 176.39C44.9739 176.247 44.8453 175.94 44.6236 176.033C43.1081 176.683 41.5568 177.048 40.0055 177.191C41.7999 173.495 43.7443 170.092 44.8453 166.017C46.2321 160.884 46.0749 152.898 45.2313 147.658C44.3877 142.453 41.4996 134.653 35.0657 129.499C35.5518 127.526 36.9387 124.294 38.0825 122.643C53.9957 125.424 60.0079 139.022 61.5377 153.484C62.2884 160.605 60.4297 180.186 46.5109 189.108C46.5109 189.087 45.0597 184.647 44.0446 182.481C41.1851 186.685 34.5796 193.905 30.2045 196.315C22.3122 200.661 12.4969 198.073 7.60708 190.574Z"
              fill="black"/>
        <path d="M169.364 74.0363C179.058 66.9516 189.724 67.6379 197.523 70.8049C209.962 75.8593 213.429 90.1218 207.817 100.181C200.025 114.143 179.83 115.551 169.972 106.808C159.699 97.707 159.556 81.214 169.364 74.0363Z"
              fill="#0096C4"/>
        <path d="M171.73 76.3311C180.066 70.2329 189.245 70.8263 195.951 73.5501C206.652 77.8967 209.633 90.1575 204.801 98.8079C198.102 110.818 180.731 112.019 172.252 104.506C163.423 96.6846 163.302 82.5008 171.73 76.3311Z"
              fill="black"/>
        <path d="M172.923 100.431C180.079 108.481 194.87 106.329 200.539 98.529C204.685 92.824 203.906 85.4747 201.054 81.271C196.6 74.7081 186.077 71.8842 177.677 76.2309C168.441 81.0279 166.746 93.4745 172.923 100.431Z"
              fill="#DDF9D8"/>
        <path d="M129.008 68.1096C138.33 61.3394 151.598 64.0846 156.367 71.3624C163.601 82.4149 158.361 94.6328 147.867 98.3289C140.203 101.024 127.686 101.174 122.431 89.7714C119.586 83.5802 119.693 74.8869 129.008 68.1096Z"
              fill="#0096C4"/>
        <path d="M130.223 69.6108C138.544 63.5626 150.383 66.0148 154.629 72.5062C161.092 82.3719 156.409 93.2672 147.051 96.5701C140.21 98.9722 129.044 99.108 124.354 88.9348C121.809 83.4086 121.909 75.6589 130.223 69.6108Z"
              fill="black"/>
        <path d="M139.811 94.9831C147.946 94.5827 153.987 90.1002 154.595 82.8153C155.231 75.1657 151.378 70.4687 145.823 68.853C140.218 67.2159 134.614 68.3026 130.231 72.1202C120.745 80.3774 127.701 95.5836 139.811 94.9831Z"
              fill="#DDF9D8"/>
        <path d="M145.065 99.7586C150.205 104.806 161.922 108.416 172.902 110.711C186.571 113.564 195.471 113.964 196.429 114.121C197.387 114.278 194.921 124.402 180.652 127.097C166.383 129.792 148.618 124.773 143.421 116.745C138.223 108.716 144.328 99.0365 145.065 99.7586Z"
              fill="black"/>
        <path d="M192.975 116.888C192.968 116.888 190.924 116.688 188.464 116.416C187.8 118.189 186.62 121.027 185.977 122.529C188.464 121.47 191.302 118.983 192.975 116.888Z"
              fill="white"/>
        <path d="M184.426 123.008C185.248 121.349 186.592 118.303 187.371 116.309C184.94 116.044 182.345 115.744 180.951 115.53C180.165 117.689 178.221 122.15 177.041 124.502C179.579 124.302 182.088 123.844 184.426 123.008Z"
              fill="white"/>
        <path d="M175.59 124.573C177.02 121.642 178.893 117.038 179.629 115.351C176.72 114.879 174.918 114.636 172.016 114.05C170.6 117.052 168.499 122.114 167.369 124.016C170.536 124.602 172.28 124.688 175.59 124.573Z"
              fill="white"/>
        <path d="M165.545 123.701C166.925 121.613 169.284 116.723 170.507 113.792C170.163 113.721 165.681 112.706 164.516 112.448C162.865 115.694 160.784 119.554 159.154 122.071C160.555 122.536 165.267 123.644 165.545 123.701Z"
              fill="white"/>
        <path d="M163.137 111.941C161.65 111.59 159.777 110.99 157.882 110.325C157.268 111.898 152.964 119.218 152.85 119.469C154.444 120.319 155.931 120.877 157.554 121.485C159.512 118.361 161.514 115.251 163.137 111.941Z"
              fill="white"/>
        <path d="M151.82 118.704C152.506 117.403 155.888 111.669 156.839 109.939C154.916 109.246 153.021 108.502 151.57 107.909C150.369 109.746 148.088 112.827 146.58 114.865C147.981 116.423 149.654 117.517 151.82 118.704Z"
              fill="white"/>
        <path d="M145.68 113.521C147.346 111.347 148.661 109.439 150.291 107.28C148.196 106.286 147.224 105.528 145.501 104.091C143.435 107.43 144.057 111.011 145.68 113.521Z"
              fill="white"/>
        <path d="M201.261 189.509L200.575 207.982L166.082 206.788L166.775 186.62L201.261 189.509Z" fill="#0066CC"/>
        <path d="M204.451 186.249L203.765 204.722L169.271 203.528L169.972 183.353L204.451 186.249Z" fill="black"/>
        <path d="M170.973 201.998L202.177 203.085L202.749 187.771L171.545 184.998L170.973 201.998Z" fill="#00CEFF"/>
        <path d="M131.017 185.784C135.206 185.669 138.502 190.345 138.688 196.672C138.874 202.999 135.857 207.846 131.675 207.967C127.486 208.082 124.183 203.399 123.997 197.079C123.804 190.76 126.828 185.898 131.017 185.784Z"
              fill="#0066CC"/>
        <path d="M134.212 182.524C138.402 182.41 141.697 187.085 141.89 193.412C142.076 199.732 139.059 204.586 134.863 204.701C130.674 204.822 127.378 200.139 127.192 193.812C126.999 187.493 130.023 182.638 134.212 182.524Z"
              fill="black"/>
        <path d="M134.821 203.121C137.251 203.056 139.846 199.074 139.682 193.476C139.517 187.872 136.687 184.04 134.256 184.111C131.825 184.175 129.223 188.15 129.395 193.762C129.559 199.36 132.39 203.192 134.821 203.121Z"
              fill="#00CEFF"/>
        <path d="M160.213 210.849C174.046 210.477 185.548 218.37 185.841 228.464C186.142 238.552 175.125 247.073 161.292 247.459C147.459 247.838 135.964 239.939 135.664 229.844C135.371 219.757 146.387 211.235 160.213 210.849Z"
              fill="#0066CC"/>
        <path d="M163.408 207.596C177.241 207.21 188.744 215.11 189.037 225.204C189.337 235.299 178.321 243.813 164.488 244.192C150.662 244.571 139.159 236.678 138.859 226.584C138.566 216.496 149.575 207.975 163.408 207.596Z"
              fill="black"/>
        <path d="M164.438 242.333C177.213 241.983 187.379 234.319 187.114 225.261C186.85 216.196 176.241 209.104 163.473 209.455C150.705 209.812 140.532 217.469 140.804 226.534C141.062 235.592 151.67 242.684 164.438 242.333Z"
              fill="#00CEFF"/>
        <path d="M187.7 200.833C189.902 199.274 192.032 197.63 194.163 195.986C196.965 193.827 199.767 191.639 202.684 189.63L202.176 203.085L185.248 202.491C186.084 201.927 186.921 201.383 187.7 200.833Z"
              fill="#00B4E8"/>
        <path d="M139.674 193.426C139.681 193.448 139.681 193.462 139.681 193.476C139.846 199.074 137.244 203.056 134.82 203.12C133.154 203.163 131.303 201.39 130.252 198.459C133.762 197.437 137.022 195.757 139.674 193.426Z"
              fill="#00B4E8"/>
        <path d="M159.548 234.012C168.291 231.81 179.707 228.056 186.127 220.922C186.706 222.301 187.064 223.746 187.107 225.254C187.378 234.312 177.213 241.976 164.43 242.326C155.444 242.569 147.545 239.123 143.549 233.904C148.825 235.27 153.893 235.441 159.548 234.012Z"
              fill="#00B4E8"/>
        <path d="M184.856 84.2951C187.658 84.2236 189.988 86.1825 190.06 88.6775C190.131 91.1797 187.922 93.2601 185.12 93.3387C182.318 93.4174 179.987 91.4514 179.916 88.9563C179.844 86.4613 182.053 84.3737 184.856 84.2951Z"
              fill="black"/>
        <path d="M140.925 76.9674C142.948 76.9102 144.635 78.4472 144.692 80.3989C144.749 82.3506 143.162 83.9735 141.132 84.0307C139.109 84.0879 137.422 82.5437 137.364 80.5991C137.314 78.6474 138.909 77.0246 140.925 76.9674Z"
              fill="black"/>
        <path d="M175.232 63.4268C175.768 63.5412 179.121 64.1274 180.722 64.2704C180.637 63.8844 180.901 61.7325 180.858 61.3464C186.635 62.1686 192.482 62.1757 198.337 62.3402C198.03 63.7628 196.271 70.0541 195.907 70.1327C195.549 70.2042 174.231 68.9531 173.96 68.7601C173.695 68.5527 174.696 63.3124 175.232 63.4268Z"
              fill="black"/>
        <path d="M159.112 3.83905C162.737 3.73182 165.746 6.40558 165.847 9.80141C165.947 13.1972 163.094 16.0283 159.477 16.1284C155.86 16.2285 152.843 13.5547 152.743 10.166C152.643 6.76304 155.495 3.93199 159.112 3.83905Z"
              fill="#00CEFF"/>
        <path d="M156.659 8.77895C155.208 9.85132 154.085 11.1525 153.356 12.5751C152.992 11.8388 152.77 11.0166 152.749 10.1587C152.649 6.76291 155.501 3.93186 159.118 3.83892C161.949 3.76028 164.394 5.38313 165.373 7.72089C162.743 6.33396 159.283 6.8344 156.659 8.77895Z"
              fill="#52E6FF"/>
        <path d="M122.603 327.479C125.663 327.394 128.215 329.717 128.301 332.67C128.394 335.622 125.978 338.081 122.918 338.167C119.858 338.253 117.299 335.922 117.213 332.977C117.127 330.024 119.544 327.565 122.603 327.479Z"
              fill="#006ECF"/>
        <path d="M174.432 328.566C177.191 328.487 179.493 330.582 179.564 333.241C179.643 335.908 177.47 338.124 174.71 338.203C171.951 338.274 169.649 336.18 169.57 333.52C169.492 330.861 171.665 328.637 174.432 328.566Z"
              fill="#006ECF"/>
        <path d="M174.604 329.746C176.756 329.688 178.557 331.326 178.615 333.406C178.679 335.479 176.977 337.216 174.819 337.281C172.667 337.338 170.872 335.701 170.808 333.62C170.751 331.54 172.445 329.803 174.604 329.746Z"
              fill="black"/>
        <path d="M122.545 330.124C124.018 330.082 125.248 331.204 125.291 332.62C125.333 334.042 124.175 335.229 122.696 335.272C121.216 335.315 119.993 334.185 119.95 332.77C119.907 331.347 121.066 330.16 122.545 330.124Z"
              fill="black"/>
        <path d="M200.924 325.856C203.684 325.778 205.986 327.872 206.064 330.532C206.143 333.199 203.97 335.415 201.21 335.493C198.451 335.565 196.156 333.47 196.07 330.811C195.992 328.144 198.172 325.935 200.924 325.856Z"
              fill="#006ECF"/>
        <path d="M130.831 197.816C131.489 196.415 132.79 195.085 134.005 194.055C133.926 193.691 134.077 193.276 134.484 193.133C134.212 192.032 133.998 190.831 133.934 189.723C133.912 189.444 134.355 189.373 134.427 189.644C134.741 190.717 135.106 191.975 135.006 193.112C135.814 193.326 135.771 194.634 134.806 194.663C134.663 194.67 134.548 194.642 134.448 194.599C133.976 195.149 133.455 195.671 132.968 196.214C132.397 196.858 131.86 197.508 131.238 198.102C131.031 198.288 130.717 198.059 130.831 197.816Z"
              fill="black"/>
        <path d="M187.993 191.246C188.035 190.838 188.607 190.981 188.665 191.317C189.201 194.563 188.95 198.266 188.507 201.519C188.472 201.805 187.95 201.827 187.9 201.533C187.321 198.252 187.585 194.542 187.993 191.246Z"
              fill="black"/>
        <path d="M185.404 190.774C186.448 190.745 186.498 192.304 185.447 192.333C184.403 192.368 184.361 190.803 185.404 190.774Z"
              fill="black"/>
        <path d="M181.396 190.524C182.446 190.495 182.489 192.054 181.446 192.089C180.395 192.118 180.352 190.56 181.396 190.524Z"
              fill="black"/>
        <path d="M190.108 191.146C190.959 191.124 190.995 192.39 190.151 192.411C189.301 192.433 189.265 191.167 190.108 191.146Z"
              fill="black"/>
        <path d="M193.819 191.317L193.869 191.289C194.569 190.967 195.313 191.725 194.748 192.333C194.741 192.347 194.727 192.354 194.712 192.375C193.99 193.169 192.904 191.739 193.819 191.317Z"
              fill="black"/>
        <path d="M197.73 191.517L197.759 191.467C198.002 190.967 198.759 190.996 199.038 191.425C199.381 191.961 198.867 192.654 198.237 192.504C198.223 192.497 198.202 192.49 198.18 192.49C197.716 192.382 197.544 191.911 197.73 191.517Z"
              fill="black"/>
        <path d="M176.219 190.224C177.219 190.195 177.269 191.696 176.261 191.718C175.261 191.746 175.211 190.245 176.219 190.224Z"
              fill="black"/>
        <path d="M184.082 223.002C185.047 222.974 185.09 224.41 184.125 224.439C183.159 224.468 183.117 223.031 184.082 223.002Z"
              fill="black"/>
        <path d="M180.487 217.333C181.559 217.304 181.609 218.913 180.537 218.934C179.464 218.97 179.414 217.369 180.487 217.333Z"
              fill="black"/>
        <path d="M174.067 213.38C175.182 213.351 175.232 215.017 174.117 215.052C173.002 215.081 172.959 213.415 174.067 213.38Z"
              fill="black"/>
        <path d="M165.253 211.757C166.396 211.721 166.454 213.444 165.303 213.472C164.152 213.501 164.102 211.785 165.253 211.757Z"
              fill="black"/>
        <path d="M156.217 212.765C156.231 212.75 156.238 212.743 156.253 212.736C156.853 212.228 157.875 212.479 157.897 213.344C157.925 214.202 156.917 214.516 156.288 214.037C156.274 214.03 156.26 214.023 156.253 214.016C155.881 213.737 155.859 213.058 156.217 212.765Z"
              fill="black"/>
        <path d="M149.232 216.639C150.44 216.611 150.498 218.42 149.289 218.448C148.074 218.484 148.024 216.675 149.232 216.639Z"
              fill="black"/>
        <path d="M144.465 222.802C144.508 222.788 144.543 222.773 144.586 222.766C145.466 222.444 145.737 223.982 144.794 223.967V223.96C144.615 224.032 144.429 223.946 144.293 223.846C144.272 223.831 144.257 223.817 144.229 223.803C143.829 223.517 144.079 222.938 144.465 222.802Z"
              fill="black"/>
        <path d="M143.991 229.365C144.985 229.336 145.035 230.83 144.034 230.859C143.033 230.888 142.99 229.394 143.991 229.365Z"
              fill="black"/>
        <path d="M164.824 236.099C164.959 235.813 165.253 235.642 165.567 235.563C166.99 229.422 169.449 222.981 172.237 217.326C172.494 216.804 173.331 217.14 173.195 217.683C171.687 223.803 169.32 230.13 166.804 235.964C166.947 236.121 167.09 236.278 167.226 236.443C167.819 237.143 167.226 238.251 166.432 238.487C165.531 238.752 164.631 238.101 164.588 237.207C164.559 236.786 164.638 236.478 164.824 236.099Z"
              fill="black"/>
        <path d="M207.724 256.21C208.039 261.958 206.466 283.448 203.957 284.956C201.083 286.693 167.969 282.769 166.611 281.024C165.675 279.809 207.474 251.663 207.724 256.21Z"
              fill="#4BAFFF"/>
    </g>
    <defs>
        <clipPath id="clip0">
            <rect width="300" height="343" fill="white"/>
        </clipPath>
    </defs>
</svg>
