<svg width="169" height="190" viewBox="0 0 169 190" fill="none" xmlns="http://www.w3.org/2000/svg">
    <g clip-path="url(#clip0)">
        <path d="M167.692 155.908C167.308 155.142 153.654 145.565 152.884 144.607C151.923 141.543 146.538 118.559 144.423 113.387C145.769 110.323 144.423 106.301 141.346 105.152C138.077 103.811 134.808 106.109 133.654 108.216C130.384 110.131 118.654 117.984 115.384 119.9C114.231 118.942 112.884 118.176 111.538 118.176C111.154 112.047 110.577 105.726 110.192 99.5972C109.808 95.1919 109.615 91.3613 109.231 86.956C113.461 86.956 131.731 86.573 136.346 87.1476C136.923 87.1476 140.192 82.3593 140.192 82.1677C140.192 81.7847 139.231 81.0185 138.846 80.827C138.461 77.7625 137.308 60.7161 136.923 58.9923C142.115 56.6939 150.769 49.7988 151.538 47.8834C152.5 46.9258 156.923 42.329 158.269 41.1798C158.654 40.9883 155.577 37.5407 154.808 37.7322C154.615 37.7322 148.654 44.0528 147.692 45.202C149.231 42.5205 154.231 34.0931 155 31.6032C155 31.4117 150 29.1133 149.808 29.4963C147.115 34.0931 144.615 39.2645 142.115 44.0528C141.731 44.0528 141.154 44.0528 140.769 44.0528C140.961 41.7544 138.461 29.6879 138.269 29.6879C137.5 29.3048 133.269 31.2201 133.269 31.6032C133.269 31.9863 135.577 41.7544 137.115 44.4359C136.154 45.3935 135.384 46.3512 134.808 47.5004C134.423 46.5427 132.5 42.1375 131.731 40.9883C131.538 40.7968 130.577 40.9883 129.231 42.1375C127.884 43.2867 127.5 44.0528 127.692 44.2443C128.077 46.1597 130.769 52.2887 131.923 53.2463C131.154 54.9701 130 58.2262 130 58.6093C130 58.9923 130.961 63.3976 131.154 63.3976C131.346 63.5891 131.923 63.5891 132.115 63.7806C132.308 67.4197 133.654 78.7201 133.654 79.8693C133.461 80.2524 132.692 81.5931 132.692 81.5931C127.692 81.4016 113.269 81.0185 109.231 81.4016C109.231 80.4439 107.5 63.0145 106.923 54.9701C106.346 46.9258 104.615 42.1375 99.6153 36.9661C95.1922 32.3693 88.6537 29.4963 82.3076 29.4963C82.1153 28.5387 81.923 24.5165 81.923 22.9843C85.7691 20.3028 87.8845 15.323 88.6537 11.1093C88.846 7.08708 88.4614 0.383446 83.6537 0.000381032C79.2307 -0.382684 74.8076 5.36328 73.2691 9.38546C70.5768 8.61933 65.1922 6.32095 64.9999 6.12941C65.1922 5.17175 65.1922 4.59716 64.9999 3.83103C64.8076 2.87337 64.423 2.10724 63.6537 2.10724C61.923 1.72417 60.9614 3.63949 60.7691 4.98022C60.5768 5.93788 60.9614 7.08707 61.346 7.66167C61.7306 8.4278 62.6922 8.61933 63.4614 8.23627C64.0383 8.04474 64.423 7.47014 64.8076 7.08708C65.9614 8.23627 71.923 11.8754 72.4999 12.0669C70.5768 17.8129 70.3845 26.6234 78.6537 24.1334C78.6537 25.4742 78.846 28.5387 78.846 29.3048C71.7307 30.454 65.5768 35.4339 62.1153 41.5629C59.423 46.3512 57.8845 50.3734 57.8845 59.1838C57.6922 68.1859 57.1153 76.0387 56.923 81.2101C51.346 81.2101 37.1153 81.4016 31.5383 81.9762C31.346 81.5931 30.5768 80.2524 30.5768 80.2524C30.9614 78.9117 35.7691 62.0568 36.7307 57.6516C37.4999 57.077 38.6537 54.9701 39.0383 54.0125C39.2306 52.8633 39.2306 51.331 39.2306 49.9903C40.3845 49.9903 44.0383 49.4157 44.9999 49.0326C45.1922 49.0326 44.9999 44.6274 44.2306 44.6274C42.8845 44.6274 39.6153 45.202 38.846 45.5851C38.6537 42.9036 39.0383 39.8391 39.0383 37.3492C40.1922 36.0084 43.0768 32.7524 43.0768 32.3693C42.8845 31.7947 40.7691 29.6879 40.3845 29.8794C39.6153 30.2625 35.1922 34.8593 34.2306 36.0084C34.0383 32.7524 35.3845 27.581 35.7691 25.4742C34.6153 24.8996 30.7691 26.2403 30.7691 26.4318C30.5768 27.198 30.3845 27.7726 30.1922 28.5387C29.0383 28.7302 27.1153 29.3048 26.5383 29.8794C26.1537 32.5609 26.5383 38.4984 28.4614 40.6052C28.0768 40.7968 27.8845 40.9883 27.8845 41.1798C28.4614 44.6274 32.1153 51.5226 33.2691 53.4379C33.0768 54.5871 33.2691 56.1193 33.2691 56.6939C32.1153 61.0992 26.1537 81.4016 26.1537 83.7C26.1537 83.7 25.5768 84.4661 25.5768 84.6576C25.5768 84.8492 28.846 88.8714 29.2307 88.8714C29.6153 88.6798 29.9999 88.1052 29.9999 87.7222C33.846 87.9137 53.6537 87.9137 56.7306 87.9137C56.5383 92.5105 56.346 96.9157 56.346 101.512C56.1537 106.492 55.9614 111.472 55.7691 116.452C54.423 116.26 52.8845 116.835 51.7306 117.984C49.0383 116.26 39.0383 110.706 36.1537 109.174C34.9999 106.301 32.1153 103.428 28.0768 104.96C24.0383 106.492 23.4614 111.089 25.3845 114.537C23.846 119.325 18.6537 138.861 17.6922 144.033C13.846 145.948 1.73065 153.801 0.576806 154.95C-0.192425 156.099 -0.000116857 160.313 -0.000116857 160.504C3.26911 166.633 12.6922 168.549 19.8076 168.549C23.4614 168.549 27.1153 168.357 30.7691 167.783C35.5768 167.017 40.1922 165.101 40.5768 164.335C41.5383 162.803 41.346 158.589 40.7691 157.823C39.423 155.525 30.1922 148.055 24.6153 144.607C25.5768 140.777 31.346 119.325 31.5383 117.793C32.6922 117.601 33.6537 117.027 34.423 116.26C37.4999 118.176 45.9614 123.156 49.2307 125.262C49.8076 128.519 51.7307 132.158 54.9999 132.924C54.8076 136.563 54.6153 142.309 54.423 144.799C56.1537 148.438 61.923 152.46 63.846 153.035C63.846 156.482 63.6537 159.738 63.6537 163.569C57.4999 166.633 44.8076 175.827 44.6153 176.21C44.2307 177.168 44.8076 183.297 45.1922 184.254C45.5768 185.212 50.5768 189.234 61.5383 190.192C72.3076 191.15 84.9999 186.553 88.6537 181.19C88.846 179.658 88.4614 176.976 88.2691 176.785C83.2691 171.805 74.2307 165.293 71.923 163.76C71.7307 161.079 71.923 156.099 71.923 156.099C82.1153 159.738 89.9999 157.248 94.8076 155.716C101.731 153.418 110.577 148.629 113.269 142.5C113.461 140.777 112.884 137.329 112.884 135.414C116.538 134.839 118.654 131.008 118.461 127.178C122.308 124.879 132.308 118.75 135.192 116.452C135.961 117.41 137.5 117.601 138.461 117.793C140.577 127.369 142.692 136.946 144.423 146.523C141.731 148.438 130.577 156.674 128.461 159.355C128.269 160.121 128.269 164.144 128.654 164.91C131.154 169.123 138.654 169.698 142.884 170.081C147.692 170.464 154.423 168.74 158.846 167.208C162.5 165.867 167.115 163.186 168.461 161.271C168.269 160.121 168.077 156.482 167.692 155.908Z" fill="black"/>
        <path d="M62.4996 7.27813C61.538 7.08659 61.3457 5.55434 61.3457 4.78821C61.538 3.83055 62.3072 1.91522 63.6534 2.68135C64.038 2.87288 64.2303 3.63901 64.4226 4.40514C64.4226 5.3628 63.8457 7.46966 62.4996 7.27813Z" fill="#2BABBA"/>
        <path d="M43.0754 45.7762C43.46 46.1593 43.46 48.2661 43.46 48.4577C43.2677 48.6492 40.3831 49.0323 38.8447 49.2238C38.8447 48.2661 38.6523 47.3085 38.6523 46.5423C39.4216 46.1593 42.8831 45.5847 43.0754 45.7762Z" fill="#B3B3B3"/>
        <path d="M39.6137 162.994C39.4214 163.76 31.5368 165.867 29.4214 166.25C25.9599 166.825 22.4983 167.016 19.0368 167.016C15.383 167.016 11.9214 166.633 8.45989 165.292C3.07527 162.994 1.15219 160.504 0.959886 160.312C0.767578 159.929 0.767578 157.631 0.767578 156.29C1.3445 157.439 2.49835 158.206 3.65219 158.78C6.15219 160.312 9.03681 161.462 11.9214 162.036C20.9599 164.526 31.1522 162.994 39.6137 159.163C39.9983 159.929 39.9983 162.419 39.6137 162.994Z" fill="#B3B3B3"/>
        <path d="M39.4216 158.014C37.4985 158.972 32.3062 160.695 28.6523 161.462C24.2293 162.419 19.4216 162.419 14.9985 161.845C12.4985 161.462 9.9985 160.695 7.4985 159.546C5.76773 158.78 2.11388 157.248 1.15234 155.141C6.34465 151.502 11.9216 148.054 17.3062 144.99C18.2677 147.097 22.4985 147.097 23.8447 145.564C28.46 148.054 36.7293 154.949 39.4216 158.014Z" fill="#2BABBA"/>
        <path d="M23.0753 144.032C22.1137 145.373 19.4214 145.373 18.2676 144.224C19.6137 138.286 24.0368 121.814 25.7676 115.685C26.7291 116.643 28.2676 117.601 29.6137 117.792C28.6522 122.389 24.0368 140.01 23.0753 144.032Z" fill="#B3B3B3"/>
        <path d="M30.5764 115.302C28.6533 115.685 27.1149 113.962 26.1533 112.429C24.6149 109.939 25.5764 107.066 28.6533 105.917C31.7302 104.96 33.461 107.833 34.0379 109.173C34.8072 112.046 33.2687 114.728 30.5764 115.302Z" fill="#FF7800"/>
        <path d="M49.2299 122.772C45.7683 120.857 37.6914 116.643 35.1914 114.728C35.7683 113.579 36.1529 111.855 35.9606 110.706C39.0376 112.429 46.7299 116.643 50.3837 118.941C49.8068 119.899 49.2299 121.431 49.2299 122.772Z" fill="#B3B3B3"/>
        <path d="M54.8071 130.05C52.6917 129.476 51.5378 127.177 51.1532 125.454C50.7686 123.73 50.9609 122.006 51.5378 120.474C52.3071 118.558 53.6532 117.601 55.1917 117.601C55.1917 118.941 54.9994 127.56 54.8071 130.05Z" fill="#FF7800"/>
        <path d="M138.268 81.9756C138.268 82.3587 136.345 84.8486 135.961 85.0401C135.768 85.2317 133.653 82.5502 133.076 81.401C133.076 81.018 133.653 80.2518 133.845 80.2518C134.23 80.0603 138.268 81.5926 138.268 81.9756Z" fill="#2BABBA"/>
        <path d="M154.807 38.6895C154.999 38.6895 156.922 40.7963 156.922 40.7963C156.73 40.9878 152.115 45.5846 150.961 46.9253C150.192 46.3507 149.422 45.7762 148.461 45.3931C149.422 44.0524 154.422 38.881 154.807 38.6895Z" fill="#B3B3B3"/>
        <path d="M150.384 30.4535C150.576 30.262 153.461 31.7943 153.461 31.9858C153.461 32.1773 147.884 42.3285 146.538 44.8185C145.384 44.4354 144.23 44.0523 143.076 44.0523C145.384 38.881 149.422 31.2197 150.384 30.4535Z" fill="#B3B3B3"/>
        <path d="M134.23 31.7942C135 31.2196 136.538 30.645 137.307 30.4535C138.077 33.7095 139.23 40.2216 139.615 43.6692C139.038 43.6692 138.461 43.6692 137.884 43.8607C137.307 42.7116 135 35.6249 134.23 31.7942Z" fill="#B3B3B3"/>
        <path d="M128.461 43.8609C128.846 43.2863 130.192 41.9456 130.769 41.754C131.538 43.0948 133.269 47.3085 133.846 48.4577C133.461 49.2238 132.307 51.3306 132.115 51.7137C130.576 49.2238 129.038 45.7762 128.461 43.8609Z" fill="#B3B3B3"/>
        <path d="M133.654 51.5221C134.808 49.2237 137.692 45.01 137.885 45.01C138.077 44.8185 147.308 45.7762 149.615 48.0746C150 48.4576 141.731 54.9697 135.962 57.8427C135.577 58.0342 130.962 58.6088 130.769 58.2258C130.577 58.0342 132.5 53.629 133.654 51.5221Z" fill="#2BABBA"/>
        <path d="M131.538 62.4394C131.345 62.2479 130.768 59.3749 130.961 59.3749C131.153 59.3749 135.384 58.9919 135.384 59.1834C135.576 59.1834 135.961 61.8648 135.768 62.0564C135.768 61.8648 131.73 62.4394 131.538 62.4394Z" fill="#2BABBA"/>
        <path d="M132.5 63.2056C133.654 63.014 135.577 62.8225 135.962 62.8225C136.154 62.8225 136.923 76.0382 137.5 80.0604C136.923 79.8689 135.192 79.4858 134.231 79.2943C134.231 76.9959 132.885 66.8447 132.5 63.2056Z" fill="#B3B3B3"/>
        <path d="M136.346 66.0786C136.154 64.1632 135.962 62.8225 135.962 62.8225C135.577 62.8225 133.654 63.2056 132.5 63.2056C132.5 63.9717 132.692 65.3124 132.885 66.6532C134.038 66.4616 135.192 66.2701 136.346 66.0786Z" fill="#8C8C8C"/>
        <path d="M132.498 82.3587C132.883 83.1248 133.845 84.4656 134.229 85.2317C133.075 85.2317 113.845 84.6571 108.845 85.0402L108.652 81.9757C116.537 81.7841 124.422 81.9757 132.498 82.3587Z" fill="#B3B3B3"/>
        <path d="M67.1152 7.85278C69.0383 8.61891 74.0383 10.3427 76.7306 10.9173C76.5383 11.4919 76.1537 12.4496 75.5768 13.2157C74.0383 12.258 67.6922 8.42738 67.1152 7.85278Z" fill="#2BABBA"/>
        <path d="M64.4226 4.59681C64.4226 4.40528 64.4226 4.21375 64.2303 4.02222C64.2303 4.21375 64.038 4.40528 63.8457 4.59681C63.6534 4.97988 63.2688 5.55447 62.6919 5.55447C62.1149 5.74601 61.538 5.55447 61.3457 4.97988C61.3457 5.74601 61.538 7.08673 62.4996 7.08673C63.8457 7.4698 64.4226 5.36294 64.4226 4.59681Z" fill="#008A9B"/>
        <path d="M71.1523 10.5342C72.8831 11.4918 74.8062 12.8326 75.5754 13.4072C75.96 13.0241 76.1523 12.641 76.3447 12.0664C74.6139 11.6834 72.8831 11.1088 71.1523 10.5342Z" fill="#008A9B"/>
        <path d="M72.6916 21.0685C71.9224 19.3447 71.9224 15.131 72.8839 12.4496C73.6532 12.8326 74.4224 13.4072 75.1916 13.9818C74.6147 15.131 74.4224 15.3226 74.9993 15.131C77.307 14.9395 79.6147 10.3427 78.0762 8.23588C77.8839 8.04434 77.4993 8.04434 77.4993 8.23588C77.307 8.81047 77.307 9.5766 76.9224 10.1512C75.9608 9.95967 74.9993 9.76813 73.8455 9.38507C75.3839 5.74596 78.4608 1.14918 82.4993 0.574585C85.3839 1.91531 82.8839 9.95967 82.1147 12.0665C81.3455 14.1734 80.3839 16.0887 79.2301 18.004C78.6531 18.7701 78.0762 19.5363 77.307 20.3024C75.7685 22.0262 73.4608 22.9839 72.6916 21.0685Z" fill="#B3B3B3"/>
        <path d="M82.4991 0.95752C82.1145 0.95752 81.7299 1.14905 81.3453 1.14905C81.5376 3.25591 80.9607 5.55429 79.9991 7.66115C79.6145 8.42728 79.0376 9.00187 78.4607 9.768C78.653 12.0664 76.7299 15.1309 74.8068 15.3224C74.4222 15.3224 74.4222 15.1309 74.9991 14.1732C74.6145 13.9817 74.2299 13.5986 73.8453 13.4071C73.4607 13.4071 73.0761 13.5986 72.4991 13.7902C71.9222 16.4716 71.9222 19.5361 72.6914 21.0684C73.4607 22.7922 75.7684 22.0261 77.3068 20.4938C78.076 19.7277 78.653 19.1531 79.2299 18.1954C80.3837 16.2801 81.3453 14.3648 82.1145 12.2579C82.8837 10.3426 85.3837 2.29825 82.4991 0.95752Z" fill="#8C8C8C"/>
        <path d="M75.1914 22.9837C78.6529 22.0261 82.1145 14.5563 82.8837 12.4495C83.6529 10.5341 85.576 2.87284 83.076 0.95752C87.6914 1.53212 86.9222 8.04421 86.7299 10.3426C86.1529 14.5563 83.6529 18.5785 80.1914 21.2599C78.8453 22.4091 76.9222 23.1753 75.1914 22.9837Z" fill="#2BABBA"/>
        <path d="M84.0386 3.25591C85.0001 3.63897 85.7694 4.21357 86.5386 4.9797C86.154 3.06437 85.1924 1.34058 82.8848 0.95752C83.654 1.34058 84.0386 2.10671 84.0386 3.25591Z" fill="#82D6E3"/>
        <path d="M79.4222 19.1531C78.076 21.0684 76.7299 22.6006 75.1914 22.9837C76.9222 23.1752 78.8452 22.4091 79.9991 21.4514C82.3068 19.5361 84.2299 17.0462 85.3837 14.1732C84.2299 15.897 81.7299 18.3869 79.4222 19.1531Z" fill="#008A9B"/>
        <path d="M80.7679 29.1129C80.3833 29.1129 79.4217 29.3044 79.4217 29.3044C79.2294 28.3468 79.0371 24.8992 79.0371 23.9415C79.614 23.75 79.9987 23.5585 80.5756 23.1754C80.3833 24.3246 80.5756 27.3891 80.7679 29.1129Z" fill="#B3B3B3"/>
        <path d="M80.5756 26.2399C80.5756 25.0907 80.3833 23.9415 80.5756 23.1754C79.9986 23.5585 79.614 23.75 79.0371 23.9415C79.0371 24.5161 79.0371 25.4738 79.2294 26.623C79.614 26.4315 79.9986 26.2399 80.5756 26.2399Z" fill="#8C8C8C"/>
        <path d="M63.0765 42.5202C66.5381 36.1996 72.3073 31.6028 79.4227 30.6452C86.7304 29.496 94.615 32.752 99.2304 38.3064C101.538 40.9879 103.077 44.627 103.846 48.6492C103.846 57.8427 96.7304 64.9294 88.2688 67.994C83.0765 69.9093 77.3073 69.5262 71.9227 67.8024C68.6535 66.6532 65.7688 64.9294 63.2688 62.6311C62.115 61.6734 59.9996 59.7581 59.2304 58.0343C58.8458 53.629 60.1919 47.8831 63.0765 42.5202Z" fill="#2BABBA"/>
        <path d="M64.9997 40.9878C69.8074 35.6249 77.4997 32.3688 84.6151 32.9434C92.3074 33.518 98.8459 37.7317 102.5 44.4354C101.73 42.137 100.577 40.2216 99.2305 38.4979C94.6151 32.9434 86.9228 29.6874 79.4228 30.8366C72.3074 31.9858 66.5382 36.5825 63.0766 42.7116C62.4997 43.6692 62.1151 44.4354 61.7305 45.393C62.692 43.6692 63.8459 42.137 64.9997 40.9878Z" fill="#82D6E3"/>
        <path d="M60.7676 61.4819C62.6907 63.3972 65.1907 65.8871 67.306 66.8448C72.6907 69.9093 79.4214 71.4416 85.5753 70.2924C90.5753 69.3347 99.0368 65.6956 102.498 57.6512C103.075 59.375 103.652 63.2057 99.6137 67.8025C96.9214 71.0585 90.7676 73.3569 86.3445 73.9315C76.9214 75.2722 64.806 70.6754 60.7676 61.4819Z" fill="white"/>
        <path d="M59.0371 62.4395C61.1525 65.504 64.614 69.3346 67.691 71.25C73.8448 75.0806 79.4217 76.2298 85.3833 75.8467C97.114 75.2721 103.652 67.8024 104.999 61.8649C105.191 66.8447 105.768 72.0161 105.96 73.1653C104.999 78.3366 95.3833 85.6149 82.114 85.9979C73.0756 86.381 62.8833 80.635 59.0371 72.2076C59.0371 71.25 59.0371 64.7379 59.0371 62.4395Z" fill="#B3B3B3"/>
        <path d="M99.8063 71.8245C97.4987 73.9313 94.614 75.4636 91.5371 76.6128C91.7294 79.2942 91.7294 81.7841 91.9217 84.4656C95.3833 83.3164 98.2679 81.7841 100.576 80.0603C100.383 77.9535 100.191 76.0382 99.9987 73.9313C100.191 73.1652 99.9987 72.5906 99.8063 71.8245Z" fill="#D3D3D3"/>
        <path d="M103.652 77.379C104.998 76.0383 105.768 74.506 105.96 73.1653C105.768 72.0161 105.383 66.8447 104.998 61.8649C104.614 63.2056 104.037 64.7379 103.268 66.0786C103.46 69.9092 103.652 73.7399 103.652 77.379Z" fill="#8C8C8C"/>
        <path d="M61.9217 66.0786C60.7679 64.9294 59.9986 63.5886 59.2294 62.4395C59.2294 64.7378 59.0371 71.2499 59.0371 72.3991C59.8063 73.9314 60.7679 75.4637 61.9217 76.9959C61.9217 73.3568 61.7294 69.7177 61.9217 66.0786Z" fill="#8C8C8C"/>
        <path d="M35.9609 56.8851C35.384 56.6935 34.2302 56.502 33.6532 56.502C33.4609 55.9274 33.4609 54.5867 33.4609 53.8206C33.8456 53.8206 36.5379 54.3952 37.1148 54.3952C37.1148 54.5867 36.3456 56.502 35.9609 56.8851Z" fill="#2BABBA"/>
        <path d="M135.385 60.7157C135.577 60.7157 135.769 60.7157 135.962 60.5242C135.962 59.7581 135.769 59.1835 135.577 58.9919C135.385 58.9919 131.346 59.1835 131.154 59.1835C130.962 59.1835 131.154 60.1411 131.346 61.0988C132.692 60.9073 134.039 60.7157 135.385 60.7157Z" fill="#008A9B"/>
        <path d="M36.7293 55.5443C36.9216 54.9697 37.3062 54.3952 37.3062 54.3952C36.7293 54.3952 34.037 53.8206 33.6523 53.8206C33.6523 54.2036 33.6523 54.5867 33.6523 54.9698C34.6139 55.1613 35.5754 55.3528 36.7293 55.5443Z" fill="#008A9B"/>
        <path d="M39.9997 31.2197C40.5766 31.4113 41.3459 32.3689 41.5382 32.5605C40.7689 33.3266 38.2689 35.8165 37.692 36.7742C36.7305 36.5826 35.3843 36.7742 34.2305 37.1572C34.4228 36.7742 38.6535 32.1774 39.9997 31.2197Z" fill="#B3B3B3"/>
        <path d="M30.9604 27.389C31.345 27.0059 33.4604 26.4314 34.0373 26.6229C33.2681 29.6874 32.3066 35.4334 32.8835 37.5402C31.922 37.9233 31.1527 38.3064 30.3835 38.8809C29.8066 35.8164 30.3835 30.8366 30.9604 27.389Z" fill="#B3B3B3"/>
        <path d="M26.9232 30.4535C27.5001 30.0704 28.6539 29.6874 29.4232 29.4958C28.6539 32.7519 29.0385 36.9656 29.4232 39.264C29.2309 39.4555 28.6539 39.8386 28.4616 40.2217C27.3078 38.1148 26.7309 33.135 26.9232 30.4535Z" fill="#B3B3B3"/>
        <path d="M28.4609 41.5623C30.384 39.647 34.4225 37.7316 37.4994 37.9232C37.1148 40.9877 36.7302 48.2659 37.4994 53.4373C36.5379 53.0542 34.4225 52.6712 33.2686 52.8627C32.3071 50.9474 29.4225 44.0522 28.4609 41.5623Z" fill="#2BABBA"/>
        <path d="M145.768 48.649C146.537 49.0321 147.114 49.2236 147.883 49.6067C149.037 48.649 149.806 47.8829 149.614 47.8829C147.114 45.5845 138.076 44.6269 137.883 44.8184C137.883 44.8184 137.306 45.5845 136.537 46.5422C139.614 47.1168 142.691 47.4998 145.768 48.649Z" fill="#82D6E3"/>
        <path d="M37.4994 38.4979C37.4994 38.3064 37.4994 38.1149 37.4994 37.9233C34.4225 37.9233 30.384 39.8387 28.4609 41.5625C28.4609 41.754 28.6532 42.1371 28.8456 42.5201C31.5379 40.6048 34.4225 39.2641 37.4994 38.4979Z" fill="#82D6E3"/>
        <path d="M33.8448 57.4596C34.2294 57.4596 35.1909 57.6511 35.1909 57.6511C34.0371 61.6733 29.8063 76.9959 29.2294 80.4435C28.4602 80.8265 26.7294 82.3588 26.5371 82.5503C28.0756 78.5281 31.9217 63.014 33.8448 57.4596Z" fill="#B3B3B3"/>
        <path d="M28.4609 87.147C28.2686 87.3386 25.9609 84.4656 25.9609 84.2741C25.9609 84.0825 29.6148 81.018 29.6148 81.2095C29.8071 81.4011 30.1917 81.9757 30.384 82.1672C30.5763 82.3587 28.6532 86.9555 28.4609 87.147Z" fill="#2BABBA"/>
        <path d="M29.8066 86.3811C30.1913 85.2319 30.7682 83.8911 31.1528 82.742C36.7297 82.5504 50.9605 82.7419 56.5374 82.5504C56.5374 83.6996 56.5374 84.8488 56.3451 85.998C53.2682 86.3811 33.8451 86.3811 29.8066 86.3811Z" fill="#B3B3B3"/>
        <path d="M40.1917 46.1593C39.4225 46.3508 38.6532 46.3508 38.4609 46.5424C38.4609 47.5 38.6532 48.2662 38.6532 49.2238C39.2302 49.2238 39.9994 49.0323 40.5763 49.0323C40.5763 47.8831 40.384 46.9254 40.1917 46.1593Z" fill="#8C8C8C"/>
        <path d="M149.806 43.6693C149.037 44.4354 148.46 45.01 148.268 45.3931C149.229 45.7762 149.998 46.3508 150.768 46.9254C150.96 46.7338 151.345 46.3508 151.921 45.7762C151.152 45.2016 150.575 44.4354 149.806 43.6693Z" fill="#8C8C8C"/>
        <path d="M143.846 42.137C143.462 42.7116 143.269 43.2862 142.885 43.8608C144.039 44.0523 145.192 44.2438 146.346 44.6269C146.539 44.0523 147.116 43.2862 147.692 42.3285C146.539 42.3285 145.192 42.137 143.846 42.137Z" fill="#8C8C8C"/>
        <path d="M136.922 41.1792C137.306 42.52 137.691 43.4776 137.883 43.6691C138.46 43.6691 138.845 43.4776 139.614 43.4776C139.422 42.52 139.422 41.3708 139.23 40.03C138.46 40.6046 137.691 40.9877 136.922 41.1792Z" fill="#8C8C8C"/>
        <path d="M130.576 48.8405C131.153 49.7982 131.538 50.7558 132.115 51.522C132.307 51.1389 133.461 49.2236 133.845 48.2659C133.653 47.8829 133.268 46.9252 132.692 45.776C132.115 47.1167 131.345 48.0744 130.576 48.8405Z" fill="#8C8C8C"/>
        <path d="M131.345 84.8487C131.538 84.8487 131.73 85.0402 131.73 85.2318C133.268 85.2318 134.23 85.2318 134.422 85.2318C133.845 84.6572 132.884 83.1249 132.692 82.3588C131.922 82.3588 131.345 82.3588 130.576 82.3588C130.768 83.1249 131.153 83.891 131.345 84.8487Z" fill="#8C8C8C"/>
        <path d="M112.307 81.7842C111.153 81.7842 110 81.7842 108.846 81.7842L109.038 84.8487C109.807 84.8487 111.153 84.8487 112.692 84.8487C112.5 83.891 112.307 82.9334 112.307 81.7842Z" fill="#8C8C8C"/>
        <path d="M35.7679 35.2418C34.8063 36.1995 34.2294 36.7741 34.0371 36.9656C35.191 36.5825 36.5371 36.391 37.4986 36.5826C37.691 36.391 38.0756 36.008 38.4602 35.6249C37.691 35.4334 36.7294 35.4334 35.7679 35.2418Z" fill="#8C8C8C"/>
        <path d="M32.6923 34.8588C31.7308 35.2418 30.9615 35.6249 30 35.8164C30 36.7741 30 37.7317 30.1923 38.4979C30.9615 37.9233 31.7308 37.5402 32.6923 37.1572C32.6923 36.7741 32.6923 36.008 32.6923 34.8588Z" fill="#8C8C8C"/>
        <path d="M27.6914 37.5402C27.8837 38.4979 28.2683 39.4555 28.6529 40.0301C28.8453 39.8386 29.4222 39.4555 29.6145 39.0725C29.4222 38.1148 29.2299 36.7741 29.2299 35.0503C28.8453 36.008 28.2683 36.7741 27.6914 37.5402Z" fill="#8C8C8C"/>
        <path d="M34.6137 59.9495C34.806 58.9919 34.9983 58.2257 35.1907 57.6511C34.9983 57.6511 34.0368 57.4596 33.8445 57.4596C33.6522 58.0342 33.4599 58.6088 33.2676 59.3749C33.6522 59.5664 34.2291 59.758 34.6137 59.9495Z" fill="#8C8C8C"/>
        <path d="M32.6913 82.7418C32.1143 82.7418 31.5374 82.7418 31.1528 82.7418C30.7682 83.6995 30.1913 85.2317 29.8066 86.3809C30.3836 86.3809 31.1528 86.3809 32.1143 86.3809C32.3066 85.2317 32.4989 83.891 32.6913 82.7418Z" fill="#8C8C8C"/>
        <path d="M50.9609 82.7418C50.9609 83.891 50.9609 85.0402 50.9609 86.3809C53.6532 86.3809 55.7686 86.3809 56.5379 86.1894C56.5379 85.0402 56.5379 83.891 56.7302 82.7418C55.1917 82.7418 53.0763 82.7418 50.9609 82.7418Z" fill="#8C8C8C"/>
        <path d="M87.1155 180.423C81.7309 185.403 74.8078 188.085 65.7694 188.468C60.5771 188.659 56.3463 187.893 53.2694 186.936C50.1925 185.978 47.5001 184.254 45.7694 182.722C45.5771 181.573 45.3848 178.7 45.3848 178.508C46.154 179.657 47.5001 180.423 48.654 181.19C52.1155 183.488 55.7694 184.446 59.8078 185.212C64.8078 185.978 70.3848 185.403 75.1924 183.679C79.8078 181.956 84.8078 179.466 86.9232 177.359C86.9232 178.125 87.1155 179.849 87.1155 180.423Z" fill="#B3B3B3"/>
        <path d="M71.5386 165.292C75.7694 167.782 82.1155 172.57 86.154 176.593C83.2694 178.508 80.0001 180.615 76.7309 181.956C72.5001 183.871 68.4617 184.637 63.654 184.637C59.6155 184.637 55.3848 183.871 51.7309 182.147C49.8078 181.189 45.5771 178.7 45.3848 176.018C51.154 171.613 59.4232 166.25 63.654 164.143C63.2694 165.867 65.7694 167.016 67.1155 167.016C68.2694 167.016 70.7694 167.208 71.5386 165.292Z" fill="#2BABBA"/>
        <path d="M66.1526 130.242C63.4603 129.476 63.4603 125.454 63.6526 123.347C64.0373 121.24 67.1142 117.026 70.768 120.474C73.268 122.964 72.6911 132.157 66.1526 130.242Z" fill="#FF7800"/>
        <path d="M65.1909 131.583C66.537 132.349 68.6524 132.54 69.9986 131.966C70.1909 135.605 69.9985 160.312 70.3832 163.76C69.4216 164.909 65.7678 164.718 64.9986 163.568C64.6139 157.439 64.9986 132.54 65.1909 131.583Z" fill="#B3B3B3"/>
        <path d="M71.3457 130.816C72.6919 129.667 73.4611 127.752 73.6534 125.645C73.6534 124.879 73.6534 124.113 73.4611 123.347C74.8072 124.687 84.4226 131.583 84.8072 132.157C84.9996 132.349 85.5765 133.689 85.1919 134.647C84.8072 135.605 83.6534 136.562 83.0765 136.179C81.9226 135.796 73.6534 132.157 71.3457 130.816Z" fill="#B3B3B3"/>
        <path d="M85.5754 131.199C84.8062 130.625 83.46 129.667 81.9215 128.518C84.4215 126.794 86.9215 126.986 89.2292 129.859C91.1523 131.966 91.7292 135.03 91.1523 137.712C90.3831 140.776 88.0754 143.458 84.9985 144.032C80.5754 144.607 76.9215 140.201 77.6908 135.605C78.46 135.796 81.7292 137.52 83.2677 137.903C84.8062 138.286 86.3446 136.562 86.7292 135.222C86.9215 134.072 86.3446 131.774 85.5754 131.199Z" fill="#FF7800"/>
        <path d="M94.037 152.843C87.3062 155.333 78.2677 155.907 71.537 153.417C71.537 151.693 71.7293 134.839 71.537 132.54C72.8831 133.306 74.8062 134.264 76.1523 134.839C74.9985 140.393 78.2677 144.032 81.9216 145.181C86.537 146.522 90.3831 144.032 92.3062 140.202C94.4216 135.988 93.2677 131.2 89.9985 127.943C87.4985 125.454 83.8446 125.262 80.96 127.369C80.3831 126.986 75.1908 122.772 72.8831 121.048C71.9216 118.558 67.8831 116.068 64.2293 119.325C60.5754 122.581 61.537 128.518 64.037 130.625C64.037 133.689 63.6523 145.756 63.6523 149.97C61.537 149.012 57.1139 145.564 56.1523 142.883C56.537 139.052 58.8447 76.2298 58.8447 74.3145C64.037 83.3165 73.6523 86.9556 82.1139 86.9556C95.96 86.9556 104.998 79.1028 106.345 75.2721C106.729 79.8689 110.96 132.349 111.537 140.393C109.806 144.032 104.806 148.82 94.037 152.843Z" fill="#2BABBA"/>
        <path d="M101.345 91.1694C101.153 89.4456 101.153 88.4879 101.153 88.2964C98.4606 90.0202 95.576 91.5524 92.6914 92.5101C92.6914 93.0847 92.6914 93.8508 92.6914 94.8085C95.7683 94.2339 98.6529 92.8932 101.345 91.1694Z" fill="#82D6E3"/>
        <path d="M99.2308 99.4052C100.192 98.8306 100.962 98.256 101.731 97.4899C101.538 95.5745 101.538 93.6592 101.346 92.3185C98.6538 94.0423 95.7692 95.1915 92.5 95.7661C92.5 97.2983 92.6923 99.2136 92.6923 101.512C95 101.32 97.1154 100.746 99.2308 99.4052Z" fill="#82D6E3"/>
        <path d="M93.4609 116.643C94.2302 131.583 95.1917 148.629 95.384 152.46C99.4225 150.927 102.499 149.204 104.999 147.671C104.807 143.266 103.653 127.369 102.884 113.196C99.9994 115.111 96.9225 116.452 93.4609 116.643Z" fill="#82D6E3"/>
        <path d="M102.692 111.663C102.308 107.066 102.116 102.853 101.923 99.0221C101.346 99.5967 100.577 99.9798 99.8079 100.363C97.5002 101.704 95.3848 102.278 92.8848 102.661C93.0771 106.3 93.2694 110.706 93.4617 115.302C96.9232 115.302 100 113.77 102.692 111.663Z" fill="#82D6E3"/>
        <path d="M61.3456 78.1451C60.384 76.9959 59.4225 75.8467 58.6532 74.506C58.6532 76.4213 56.3456 139.244 55.9609 143.075C56.7302 144.99 59.0379 147.288 61.1532 148.82C60.384 125.262 61.3456 101.704 61.3456 78.1451Z" fill="#008A9B"/>
        <path d="M105.961 118.558C106.346 127.56 106.73 136.562 107.5 145.373C109.615 143.649 110.769 141.925 111.346 140.584C110.769 132.732 106.538 80.2518 106.153 75.4635C105.769 76.4212 105 77.5704 103.846 78.9111C104.23 92.3183 105.384 105.534 105.961 118.558Z" fill="#008A9B"/>
        <path d="M92.1149 140.393C90.1919 144.224 86.3457 146.714 81.7303 145.373C79.038 144.607 76.7303 142.5 75.9611 139.435C74.4226 138.861 72.8842 138.286 71.538 137.52C71.538 143.266 71.3457 152.268 71.3457 153.609C72.6919 154.183 74.038 154.375 75.3842 154.758C75.3842 151.31 75.1919 147.863 74.6149 144.607C74.4226 144.032 75.1919 143.649 75.5765 144.224C77.1149 146.331 78.4611 148.437 81.1534 148.821C84.6149 149.204 88.0765 148.054 89.9995 145.181C90.9611 143.649 91.7303 141.925 91.9226 140.01C92.3072 140.01 92.1149 140.202 92.1149 140.393Z" fill="#008A9B"/>
        <path d="M61.3447 80.4435C64.037 83.3165 67.4985 85.8064 71.1523 87.1471C78.0754 89.637 86.1523 90.2116 93.0754 87.7217C99.6139 85.4233 105.768 81.2096 106.152 76.4213C106.152 76.0382 106.152 75.8467 106.152 75.6552C104.806 79.4858 95.7677 87.3386 81.9216 87.3386C73.2677 87.3386 63.8447 83.6995 58.6523 74.6975C58.6523 74.889 58.6523 75.2721 58.6523 75.8467C59.6139 77.1874 60.1908 79.1028 61.3447 80.4435Z" fill="#008A9B"/>
        <path d="M116.152 125.837C116.537 129.859 114.229 132.54 112.499 132.923C112.499 132.54 111.537 120.282 111.537 119.708C113.268 119.899 115.576 121.814 116.152 125.837Z" fill="#FF7800"/>
        <path d="M118.075 125.071C117.883 123.538 117.114 122.198 116.152 120.857C119.422 118.941 130.383 111.663 133.075 109.748C132.498 111.472 132.691 113.196 133.652 114.728C131.922 116.452 121.345 122.964 118.075 125.071Z" fill="#B3B3B3"/>
        <path d="M136.731 114.919C134.423 113.962 133.654 111.472 134.807 109.173C135.961 106.875 137.884 104.96 140.769 105.917C143.846 107.066 144.231 110.897 142.115 113.962C140.961 115.494 138.461 115.685 136.731 114.919Z" fill="#FF7800"/>
        <path d="M34.0377 109.365C34.0377 109.173 33.8454 108.982 33.6531 108.599C33.6531 109.173 33.6531 109.748 33.4608 110.131C32.6916 112.238 29.9992 112.812 28.2685 111.663C27.1146 110.897 26.3454 109.939 25.7685 108.79C25.3839 109.939 25.5762 111.28 26.3454 112.429C27.1146 113.962 28.8454 115.685 30.7685 115.302C33.2685 114.728 34.8069 112.046 34.0377 109.365Z" fill="#C45700"/>
        <path d="M51.1523 125.837C51.537 127.56 52.8831 129.667 54.8062 130.05C54.8062 128.326 54.9985 124.113 55.1908 121.048C54.2293 122.964 53.0754 124.687 51.1523 125.837Z" fill="#C45700"/>
        <path d="M71.9225 123.921C71.1532 126.028 69.0379 128.327 66.5379 127.752C65.1917 127.369 64.0379 126.411 63.4609 125.262C63.4609 127.369 64.0379 129.859 65.9609 130.433C70.7686 131.583 72.4994 127.369 71.9225 123.921Z" fill="#C45700"/>
        <path d="M79.9989 140.968C82.6912 140.01 87.1143 137.52 86.7296 134.647V134.839C86.1527 136.371 84.6143 138.095 83.2681 137.52C81.7296 137.137 78.4604 135.413 77.6912 135.222C77.3066 137.329 77.8835 139.627 79.2297 141.159C79.422 141.159 79.8066 141.159 79.9989 140.968Z" fill="#C45700"/>
        <path d="M90.1908 131.199C90.96 134.264 90.5754 137.328 88.46 140.01C86.3447 142.691 84.037 143.074 81.1523 143.266C82.3062 143.841 83.46 144.224 84.8062 144.032C87.8831 143.649 90.1908 140.776 90.96 137.712C91.7293 135.413 91.3447 133.115 90.1908 131.199Z" fill="#C45700"/>
        <path d="M112.115 126.794C112.308 129.859 112.5 132.732 112.5 132.923C113.461 132.732 114.808 131.583 115.577 129.859C114.231 129.284 113.077 128.135 112.115 126.794Z" fill="#C45700"/>
        <path d="M142.691 111.28C140.96 112.812 138.075 113.387 136.152 112.046C135.383 111.472 134.806 110.897 134.614 110.323C134.229 112.238 134.998 114.345 136.921 115.111C138.652 115.877 140.96 115.685 142.114 114.153C142.883 113.004 143.268 111.855 143.46 110.706C143.075 110.706 142.883 111.089 142.691 111.28Z" fill="#C45700"/>
        <path d="M140 117.218C141.538 117.026 142.885 116.26 143.654 114.919C144.615 118.367 150.962 143.075 151.154 145.373C150.577 146.905 147.885 147.863 145.962 146.522C144.615 140.01 140.962 121.623 140 117.218Z" fill="#B3B3B3"/>
        <path d="M29.0385 120.665C29.4231 119.516 29.6154 118.558 29.8077 117.792C28.2692 117.601 26.7308 116.834 25.9615 115.685C25.7692 116.643 25.3846 117.792 25 119.324C26.1538 120.091 27.5 120.665 29.0385 120.665Z" fill="#8C8C8C"/>
        <path d="M36.3453 115.494C37.1145 114.153 37.3068 112.812 37.3068 111.28C36.7299 111.089 36.3453 110.706 35.9606 110.514C36.1529 111.855 35.7683 113.387 35.1914 114.536C35.576 114.919 35.9606 115.302 36.3453 115.494Z" fill="#8C8C8C"/>
        <path d="M69.9991 135.413C69.9991 133.881 69.9991 132.732 69.9991 131.966C68.6529 132.54 66.5376 132.349 65.1914 131.583C65.1914 131.774 65.1914 133.115 65.1914 135.03C66.7299 135.605 68.4606 135.796 69.9991 135.413Z" fill="#8C8C8C"/>
        <path d="M71.3457 130.816C71.7303 131.008 72.3072 131.391 73.0765 131.774C74.6149 129.667 75.3842 127.369 74.9996 124.687C74.2303 124.113 73.8457 123.73 73.4611 123.347C73.6534 124.113 73.6534 124.879 73.6534 125.645C73.4611 127.56 72.6919 129.476 71.3457 130.816Z" fill="#8C8C8C"/>
        <path d="M75.9609 133.115C79.0379 134.647 82.4994 135.988 83.2686 136.371C83.8456 136.562 84.9994 135.796 85.384 134.839C85.384 134.647 85.384 134.456 85.5763 134.264C82.3071 134.073 79.0379 133.689 75.9609 133.115Z" fill="#8C8C8C"/>
        <path d="M117.691 119.899C117.114 120.282 116.537 120.665 116.152 120.857C117.306 122.198 117.883 123.538 118.075 125.071C118.46 124.879 119.037 124.496 119.614 124.113C119.229 122.581 118.46 121.24 117.691 119.899Z" fill="#8C8C8C"/>
        <path d="M144.423 117.601C144.038 116.452 143.846 115.494 143.654 114.919C142.885 116.26 141.538 117.026 140 117.218C140.192 117.792 140.192 118.558 140.577 119.516C141.923 119.133 143.269 118.558 144.423 117.601Z" fill="#8C8C8C"/>
        <path d="M129.615 159.163C132.308 156.673 141.538 149.395 144.615 147.097C145.577 149.778 151.731 149.395 152.884 146.331C155 148.246 165 155.716 166.154 156.482C159.038 161.27 151.538 163.76 143.077 163.568C138.461 163.568 131.731 162.419 129.615 159.163Z" fill="#2BABBA"/>
        <path d="M36.9216 159.163C37.8831 158.78 38.8447 158.397 39.4216 158.014C36.7293 154.95 28.46 148.054 24.037 145.756C24.037 145.756 23.8447 145.948 23.6523 145.948C28.2677 150.161 32.6908 154.567 36.9216 159.163Z" fill="#82D6E3"/>
        <path d="M84.6137 177.55C85.1907 177.167 85.5753 176.784 86.1522 176.401C82.1137 172.57 75.7676 167.782 71.5368 165.101C71.3445 165.484 71.1522 165.867 70.7676 166.058C71.5368 167.016 83.0753 176.401 84.6137 177.55Z" fill="#82D6E3"/>
        <path d="M164.615 157.439C165 157.056 165.577 156.865 165.961 156.482C164.807 155.524 154.807 148.054 152.692 146.331C152.5 146.905 152.115 147.288 151.73 147.671C154.23 150.161 163.269 156.29 164.615 157.439Z" fill="#82D6E3"/>
        <path d="M5.76878 158.78C10.7688 155.524 14.8072 150.736 19.038 146.522C18.2688 146.331 17.6919 145.756 17.4995 145.181C12.1149 148.246 6.53801 151.693 1.3457 155.333C1.92263 156.673 4.03801 158.014 5.76878 158.78Z" fill="#008A9B"/>
        <path d="M49.9991 181.189C54.9991 176.21 59.2299 170.464 63.653 165.101C63.4606 164.718 63.4606 164.526 63.4606 164.143C59.2299 166.25 51.1529 171.613 45.1914 176.018C45.576 178.125 48.076 180.04 49.9991 181.189Z" fill="#008A9B"/>
        <path d="M134.231 162.228C135.769 160.695 137.115 159.163 138.654 157.631C141.346 154.758 144.038 151.693 146.538 148.629C145.577 148.437 144.808 147.863 144.615 147.097C141.538 149.395 132.308 156.673 129.615 159.163C130.384 160.504 132.115 161.462 134.231 162.228Z" fill="#008A9B"/>
        <path d="M146.152 167.974C141.729 168.357 131.922 167.974 129.229 163.377C129.229 163.377 129.037 161.653 129.037 160.696C132.114 163.952 138.845 164.718 142.691 164.718C150.383 164.909 159.806 161.845 166.345 157.439C166.345 158.014 166.729 159.546 166.729 160.121C165.191 162.036 157.114 167.016 146.152 167.974Z" fill="#B3B3B3"/>
        <path d="M77.8843 61.6733C77.4997 61.6733 77.3074 61.6733 76.9228 61.6733C76.7305 58.2257 76.1535 53.4374 72.4997 51.9052C70.5766 51.139 68.8459 51.139 67.1151 52.2882C65.7689 53.2459 64.9997 55.5443 64.9997 56.885C64.6151 56.5019 64.2305 56.6935 64.2305 56.6935C65.5766 60.9072 74.0382 63.9717 77.8843 62.0564C78.2689 62.0564 78.0766 61.6733 77.8843 61.6733Z" fill="black"/>
        <path d="M65.7676 57.4596C65.7676 55.5443 67.1137 51.7136 70.1907 52.0967C69.4214 52.4797 68.6522 53.6289 68.6522 54.7781C68.6522 56.5019 69.6137 57.8426 71.3445 58.4172C72.6907 58.8003 74.4214 58.2257 74.9984 57.0765C75.383 58.6088 75.7676 60.3326 75.7676 61.6733C73.0753 61.8648 68.0753 60.141 65.7676 57.4596Z" fill="white"/>
        <path d="M92.8832 56.6936C92.6909 56.8851 92.3063 57.0767 92.1139 57.2682C91.1524 53.8206 87.4986 50.373 83.8447 50.9476C81.537 51.3307 79.9986 53.246 79.614 55.3529C79.2293 57.0767 79.037 59.9496 79.9986 61.6734C79.2293 61.6734 79.4216 62.0565 79.4216 62.0565C83.2678 64.1634 91.7293 61.4819 93.4601 57.0767C93.4601 56.6936 93.2678 56.5021 92.8832 56.6936Z" fill="black"/>
        <path d="M86.7302 60.7156C84.8071 61.4818 82.884 61.6733 80.961 61.6733C79.9994 58.8003 79.8071 54.012 83.0763 52.2882C82.6917 52.8628 82.4994 54.2035 82.4994 54.9697C82.6917 57.0765 84.2302 58.6088 86.7302 58.2257C88.4609 58.0342 89.6148 55.9273 89.6148 54.3951C90.384 55.3527 91.1533 56.6935 91.3456 57.8426C90.1917 58.9918 88.6532 60.141 86.7302 60.7156Z" fill="white"/>
        <path d="M76.7302 47.883C75.5763 46.1592 73.2686 45.5846 71.3456 45.7762C68.4609 45.9677 66.1532 47.883 65.9609 49.6068C66.1532 49.7983 66.9225 50.9475 67.4994 51.5221C69.6148 49.2237 73.8456 49.0322 75.7686 50.3729C75.9609 49.7983 76.3456 48.6491 76.7302 47.883Z" fill="#008A9B"/>
        <path d="M75.3845 46.7337C74.2306 45.0099 71.9229 44.4353 69.9999 44.6269C67.1152 44.8184 64.8075 46.7337 64.6152 48.4575C64.8075 48.6491 65.5768 49.7982 66.1537 50.3728C68.2691 48.0745 72.4998 47.8829 74.4229 49.2236C74.6152 48.6491 74.9998 47.4999 75.3845 46.7337Z" fill="black"/>
        <path d="M65.9606 49.2237C65.7683 49.0321 65.3837 48.6491 65.1914 48.0745C65.3837 47.1168 67.3068 45.393 69.8068 45.2015C71.9222 45.01 73.4606 45.5846 74.6145 46.5422C74.4222 46.9253 74.2299 47.6914 74.0375 47.8829C72.6914 47.1168 68.4606 46.3507 65.9606 49.2237Z" fill="#82D6E3"/>
        <path d="M92.8839 50.1815C91.73 47.8831 89.6146 45.9677 86.9223 45.0101C84.8069 44.244 82.3069 44.627 80.5762 46.5423C80.7685 47.1169 81.5377 48.6492 82.1146 49.0323C83.6531 47.6915 87.3069 46.9254 90.5762 51.9052C90.5762 51.9052 92.3069 50.9476 92.8839 50.1815Z" fill="#008A9B"/>
        <path d="M91.5382 48.266C90.3843 45.9677 88.0766 44.0523 85.5766 43.0947C83.4612 42.3285 80.7689 42.7116 79.2305 44.6269C79.4228 45.2015 80.192 46.7338 80.7689 47.1169C82.3074 45.7761 85.9612 45.01 89.2305 49.9898C89.2305 50.1814 90.9612 49.2237 91.5382 48.266Z" fill="black"/>
        <path d="M85.7682 45.5847C84.2297 44.8185 82.1143 45.0101 80.5759 46.1593C80.3836 45.7762 80.1913 45.3931 79.8066 45.0101C80.9605 43.8609 82.6913 43.0948 85.1913 43.8609C87.3066 44.4355 89.2297 46.3508 90.5759 48.2661C90.3836 48.4577 89.6143 49.0323 89.2297 49.2238C88.6528 47.6915 87.3066 46.3508 85.7682 45.5847Z" fill="#82D6E3"/>
        <path d="M87.4985 52.8629C86.7293 52.8629 86.1523 53.4375 86.1523 54.2036C86.1523 54.9698 86.7293 55.5444 87.4985 55.5444C88.2677 55.5444 88.8447 54.9698 88.8447 54.2036C88.8447 53.4375 88.2677 52.8629 87.4985 52.8629Z" fill="white"/>
        <path d="M85.5769 55.1613C85.1923 55.1613 85 55.3528 85 55.7359C85 56.1189 85.1923 56.3104 85.5769 56.3104C85.9615 56.3104 86.1538 56.1189 86.1538 55.7359C86.1538 55.5443 85.7692 55.1613 85.5769 55.1613Z" fill="white"/>
        <path d="M73.0757 53.629C72.3065 53.629 71.9219 54.2036 71.9219 54.7782C71.9219 55.3528 72.4988 55.9274 73.0757 55.9274C73.8449 55.9274 74.2296 55.3528 74.2296 54.7782C74.4219 54.2036 73.8449 53.629 73.0757 53.629Z" fill="white"/>
        <path d="M71.5379 55.7358C71.3456 55.7358 70.9609 55.9274 70.9609 56.3104C70.9609 56.502 71.1532 56.885 71.5379 56.885C71.7302 56.885 72.1148 56.6935 72.1148 56.3104C72.1148 55.9274 71.7302 55.7358 71.5379 55.7358Z" fill="white"/>
        <path d="M98.8453 66.8448C98.6529 65.5041 98.4606 64.1633 97.8837 62.8226C97.8837 62.6311 97.6914 62.6311 97.6914 62.8226C97.8837 63.7803 98.076 64.9295 98.2683 65.8871C98.4606 67.2279 98.2683 68.7601 98.6529 69.9093C98.6529 70.1008 98.8453 70.1008 98.8453 69.9093C99.0376 69.1432 98.8453 67.994 98.8453 66.8448Z" fill="black"/>
        <path d="M92.4998 67.0362C92.4998 66.8447 92.1152 66.8447 92.1152 67.0362C92.1152 68.9516 92.8845 70.8669 92.8845 72.9737C92.8845 73.3568 93.4614 73.3568 93.4614 72.9737C93.4614 71.0584 93.0768 68.9516 92.4998 67.0362Z" fill="black"/>
        <path d="M86.5374 72.3991C86.3451 71.4414 86.3451 70.2922 86.1528 69.3346C86.1528 69.143 85.9605 69.143 85.9605 69.3346C85.7682 70.4838 85.9605 71.4414 86.1528 72.5906C86.3451 73.3567 86.3451 74.3144 86.7297 74.889C86.7297 75.0805 86.9221 74.889 86.9221 74.889C87.1144 73.9313 86.7297 73.1652 86.5374 72.3991Z" fill="black"/>
        <path d="M79.9988 72.782C79.9988 71.8244 79.8065 70.8667 79.8065 69.7175H79.6142C79.4219 70.8667 79.4219 72.0159 79.4219 73.1651C79.4219 73.7397 79.4219 74.8889 79.9988 75.272H80.1911C80.3834 74.5058 79.9988 73.5482 79.9988 72.782Z" fill="black"/>
        <path d="M74.4219 71.4415C74.4219 70.4838 74.6142 69.5261 74.2296 68.76H74.0373C73.6526 69.3346 73.845 70.1007 73.845 70.8669C73.845 71.633 73.845 72.5906 74.0373 73.3568C74.0373 73.5483 74.4219 73.5483 74.4219 73.3568C74.4219 72.5906 74.4219 72.0161 74.4219 71.4415Z" fill="black"/>
        <path d="M70.1925 67.4192C70.1925 67.4192 70.0002 67.4192 70.1925 67.4192C69.8078 68.1853 69.8078 69.143 69.8078 69.9091C69.8078 70.4837 69.6155 71.4414 70.0002 72.016C70.0002 72.2075 70.1925 72.016 70.1925 72.016C70.3848 71.4414 70.1925 70.6752 70.1925 69.9091C70.1925 69.143 70.3848 68.1853 70.1925 67.4192Z" fill="black"/>
        <path d="M66.1526 67.0362C66.1526 66.4616 66.1526 66.0785 65.9603 65.5039C65.9603 65.5039 65.768 65.3124 65.768 65.5039C65.5757 66.0785 65.5757 66.4616 65.5757 67.0362C65.5757 67.6108 65.3834 68.1854 65.5757 68.5685C65.5757 68.76 65.768 68.76 65.768 68.5685C66.3449 68.1854 66.1526 67.6108 66.1526 67.0362Z" fill="black"/>
        <path d="M63.46 64.7378C63.46 64.3547 63.46 63.9717 63.46 63.5886C63.46 63.3971 63.2677 63.3971 63.2677 63.5886C62.8831 64.1632 63.0754 65.1209 63.0754 65.887C63.0754 66.0785 63.6523 66.0785 63.6523 65.887C63.6523 65.5039 63.6523 65.1208 63.46 64.7378Z" fill="black"/>
        <path d="M137.307 107.641C138.461 106.3 140.577 106.683 141.346 108.216C142.307 109.556 135.961 109.365 137.307 107.641Z" fill="#FFB273"/>
        <path d="M64.8066 123.347C64.8066 122.006 66.5374 119.707 68.0759 120.665C70.1913 122.006 64.8066 126.028 64.8066 123.347Z" fill="#FFB273"/>
        <path d="M27.8844 108.024C28.269 106.683 30.769 106.3 31.5382 107.833C32.3074 109.365 27.3074 109.939 27.8844 108.024Z" fill="#FFB273"/>
    </g>
    <defs>
        <clipPath id="clip0">
            <rect width="168.077" height="190" fill="white"/>
        </clipPath>
    </defs>
</svg>
