<svg width="147" height="214" viewBox="0 0 147 214" fill="none" xmlns="http://www.w3.org/2000/svg">
    <g clip-path="url(#clip0)">
        <path d="M7.57447 108.839C7.03349 109.39 6.763 110.492 7.30398 111.318C7.57447 111.594 7.84496 111.869 8.11545 112.145C7.84496 113.522 6.76299 114.348 5.68103 114.624C4.32858 114.899 3.24662 114.348 2.70564 112.696C2.16466 112.696 1.0827 112.971 0.541723 112.971C1.35319 116.277 3.51711 117.654 5.95152 117.103C8.11545 116.552 10.2794 114.348 9.73839 111.869C10.0089 111.869 10.2794 111.594 10.2794 111.594C10.5499 111.594 10.8203 111.318 10.8203 111.043C11.9023 111.043 13.7957 110.767 15.4187 110.767C15.4187 112.145 15.6892 113.522 15.9597 114.899C17.0416 115.726 20.2875 117.378 21.9104 117.378C22.1809 117.378 22.7219 117.378 22.9924 117.103C22.9924 119.858 22.9924 124.54 22.9924 127.019C22.7219 127.295 22.4514 127.57 22.4514 128.121C18.6646 128.948 17.3121 131.427 17.5826 134.457C17.8531 138.589 20.558 141.068 23.8039 141.068C23.8039 140.517 23.8039 139.14 23.8039 138.313C21.64 137.487 20.558 136.11 20.8285 134.181C20.8285 132.253 21.64 131.427 23.2629 130.876C24.0744 131.702 25.1563 131.978 26.2383 131.427C26.7793 131.151 27.0498 130.876 27.3202 130.325C28.9432 130.876 30.0251 132.253 30.2956 133.906C30.5661 135.559 29.7547 136.936 27.5907 137.487C27.5907 138.313 27.5907 139.415 27.8612 140.241C31.9186 139.691 34.0825 136.66 33.812 133.63C33.5415 130.876 30.5661 127.57 27.5907 128.121C27.5907 127.846 27.3202 127.57 27.0498 127.295C26.7793 127.019 26.7793 127.019 26.5088 126.744C26.5088 124.54 26.5088 119.858 26.5088 116.277C31.1071 115.45 36.5169 114.624 37.0579 114.624C39.4923 117.378 44.6316 122.337 45.7136 123.439C45.7136 129.223 45.7136 134.732 45.7136 140.517C46.7955 141.894 49.7709 144.924 52.2053 146.026C54.0988 146.301 58.9676 146.301 61.1315 146.301C61.1315 148.23 61.402 150.158 61.402 151.811C58.4266 153.739 57.3446 156.493 57.3446 160.074C57.3446 164.206 59.7791 167.787 63.5659 168.889C63.5659 169.715 63.5659 171.919 63.5659 172.745C61.1315 174.123 58.6971 177.979 59.2381 181.836C52.4758 185.416 38.4103 195.333 37.0579 197.812C38.9513 199.189 46.525 199.74 53.2873 200.016C59.2381 200.291 67.8938 200.291 73.0331 199.74C73.3036 197.261 73.8445 190.65 73.5741 187.069C74.656 186.243 76.8199 183.488 76.8199 179.907C76.8199 176.051 74.9265 173.572 72.2216 172.195C72.2216 170.817 72.2216 169.715 72.2216 168.338C74.656 167.236 76.8199 164.206 76.8199 160.35C77.0904 157.044 75.4675 153.463 72.7626 151.811C72.7626 150.709 72.4921 147.128 72.4921 145.751C76.279 145.475 83.8527 144.924 84.9346 144.924C84.9346 146.026 85.2051 147.954 85.4756 149.332C83.8527 150.984 82.5002 153.188 82.2297 155.392C81.6888 160.074 83.8527 164.482 87.6395 166.41C87.6395 167.236 87.91 169.991 87.91 171.368C85.7461 173.296 84.9346 175.775 85.2051 178.53C85.2051 181.836 86.5576 183.764 88.7215 185.967C87.369 187.896 82.5002 196.159 81.6888 199.74C87.6395 200.842 95.2133 201.118 101.164 201.393C106.844 201.668 115.23 201.668 120.369 200.291C116.852 196.159 106.033 188.997 101.705 186.243C104.68 184.315 106.574 181.56 106.574 177.704C106.574 174.949 104.951 171.093 101.435 169.44C101.164 168.063 100.894 166.41 100.894 165.033C102.787 163.38 104.139 161.176 104.139 158.146C104.139 153.739 102.246 150.158 99.0001 148.23C98.7296 146.577 98.4592 144.373 98.4592 143.271C101.435 142.721 105.221 142.445 107.656 141.343C107.385 139.415 107.115 137.487 106.844 135.008C113.336 136.385 128.213 134.732 130.918 134.181C131.459 133.355 131.729 131.702 131.729 130.876C132.27 130.876 132.811 130.876 133.352 130.876C133.893 131.978 135.787 136.11 136.598 137.487C137.68 137.487 139.574 136.66 140.385 135.559C139.574 133.906 137.951 130.876 136.869 128.672C137.139 128.397 137.41 128.121 137.68 127.57C140.115 128.672 143.361 129.499 146.336 130.325C146.877 129.499 147.418 127.295 147.418 125.918C144.713 125.091 141.197 124.816 138.492 124.54C138.492 123.714 138.492 122.612 138.221 121.786C140.385 121.235 143.631 120.409 145.795 119.582C146.336 118.48 145.524 115.726 144.442 114.899C143.361 114.899 137.41 117.103 136.057 118.205C135.516 117.929 135.246 117.378 134.705 117.103C135.516 115.726 137.139 112.42 137.68 111.043C137.41 110.217 135.787 109.39 134.705 109.39C134.164 110.492 132.541 113.798 131.729 116.001C130.647 116.001 129.295 116.552 128.484 117.654C127.943 116.828 127.672 116.277 127.402 115.726C121.992 119.031 114.418 120.959 105.492 122.061C104.951 118.48 104.41 115.175 104.139 113.798C105.762 114.899 111.443 116.001 114.148 114.073C114.418 114.073 114.689 114.348 114.959 114.348C116.852 114.899 118.205 113.798 118.746 112.145C120.098 112.971 124.156 110.217 123.344 108.288C126.32 105.534 130.106 96.1682 129.836 86.8027C132.541 86.2518 134.975 84.3236 136.057 82.3954C137.951 78.8144 137.68 74.4071 136.869 70.2752C135.787 69.9998 134.164 69.9998 133.352 70.5507C133.623 72.7543 133.352 76.3353 131.729 79.0899C130.918 80.4672 128.754 82.6708 126.049 83.4972C126.59 81.569 128.484 73.0298 128.754 70.8261C130.106 70.8261 131.188 69.9998 132 68.8979C133.352 66.4188 132.27 63.3888 129.836 62.5624C127.402 61.4606 124.967 62.0115 123.885 64.4906C123.074 66.6943 123.885 69.4489 126.049 70.2752C125.238 72.7543 124.156 78.2635 123.344 81.569C121.992 79.0899 120.91 76.3353 120.369 72.7543C120.098 71.1016 120.098 68.6225 120.91 65.8679C120.098 65.317 118.746 65.0415 118.205 64.7661C115.5 67.2452 114.689 72.2034 115.5 75.5089C116.041 78.5389 117.664 80.4672 120.098 82.6708C118.205 89.2818 116.852 92.3118 114.418 95.0664C110.902 99.4737 106.303 101.126 100.894 100.025C99.2706 93.9646 97.1067 86.8027 94.4018 81.0181C91.6969 80.4671 87.0986 80.4672 83.8527 80.4672C83.8527 78.8144 83.5822 76.3353 83.3117 74.958C85.7461 74.6825 97.9182 73.0298 100.623 71.6525C101.705 67.5206 104.139 56.7778 105.492 52.6459C104.139 46.8613 100.894 36.394 99.5411 33.0885C94.6723 34.1903 76.0085 33.9148 71.4101 34.1903C71.4101 31.4357 71.1396 28.6811 71.1396 25.9266C75.197 25.9266 77.6314 24.8247 79.5248 23.7229C80.8773 22.6211 83.0412 19.8665 82.7707 17.1119C82.2297 16.8365 80.8773 16.8365 80.3363 17.1119C80.0658 19.8665 78.7134 21.2438 76.5494 22.0702C75.4675 22.6211 73.0331 22.8965 71.4101 22.8965C71.4101 20.9683 71.1396 19.3156 71.1396 17.3874C71.6806 17.3874 73.8445 16.2856 73.0331 13.531C72.4921 11.6028 70.0577 10.7764 68.4347 11.6028C66.8118 12.4291 66.2708 13.8064 66.8118 15.4592C66.8118 16.0101 67.8938 17.3874 68.4347 17.3874C68.4347 18.2138 68.4347 21.2438 68.4347 22.8965C63.5659 22.8965 60.5905 20.4174 59.7791 16.0101C59.2381 15.7346 57.3446 15.7346 56.8037 16.0101C57.3446 22.3456 63.0249 26.4775 68.4347 25.9266C68.4347 28.9566 68.4347 31.4357 68.4347 34.4657C61.943 34.7412 45.7136 36.1185 42.4677 36.6694C40.5743 38.5976 37.3284 42.1786 35.1645 44.6577C35.1645 46.5859 35.7054 68.347 35.9759 72.2034C37.0579 73.0298 42.7382 77.1617 44.6316 77.988C46.525 78.2635 54.9102 78.2635 59.7791 78.2635C59.7791 79.9162 60.0495 82.1199 60.32 83.4972C56.8037 84.0481 52.7463 84.599 50.5824 84.8745C48.148 86.5272 45.7136 90.1082 44.9021 91.21C44.6316 93.4137 44.6316 97.5455 44.6316 98.9228C41.3857 99.1983 28.1317 99.7492 24.8858 100.025C24.6153 96.7191 23.8039 90.6591 23.2629 87.9045C23.5334 87.629 23.8039 87.6291 23.8039 87.3536C24.0744 87.0781 24.0744 86.8027 24.0744 86.5272C27.3202 86.5272 29.4842 82.9463 29.4842 80.1917C29.4842 77.1617 26.7793 74.6825 22.7219 74.6825C22.7219 75.5089 22.7219 76.6107 22.9924 77.4371C25.1563 77.7126 26.2383 78.8144 26.2383 80.4672C26.2383 82.1199 25.4268 83.7726 23.8039 84.599C23.5334 84.3236 23.2629 84.0481 22.7219 83.7726C21.64 83.4972 20.2875 83.7726 19.7465 84.8745C18.1236 84.599 17.0416 83.7726 16.7711 81.8444C16.2302 79.6408 17.0416 78.2635 19.2055 77.1617C19.2055 76.6107 18.9351 75.2335 18.9351 74.6825C15.6892 74.958 13.2548 77.988 13.7957 82.1199C14.0662 85.1499 15.6892 87.3536 19.7465 87.629C19.7465 87.629 20.017 88.18 20.2875 88.18C20.8285 91.4855 21.9104 98.6474 22.1809 100.3C21.099 100.3 20.017 100.576 19.2055 100.851C18.3941 101.402 15.9597 103.881 15.1482 104.983C15.1482 106.085 15.1482 107.187 15.1482 108.013C13.5252 108.288 11.6318 108.288 10.2794 108.564C10.0089 108.288 9.73839 108.288 9.4679 108.288C8.65643 105.258 6.49251 104.707 4.32858 104.983C1.0827 105.534 -0.540238 107.737 -0.269748 110.217C0.271233 110.217 1.35319 110.217 1.62368 109.941C2.16466 108.288 2.97613 107.187 4.59907 107.187C6.22202 107.187 7.30398 107.737 7.57447 108.839ZM40.0333 114.348C41.6562 114.073 43.5497 113.798 45.1726 113.247C45.1726 114.348 45.4431 118.48 45.4431 119.582C44.0906 118.205 41.6562 116.001 40.0333 114.348Z" fill="black"/>
        <path d="M19.2049 85.4251C16.7705 84.8742 15.959 83.4969 15.6885 81.5687C15.4181 79.3651 15.959 77.7123 18.123 76.335C18.123 75.7841 18.123 75.5087 17.8525 74.9578C15.4181 75.5087 13.5246 77.9878 14.0656 81.8442C14.6066 85.1497 17.3115 86.8024 18.9344 86.527C19.2049 86.2515 19.2049 85.7006 19.2049 85.4251Z" fill="#98BDDF"/>
        <path d="M24.3447 85.7008C26.5086 85.7008 28.943 83.2217 28.943 79.6407C28.6725 76.0598 25.4266 75.2334 23.5332 75.2334C23.5332 75.5089 23.5332 76.3352 23.8037 76.6107C25.9676 77.1616 27.0496 78.2634 27.3201 79.9162C27.5906 81.8444 26.5086 84.5989 24.6152 85.1499C24.0742 85.1499 24.0742 85.4253 24.3447 85.7008Z" fill="#98BDDF"/>
        <path d="M31.1072 134.457C31.1072 136.109 30.2957 137.487 28.1318 138.313C28.1318 138.589 28.1318 139.415 28.1318 139.69C30.0252 139.415 33.0006 137.762 32.7301 134.457C32.4596 130.876 29.4842 128.948 27.3203 129.223C27.3203 129.498 27.3203 129.774 27.3203 129.774C29.4842 129.774 31.1072 132.528 31.1072 134.457Z" fill="#98BDDF"/>
        <path d="M22.4512 128.948C20.8283 128.948 18.1234 130.876 18.3938 134.181C18.3938 138.038 20.5578 139.966 23.2627 140.241C23.2627 139.966 23.2627 139.415 23.2627 138.864C20.8283 137.762 20.0168 136.385 20.0168 134.181C20.0168 132.528 20.5578 130.876 22.7217 130.049C22.4512 129.774 22.4512 129.223 22.4512 128.948Z" fill="#98BDDF"/>
        <path d="M22.451 84.3234C21.0986 83.7725 20.2871 84.5989 20.2871 85.9762C20.2871 87.078 21.0986 88.1798 22.7215 87.3535C24.074 86.8026 23.533 84.8744 22.451 84.3234Z" fill="#E4040C"/>
        <path d="M22.7216 88.1799C22.4511 88.4554 21.6396 88.4554 21.3691 88.4554C21.6396 91.4854 22.7216 98.3718 22.9921 100.025C23.5331 100.025 23.8036 100.025 24.3445 99.7491C24.074 95.8927 22.9921 90.659 22.7216 88.1799Z" fill="#98BDDF"/>
        <path d="M42.1969 38.0466C40.8444 39.6994 37.3281 43.5558 36.2461 44.9331C36.5166 49.0649 37.3281 70.2752 37.3281 71.377C39.2215 72.4788 42.7379 74.9579 44.3608 75.7843C45.1723 69.9997 47.0657 62.5623 48.4181 57.3287C47.3362 53.1968 43.0083 40.5257 42.1969 38.0466Z" fill="#3D71A0"/>
        <path d="M45.7123 48.7893C46.7943 52.0948 47.8762 55.4003 48.4172 57.3285C47.0648 62.8376 45.1713 69.9995 44.3599 75.7841C42.7369 74.9578 39.2206 72.4787 37.3271 71.3768C37.3271 70.8259 37.0566 66.4186 37.0566 61.1849C38.1386 59.5322 44.0894 51.2684 45.7123 48.7893Z" fill="#1D5687"/>
        <path d="M78.443 23.4472C80.8774 22.0699 82.2298 19.8662 82.2298 17.3871C81.9593 17.3871 81.4184 17.3871 80.8774 17.3871C80.3364 22.6208 74.9266 23.7226 70.5988 23.4472C70.3283 21.2435 70.3283 17.6626 70.0578 16.2853C70.8693 16.2853 71.4102 16.2853 71.9512 15.4589C72.2217 14.908 72.4922 13.5307 71.6807 12.7043C70.8693 11.878 70.0578 11.6025 68.9758 11.878C67.6234 12.7043 67.3529 14.0816 67.6234 15.1834C67.8939 16.0098 68.7053 16.5607 69.5168 16.5607C69.7873 16.5607 69.5168 17.3871 69.2463 17.3871C69.2463 19.0398 69.2463 22.0699 69.2463 23.7226C68.1644 23.7226 65.4594 23.9981 63.025 22.3453C61.1316 20.9681 59.5087 19.0398 59.2382 16.5607C58.9677 16.5607 57.8857 16.5607 57.6152 16.5607C58.1562 19.0398 58.6972 20.6926 61.1316 22.6208C63.566 24.549 65.7299 25.0999 69.2463 25.0999C69.2463 26.2017 69.5168 31.4354 69.2463 34.4655C69.5168 34.4655 70.5988 34.4655 70.5988 34.4655C70.5988 31.4354 70.5988 26.2017 70.5988 25.3754C73.3037 25.0999 75.7381 24.549 78.443 23.4472Z" fill="#E4040C"/>
        <path d="M100.082 72.2031C100.623 68.0713 103.328 58.9812 104.951 53.7475C104.14 50.442 101.435 41.0764 99.2707 35.2918C90.0741 35.2918 78.443 35.0164 71.6808 35.0164C64.9185 35.5673 52.476 35.8427 43.2793 37.4955C44.0908 39.6991 49.2301 55.9511 49.5006 57.3284C48.4186 60.3584 45.7137 74.1313 45.4432 76.335C45.9842 76.335 65.189 76.8859 75.1971 76.0595C83.8528 75.2332 91.9675 74.1313 100.082 72.2031Z" fill="#98BDDF"/>
        <path d="M43.5498 38.0467C43.5498 37.7713 43.2793 37.4958 43.2793 37.2203C52.476 35.8431 64.9185 35.2921 71.6808 35.0167C78.443 34.7412 90.0741 35.0167 99.2708 35.2921C99.5413 35.8431 99.5413 36.394 99.8117 36.9449C91.4266 36.9449 62.2136 36.394 43.5498 38.0467Z" fill="#C0D9EC"/>
        <path d="M100.081 72.2032C100.622 68.0714 103.327 58.9813 104.95 53.7476C93.3191 54.2985 58.6964 56.2267 49.7702 57.0531C48.6883 60.0831 45.9834 73.856 45.7129 76.0596C46.2539 76.0596 65.4587 76.6105 75.4668 75.7842C83.852 75.2332 91.9667 74.1314 100.081 72.2032Z" fill="#75A2CD"/>
        <path d="M61.1328 77.9877C61.4033 79.9159 61.6738 82.1196 61.9443 83.2214C65.7311 82.6705 79.7966 81.5687 83.0425 81.5687C83.0425 80.1914 82.772 77.9877 82.772 76.335C78.7147 77.1613 66.5426 77.9877 61.1328 77.9877Z" fill="#4956A4"/>
        <path d="M119.828 76.6106C119.287 74.4069 119.017 69.9996 119.828 67.245C119.287 66.9695 118.476 66.6941 118.206 66.6941C116.312 69.4487 115.771 71.9278 116.312 75.5087C116.853 80.467 120.64 83.7725 124.156 84.8743C121.722 82.6706 120.64 79.3651 119.828 76.6106Z" fill="#98BDDF"/>
        <path d="M130.916 68.8978C131.998 66.9696 130.916 64.7659 129.293 63.9395C127.4 63.1132 125.777 63.3886 124.966 65.0414C123.613 67.245 124.695 69.4487 126.589 70.275C128.482 71.1014 130.105 70.5505 130.916 68.8978Z" fill="#E4040C"/>
        <path d="M127.943 71.6527C127.673 71.6527 127.132 71.3772 126.861 71.3772C126.05 74.9581 124.968 79.6409 124.156 83.4973C124.427 83.7728 124.427 84.3237 124.697 84.5991C124.968 84.5991 125.238 84.3237 125.238 84.3237C125.779 81.8446 127.402 74.1318 127.943 71.6527Z" fill="#98BDDF"/>
        <path d="M126.049 74.1318C126.319 73.3054 126.59 72.2036 126.59 71.3772C127.131 71.6527 127.672 71.6527 127.942 71.6527C127.672 72.2036 127.672 73.3054 127.401 74.4072C127.131 74.4072 126.049 74.1318 126.049 74.1318Z" fill="#7099BF"/>
        <path d="M126.051 79.9162C125.51 81.8444 125.239 83.4971 124.969 84.3235L124.428 84.5989C124.157 84.3235 124.157 83.7726 123.887 83.4971C124.157 82.1198 124.428 80.7425 124.698 79.3652C125.239 79.6407 125.78 79.6407 126.051 79.9162Z" fill="#7099BF"/>
        <path d="M135.245 82.6708C136.597 80.1917 136.597 74.958 136.056 71.928C135.515 71.928 134.974 71.928 134.433 71.928C134.704 75.7844 133.892 78.539 132.54 80.7426C131.187 82.6708 128.482 85.7009 125.777 85.7009C126.859 86.2518 128.212 86.5272 129.564 86.8027C131.187 86.2518 133.622 85.4254 135.245 82.6708Z" fill="#98BDDF"/>
        <path d="M116.582 70.275C116.853 68.8978 117.394 67.7959 118.205 66.6941C118.475 66.6941 119.557 66.9695 119.828 67.245C119.557 68.3468 119.287 69.4487 119.287 70.826C118.475 70.5505 117.664 70.5505 116.582 70.275Z" fill="#C0D9EC"/>
        <path d="M135.515 75.2335C134.975 75.2335 134.434 75.2335 133.893 75.2335C133.893 74.1316 134.163 73.0298 133.893 71.928C134.434 71.928 135.245 71.928 135.515 71.928C135.786 73.0298 135.786 74.1316 135.786 75.5089C136.056 75.2335 135.786 75.2335 135.515 75.2335Z" fill="#C0D9EC"/>
        <path d="M118.747 112.145C120.37 112.145 122.263 110.492 122.263 109.941C120.099 108.288 116.583 106.36 114.689 106.911C114.419 108.288 116.042 110.492 118.747 112.145Z" fill="#E4040C"/>
        <path d="M117.665 112.971C116.313 111.869 114.149 109.941 113.608 107.462C111.985 108.564 111.985 111.594 113.608 113.522C114.96 115.175 117.124 114.624 117.665 112.971Z" fill="#E4040C"/>
        <path d="M112.794 114.348C111.712 113.247 111.171 111.594 111.442 109.666C111.712 107.187 113.335 105.534 116.04 105.809C117.933 106.085 120.368 107.187 122.261 108.564C124.966 105.809 128.753 95.8928 128.483 87.6291C126.589 87.0782 121.72 85.7009 120.909 84.8745C119.556 91.21 116.852 95.6174 114.958 97.821C110.901 102.779 106.302 103.881 101.434 102.779C102.245 106.085 103.057 110.217 103.598 113.247C106.302 114.899 111.171 115.175 112.794 114.348Z" fill="#44A4A1"/>
        <path d="M115.23 99.7492C112.254 102.779 109.009 103.606 105.492 103.055C108.738 102.779 111.984 101.126 114.689 97.821C116.041 96.1682 118.205 93.1382 119.558 89.0063C119.558 92.8628 117.935 96.7192 115.23 99.7492Z" fill="#88C5C4"/>
        <path d="M120.367 86.5271C120.638 85.9762 120.638 85.4253 120.908 84.5989C121.72 85.4253 126.588 87.078 128.482 87.3535C128.482 87.9044 128.482 88.4553 128.482 88.7308C125.777 88.7308 123.072 87.9044 120.367 86.5271Z" fill="#1B858A"/>
        <path d="M109.819 114.899C109.278 112.145 110.089 109.115 112.253 107.462C111.712 108.013 111.712 108.839 111.441 109.666C111.171 111.594 111.712 113.247 112.794 114.348C112.253 114.624 111.171 114.899 109.819 114.899Z" fill="#1B858A"/>
        <path d="M103.869 103.055C104.951 106.636 105.762 110.492 106.033 114.349C104.951 114.073 104.139 113.798 103.328 113.247C102.787 110.217 101.976 106.085 101.164 102.779C102.246 102.779 103.057 103.055 103.869 103.055Z" fill="#1B858A"/>
        <path d="M136.328 112.42C136.057 112.145 135.246 111.319 134.705 111.594C133.893 113.247 133.082 115.175 132 117.379C132.27 117.379 133.082 117.654 133.623 117.93C134.164 116.828 135.787 113.522 136.328 112.42Z" fill="#E4040C"/>
        <path d="M145.793 130.05C146.064 129.499 146.334 128.121 146.334 127.57C143.9 127.019 140.925 126.469 138.22 126.193C138.22 126.744 137.949 127.57 137.949 127.846C140.384 128.948 143.9 129.499 145.793 130.05Z" fill="#E4040C"/>
        <path d="M137.68 121.51C137.68 121.786 137.68 121.786 137.68 121.51C137.68 121.51 144.171 119.858 144.983 119.582C144.983 118.756 144.442 117.379 144.171 116.828C143.36 117.103 138.221 118.756 136.598 119.858C136.868 120.684 137.139 120.959 137.68 121.51Z" fill="#E4040C"/>
        <path d="M136.869 136.936C137.68 136.66 138.762 136.385 139.033 135.834C138.221 134.181 136.869 131.702 136.057 130.049C135.517 130.6 134.705 130.876 134.164 131.151C134.705 133.079 136.057 135.558 136.869 136.936Z" fill="#E4040C"/>
        <path d="M130.646 124.54C130.916 125.918 132.81 126.744 134.162 125.367C134.974 124.54 134.433 122.887 133.351 122.612C131.728 121.786 130.375 123.163 130.646 124.54Z" fill="#E4040C"/>
        <path d="M132.541 121.51C134.164 121.51 135.516 123.438 135.246 125.367C134.975 126.744 133.623 127.846 131.459 127.019C131.729 127.846 131.729 129.223 131.729 129.774C136.057 131.151 138.221 125.918 136.869 122.061C136.328 120.408 134.705 119.031 133.082 118.48C131.729 117.929 129.565 118.205 128.754 119.858C129.295 120.959 129.836 121.786 130.106 122.888C130.377 122.061 131.188 121.235 132.541 121.51Z" fill="#98BDDF"/>
        <path d="M128.754 119.858C129.565 118.205 131.729 117.929 133.082 118.48C134.705 119.031 136.057 120.684 136.869 122.061C137.41 123.163 137.41 124.54 137.139 125.918C136.328 119.858 131.188 117.654 128.754 119.858Z" fill="#C0D9EC"/>
        <path d="M129.835 133.631C131.188 128.948 128.753 121.786 126.589 118.205C123.344 120.684 112.524 123.714 105.221 124.265C105.762 127.571 106.303 132.529 106.573 134.457C112.794 135.559 125.778 134.457 129.835 133.631Z" fill="#4956A4"/>
        <path d="M107.115 124.265C114.418 123.163 123.615 120.684 126.591 118.205C126.861 118.756 127.132 119.031 127.402 119.582C120.64 123.99 109.82 124.816 107.115 124.265Z" fill="#748CCB"/>
        <path d="M117.394 199.74C115.5 197.812 105.492 190.65 100.623 187.344C97.3775 189.273 92.2381 188.722 90.0742 187.62C90.8857 188.446 100.353 198.363 102.517 200.291C104.681 200.291 113.607 200.291 117.394 199.74Z" fill="#98BDDF"/>
        <path d="M93.5896 191.476C91.6962 189.548 90.0732 187.895 89.8027 187.62C91.9667 188.722 97.3765 189.273 100.352 187.344C101.434 187.895 102.786 188.997 104.139 189.824C101.163 192.027 97.3765 192.578 93.5896 191.476Z" fill="#7099BF"/>
        <path d="M83.582 198.914C88.9918 199.465 94.4016 200.016 100.352 200.291C99.8114 199.74 88.9918 188.447 88.7213 188.447C87.3689 190.375 84.664 195.884 83.582 198.914Z" fill="#75A2CD"/>
        <path d="M87.6387 190.099C88.1797 189.273 88.4501 188.446 88.7206 187.895C88.7206 187.895 90.0731 189.548 91.9665 191.201C90.6141 191.201 88.9911 190.925 87.6387 190.099Z" fill="#5282B5"/>
        <path d="M86.0178 179.631C86.2883 185.416 90.8866 187.62 96.5669 187.344C101.436 187.069 105.223 182.937 105.493 178.53C105.764 174.398 102.518 169.99 96.0259 169.99C90.6161 169.99 85.4768 173.571 86.0178 179.631Z" fill="#98BDDF"/>
        <path d="M96.0257 169.99C100.353 169.99 103.329 171.919 104.681 174.673C99.542 169.99 90.8863 170.266 88.4519 176.051C86.829 179.356 87.37 182.662 89.2634 185.692C87.6405 184.314 86.5585 182.662 86.288 179.907C85.4765 173.571 90.6159 169.99 96.0257 169.99Z" fill="#C0D9EC"/>
        <path d="M100.354 169.44C100.354 168.613 99.8128 166.96 99.8128 165.859C97.6488 167.236 93.321 168.889 88.7227 167.236C88.7227 168.062 88.7227 169.991 88.9932 170.817C92.239 168.889 97.1078 168.613 100.354 169.44Z" fill="#4956A4"/>
        <path d="M83.3125 157.871C83.3125 163.655 87.9108 167.236 93.3206 167.236C98.1895 166.961 102.517 163.38 102.517 158.146C102.517 152.637 97.919 147.403 91.6977 148.23C84.665 149.056 83.3125 154.841 83.3125 157.871Z" fill="#98BDDF"/>
        <path d="M84.6649 155.392C83.8535 157.595 83.583 160.074 84.3945 162.278C83.8535 160.901 83.3125 159.523 83.3125 157.871C83.3125 154.841 84.665 149.056 91.6977 148.23C96.0255 147.679 99.2714 149.882 101.165 152.912C95.4846 146.852 86.5584 149.607 84.6649 155.392Z" fill="#C0D9EC"/>
        <path d="M97.6486 148.23C97.3781 146.852 97.1076 144.924 96.8371 144.098C96.0257 144.098 88.452 145.199 85.4766 145.475C85.4766 146.577 85.747 148.23 86.0175 149.331C88.1815 147.403 94.1322 146.301 97.6486 148.23Z" fill="#4956A4"/>
        <path d="M39.4922 197.812C41.9266 198.914 52.7462 199.189 55.9921 199.189C56.2626 192.578 56.2626 187.069 56.5331 185.417C54.9101 186.518 41.3856 195.608 39.4922 197.812Z" fill="#98BDDF"/>
        <path d="M41.6561 198.363C40.5741 198.088 40.0332 198.088 39.4922 197.812C41.3856 195.608 54.9101 186.518 56.5331 185.417C56.5331 185.967 56.5331 186.518 56.5331 187.069C51.3938 190.65 46.5249 194.507 41.6561 198.363Z" fill="#C0D9EC"/>
        <path d="M57.6142 184.865C57.6142 188.171 57.3438 196.71 57.3438 199.465C62.2126 199.465 67.0814 199.465 71.9502 198.914C71.9502 197.261 72.4912 190.099 72.4912 188.722C70.3273 190.099 67.6224 190.375 65.4585 190.099C62.2126 189.548 60.0486 187.069 59.2372 184.039C58.9667 184.039 57.8847 184.59 57.6142 184.865Z" fill="#75A2CD"/>
        <path d="M57.6152 184.865C57.8857 184.59 58.6972 184.315 59.2382 184.039C59.7792 187.069 61.9431 189.548 65.4594 190.099C67.6234 190.375 70.3283 190.099 72.2217 188.722C72.2217 189.273 72.2217 190.375 72.2217 191.752C67.3529 194.231 58.6972 192.578 57.6152 184.865Z" fill="#5282B5"/>
        <path d="M60.59 178.806C59.508 183.488 61.4015 188.171 66.2703 188.722C69.5162 189.273 72.7621 187.896 74.6555 184.315C76.5489 180.734 75.467 175.225 71.1391 173.572C67.0818 172.195 61.672 174.123 60.59 178.806Z" fill="#98BDDF"/>
        <path d="M60.5899 178.805C61.6719 174.123 66.8112 172.194 70.8685 173.847C73.5734 174.949 74.9259 177.428 75.1964 179.907C74.1144 177.153 71.9505 174.949 68.9751 174.673C64.1063 174.123 60.5899 178.805 61.4014 183.488C61.6719 184.865 62.2129 186.243 62.7538 187.62C60.5899 185.967 59.7784 182.386 60.5899 178.805Z" fill="#C0D9EC"/>
        <path d="M70.5992 169.99C68.7058 170.817 65.1894 170.541 64.1074 170.266C64.1074 171.368 64.1074 172.745 64.1074 173.296C65.4599 172.745 68.1648 172.194 70.3287 173.021C70.5992 171.643 70.5992 171.092 70.5992 169.99Z" fill="#4956A4"/>
        <path d="M58.4277 160.35C58.1572 165.859 61.944 169.44 67.6243 169.164C71.9522 168.889 75.4685 165.032 74.9276 160.074C74.6571 155.667 71.9522 152.086 66.5424 152.086C61.944 152.086 58.6982 154.841 58.4277 160.35Z" fill="#98BDDF"/>
        <path d="M60.5907 157.32C59.2382 160.075 59.2382 162.829 60.0497 165.308C59.2382 163.931 58.6973 162.003 58.6973 160.075C58.9678 154.565 62.2136 151.811 67.0825 151.811C71.1398 151.811 73.5742 153.739 74.6562 156.769C70.8693 152.913 63.2956 151.535 60.5907 157.32Z" fill="#C0D9EC"/>
        <path d="M71.1391 152.086C71.1391 151.259 70.8686 147.403 70.8686 146.577C69.7866 146.577 63.2949 146.852 62.2129 146.577C62.2129 147.954 62.2129 150.158 62.2129 151.535C64.6473 150.709 68.7046 150.709 71.1391 152.086Z" fill="#4956A4"/>
        <path d="M61.6738 83.2214C61.4033 82.1196 61.1328 79.9159 61.1328 77.9877C66.5426 77.9877 78.7147 77.1613 82.5015 76.335C82.772 77.7122 82.772 79.0895 82.772 80.1914C76.2802 78.2632 67.8951 79.365 61.6738 83.2214Z" fill="#323C8C"/>
        <path d="M120.368 132.253C122.532 132.529 126.86 133.08 130.106 132.529C130.106 133.08 129.835 133.355 129.835 133.906C125.507 134.732 112.794 135.834 106.303 134.732C106.032 133.355 105.762 129.774 105.221 127.02C109.819 129.774 114.688 131.702 120.368 132.253Z" fill="#323C8C"/>
        <path d="M88.7227 170.542C88.7227 169.715 88.7227 168.063 88.7227 167.512C90.0751 168.063 91.4276 168.063 92.78 168.063C91.4276 168.614 90.0751 169.44 88.7227 170.542Z" fill="#323C8C"/>
        <path d="M85.7471 147.954C85.7471 147.128 85.4766 146.302 85.4766 145.751C88.452 145.2 95.7552 144.374 96.8371 144.374C96.8371 144.924 97.1076 146.026 97.3781 147.128C93.8618 144.924 89.2634 145.475 85.7471 147.954Z" fill="#323C8C"/>
        <path d="M64.3789 171.644C64.3789 171.093 64.3789 170.542 64.3789 169.991C65.1904 170.266 68.7068 170.817 70.8707 169.715C70.8707 170.266 70.8707 170.817 70.8707 171.368C68.7068 170.542 66.2723 170.817 64.3789 171.644Z" fill="#323C8C"/>
        <path d="M62.2129 149.331C62.2129 148.505 62.2129 147.679 62.2129 146.852C63.2949 146.852 69.7866 146.852 70.8686 146.852C70.8686 147.128 70.8686 148.505 70.8686 149.607C68.1637 148.505 64.9178 148.23 62.2129 149.331Z" fill="#323C8C"/>
        <path d="M52.4745 145.2C59.2368 145.751 75.1957 145.475 82.7694 144.649C87.0973 144.098 102.515 142.445 105.761 141.343C104.95 133.08 103.056 120.959 101.974 114.073C101.163 109.115 100.351 104.157 98.9988 99.1983C97.6464 94.2401 95.4825 88.4555 93.8595 83.4972C90.6136 83.2218 86.5563 82.9463 83.0399 83.2218C79.5236 83.2218 76.8186 83.4972 73.3023 83.7727C65.999 84.3236 58.4253 84.8745 51.3926 86.2518C51.9336 95.8928 52.4745 133.08 52.4745 145.2Z" fill="#98BDDF"/>
        <path d="M51.3926 86.8025C51.3926 86.527 51.3926 86.2516 51.3926 85.7007C58.4253 84.5989 65.999 83.7725 73.3023 83.2216C76.8186 82.9461 79.5235 82.6707 83.0399 82.6707C86.2858 82.6707 90.3432 82.6707 93.8595 82.9461C93.8595 83.2216 94.13 83.7725 94.13 84.0479C81.1465 83.497 63.2941 85.1498 51.3926 86.8025Z" fill="#C0D9EC"/>
        <path d="M46.5244 140.517C47.6063 141.619 49.7702 143.547 51.6637 144.924C51.6637 137.211 51.1227 96.9946 50.8522 86.2517C49.4997 87.3535 47.0653 90.1081 45.9834 91.4854C45.9834 93.4136 45.7129 98.6473 45.7129 98.9228C46.5244 98.9228 47.8768 98.9228 48.6883 98.9228C48.6883 99.4737 49.2293 112.42 49.2293 112.696C49.2293 112.971 47.0653 113.247 46.2539 113.522C46.2539 114.624 46.5244 119.582 46.5244 120.959C47.6063 122.061 48.6883 123.163 49.4997 123.989C50.0407 124.816 49.4997 127.019 48.1473 126.469C47.6063 125.918 47.0653 125.367 46.5244 125.091C46.5244 130.049 46.5244 135.283 46.5244 140.517Z" fill="#3D71A0"/>
        <path d="M46.2529 117.103C46.2529 115.45 45.9824 113.798 45.9824 113.247C46.5234 113.247 47.8759 112.971 48.4168 112.696C47.8759 114.073 47.0644 115.45 46.2529 117.103Z" fill="#1D5687"/>
        <path d="M47.8768 126.193H48.1473C47.6064 127.295 47.0654 128.121 46.2539 129.223C46.2539 127.846 46.2539 126.193 46.2539 124.816C46.7949 125.091 47.3359 125.642 47.8768 126.193Z" fill="#1D5687"/>
        <path d="M51.6647 139.966C51.6647 142.17 51.6647 143.822 51.6647 144.649C49.7713 143.547 47.6074 141.619 46.5254 140.242C46.5254 137.487 46.5254 134.732 46.5254 131.978C48.4188 134.732 50.0418 137.487 51.6647 139.966Z" fill="#1D5687"/>
        <path d="M48.1487 125.091C48.6897 125.091 48.9602 124.265 48.6897 123.714C45.1733 120.408 42.1979 117.378 38.9521 114.348C38.6816 114.348 37.8701 114.624 37.5996 114.624C38.1406 114.899 46.2553 123.438 48.1487 125.091Z" fill="#98BDDF"/>
        <path d="M23.2637 129.499C23.5342 130.601 24.6161 131.151 25.6981 130.601C26.78 130.05 27.0505 128.121 25.4276 127.57C24.0751 127.02 23.2637 128.397 23.2637 129.499Z" fill="#E4040C"/>
        <path d="M25.4276 116.828C24.8866 116.828 24.3457 117.103 23.8047 117.103C23.8047 119.858 23.8047 124.54 24.0752 126.744C24.3457 126.744 25.1571 126.469 25.4276 126.744C25.4276 124.54 25.6981 120.409 25.4276 116.828Z" fill="#98BDDF"/>
        <path d="M22.1805 116.001C26.2379 115.175 42.7378 112.696 48.1476 111.594C48.1476 108.839 48.1476 102.504 47.8771 99.4739C44.0902 99.7493 27.0494 100.576 20.2871 101.402C20.5576 102.228 21.6396 113.247 22.1805 116.001Z" fill="#44A4A1"/>
        <path d="M20.5576 103.055C20.5576 102.504 20.5576 101.953 20.2871 101.953C27.0494 101.126 43.8198 100.025 47.8771 100.025V100.3C41.3853 100.851 26.7789 101.953 20.5576 103.055Z" fill="#88C9C7"/>
        <path d="M17.04 114.348C17.8515 114.624 20.0154 115.725 21.0973 116.001C20.5564 112.695 19.7449 104.983 19.2039 101.953C18.9334 102.228 16.7695 104.432 16.2285 105.534C16.2285 105.809 16.2285 106.911 16.499 108.013C17.3105 108.013 18.1219 107.737 18.6629 107.737C19.2039 108.013 19.2039 109.665 18.9334 110.216C18.1219 110.216 17.3105 110.492 16.499 110.492C16.499 112.145 16.7695 113.522 17.04 114.348Z" fill="#27767E"/>
        <path d="M10.8203 110.492C12.1728 110.492 15.6891 110.217 18.394 109.666C18.6645 109.39 18.394 108.839 18.1235 108.564C16.2301 108.564 12.7137 109.115 10.8203 109.39C10.8203 109.666 11.0908 110.217 10.8203 110.492Z" fill="#98BDDF"/>
        <path d="M5.40891 115.175C4.32695 115.175 2.9745 114.624 2.43352 113.246C2.16303 113.246 1.62205 113.246 1.35156 113.522C1.62205 114.899 3.24499 117.378 5.6794 116.827C8.38431 116.276 9.73676 114.073 9.19578 112.145C8.92529 112.145 8.92529 112.145 8.6548 112.145C8.92529 113.797 7.03186 115.175 5.40891 115.175Z" fill="#98BDDF"/>
        <path d="M8.11543 111.043C8.65641 111.869 10.0089 111.869 10.2794 110.492C10.5498 109.39 9.46789 108.839 8.65641 108.839C7.84494 109.115 7.57445 110.216 8.11543 111.043Z" fill="#E4040C"/>
        <path d="M8.1157 108.564C8.38619 108.564 8.65668 108.288 8.92717 108.288C8.65668 106.911 7.30423 105.258 4.59933 105.534C1.89443 105.809 0.271484 107.737 0.271484 109.666C0.541975 109.666 0.812465 109.666 1.35344 109.666C1.89443 107.737 2.97639 106.911 4.59933 106.636C6.22227 106.36 7.30423 106.911 8.1157 108.564Z" fill="#98BDDF"/>
        <path d="M28.6728 138.038C30.2958 137.211 31.1072 135.834 31.1072 134.457V134.181C31.6482 133.355 31.9187 132.253 31.9187 131.151C32.4597 131.978 33.0007 133.08 33.0007 134.181C33.2712 137.762 30.2958 139.14 28.4023 139.415C28.4023 139.14 28.4023 138.864 28.4023 138.313C28.4023 138.313 28.4023 138.313 28.6728 138.038Z" fill="#7099BF"/>
        <path d="M20.8289 137.212C21.3699 137.763 22.1814 138.313 23.2634 138.864C23.2634 139.415 23.2634 139.691 23.2634 140.242C20.5585 139.966 18.665 138.038 18.3945 134.182C18.3945 133.906 18.3945 133.631 18.3945 133.355C18.665 135.008 19.4765 136.385 20.8289 137.212Z" fill="#7099BF"/>
        <path d="M21.6396 91.4854C21.3691 90.3836 21.3691 89.2818 21.3691 88.4554C21.6396 88.4554 22.4511 88.4554 22.7216 88.1799C22.7216 89.0063 22.9921 89.8327 23.2626 91.21C22.7216 91.4854 22.1806 91.4854 21.6396 91.4854Z" fill="#7099BF"/>
        <path d="M24.0741 97.5457C24.0741 98.372 24.3446 99.1984 24.3446 100.025C23.8036 100.025 23.5331 100.025 22.9922 100.3C22.9922 99.7493 22.7217 98.9229 22.4512 98.0966C22.9922 97.8211 23.5331 97.5457 24.0741 97.5457Z" fill="#7099BF"/>
        <path d="M40.0331 116.828C38.6806 115.45 37.8691 114.624 37.8691 114.624C38.1396 114.624 38.9511 114.348 39.2216 114.348C39.7626 114.899 40.574 115.45 41.115 116.001C40.574 116.552 40.3035 116.552 40.0331 116.828Z" fill="#7099BF"/>
        <path d="M46.5234 121.786C47.3349 122.612 47.8759 123.163 48.6873 123.989C48.6873 124.54 48.4168 125.367 48.1463 125.367C47.6054 125.091 47.0644 124.265 45.9824 123.163C46.2529 122.612 46.2529 122.337 46.5234 121.786Z" fill="#7099BF"/>
        <path d="M23.8047 119.307C23.8047 118.48 23.8047 117.654 23.8047 116.827C24.3457 116.827 24.8866 116.552 25.4276 116.552C25.4276 117.378 25.4276 118.205 25.4276 118.756C24.8866 119.031 24.3457 119.307 23.8047 119.307Z" fill="#7099BF"/>
        <path d="M15.4189 108.839C16.5009 108.839 17.5829 108.564 18.3943 108.564C18.6648 108.839 18.6648 109.39 18.6648 109.666C17.5829 109.941 16.2304 109.941 15.1484 109.941C15.1484 109.666 15.4189 109.115 15.4189 108.839Z" fill="#7099BF"/>
        <path d="M4.0576 116.276C4.59858 116.276 5.13956 116.001 5.41005 116.001C6.22152 115.725 7.03299 115.175 7.57397 114.348C8.38544 113.797 8.92642 112.971 8.92642 112.145C9.19691 112.145 9.19691 112.145 9.4674 112.145C9.73789 113.797 8.38544 116.276 5.95103 116.827C5.13956 117.103 4.32809 116.827 3.78711 116.552C3.78711 116.276 3.78711 116.276 4.0576 116.276Z" fill="#7099BF"/>
        <path d="M59.5086 56.7778C63.2955 61.4606 71.1397 63.1133 76.82 63.1133C81.1478 63.1133 87.0986 62.8379 90.615 60.3587C90.3445 59.8078 89.8035 58.706 89.8035 58.4305C89.8035 58.1551 90.3445 58.1551 90.3445 58.1551C90.3445 58.1551 92.7789 62.8379 92.7789 63.1133C92.7789 63.3888 91.9674 63.6642 91.697 63.1133C88.7216 66.1434 83.0413 67.5206 79.2544 67.7961C76.5495 68.0716 73.3036 68.347 68.4348 68.0716C63.566 67.7961 58.9676 66.1434 57.0742 63.1133C57.6152 61.1851 58.9676 56.2269 59.5086 56.7778Z" fill="black"/>
        <path d="M91.4273 62.0113C91.1569 61.4604 91.1569 61.185 90.8864 60.634C89.5339 61.7359 88.1815 62.2868 86.5585 62.8377C86.288 63.6641 85.7471 64.4905 85.4766 65.3168C87.6405 64.7659 89.5339 63.6641 91.4273 62.0113Z" fill="white"/>
        <path d="M84.6647 65.5924C85.2057 64.7661 85.4762 63.6643 86.0172 62.8379C84.9352 63.1133 82.5008 63.3888 80.8779 63.6643C80.6074 64.4906 80.3369 65.317 80.0664 66.4188C81.4189 66.4188 83.0418 66.1434 84.6647 65.5924Z" fill="white"/>
        <path d="M78.983 66.694C79.2535 65.8677 79.524 64.7658 79.7945 63.9395C77.901 64.2149 74.6552 63.9395 73.5732 63.9395C73.3027 65.0413 73.0322 66.4186 72.7617 66.9695C74.6551 66.9695 77.3601 66.9695 78.983 66.694Z" fill="white"/>
        <path d="M72.2213 66.9699C72.4918 66.1436 73.0328 64.4908 73.0328 63.9399C71.4098 63.6644 69.7869 63.389 67.8935 63.1135C67.3525 64.2154 67.082 65.5927 66.541 66.6945C68.164 66.6945 70.5984 66.9699 72.2213 66.9699Z" fill="white"/>
        <path d="M66.0005 66.4186C66.5414 65.0413 66.8119 63.9395 67.6234 62.5622C64.648 61.7358 61.6726 60.3585 59.5087 57.8794C58.9677 59.2567 58.4267 61.1849 58.1562 62.5622C60.3202 65.0413 63.5661 66.1431 66.0005 66.4186Z" fill="white"/>
        <path d="M56.5332 42.1785C64.3774 42.1785 88.451 42.1785 93.5903 42.1785C93.8608 44.1067 94.6723 49.3404 94.6723 51.544C93.5904 51.544 64.6479 52.6459 58.4266 52.6459C57.6152 50.7177 56.8037 44.933 56.5332 42.1785Z" fill="black"/>
        <path d="M59.2382 51.8195C60.8611 51.8195 91.4265 50.9931 93.5904 50.7177C93.5904 48.7895 93.0494 44.9331 92.7789 43.0049C89.8035 43.0049 65.7299 43.0049 57.6152 43.2803C58.1562 45.484 58.6972 49.6159 59.2382 51.8195Z" fill="#D2F33A"/>
        <path d="M84.3952 43.0049C88.4525 43.0049 91.6984 43.0049 92.7804 43.0049C93.0508 44.9331 93.5918 48.7895 93.5918 50.7177C92.5099 50.7177 86.2886 50.9931 79.2559 50.9931C81.1493 48.514 82.7722 45.7595 84.3952 43.0049Z" fill="#E8FF9C"/>
        <path d="M70.0573 43.0049C71.9507 43.0049 73.8441 43.0049 75.7376 43.0049C74.1146 45.7595 72.2212 48.7895 70.3278 51.5441C68.4343 51.5441 66.5409 51.5441 64.918 51.8195C66.5409 48.7895 68.1639 45.7595 70.0573 43.0049Z" fill="#E8FF9C"/>
        <path d="M76.8208 47.4122C77.9027 49.6159 80.6076 49.6159 81.9601 47.6877C83.583 45.484 81.6896 42.454 79.2552 42.7294C77.0912 42.7294 75.4683 44.9331 76.8208 47.4122Z" fill="black"/>
        <path d="M59.5098 47.963C60.5918 50.4421 63.8376 50.4421 65.1901 48.2384C66.813 45.7593 64.9196 42.4538 62.2147 42.7293C59.7803 42.7293 58.1573 45.2084 59.5098 47.963Z" fill="black"/>
        <path d="M60.3197 45.484C60.8606 46.3103 61.9426 46.3103 62.4836 45.7594C63.0246 44.9331 62.4836 43.5558 61.4016 43.8312C60.3197 43.5558 59.7787 44.3821 60.3197 45.484Z" fill="white"/>
        <path d="M62.2129 46.5859C62.4834 46.8614 62.7539 46.8614 63.0244 46.5859C63.2948 46.3104 63.0244 45.7595 62.7539 45.7595C62.2129 45.7595 62.2129 46.035 62.2129 46.5859Z" fill="white"/>
        <path d="M77.6318 44.933C77.9023 45.7594 78.9843 45.7594 79.2548 44.933C79.7958 44.1066 79.2548 43.2803 78.4433 43.2803C77.6318 43.5557 77.0908 44.3821 77.6318 44.933Z" fill="white"/>
        <path d="M79.2559 46.0348C79.2559 46.3103 79.7968 46.3103 79.7968 46.0348C80.0673 45.7593 79.7968 45.4839 79.5264 45.4839C79.2559 45.4839 79.2559 45.7593 79.2559 46.0348Z" fill="white"/>
        <path d="M62.4855 88.1801C64.6495 86.2519 67.6248 85.4256 71.1412 85.1501C74.3871 84.8746 77.9035 84.8746 81.1494 85.701C84.1247 86.5274 86.0182 88.1801 86.8296 91.2102C87.6411 93.4138 86.8296 95.6175 85.7477 97.2702C84.1247 99.7493 81.4198 100.576 78.4445 100.851C75.1986 101.127 73.3051 101.127 70.3298 100.851C66.2724 100.3 63.838 99.7493 61.9446 97.5457C60.3216 94.7911 60.5921 89.8329 62.4855 88.1801Z" fill="black"/>
        <path d="M63.0257 88.731C61.4027 90.6592 61.1322 93.9647 63.0257 96.7193C65.1896 99.7493 71.9518 99.7493 75.4682 99.7493C78.9846 99.7493 81.6895 99.1984 83.5829 98.0965C86.5583 96.1683 87.3698 91.4856 84.9354 88.731C83.5829 87.0782 81.96 86.5273 79.7961 85.9764C77.6321 85.4255 74.1158 85.4255 71.6813 85.701C68.4355 86.2519 64.6486 87.0782 63.0257 88.731Z" fill="#3D71A0"/>
        <path d="M63.0249 88.7309C63.5659 87.9045 64.6479 87.3536 65.7298 87.0781C64.3774 88.18 63.5659 89.5572 64.1069 91.7609C65.7298 97.5455 75.197 96.1682 79.2543 95.3419C81.6887 94.7909 84.9346 93.1382 86.0166 90.9345C86.5576 93.4137 85.7461 96.4437 83.3117 98.0964C81.4182 99.4737 78.4429 99.7492 75.197 99.7492C71.6806 99.7492 64.9184 99.7492 62.7544 96.7191C61.1315 94.24 61.402 90.6591 63.0249 88.7309Z" fill="#1C5787"/>
        <path d="M89.5337 154.841C90.8862 153.188 93.0501 153.188 94.673 154.014C96.5665 155.116 96.8369 157.32 96.5665 158.697C96.0255 161.452 92.7796 162.003 90.6157 161.176C88.4517 160.075 88.1812 156.769 89.5337 154.841Z" fill="black"/>
        <path d="M91.1546 159.799C92.507 160.626 94.4004 160.35 95.4824 158.973C96.2939 158.146 96.2939 156.218 94.9414 155.116C93.8595 154.015 91.6955 154.29 91.1546 154.841C89.2611 155.943 89.5316 158.697 91.1546 159.799Z" fill="#E4040C"/>
        <path d="M91.4259 176.877C91.6964 175.225 93.3193 173.296 96.2947 173.572C98.9996 174.123 100.082 176.326 99.8111 178.806C99.5406 181.285 97.3767 182.387 95.2128 182.111C92.5079 181.836 90.8849 178.806 91.4259 176.877Z" fill="black"/>
        <path d="M94.6716 180.734C96.565 181.285 98.4585 180.183 98.9994 178.53C99.5404 176.602 98.4585 174.674 96.565 174.398C94.6716 174.123 93.0487 174.949 92.7782 176.326C91.9667 178.255 92.7782 180.183 94.6716 180.734Z" fill="#E4040C"/>
        <path d="M63.0257 158.972C63.2962 157.044 66.0011 155.942 67.624 156.493C69.2469 157.044 70.5994 158.697 70.3289 160.901C70.0584 163.104 67.624 164.482 65.4601 163.931C63.0257 163.38 62.4847 161.176 63.0257 158.972Z" fill="black"/>
        <path d="M65.1887 162.829C66.8116 163.38 68.705 162.829 69.246 161.176C69.787 159.523 68.9755 157.871 67.3526 157.32C66.0001 157.044 64.3772 157.595 63.8362 158.972C63.2952 160.35 63.8362 162.553 65.1887 162.829Z" fill="#E4040C"/>
        <path d="M64.9188 179.081C65.7302 176.877 69.5171 176.602 70.8696 179.356C72.222 181.835 69.7876 184.59 67.3532 184.314C64.6483 183.764 63.8368 181.284 64.9188 179.081Z" fill="black"/>
        <path d="M66.5425 182.937C67.8949 183.763 70.0588 182.662 70.3293 181.284C70.5998 178.805 67.6244 177.152 66.272 178.805C64.9195 179.907 65.19 182.111 66.5425 182.937Z" fill="#E4040C"/>
        <path d="M26.779 104.432C28.1315 104.432 29.4839 105.258 30.0249 106.36C31.3773 103.33 35.4347 103.33 36.7871 106.085C37.0576 105.258 37.8691 103.606 39.7625 103.33C41.656 103.33 43.8199 104.432 44.0904 106.911C44.3609 108.839 43.2789 110.767 41.3855 111.318C40.033 111.594 38.1396 111.318 37.0576 109.666C35.9757 112.971 30.8364 112.971 30.0249 109.941C29.4839 111.318 28.402 112.42 26.779 112.42C24.3446 112.696 22.7217 111.043 22.4512 108.839C22.7217 106.636 24.3446 104.432 26.779 104.432Z" fill="#1B858A"/>
        <path d="M27.861 103.054C29.2135 103.054 30.5659 103.881 31.1069 104.983C32.4594 101.953 36.5167 102.228 37.8692 104.707C38.1397 103.881 38.9511 102.228 40.8446 101.953C42.738 101.953 44.9019 103.054 44.9019 105.534C45.1724 107.462 44.0905 109.39 42.197 109.941C40.8446 110.216 38.9511 109.941 37.8692 108.288C36.7872 111.594 31.9184 111.594 31.1069 108.564C30.5659 109.941 29.484 111.043 27.861 111.043C25.4266 111.318 23.8037 109.665 23.5332 107.462C23.8037 105.258 25.4266 103.054 27.861 103.054Z" fill="black"/>
        <path d="M38.4102 106.636C38.6806 108.013 40.0331 109.666 41.656 109.39C43.5495 109.115 44.3609 107.186 44.0904 105.534C43.82 103.605 41.9265 102.779 40.3036 103.055C38.9511 103.605 38.4102 105.258 38.4102 106.636Z" fill="#27767E"/>
        <path d="M34.3523 109.941C36.2458 109.941 37.5982 108.564 37.5982 107.186C37.5982 105.809 36.5163 103.881 34.6228 103.881C32.7294 103.881 31.6474 105.258 31.377 106.911C31.6474 108.288 32.4589 109.941 34.3523 109.941Z" fill="#27767E"/>
        <path d="M27.8602 110.217C29.7536 110.217 30.8355 108.839 30.8355 107.187C30.8355 105.534 30.0241 104.157 28.4011 103.881C26.5077 103.606 24.8848 104.983 24.8848 107.187C24.8848 109.115 26.2372 110.217 27.8602 110.217Z" fill="#27767E"/>
        <path d="M74.6562 126.193C75.4677 125.918 77.0907 126.193 79.5251 126.469C78.7136 125.091 77.6316 122.612 77.3612 121.51C78.7136 121.51 80.607 121.235 81.9595 121.235C80.8775 119.582 80.066 117.929 79.2546 116.001C79.7956 115.726 82.771 115.726 84.1234 115.726C83.5824 115.175 82.5005 113.522 81.9595 112.971C84.3939 107.462 87.3693 102.228 89.8037 97.5457C90.3447 99.4739 91.1561 109.941 89.8037 115.175C89.8037 115.175 91.6971 118.48 91.9676 120.133C90.6152 120.409 89.2627 120.409 88.1807 120.409C88.4512 121.235 89.2627 122.061 89.5332 122.612C88.9922 123.439 88.1808 125.091 87.6398 126.193C88.9922 127.295 90.0742 128.948 90.8856 130.325C88.9922 130.876 86.8283 130.601 84.9349 130.601C85.2054 131.427 85.4759 132.253 85.4759 133.08C83.5824 134.457 78.7136 137.487 76.8202 138.313C76.8202 136.661 77.9021 132.253 78.4431 130.876C77.9021 130.876 75.7382 127.571 74.6562 126.193Z" fill="black"/>
        <path d="M84.392 133.355C84.392 132.529 83.851 131.151 83.851 130.049C85.474 130.049 87.0969 130.049 88.9903 130.049C88.1789 128.948 87.3674 127.846 86.0149 127.019C86.5559 126.193 87.6379 124.265 88.1789 123.438C87.9084 122.612 86.5559 120.684 86.2854 120.133C87.3674 120.133 88.9903 120.133 90.3428 119.857C89.8018 118.48 89.2608 117.378 88.4494 116.001C89.2608 111.869 89.5313 106.636 88.9903 100.575C86.5559 105.258 84.6625 109.115 82.7691 113.246C83.5805 114.073 84.6625 115.45 85.7445 116.552C84.6625 116.827 81.9576 116.827 80.3347 116.827C81.1461 118.48 82.2281 120.684 83.31 122.061C82.2281 122.061 79.7937 122.337 78.4412 122.061C79.2527 123.989 80.0642 125.642 80.8756 127.019C79.7937 127.019 77.0888 126.744 75.7363 126.744C76.5478 127.846 77.9002 130.049 78.7117 131.151C78.1707 132.528 77.6298 134.732 77.3593 136.936C80.0642 136.109 82.4986 134.457 84.392 133.355Z" fill="#FF7600"/>
        <path d="M81.4189 118.48C81.1484 117.929 80.8779 117.654 80.6074 117.103C81.9599 117.103 84.1238 117.103 85.4762 116.828C85.4762 116.828 81.9599 118.205 81.4189 118.48Z" fill="#FFB363"/>
        <path d="M79.5254 123.714C79.2549 123.438 79.2549 122.888 78.9844 122.612C80.3368 122.612 82.5007 122.612 83.5827 122.612C82.2302 122.888 80.8778 123.163 79.5254 123.714Z" fill="#FFB363"/>
        <path d="M77.3613 128.397C77.0908 127.846 76.5498 127.295 76.2793 127.02C77.3613 127.295 79.2547 127.295 80.3366 127.295C79.5252 127.846 78.4432 128.121 77.3613 128.397Z" fill="#FFB363"/>
        <path d="M86.8281 127.57C87.6396 128.397 88.4511 129.223 88.9921 130.049C88.7216 130.049 88.4511 130.049 88.1806 130.049C87.9101 129.223 87.3691 128.397 86.8281 127.57Z" fill="#FFB363"/>
        <path d="M83.8535 114.073C83.583 113.798 83.3125 113.522 83.3125 113.522C84.9354 109.115 86.8289 105.258 89.5338 100.851C89.5338 101.677 89.5338 102.779 89.8043 103.606C88.4518 104.983 85.7469 109.941 83.8535 114.073Z" fill="#FFB363"/>
        <path d="M70.3267 111.869C71.4087 109.666 73.0316 106.36 73.8431 104.983C74.6545 110.217 74.925 119.307 74.925 122.061C73.5726 120.959 71.4087 117.929 70.3267 116.001C69.2447 119.582 67.8923 122.337 67.3513 122.612C65.9989 119.031 64.9169 113.522 63.5645 108.288C64.9169 108.288 68.4333 110.492 70.3267 111.869Z" fill="black"/>
        <path d="M69.7877 114.348C70.8697 116.277 72.4927 117.929 73.8451 119.582C73.8451 117.378 73.5746 111.043 73.3041 107.187C72.4927 109.115 71.1402 112.145 70.5992 113.522C68.9763 112.42 66.2714 110.767 64.6484 109.941C65.4599 113.247 66.2714 116.828 67.3533 120.408C68.1648 118.48 69.2468 116.001 69.7877 114.348Z" fill="#E4040C"/>
        <path d="M68.9755 116.552C68.4345 117.654 67.8935 119.031 67.623 119.857C67.3525 119.031 67.082 118.48 67.082 117.654C67.623 117.378 68.4345 116.827 68.9755 116.552Z" fill="#AF040C"/>
        <path d="M73.8455 113.247C73.8455 115.726 74.116 118.205 73.8455 119.582C72.7635 118.48 71.6816 116.828 70.5996 115.45C71.9521 114.899 72.7635 114.073 73.8455 113.247Z" fill="#AF040C"/>
        <path d="M41.386 104.708C42.7385 104.983 43.5499 106.36 42.468 107.462C41.6565 108.564 40.304 108.289 39.7631 107.187C39.4926 105.809 40.5745 104.432 41.386 104.708Z" fill="black"/>
        <path d="M40.5728 106.911C41.1138 107.462 41.9252 107.462 42.1957 106.911C42.4662 106.36 42.4662 105.809 42.1957 105.534C41.9252 104.983 40.8433 104.708 40.3023 105.534C40.0318 106.36 40.5728 106.636 40.5728 106.911Z" fill="#F25361"/>
        <path d="M34.6221 104.983C35.9745 105.258 36.786 106.636 35.9745 107.737C35.1631 108.839 33.8106 108.564 33.2696 107.462C32.4582 106.36 33.5401 104.983 34.6221 104.983Z" fill="black"/>
        <path d="M33.8123 107.737C34.3533 108.288 35.1648 108.288 35.7058 107.737C35.9763 107.186 35.9763 106.635 35.7058 106.36C35.4353 105.809 34.0828 105.534 33.8123 106.36C33.2714 106.911 33.5418 107.462 33.8123 107.737Z" fill="#F25361"/>
        <path d="M27.5908 105.258C28.9433 105.534 29.7548 106.911 28.9433 108.288C28.1318 109.39 26.7794 109.114 26.2384 108.013C25.4269 106.635 26.5089 105.258 27.5908 105.258Z" fill="black"/>
        <path d="M26.7791 108.013C27.3201 108.564 28.1316 108.564 28.6726 108.013C28.9431 107.462 28.9431 106.911 28.6726 106.36C28.4021 105.809 27.0496 105.534 26.7791 106.36C26.2382 107.186 26.5086 107.737 26.7791 108.013Z" fill="#F25361"/>
        <path d="M40.574 106.636C40.8445 105.534 41.9264 105.258 42.7379 105.809C42.7379 105.534 42.7379 105.534 42.4674 105.258C42.1969 104.707 41.1149 104.432 40.574 105.258C40.3035 106.085 40.3035 106.36 40.574 106.636Z" fill="#FF807B"/>
        <path d="M33.5401 106.085C34.0811 105.258 35.1631 105.534 35.4336 106.085C34.3516 105.534 33.5401 106.911 34.0811 108.013C33.8106 108.013 33.8106 107.738 33.5401 107.738C33.5401 107.462 33.2696 106.911 33.5401 106.085Z" fill="#FF807B"/>
        <path d="M26.7793 106.36C27.3202 105.534 28.4022 105.809 28.6727 106.36C27.3202 106.084 26.5088 107.186 27.3202 108.288C27.0497 108.288 27.0497 108.013 27.0497 108.013C26.5088 107.737 26.2383 107.186 26.7793 106.36Z" fill="#FF807B"/>
        <path d="M123.886 119.307C125.509 120.408 126.591 123.163 127.132 125.091C127.943 128.121 128.214 131.978 127.132 135.008C127.132 135.283 126.591 135.283 126.861 135.008C127.673 131.978 127.402 128.948 126.861 125.642C126.32 123.438 125.509 121.235 123.886 119.857C123.615 119.307 123.886 119.031 123.886 119.307Z" fill="black"/>
        <path d="M120.64 120.684C120.369 120.684 120.64 120.408 120.64 120.684C122.804 122.612 123.615 125.091 123.886 127.846C124.156 130.325 123.615 134.457 122.804 135.283C122.533 135.559 122.533 135.283 122.533 135.008C123.074 134.181 123.615 130.325 123.345 127.846C123.074 125.367 122.263 122.612 120.64 120.684Z" fill="black"/>
        <path d="M117.123 121.51C117.123 121.51 117.394 121.235 117.123 121.51C119.016 123.163 120.098 125.918 120.369 128.397C120.639 130.876 120.369 133.906 119.287 135.834C119.287 136.11 118.746 135.834 119.016 135.559C120.098 133.355 120.098 130.876 119.828 128.397C119.828 125.918 118.746 123.714 117.123 121.51Z" fill="black"/>
        <path d="M114.419 122.337C114.148 122.061 114.419 121.786 114.689 122.061C116.042 123.438 116.583 125.642 116.853 127.57C117.394 130.325 117.394 132.804 116.583 135.559C116.583 135.834 116.042 135.834 116.312 135.559C116.853 133.355 116.853 130.876 116.583 128.397C116.312 126.193 115.501 123.989 114.419 122.337Z" fill="black"/>
        <path d="M112.254 123.163C113.336 124.816 113.607 126.744 113.877 128.672C114.148 130.876 114.148 133.355 113.607 135.558C113.607 135.834 113.336 135.834 113.336 135.558C113.607 133.355 113.877 130.876 113.607 128.672C113.336 126.744 112.795 124.816 111.984 123.163C111.713 122.887 112.254 122.887 112.254 123.163Z" fill="black"/>
        <path d="M109.009 123.163C109.82 124.816 110.361 126.744 110.632 128.672C110.902 130.876 110.902 133.355 110.361 135.559C110.361 135.834 110.091 135.834 110.091 135.559C110.361 133.355 110.632 131.151 110.361 128.948C110.091 126.744 109.55 125.091 109.009 123.163C108.738 123.163 109.009 122.887 109.009 123.163Z" fill="black"/>
        <path d="M106.034 123.438C106.846 125.091 107.387 126.744 107.657 128.397C107.928 130.325 107.928 132.804 107.387 134.732C107.387 135.008 107.116 135.008 107.116 134.732C107.387 132.804 107.657 130.6 107.387 128.672C107.116 127.019 106.575 125.091 106.034 123.438C105.764 123.714 106.034 123.438 106.034 123.438Z" fill="black"/>
        <path d="M60.8611 81.2934C64.6479 81.8444 69.5168 81.5689 73.0331 81.2934C76.5495 81.018 80.8773 80.4671 83.3118 79.3652C83.5822 79.3652 83.5822 79.6407 83.5822 79.6407C80.8773 81.2934 76.5495 81.5689 73.3036 81.8444C68.7053 82.1198 64.107 82.1198 60.8611 81.8444C60.5906 81.8444 60.5906 81.2934 60.8611 81.2934Z" fill="black"/>
        <path d="M60.5898 79.0898C64.3767 79.6407 68.975 79.3653 72.4914 79.0898C76.0078 78.8144 80.0651 78.2635 82.77 77.1616C83.0405 77.1616 83.0405 77.4371 83.0405 77.4371C80.6061 79.0898 76.0078 79.3653 73.0324 79.6407C68.4341 79.9162 63.8357 79.9162 60.8603 79.6407C60.5898 79.3653 60.5898 79.0898 60.5898 79.0898Z" fill="black"/>
        <path d="M48.6875 56.7776C49.499 56.7776 65.4579 55.9512 69.7857 55.6758C70.0562 55.6758 70.0562 56.2267 68.7038 56.2267C64.3759 56.7776 49.7695 57.8794 48.958 57.8794C48.958 57.8794 48.6875 57.0531 48.6875 56.7776Z" fill="black"/>
        <path d="M79.2553 86.8027C82.7717 86.5272 85.2061 89.0063 85.7471 92.0364C86.288 94.7909 84.1241 97.5455 81.4192 97.821C78.7143 98.3719 76.5504 96.9946 75.4684 94.5155C74.116 91.7609 75.198 87.3536 79.2553 86.8027Z" fill="black"/>
        <path d="M76.0098 93.6889C76.5508 96.168 79.2557 97.5453 81.4196 96.9944C84.395 96.168 85.2065 93.9644 84.6655 91.2098C84.1245 88.7307 81.1491 87.0779 79.2557 87.6289C76.2803 88.1798 75.4689 91.2098 76.0098 93.6889Z" fill="#98BDDF"/>
        <path d="M68.1637 87.6292C71.4096 87.9046 73.303 90.9347 72.762 94.2401C72.221 97.2702 69.7866 98.9229 67.0817 98.372C64.3768 98.0965 62.7539 95.6174 62.4834 92.8629C62.2129 90.1083 64.6473 87.0782 68.1637 87.6292Z" fill="black"/>
        <path d="M67.8934 97.5456C70.0574 97.5456 71.9508 95.6174 72.2213 93.4138C72.2213 90.9346 70.8688 89.0064 68.7049 88.4555C66.541 87.9046 63.0246 89.8328 63.5656 93.4138C63.8361 96.1683 65.459 97.5456 67.8934 97.5456Z" fill="#98BDDF"/>
        <path d="M79.2541 87.6289C81.1476 87.0779 84.123 88.7307 84.6639 91.2098C84.6639 91.7607 84.9344 92.3116 84.9344 92.5871C84.664 91.2098 83.8525 89.8325 82.7705 89.2816C80.6066 87.6289 78.1722 88.4552 76.8197 90.6589C76.2788 91.7607 76.0083 92.8626 76.2788 93.9644V93.6889C75.4673 91.2098 76.2788 88.1798 79.2541 87.6289Z" fill="#C0D9EC"/>
        <path d="M68.4354 88.4555C70.5993 89.0064 71.9517 90.6592 71.9517 92.8629C71.4108 90.3837 67.8944 88.1801 65.46 89.8328C63.837 90.9346 62.7551 92.8628 64.378 96.1683C63.837 95.6174 63.2961 94.5156 63.2961 93.4138C62.7551 89.8328 66.2714 87.9046 68.4354 88.4555Z" fill="#C0D9EC"/>
        <path d="M80.6072 90.1079C82.2301 90.1079 83.5826 92.0361 82.5006 93.6888C81.6891 95.0661 79.5252 95.0661 78.7137 93.4134C77.9023 91.7606 78.7137 90.1079 80.6072 90.1079Z" fill="black"/>
        <path d="M79.2541 92.8626C79.7951 93.9644 81.1475 93.9644 81.959 93.4135C82.5 92.8626 82.5 91.7607 81.959 90.9344C81.418 90.3835 80.6065 90.108 80.0656 90.3835C79.2541 90.9344 78.4426 92.0362 79.2541 92.8626Z" fill="#E4040C"/>
        <path d="M67.6225 90.6592C69.2454 90.6592 70.5979 92.5874 69.5159 94.2401C68.434 95.6174 66.5405 95.6174 65.7291 93.9647C64.9176 92.3119 65.9996 90.6592 67.6225 90.6592Z" fill="black"/>
        <path d="M66.271 93.689C66.8119 94.7908 68.1644 94.7908 68.9759 94.2399C69.7873 93.689 69.5168 92.3117 68.9759 91.7608C68.4349 91.2099 67.6234 90.9344 66.8119 91.2099C66.271 91.4853 65.73 92.5872 66.271 93.689Z" fill="#E4040C"/>
        <path d="M20.2888 85.9765C21.1003 86.5275 22.1822 86.5275 22.7232 85.7011C22.7232 85.4256 22.9937 85.4256 22.9937 85.1501C23.5347 85.9765 23.5347 87.0784 22.4527 87.6293C21.1003 87.9048 20.0183 87.0784 20.2888 85.9765C20.0183 85.7011 20.0183 85.7011 20.2888 85.9765C20.2888 85.7011 20.2888 85.7011 20.2888 85.9765Z" fill="#AF040C"/>
        <path d="M70.0582 16.2855C70.0582 16.5609 70.0582 17.1118 70.0582 17.6628C69.7877 17.6628 69.2467 17.9382 68.9762 17.9382C68.9762 17.6628 68.9762 17.3873 68.9762 17.1118C69.2467 17.1118 69.5172 16.2855 69.2467 16.2855C68.4352 16.2855 67.6237 15.7346 67.3533 14.9082C67.0828 14.3573 67.0828 13.8064 67.3533 13.2554C67.6237 13.8064 67.8942 14.0818 68.1647 14.6327C68.9762 15.1836 70.3286 14.9082 71.1401 14.0818C71.4106 13.8064 71.4106 13.5309 71.6811 12.98C72.2221 13.8064 71.9516 14.9082 71.6811 15.4591C71.4106 16.2855 70.8696 16.2855 70.0582 16.2855Z" fill="#AF040C"/>
        <path d="M69.2461 31.4358C69.7871 31.4358 70.0576 31.4358 70.5985 31.4358C70.5985 32.2622 70.5985 33.364 70.5985 34.1904C70.5985 34.1904 69.5166 34.1904 69.2461 34.1904C69.2461 33.364 69.2461 32.2622 69.2461 31.4358Z" fill="#AF040C"/>
        <path d="M58.4267 16.2855C59.2382 20.6928 63.025 23.7228 67.8939 23.9983C71.6807 24.2737 80.0659 23.7228 81.4184 18.7646C81.6889 18.7646 81.6889 18.4891 81.9593 18.4891C81.4184 20.4173 80.3364 22.0701 78.443 22.8964C76.0086 24.2737 73.3037 24.5492 70.5988 24.5492C70.5988 24.8247 70.5988 25.1001 70.5988 25.9265C70.0578 25.9265 69.7873 25.9265 69.2463 25.9265C69.2463 25.3756 69.2463 24.8247 69.2463 24.5492C66.0004 24.5492 63.566 23.9983 61.1316 22.0701C58.6972 20.1419 58.1562 18.4891 57.6152 16.01C57.6152 16.2855 58.1562 16.2855 58.4267 16.2855Z" fill="#AF040C"/>
        <path d="M124.967 65.0413C125.238 64.4904 125.508 64.2149 126.049 63.9395C125.238 64.7658 125.238 65.8677 125.779 66.9695C126.59 68.6222 128.754 69.7241 130.377 68.3468C130.918 68.0713 131.189 67.5204 131.459 66.9695C131.459 67.5204 131.459 68.0713 131.189 68.6222C130.377 70.275 128.754 70.8259 126.861 69.9995C124.697 69.4486 123.885 67.2449 124.967 65.0413Z" fill="#AF040C"/>
        <path d="M121.452 111.318C120.911 111.869 119.829 112.42 118.747 112.42C116.042 110.767 114.689 108.288 114.689 107.187C114.689 107.187 114.689 107.187 114.96 107.187C116.583 109.115 118.747 110.767 121.452 111.318Z" fill="#AF040C"/>
        <path d="M113.336 107.462C113.606 107.462 113.606 107.462 113.336 107.462C114.147 109.941 116.041 111.594 117.393 112.696V112.971C115.5 112.145 113.877 109.941 113.336 107.462Z" fill="#AF040C"/>
        <path d="M116.853 114.348C116.042 114.899 114.689 114.899 113.607 113.522C112.525 112.145 112.255 110.492 112.525 109.115C113.337 111.318 114.689 113.247 116.853 114.348Z" fill="#AF040C"/>
        <path d="M134.705 116.001C134.434 116.828 133.893 117.654 133.623 117.93C133.352 117.654 132.541 117.379 132 117.379C132.27 116.828 132.541 116.001 132.811 115.45C133.623 115.45 134.164 115.726 134.705 116.001Z" fill="#AF040C"/>
        <path d="M140.114 128.672C139.303 128.397 138.491 128.121 137.68 127.846C137.95 127.57 137.95 126.469 137.95 126.193C138.762 126.193 139.573 126.469 140.385 126.469C140.655 127.019 140.385 127.846 140.114 128.672Z" fill="#AF040C"/>
        <path d="M138.493 118.756C139.034 119.582 139.304 120.133 139.575 120.96C138.493 121.235 137.411 121.51 137.411 121.51C137.141 120.96 136.87 120.409 136.059 119.858C136.87 119.582 137.682 119.307 138.493 118.756Z" fill="#AF040C"/>
        <path d="M134.976 133.63C134.705 132.804 134.435 132.253 134.164 131.427C134.705 131.151 135.517 130.6 136.057 130.325C136.328 130.876 136.598 131.427 136.869 132.253C136.328 132.529 135.787 133.08 134.976 133.63Z" fill="#AF040C"/>
        <path d="M131.188 122.888C131.188 123.163 131.459 123.714 131.729 123.99C132.27 124.54 133.623 125.091 134.164 124.265C134.164 124.816 134.164 125.091 133.893 125.642C132.541 127.02 130.918 126.193 130.377 124.816C130.377 123.99 130.647 123.163 131.188 122.888Z" fill="#AF040C"/>
        <path d="M24.0751 129.498C24.6161 129.774 25.1571 129.774 25.6981 129.223C25.9686 128.947 26.2391 128.397 26.2391 128.121C26.78 128.947 26.5096 130.049 25.6981 130.6C24.6161 131.151 23.5342 130.6 23.2637 129.498C23.2637 129.223 23.2637 128.947 23.2637 128.672C23.5342 128.947 23.8047 129.223 24.0751 129.498Z" fill="#AF040C"/>
        <path d="M8.65717 110.492C9.46864 110.492 9.73913 109.941 10.0096 109.39C10.2801 109.665 10.5506 109.941 10.2801 110.767C10.0096 111.869 8.65717 112.144 8.11619 111.318C7.8457 111.043 7.8457 110.767 7.8457 110.492C8.11619 110.216 8.38668 110.492 8.65717 110.492Z" fill="#AF040C"/>
        <path d="M91.4267 159.248C91.4267 159.248 91.6972 159.248 91.4267 159.248C93.3201 159.248 94.6726 157.32 94.6726 155.667V155.392C95.7545 156.493 95.7545 158.422 95.2135 159.248C94.1316 160.625 92.5086 160.901 90.8857 160.074C90.6152 159.799 90.0742 159.523 90.0742 158.973C90.6152 158.973 91.1562 159.248 91.4267 159.248Z" fill="#AF040C"/>
        <path d="M94.4022 179.081C96.0252 179.356 97.3776 178.254 97.6481 176.602C97.6481 176.051 97.6481 175.5 97.3776 174.949C98.4596 175.775 99.0005 177.153 98.7301 178.53C98.4596 180.183 96.2956 181.009 94.4022 180.734C92.7793 180.183 92.2383 178.53 92.2383 177.153C92.5088 178.254 93.3203 179.081 94.4022 179.081Z" fill="#AF040C"/>
        <path d="M67.3513 160.901C68.1628 160.074 68.4333 159.248 68.1628 158.146C68.9743 158.973 69.2447 160.074 68.9743 161.452C68.4333 163.104 66.5398 163.655 64.9169 163.105C64.1054 162.829 63.5645 162.003 63.5645 161.176C64.9169 162.003 66.5398 162.003 67.3513 160.901Z" fill="#AF040C"/>
        <path d="M65.7299 179.081C65.7299 179.632 65.7299 180.183 66.2709 180.734C67.0823 181.56 68.9758 181.56 69.5168 180.458C69.7872 179.907 69.7872 179.356 69.7872 179.081C70.3282 179.632 70.5987 180.458 70.3282 181.284C70.0577 182.662 68.1643 184.039 66.5414 182.937C65.1889 182.111 64.9184 180.183 65.7299 179.081Z" fill="#AF040C"/>
        <path d="M79.5244 90.6592C79.2539 91.2101 79.5244 91.761 79.7949 92.0365C80.6063 92.8628 81.4178 92.5874 81.9588 91.761C81.9588 92.3119 81.9588 92.8628 81.4178 93.1383C80.8768 93.6892 79.5244 93.6892 78.7129 92.5874C78.7129 92.0365 78.9834 91.2101 79.5244 90.6592Z" fill="#AF040C"/>
        <path d="M66.5419 91.4851C66.5419 92.036 66.5419 92.5869 67.0829 92.8624C67.6239 93.4133 68.1649 93.6888 68.9763 93.1378C69.2468 93.1378 69.2468 92.8624 69.5173 92.5869C69.5173 93.1379 69.2468 93.4133 68.9763 93.9642C68.1649 94.5151 67.0829 94.5151 66.2714 93.4133C65.7305 92.5869 66.001 91.7606 66.5419 91.4851Z" fill="#AF040C"/>
    </g>
    <defs>
        <clipPath id="clip0">
            <rect width="147" height="214" fill="white"/>
        </clipPath>
    </defs>
</svg>
