<svg width="148" height="194" viewBox="0 0 148 194" fill="none" xmlns="http://www.w3.org/2000/svg">
    <g clip-path="url(#clip0)">
        <path d="M2.79953 175.265C5.4125 177.551 9.51859 179.646 12.6915 181.171C17.3575 183.457 22.2101 185.933 27.0628 188.029C31.1689 189.743 35.0883 191.648 39.3811 192.791C41.8074 193.553 44.0471 193.934 47.0333 193.934C49.4597 193.934 55.4321 193.934 59.5382 193.744C62.8978 193.553 66.4439 193.553 69.8035 192.982C74.6561 192.22 77.829 189.743 78.5756 185.171C84.9213 188.41 91.2671 191.267 98.5461 191.458C101.719 191.458 111.984 190.886 116.464 189.362C120.943 187.838 122.623 184.409 122.623 180.98C122.809 177.17 121.13 173.741 118.703 170.502C115.717 166.502 112.357 162.501 108.998 158.691C106.945 156.214 104.519 153.357 102.466 152.023C100.786 150.88 98.3594 150.118 96.3064 149.928C96.3064 147.832 96.3064 129.353 96.3064 124.59C96.3064 120.209 96.3064 115.827 96.3064 111.255C99.106 112.779 105.638 115.256 108.998 116.208C110.118 119.637 116.277 119.637 116.277 114.112C118.33 112.017 125.049 103.063 126.356 100.968C126.542 100.968 126.915 101.158 127.102 101.158C127.849 103.825 131.395 112.207 131.955 112.398C132.328 112.588 136.994 113.541 137.554 112.969C139.42 111.255 145.766 103.444 145.953 101.92C145.953 101.349 140.727 98.6815 140.354 98.872C139.98 99.0625 137.181 104.778 135.314 107.445C134.381 105.349 132.141 100.587 131.395 99.253C132.328 98.11 133.448 94.2999 130.462 92.5853C131.581 90.4897 134.568 84.203 135.874 81.3455C138.301 84.203 142.407 90.4897 142.78 90.8707C143.153 91.2518 147.446 89.5372 148.192 89.1562C148.192 85.7271 138.487 77.1543 137.741 76.7733C137.181 76.7733 133.075 76.9638 132.701 77.3448C132.328 77.7258 128.222 86.6796 126.542 91.4423C123.369 91.8233 122.809 96.3954 123.556 97.729C121.876 100.206 115.344 108.397 113.851 110.493C112.544 109.921 111.051 110.493 110.118 111.636C107.318 110.493 99.4793 107.064 96.8663 105.921C96.8663 102.682 96.493 96.3954 96.493 95.4429C95.3732 94.2999 70.3634 88.2037 67.9371 87.8226C67.9371 86.2986 67.9371 84.584 67.9371 83.2505C69.6168 83.2505 71.1099 83.2505 72.7897 83.2505C78.3889 83.06 84.9213 83.2505 90.5205 82.679C90.7072 82.679 90.7072 70.2961 90.7072 68.391C95.5598 68.5816 99.106 65.724 98.9194 60.5803C98.7327 56.1987 96.1198 52.5791 90.7072 52.5791C90.7072 51.055 90.8938 47.4354 90.7072 47.0544C90.5205 46.6734 74.0962 36.005 70.55 34.2905C70.1767 34.1 67.1905 34.1 66.0706 34.1C66.0706 32.7664 66.0706 21.7171 65.884 20.3836C66.6306 20.0025 67.3771 19.431 67.7504 18.4785C69.4302 18.4785 75.0294 18.669 76.5225 18.4785C77.0824 19.812 78.9488 20.9551 80.6286 20.7646C82.495 20.5741 83.9881 19.2405 83.9881 17.1449C84.1748 13.9063 81.7484 12.3823 79.5088 12.7633C78.0156 12.9538 76.8958 14.0969 76.5225 15.2399C74.8428 15.2399 70.55 15.0494 67.9371 15.2399C67.5638 14.2874 66.8172 13.7158 66.0706 13.1443C66.0706 10.8583 66.2573 10.4772 66.0706 7.23864C68.8703 5.9051 68.3103 1.71397 66.0706 0.380428C63.4577 -0.762607 60.2848 -0.000583425 59.3516 2.85701C58.605 4.95257 59.7249 7.23864 61.7779 8.00066C61.5913 9.52471 61.5913 11.4298 61.7779 13.7158C60.8447 14.2874 60.2848 14.8589 59.9115 15.6209C58.4184 15.6209 52.8192 15.6209 50.9528 15.6209C50.2062 14.4779 49.273 13.7158 47.9665 13.5253C45.1669 12.9538 42.3673 14.6684 42.554 18.0975C42.7406 20.3836 44.2337 22.2886 46.8467 22.4791C49.0864 22.6696 51.1394 21.3361 51.5127 19.2405C52.8192 19.431 58.7917 19.431 60.2848 19.2405C60.6581 19.6215 61.0314 20.0025 61.5913 20.3836C61.4046 22.2886 61.4046 33.5285 61.4046 34.6715C57.2985 34.6715 44.4204 34.481 42.7406 35.0525C42.554 35.0525 42.3673 43.4348 42.3673 44.9588C39.3811 44.7683 36.5815 44.1968 34.3418 45.1493C30.9822 46.6734 30.049 49.7215 30.049 52.7696C30.049 56.1987 31.1689 58.8657 34.1551 60.7708C36.0215 62.1043 39.0078 63.0569 41.4341 63.4379C41.4341 64.5809 41.4341 68.5816 41.4341 68.7721C41.6208 69.1531 54.3123 82.1075 54.6856 82.298C55.2455 82.4885 58.4184 82.8695 60.0982 83.06C60.0982 84.203 60.0982 85.3461 60.0982 86.4891C46.8467 85.9176 33.9685 85.5366 29.8624 86.2986C29.8624 86.4891 29.3025 100.206 29.4891 104.016C27.996 104.016 16.2376 104.016 12.6915 104.206C11.0117 103.063 8.39875 102.873 7.09226 104.397C5.97242 105.73 5.59914 108.207 6.90562 109.54C7.46554 110.112 8.2121 110.493 8.95867 110.874C9.14531 115.065 9.89187 125.543 10.2651 129.353C9.33195 130.877 8.95867 134.116 10.4518 135.64C9.33195 138.116 8.02546 144.784 7.65218 146.879C9.51859 148.785 16.051 151.071 21.6502 150.118C23.7033 148.404 24.2632 144.212 23.8899 144.212C20.5304 144.403 15.6777 144.784 12.5048 143.641C13.2514 141.164 13.8113 138.878 14.5579 136.021C16.2376 135.64 16.9842 133.354 16.7976 132.211C18.8506 131.258 24.0765 129.734 26.1296 129.162C26.3162 129.353 27.8094 131.639 28.3693 132.592C28.1826 136.021 28.1826 143.45 28.1826 144.974C28.9292 145.546 30.2357 146.308 30.9822 146.689C26.6895 147.451 23.1433 149.547 19.4105 151.833C15.8644 153.928 11.7583 156.214 8.39874 158.5C5.4125 160.596 1.49305 163.453 0.373205 167.073C-0.559997 170.121 0.186565 172.788 2.79953 175.265ZM14.3712 128.591C14.1846 124.59 13.0648 112.969 12.6915 110.683C13.0648 110.493 13.2514 110.112 13.438 109.731C15.3044 109.731 27.4361 109.921 28.3693 109.921C28.1826 112.779 28.3693 121.923 28.3693 125.733C27.2494 124.59 25.9429 123.066 24.8231 122.495C24.4498 122.495 21.6502 124.4 19.5972 126.495C18.4773 127.829 17.1708 129.162 16.051 130.496C16.051 129.734 14.7445 128.781 14.3712 128.591Z" fill="black"/>
        <path d="M50.206 16.3835C49.8327 14.8595 47.9663 14.288 46.6598 14.4785C44.6068 14.669 44.0469 16.193 44.0469 17.7171C44.0469 19.2411 44.9801 20.9557 47.7797 20.7652C50.3926 20.3842 50.5793 17.9076 50.206 16.3835Z" fill="#D4D4D1"/>
        <path d="M59.3509 16.1931C58.0444 16.1931 52.8184 16.1931 51.1387 16.1931C51.3253 16.5741 51.512 17.5267 51.512 18.0982C52.8184 17.9077 58.0444 18.0982 59.5375 18.0982C59.3509 17.7172 59.3509 16.7646 59.3509 16.1931Z" fill="#8F8F87"/>
        <path d="M79.6961 19.8128C81.0026 19.8128 82.1224 18.8602 82.3091 17.7172C82.6823 15.4311 81.1892 14.2881 79.6961 14.2881C78.3896 14.2881 77.0831 15.0501 76.8965 16.7647C76.8965 18.4792 77.8297 19.8128 79.6961 19.8128Z" fill="#D4D4D1"/>
        <path d="M75.7769 17.9077C75.7769 17.7172 75.7769 17.1457 75.7769 16.5742C74.657 16.5742 70.3643 16.3837 67.378 16.5742C67.378 16.9552 67.378 17.7172 67.1914 18.0982C68.3112 17.9077 74.2837 18.0982 75.7769 17.9077Z" fill="#8F8F87"/>
        <path d="M90.1465 67.4392C91.453 67.4392 92.9461 67.0582 94.2526 66.4867C96.6789 65.1532 97.2388 63.2481 97.2388 60.7715C97.2388 56.5804 94.2526 53.5323 90.1465 53.7228C90.1465 54.2943 90.1465 66.6772 90.1465 67.4392Z" fill="#FA6900"/>
        <path d="M142.967 89.7283C143.9 89.5378 145.206 88.7758 146.326 88.5853C144.46 84.3942 137.741 77.917 137.181 77.7265C136.621 77.5359 134.754 77.917 134.008 78.298C137.367 81.3461 141.473 86.8707 142.967 89.7283Z" fill="#D4D4D1"/>
        <path d="M134.754 80.7746C134.194 80.0126 133.447 79.2505 132.887 78.4885C131.768 81.3461 129.155 86.6803 127.102 91.4429C127.848 91.2524 128.968 91.6334 129.528 92.0144C130.648 89.7284 133.447 83.4417 134.754 80.7746Z" fill="#D4D4D1"/>
        <path d="M136.995 112.017C137.368 111.827 142.967 105.159 144.647 102.492C143.714 101.54 141.474 100.587 140.727 100.016C139.981 101.921 136.061 108.588 133.262 111.636C134.382 112.017 136.621 112.208 136.995 112.017Z" fill="#D4D4D1"/>
        <path d="M132.514 111.065C133.261 110.112 133.821 109.35 134.567 108.398C133.821 106.302 131.581 101.54 130.461 100.016C129.901 100.587 129.155 100.778 128.408 100.968C128.968 103.445 131.208 108.779 132.514 111.065Z" fill="#D4D4D1"/>
        <path d="M126.729 99.4441C128.595 100.206 130.648 98.4916 130.835 96.9676C131.208 94.872 130.275 92.9669 127.849 92.5859C125.609 92.2049 123.929 94.11 124.116 96.396C124.116 97.7296 125.422 99.0631 126.729 99.4441Z" fill="#FFC700"/>
        <path d="M115.903 112.78C118.33 109.731 123.369 103.064 125.422 100.397C124.675 99.8252 124.115 99.6347 123.742 98.6821C122.249 100.968 116.463 108.588 114.41 110.875C114.97 111.446 115.53 112.018 115.903 112.78Z" fill="#8F8F87"/>
        <path d="M110.865 116.78C111.798 117.542 113.292 117.542 114.038 116.971C115.718 115.637 115.531 113.161 113.852 112.208C112.172 111.255 110.865 111.827 110.305 112.78C109.559 113.732 109.745 115.828 110.865 116.78Z" fill="#FFC700"/>
        <path d="M108.625 115.066C108.438 114.113 108.625 113.351 108.998 112.589C106.012 111.446 98.9196 108.588 96.3066 107.255C96.3066 108.207 96.3066 109.16 96.3066 109.922C98.733 111.065 105.639 114.113 108.625 115.066Z" fill="#8F8F87"/>
        <path d="M31.1696 135.45C32.1028 135.069 33.036 134.116 33.4093 133.354C30.983 129.354 26.317 124.4 25.1971 123.829C24.8238 123.829 23.8906 124.4 23.8906 124.591C23.8906 124.781 30.423 134.116 31.1696 135.45Z" fill="#D4D4D1"/>
        <path d="M25.3838 128.401C24.8239 127.639 23.7041 125.924 23.1441 125.162C21.651 126.115 18.8514 129.163 17.5449 130.878C19.9712 129.925 23.5174 128.972 25.3838 128.401Z" fill="#D4D4D1"/>
        <path d="M12.8788 129.353C10.4524 129.544 10.0791 132.402 10.4524 133.545C11.0123 135.45 13.0654 135.831 14.3719 135.069C16.9848 133.164 15.3051 129.163 12.8788 129.353Z" fill="#FFC700"/>
        <path d="M9.51953 146.309C11.9459 148.404 18.6649 149.166 21.4645 148.976C22.2111 148.023 22.9576 146.499 22.9576 145.547C20.158 145.737 14.5588 145.737 11.7592 144.594C11.1993 144.975 9.70617 145.928 9.51953 146.309Z" fill="#D4D4D1"/>
        <path d="M135.688 77.7266C136.434 77.5361 136.994 77.5361 137.367 77.7266C137.927 77.9171 144.646 84.3943 146.513 88.5855C145.953 88.776 145.579 88.9665 145.02 89.157C143.153 84.5848 139.607 80.7747 135.688 77.7266Z" fill="#EAEAE9"/>
        <path d="M139.98 101.54C140.354 100.968 140.54 100.397 140.727 100.016C141.66 100.397 143.713 101.54 144.646 102.492C144.46 102.873 144.087 103.445 143.713 103.826C142.407 103.064 141.287 102.302 139.98 101.54Z" fill="#EAEAE9"/>
        <path d="M32.2889 134.497C30.4225 131.068 28.5561 127.829 26.3164 124.591C28.1828 126.305 31.3557 129.925 33.2221 133.164C33.0355 133.545 32.8488 134.116 32.2889 134.497Z" fill="#EAEAE9"/>
        <path d="M21.463 145.547C22.0229 145.547 22.5828 145.547 22.9561 145.547C22.7695 146.499 22.2095 148.214 21.463 148.976C20.903 148.976 20.3431 148.976 19.7832 148.976C20.3431 147.833 21.0897 146.69 21.463 145.547Z" fill="#EAEAE9"/>
        <path d="M9.14453 144.975C9.51781 144.594 10.8243 143.832 11.3842 143.451C11.9441 141.546 12.6907 139.069 13.2506 136.402C12.5041 136.593 11.7575 136.402 11.0109 136.021C10.451 137.926 9.33117 143.641 9.14453 144.975Z" fill="#D4D4D1"/>
        <path d="M130.836 83.2512C131.769 81.3461 132.516 79.6316 133.076 78.4885C133.636 79.2505 134.195 80.0126 134.942 80.7746C134.569 81.7271 133.822 83.0607 133.262 84.5847C132.329 84.0132 131.583 83.6322 130.836 83.2512Z" fill="#B1B1AB"/>
        <path d="M132.889 104.778C133.636 106.112 134.195 107.636 134.569 108.398C134.009 109.35 133.262 110.112 132.516 111.065C132.142 110.303 131.396 108.969 130.836 107.636C131.583 106.683 132.142 105.731 132.889 104.778Z" fill="#B1B1AB"/>
        <path d="M19.7832 128.21C20.903 126.877 22.2095 125.734 23.1427 125.162C23.7027 125.924 24.8225 127.639 25.3824 128.401C24.8225 128.591 24.0759 128.782 23.1427 129.163C22.0229 128.782 20.903 128.401 19.7832 128.21Z" fill="#B1B1AB"/>
        <path d="M10.8243 136.974C11.1976 138.307 11.7575 139.831 12.1308 141.165C11.9441 141.927 11.7575 142.689 11.3842 143.451C10.8243 143.832 9.51781 144.594 9.14453 144.975C9.33117 143.832 10.0777 139.26 10.8243 136.974Z" fill="#B1B1AB"/>
        <path d="M11.0124 128.592C11.759 128.211 12.5055 128.211 13.4387 128.401C13.2521 122.686 12.5055 116.209 11.9456 111.065C11.1991 111.256 10.4525 111.446 9.89258 111.446C10.0792 114.304 10.8258 124.591 11.0124 128.592Z" fill="#8F8F87"/>
        <path d="M11.9447 105.159C10.8248 104.016 9.51834 104.207 8.3985 104.588C7.27865 105.159 6.90537 106.683 7.27865 107.826C7.65193 109.731 10.0783 109.922 11.5714 109.541C13.6244 108.969 13.0645 106.302 11.9447 105.159Z" fill="#FFC700"/>
        <path d="M130.088 95.4435C128.968 94.11 126.915 93.348 125.422 94.3005C124.675 94.872 124.302 95.634 124.115 96.3961C124.115 94.3005 125.608 92.3954 127.848 92.7765C130.088 93.1575 131.208 95.0625 130.834 96.9676C130.648 96.3961 130.461 95.8245 130.088 95.4435Z" fill="#FFE073"/>
        <path d="M111.798 112.97C110.678 113.351 109.931 114.685 110.118 116.018C109.558 115.066 109.558 113.542 110.305 112.589C110.864 111.827 112.171 111.065 113.851 112.018C114.784 112.589 115.344 113.732 115.157 114.875C114.784 113.542 113.477 112.399 111.798 112.97Z" fill="#FFE073"/>
        <path d="M12.8788 129.354C14.3719 129.163 15.6784 130.878 15.6784 132.402C15.3051 131.83 14.5585 131.259 13.812 131.068C12.5055 130.687 11.0123 131.449 10.6391 132.783C10.6391 133.164 10.4524 133.545 10.4524 133.735V133.545C10.0791 132.211 10.4524 129.544 12.8788 129.354Z" fill="#FFE073"/>
        <path d="M8.39849 104.778C9.51834 104.207 10.6382 104.016 11.9447 105.35C12.5046 105.731 12.8779 106.493 12.8779 107.255C12.3179 106.112 11.3847 105.35 10.0783 105.35C8.58514 105.35 7.46529 106.493 7.27865 107.827C7.27865 108.017 7.27865 108.017 7.27865 108.208C6.90537 106.684 7.27865 105.35 8.39849 104.778Z" fill="#FFE073"/>
        <path d="M13.252 105.159C14.1852 106.303 14.3718 107.636 14.1852 108.779C18.2912 108.779 34.529 108.779 39.0083 108.779C39.5683 107.636 39.5683 105.922 38.8217 105.159C32.8492 104.969 18.1046 105.35 13.252 105.159Z" fill="#8F8F87"/>
        <path d="M39.5681 109.731C38.8216 109.922 37.3284 109.922 36.5819 109.922C37.1418 111.637 38.4483 112.78 41.0612 112.399C43.8609 112.018 44.2341 108.207 44.0475 106.112C43.8609 103.635 42.1811 100.968 40.128 99.4442C37.1418 97.3486 35.6487 101.349 35.2754 103.826C36.5819 103.826 37.8884 103.826 39.3815 104.016C40.3147 104.969 41.0612 108.207 39.5681 109.731Z" fill="#FA6900"/>
        <path d="M30.2359 104.016C31.7291 104.016 33.2222 104.016 34.7153 104.016C34.7153 101.54 35.8352 97.92 38.8214 97.92C42.5542 98.1105 44.6073 102.302 45.5405 105.35C46.287 108.588 45.5405 112.589 42.1809 113.732C39.568 114.685 36.0218 113.16 35.2752 109.922C33.4088 109.922 31.5424 109.922 29.676 109.922C29.8627 113.16 29.8627 124.591 29.8627 126.877C31.5424 128.782 33.7821 131.259 34.7153 133.545C34.1554 134.878 32.4756 136.593 30.9825 136.974C30.6092 136.402 29.676 135.069 29.4894 134.497C29.3027 136.593 29.3027 141.546 29.3027 143.832C32.289 145.546 39.1947 149.357 50.953 152.976C50.953 143.26 50.7664 102.492 50.7664 96.7769C45.3538 94.3004 34.342 89.9187 30.6092 88.0137C30.4226 92.3953 30.2359 100.968 30.2359 104.016Z" fill="#DBA300"/>
        <path d="M36.2081 45.7215C31.5421 46.1025 30.7955 51.0557 31.3555 54.6753C32.6619 62.105 45.1668 62.486 45.5401 62.486C45.7268 62.486 47.5932 59.2474 47.9665 55.2468C48.3397 51.2462 47.7798 49.3411 46.4733 46.674C46.4733 46.4835 39.7543 45.3405 36.2081 45.7215Z" fill="#FA6900"/>
        <path d="M43.1146 44.7689C44.6077 44.9594 46.8474 45.3404 47.2207 45.5309C50.7669 50.2936 49.4604 60.5809 46.2875 63.629C45.9142 63.8195 43.6745 63.4385 42.5547 63.4385C42.5547 64.5815 42.5547 67.4391 42.5547 68.3916C44.7944 71.0587 51.8867 78.1074 54.1264 80.0125C54.1264 75.8214 54.1264 50.1031 54.313 46.2929C51.3268 43.6259 43.6745 36.7677 43.3013 36.5771C43.3013 38.6727 43.1146 42.6733 43.1146 44.7689Z" fill="#DBA300"/>
        <path d="M33.0362 109.922C33.7827 109.922 34.3427 109.922 35.0892 109.922C35.8358 113.16 39.3819 114.685 41.9949 113.732C42.1816 113.732 42.3682 113.541 42.5548 113.541C40.3151 115.828 36.9556 116.59 34.9026 113.16C34.7159 112.779 34.3427 112.779 33.9694 112.97C32.6629 113.922 31.1698 114.685 29.8633 115.447C29.8633 113.922 29.8633 112.589 29.8633 111.636C30.7965 111.065 31.9163 110.493 33.0362 109.922Z" fill="#B88A00"/>
        <path d="M46.2875 63.8196C47.9673 62.2955 49.0871 58.4854 49.2737 54.6753C50.207 60.3905 48.5272 66.4867 45.5409 71.6303C44.2345 70.2968 43.3012 69.1537 42.5547 68.3917C42.5547 67.6297 42.5547 64.5816 42.5547 63.4386C43.4879 63.6291 45.9142 64.0101 46.2875 63.8196Z" fill="#B88A00"/>
        <path d="M65.1382 1.71463C63.4584 0.190583 61.2187 1.14311 60.6588 3.23868C59.9122 5.52475 62.1519 8.00133 64.9515 6.66778C66.8179 5.52475 66.258 2.66716 65.1382 1.71463Z" fill="#D4D4D1"/>
        <path d="M64.9515 8.00122C64.205 8.19173 63.4584 8.19173 62.7119 8.00122C62.7119 10.2873 62.5252 10.6683 62.7119 13.3354C63.2718 13.1449 64.0183 13.1449 64.7649 13.3354C64.5783 11.0493 64.5783 9.52527 64.9515 8.00122Z" fill="#8F8F87"/>
        <path d="M66.2563 17.3361C66.443 16.0026 65.5098 14.4785 63.4567 14.288C61.5903 14.0975 60.6571 15.8121 60.8438 17.1456C61.0304 18.6697 61.9636 19.4317 63.6434 19.4317C64.9498 19.6222 65.883 18.6697 66.2563 17.3361Z" fill="#D4D4D1"/>
        <path d="M46.4743 14.4784C47.9674 14.2879 49.6472 15.05 50.0205 16.3835C50.3937 17.1455 50.3937 18.2886 50.0205 19.0506C50.0205 18.4791 50.0205 18.098 49.8338 17.5265C49.2739 16.193 47.5941 15.6215 46.2877 16.193C44.7945 16.7645 44.048 18.4791 44.7945 19.8126C44.2346 19.2411 43.8613 18.2886 43.8613 17.5265C43.8613 16.193 44.4212 14.6689 46.4743 14.4784Z" fill="#EAEAE9"/>
        <path d="M80.0683 15.431C78.7618 15.431 77.642 16.3835 77.4553 17.5266C77.4553 17.9076 77.4553 18.0981 77.4553 18.4791C77.2687 17.9076 77.082 17.3361 77.082 16.7645C77.2687 15.05 78.3885 14.0974 79.8816 14.288C81.3748 14.4785 82.8679 15.6215 82.4946 17.7171C82.308 16.3835 81.5614 15.431 80.0683 15.431Z" fill="#EAEAE9"/>
        <path d="M64.5781 2.66706C63.2716 1.90503 61.4052 2.28604 60.8453 3.61959C60.6586 4.0006 60.472 4.38161 60.472 4.76262C60.2854 4.1911 60.2854 3.61959 60.472 3.04807C61.2186 0.952503 63.4583 0.19048 64.9514 1.52402C65.8846 2.28604 66.4445 4.0006 65.8846 5.14363C65.8846 4.1911 65.5113 3.23857 64.5781 2.66706Z" fill="#EAEAE9"/>
        <path d="M63.4578 14.0974C65.5109 14.2879 66.4441 15.812 66.2574 17.1455C66.2574 17.5265 66.0708 18.098 65.6975 18.2885C65.8841 17.9075 65.8841 17.336 65.8841 16.955C65.6975 15.812 64.9509 15.0499 63.8311 14.8594C62.7112 14.8594 61.5914 15.6215 61.2181 16.7645C61.0315 17.1455 61.0315 17.5265 61.0315 17.9075C60.8448 17.717 60.8448 17.336 60.6582 16.955C60.6582 15.812 61.5914 14.0974 63.4578 14.0974Z" fill="#EAEAE9"/>
        <path d="M64.5768 20.9556C64.0168 21.1461 62.7104 20.9556 62.3371 20.7651C62.5237 22.0987 62.1504 36.1961 62.3371 38.6727C63.0836 39.0537 63.8302 39.0537 64.5768 38.6727C64.5768 34.6721 64.5768 22.8607 64.5768 20.9556Z" fill="#8F8F87"/>
        <path d="M69.8026 35.4342C69.4294 35.2437 66.0698 35.2437 65.5099 35.2437C65.5099 36.3868 65.5099 37.5298 65.3233 38.6728C64.3901 40.0064 62.1504 39.8159 61.2172 38.8633C61.0305 38.6728 61.0305 35.6247 61.0305 35.0532C56.7378 35.0532 45.726 35.0532 43.4863 35.4342C44.6062 36.5773 54.3115 45.15 54.4981 45.15C54.6848 45.3405 69.9893 45.5311 73.7221 45.7216C76.5217 45.7216 85.6671 46.1026 86.9736 46.1026C85.1072 45.5311 72.229 36.3868 69.8026 35.4342Z" fill="#FFE57D"/>
        <path d="M85.6683 45.7215C86.4149 46.1025 86.7881 46.4835 87.1614 46.674C85.8549 46.4835 76.8962 46.293 73.9099 46.293C70.1771 46.1025 54.8726 45.912 54.686 45.7215C54.686 45.7215 54.3127 45.3405 53.7528 44.9595C53.5661 44.5784 85.4817 45.531 85.6683 45.7215Z" fill="#FFF3C1"/>
        <path d="M61.5918 46.6741C61.7784 47.6266 62.1517 49.1506 62.525 50.1032C64.9513 49.5317 67.0044 48.1981 69.0574 46.6741C67.191 46.6741 62.525 46.6741 61.5918 46.6741Z" fill="#D4D4D1"/>
        <path d="M79.5098 47.436C80.443 47.817 86.2288 50.4841 86.4155 50.4841C86.6021 50.4841 86.6021 47.817 86.6021 47.6265C84.7357 47.436 80.0697 47.436 79.5098 47.436Z" fill="#D4D4D1"/>
        <path d="M81.3747 81.7273C81.9346 81.3463 82.3079 81.1558 82.8678 80.3938C82.8678 78.2982 83.0545 72.583 82.8678 70.678C81.5613 71.059 80.0682 71.44 78.7617 71.6305C78.7617 73.3451 78.7617 80.0128 78.7617 81.9178C79.6949 81.9178 80.4415 81.9178 81.3747 81.7273Z" fill="white"/>
        <path d="M78.2023 81.9176C78.2023 80.2031 78.2023 73.5354 78.3889 71.8208C76.8958 72.0113 74.2828 72.2018 73.3496 72.0113C73.3496 74.2974 73.3496 79.6315 73.3496 82.1081C74.8427 82.1081 76.3359 81.9176 78.2023 81.9176Z" fill="white"/>
        <path d="M82.868 69.7253C84.5478 68.7728 86.0409 67.8203 86.9741 66.6772C88.4672 70.4874 86.9741 79.2506 83.2413 81.9177C85.2943 81.9177 86.9741 81.9177 89.0272 81.9177C89.0272 78.1076 89.0272 51.4368 89.0272 48.0077C88.4672 48.0077 87.9073 48.0077 87.3474 48.0077C87.3474 48.3887 87.3474 51.6273 86.9741 51.8178C86.6008 52.0083 78.5753 48.1982 77.2688 47.4361C75.7757 47.4361 70.923 47.2456 69.9898 47.0551C67.9368 48.9602 64.5773 50.8652 61.7776 51.4368C61.4044 51.4368 60.4712 47.8172 60.4712 47.0551C58.6048 47.0551 55.2452 46.8646 55.2452 47.0551C55.2452 47.2456 55.0586 78.2981 55.0586 81.5367C57.8582 81.7272 60.6578 81.9177 63.4574 81.9177C59.538 78.2981 60.0979 67.8203 61.2177 63.8196C62.1509 64.9627 63.4574 66.4867 65.8837 68.0108C67.9368 69.1538 70.3631 70.1063 72.7894 70.4874C75.7757 71.2494 81.1883 70.6779 82.868 69.7253Z" fill="#FFC700"/>
        <path d="M83.6152 79.822C86.6015 76.2023 86.7881 69.5346 86.6015 68.3916C85.8549 69.3441 84.9217 70.1062 83.6152 70.4872C83.6152 72.2017 83.8019 78.4884 83.6152 79.822Z" fill="white"/>
        <path d="M66.258 83.4417C64.5783 83.4417 62.7119 83.2512 61.2188 83.2512C61.2188 86.1088 61.2188 89.1569 61.2188 92.0145C62.7119 92.586 64.9516 92.3955 66.4447 92.205C66.258 89.1569 66.258 86.1088 66.258 83.4417Z" fill="#8F8F87"/>
        <path d="M63.6445 68.2013C62.898 67.6298 62.1514 66.8677 61.5915 66.1057C60.8449 74.107 62.1514 78.8696 63.6445 80.3937C63.6445 77.5361 63.8312 69.9158 63.6445 68.2013Z" fill="white"/>
        <path d="M72.6022 82.108C72.6022 80.0124 72.6022 74.1068 72.6022 71.8207C71.2957 71.6302 69.9892 71.2492 68.6827 70.8682C68.6827 73.9163 68.4961 79.8219 68.4961 82.108C69.8026 82.108 72.4155 82.108 72.6022 82.108Z" fill="white"/>
        <path d="M67.9379 82.1081C67.9379 79.6315 67.9379 73.5354 67.9379 70.6778C66.6314 70.1062 65.5116 69.5347 64.3917 68.7727C64.3917 70.6778 64.2051 78.4885 64.2051 80.9651C64.765 81.5366 65.3249 81.9176 65.8848 82.2986C66.6314 82.1081 67.1913 82.1081 67.9379 82.1081Z" fill="white"/>
        <path d="M67.3773 88.9664C67.3773 90.1094 67.3773 90.8715 67.3773 92.0145C68.4972 92.0145 68.8704 92.7765 67.9372 92.967C66.8174 93.348 64.7643 93.348 63.0846 93.348C61.5915 93.348 59.9117 93.1575 58.9785 92.586C58.4186 92.205 58.9785 91.6335 59.9117 91.6335C59.9117 90.2999 59.9117 88.9664 59.9117 87.6328C55.9922 87.4423 34.9019 86.6803 30.9824 87.2518C33.5954 88.3949 37.3282 89.9189 40.1278 91.2525C43.8606 92.967 47.7801 94.4911 51.5129 96.0151C55.4323 95.6341 88.4677 96.0151 94.6268 95.8246C91.0807 94.4911 71.2968 89.7284 67.3773 88.9664Z" fill="#FFE57D"/>
        <path d="M92.3865 95.0625C93.5063 95.4435 94.2529 95.634 94.8128 95.8245C88.467 96.015 55.4316 95.634 51.6988 96.015C51.3255 95.8245 51.1389 95.8245 50.7656 95.634C56.5515 95.253 88.2804 95.253 92.3865 95.0625Z" fill="#FFF3C1"/>
        <path d="M61.5906 39.0538C59.1643 37.7202 56.738 36.3867 54.125 35.2437C56.9246 35.2437 59.7242 35.2437 61.404 35.2437C61.2173 35.8152 61.2173 38.8633 61.5906 39.0538C61.404 39.0538 61.404 39.0538 61.5906 39.0538Z" fill="#E8C954"/>
        <path d="M59.9106 91.6334C59.164 91.6334 58.7908 92.0144 58.7908 92.2049C49.2721 92.2049 40.1267 89.5378 31.168 87.0613C35.2741 86.6803 56.1778 87.4423 60.0972 87.4423C59.9106 88.9663 59.9106 90.2999 59.9106 91.6334Z" fill="#E8C954"/>
        <path d="M67.5645 91.6334C67.5645 90.6809 67.5645 89.9188 67.5645 88.9663C68.6843 89.1568 71.2973 89.7283 74.6568 90.4904C72.2305 91.0619 69.8041 91.4429 67.5645 91.6334Z" fill="#E8C954"/>
        <path d="M51.8867 96.9676C52.26 109.541 52.0734 142.118 52.4466 152.976C59.3523 152.405 87.5351 150.119 95.0007 149.738C95.0007 142.308 95.1873 100.968 95.0007 96.7771C87.1618 97.1581 59.9123 96.7771 51.8867 96.9676Z" fill="#FFC700"/>
        <path d="M53.0066 96.9675C53.1932 96.9675 53.7531 152.976 53.5665 152.976C53.1932 152.976 52.8199 152.976 52.4466 152.976C52.26 142.117 52.26 109.541 51.8867 96.9675C52.26 96.9675 52.6333 96.9675 53.0066 96.9675Z" fill="#FFE270"/>
        <path d="M94.4398 187.458C96.6795 187.077 98.5459 185.362 99.2925 182.886C99.8524 180.409 99.6658 178.123 98.5459 175.837C97.4261 173.36 94.4398 171.836 91.6402 172.027C87.5341 172.217 85.4811 175.075 84.9212 178.123C84.5479 180.218 84.7345 182.695 86.9742 184.6C89.2139 186.696 92.2002 187.839 94.4398 187.458Z" fill="#D4D4D1"/>
        <path d="M99.2935 174.885C100.973 177.552 101.347 180.79 100.227 183.648C99.2935 186.124 98.3603 187.267 97.0538 188.029C102.28 186.886 103.4 182.695 103.213 179.076C102.84 174.885 99.4801 170.693 96.6805 167.455C94.8141 165.169 92.9477 162.883 90.8947 160.787C92.2012 164.788 90.8947 169.931 87.5352 172.408C91.268 170.312 96.6805 170.693 99.2935 174.885Z" fill="#B0B0AA"/>
        <path d="M89.9611 166.502C90.7076 164.026 90.3343 160.597 88.6546 158.692C87.3481 157.168 86.4149 156.024 84.1752 155.643C80.2557 154.881 75.4031 156.596 74.2833 161.168C72.7901 166.502 75.963 172.027 81.7489 172.789C86.2282 173.361 89.0279 169.931 89.9611 166.502Z" fill="#D4D4D1"/>
        <path d="M83.2416 154.691C81.5619 154.119 80.0687 153.357 78.2023 153.167C77.6424 154.119 76.8959 155.453 76.3359 156.405C78.389 155.072 81.0019 154.5 83.2416 154.691Z" fill="#B0B0AA"/>
        <path d="M77.0823 152.595C76.3358 152.405 61.9644 153.929 56.3652 154.5C60.8446 157.358 65.8839 162.502 69.8033 166.883C71.8564 162.121 74.2827 156.977 77.0823 152.595Z" fill="#DBA300"/>
        <path d="M78.9482 183.648C81.1879 184.791 83.9875 186.505 86.6004 187.458C90.3333 188.982 92.7596 189.554 96.679 189.935C103.025 190.506 113.663 188.601 116.463 187.648C119.076 186.696 120.382 185.172 120.942 183.267C121.502 181.362 121.689 179.457 121.129 177.361C120.196 173.361 117.023 169.931 114.597 166.883C112.73 164.597 110.864 162.311 108.997 160.025C106.758 157.358 103.771 154.119 102.092 152.976C100.412 151.833 97.0523 150.69 93.5061 151.071C89.5867 151.262 84.1741 151.833 80.068 152.214C82.681 152.595 85.6672 153.929 88.2802 156.024C92.7596 159.644 95.9325 164.407 99.4786 168.788C102.465 172.598 105.264 176.79 104.518 181.743C104.145 184.6 101.905 188.41 97.6122 188.601C90.8932 188.982 86.2272 185.934 78.9482 182.124C78.7615 182.695 78.9482 183.267 78.9482 183.648Z" fill="#8F8F87"/>
        <path d="M84.921 184.219C82.4947 180.6 83.9878 175.647 86.974 172.98C85.4809 173.932 83.0546 174.313 81.1882 173.932C75.4023 172.98 72.6027 168.217 73.1627 163.073C72.4161 164.597 71.2962 166.883 70.7363 168.026C74.0959 171.837 77.8287 175.837 78.7619 180.981C80.8149 182.314 82.4947 183.076 84.921 184.219Z" fill="#B0B0AA"/>
        <path d="M52.8191 190.697C55.6187 189.363 56.5519 186.124 56.3653 183.457C56.1787 178.123 51.6993 173.742 48.1531 170.122C46.4734 168.407 44.9802 166.502 43.1138 164.407C43.8604 167.645 43.1138 171.265 41.0608 173.932C40.8741 174.123 40.6875 174.313 40.6875 174.504C42.5539 173.932 44.7936 173.742 47.0333 174.504C51.6993 175.837 55.2455 180.6 54.6855 185.362C54.3123 188.029 52.6325 190.506 50.3928 191.84C51.1394 191.268 52.0726 191.078 52.8191 190.697Z" fill="#B0B0AA"/>
        <path d="M34.9019 179.838C35.4618 178.504 36.2083 177.361 37.1415 176.409C34.1553 177.361 30.4225 176.599 27.8095 174.885C26.6897 174.123 25.7565 173.17 25.0099 172.027C24.6366 175.266 22.5836 178.123 18.2909 179.076C17.7309 179.266 17.3577 179.266 16.9844 179.266C19.5973 180.6 22.2103 181.933 24.8233 183.267C28.5561 185.172 32.4755 186.696 36.395 188.22C34.3419 185.934 33.5954 182.886 34.9019 179.838Z" fill="#B0B0AA"/>
        <path d="M18.2911 177.933C23.1438 177.361 24.6369 171.836 23.7037 167.836C22.9571 163.835 20.5308 162.502 17.5445 161.93C13.8117 161.168 10.2656 163.454 9.33236 166.883C7.83923 172.408 12.3186 178.695 18.2911 177.933Z" fill="#D4D4D1"/>
        <path d="M7.65297 168.598C7.65297 164.026 11.0125 160.787 15.4919 160.406C18.1048 160.216 21.4644 161.359 23.3308 163.645C23.5174 162.692 23.7041 161.549 24.0773 160.597C25.5705 156.596 29.6765 154.31 33.7826 155.262C31.7296 153.357 29.3033 152.595 26.5037 152.976C22.7708 153.357 16.0518 158.12 11.9457 160.978C7.83961 163.835 4.29344 166.693 4.85336 170.312C5.22664 173.17 8.39953 175.075 10.2659 176.028C8.58617 173.741 7.65297 171.074 7.65297 168.598Z" fill="#B0B0AA"/>
        <path d="M100.225 183.648C101.159 180.79 100.785 177.552 99.2923 174.885C98.5457 173.551 97.6125 172.789 96.4927 172.027C96.4927 168.217 94.0663 164.788 91.4534 161.93C91.4534 161.549 91.2667 160.978 91.0801 160.597C93.1331 162.692 94.9995 164.978 96.8659 167.264C99.6655 170.503 103.212 174.885 103.398 178.885C103.585 182.505 102.652 186.696 97.2392 187.839C98.3591 187.267 99.2923 186.124 100.225 183.648Z" fill="#92928A"/>
        <path d="M77.4551 154.691C77.8284 154.119 78.015 153.548 78.3883 153.167C80.2547 153.357 81.7478 154.119 83.4276 154.691C81.7478 154.5 80.068 154.691 78.5749 155.262C78.2016 155.072 77.8284 154.881 77.4551 154.691Z" fill="#92928A"/>
        <path d="M83.6151 180.028C83.6151 181.552 83.9884 183.076 84.9216 184.219C82.6819 183.076 80.8155 182.314 78.7624 180.981C78.5758 179.838 78.2025 178.504 77.6426 177.552C79.3223 178.695 81.3754 179.457 83.6151 180.028Z" fill="#92928A"/>
        <path d="M54.6858 184.981C55.2458 180.79 52.6328 176.789 48.9 174.884C47.5935 172.789 46.1004 171.074 44.9805 169.55C44.4206 168.979 44.0473 168.407 43.4874 167.836C43.6741 166.693 43.4874 165.359 43.3008 164.216C44.9805 166.121 46.6603 168.217 48.3401 169.931C51.8862 173.551 56.3656 177.932 56.5522 183.267C56.7389 186.124 55.8057 189.172 53.0061 190.506C52.2595 190.887 51.513 191.268 50.5798 191.458C52.6328 190.315 54.4992 187.648 54.6858 184.981Z" fill="#92928A"/>
        <path d="M20.7172 178.314C23.5168 180.219 26.503 181.552 29.4893 182.886C30.9824 183.457 32.6622 184.029 34.3419 184.6C34.7152 185.934 35.2751 187.077 36.395 188.03C32.4755 186.505 28.5561 184.981 24.8233 183.076C22.2103 181.743 19.5973 180.409 16.9844 179.076C17.3577 179.076 17.9176 179.076 18.2909 178.885C19.4107 178.885 20.1573 178.695 20.7172 178.314Z" fill="#92928A"/>
        <path d="M11.7587 160.787C15.8648 157.93 22.5838 153.167 26.3166 152.786C29.1162 152.595 31.5426 153.357 33.5956 155.072C30.796 154.5 27.8098 155.453 25.7567 157.549C25.0102 157.549 24.077 157.549 23.3304 157.739C21.2773 157.93 18.851 158.882 16.9846 160.406C16.4247 160.406 15.8648 160.406 15.3049 160.406C10.8255 160.787 7.46596 164.026 7.46596 168.598C7.46596 171.074 8.39916 173.742 9.89228 175.837C8.02588 174.885 5.03963 172.98 4.47971 170.122C4.29307 166.693 7.83924 163.645 11.7587 160.787Z" fill="#92928A"/>
        <path d="M29.4893 156.787C27.2496 157.549 25.9431 159.644 25.1965 161.74C23.7034 165.931 25.1965 170.884 28.7427 173.551C31.7289 175.837 36.2083 176.028 39.1946 173.742C41.2476 172.218 41.9942 169.36 42.1808 167.074C42.3674 164.788 41.4342 163.073 40.3144 161.359C39.0079 159.835 37.7014 158.12 35.6484 157.358C33.782 156.215 31.7289 156.025 29.4893 156.787Z" fill="#D4D4D1"/>
        <path d="M53.5667 184.219C54.1266 180.028 50.3938 176.218 46.661 175.075C43.1148 174.122 38.6354 175.837 36.9557 179.266C34.5294 184.41 38.8221 189.934 44.048 190.696C49.0873 191.839 52.8201 188.601 53.5667 184.219Z" fill="#D4D4D1"/>
        <path d="M90.5209 175.837C89.961 176.218 89.5877 176.79 89.401 177.361C89.0278 178.504 89.2144 180.028 90.1476 180.79C91.0808 181.552 92.3873 181.933 93.5071 181.362C95.0003 180.409 95.9335 178.504 95.1869 176.98C98.5464 178.885 96.3067 187.458 90.5209 184.41C88.2812 183.076 86.6014 180.028 88.0946 177.552C88.6545 176.409 89.5877 176.028 90.5209 175.837Z" fill="#B5B5B0"/>
        <path d="M82.1213 165.931C84.5477 164.216 83.8011 160.406 81.3748 159.454C84.9209 158.882 88.2805 165.74 84.361 168.026C82.6813 168.979 80.6282 168.979 78.9484 167.836C77.8286 167.074 77.2687 166.121 77.082 164.978C78.3885 166.312 80.4416 167.074 82.1213 165.931Z" fill="#B5B5B0"/>
        <path d="M18.291 170.122C18.8509 167.645 17.1712 165.359 14.9315 164.978C18.4777 163.073 21.8372 168.598 20.5307 171.646C19.4109 174.694 15.4914 175.646 13.625 173.17C15.678 174.122 17.7311 172.408 18.291 170.122Z" fill="#B5B5B0"/>
        <path d="M30.6085 160.025C30.0485 160.216 29.302 160.597 28.9287 161.168C27.9955 162.692 28.7421 165.169 30.0485 166.121C32.8482 168.598 36.7676 166.502 37.1409 163.454C37.8874 165.359 37.3275 167.264 35.8344 168.979C34.3413 170.694 32.4749 171.075 30.2352 170.122C25.7558 168.408 27.2489 159.454 30.6085 160.025Z" fill="#B5B5B0"/>
        <path d="M47.7805 179.457C50.0202 181.743 51.3267 187.077 47.2206 188.029C48.1538 185.934 46.6607 182.886 45.1676 181.552C43.3012 180.028 40.8748 180.79 39.5684 182.505C39.9416 178.504 44.421 176.218 47.7805 179.457Z" fill="#B5B5B0"/>
        <path d="M96.6802 175.075C94.2539 173.17 90.5211 172.598 88.0948 174.313C86.415 175.646 85.2952 177.742 84.9219 180.028C84.9219 179.456 84.9219 178.694 85.1085 178.123C85.6684 175.075 87.7215 172.027 91.8276 172.027C94.6272 171.836 97.4268 173.36 98.7333 175.837C99.2932 176.98 99.6665 178.123 99.6665 179.456C99.1066 177.932 98.1733 176.408 96.6802 175.075Z" fill="#EAEAE9"/>
        <path d="M79.6949 157.93C76.7087 159.073 74.8423 161.549 74.0957 164.216C74.0957 163.264 74.0957 162.121 74.469 161.168C75.7755 156.596 80.4415 154.881 84.3609 155.643C86.6006 156.024 87.3472 156.977 88.8403 158.692C89.9602 160.025 90.5201 162.311 90.3334 164.216C89.027 159.835 84.5476 156.025 79.6949 157.93Z" fill="#EAEAE9"/>
        <path d="M22.0244 166.312C19.5981 162.883 13.9989 162.502 10.826 164.978C10.4527 165.359 9.89281 165.74 9.51953 166.121C10.826 163.073 13.9989 161.359 17.3584 161.93C20.3447 162.502 22.771 164.026 23.5176 167.836C23.7042 168.598 23.7042 169.55 23.7042 170.503C23.5176 168.979 22.9576 167.455 22.0244 166.312Z" fill="#EAEAE9"/>
        <path d="M42.1812 167.836C41.4347 164.788 39.3816 161.549 37.5152 160.406C34.7156 158.692 30.4229 157.358 27.25 158.12C27.8099 157.548 28.5565 156.977 29.4897 156.786C31.7294 156.024 33.9691 156.405 35.8355 157.167C37.7019 157.929 39.0083 159.835 40.5015 161.168C41.6213 162.883 42.5545 164.788 42.3679 166.883C42.3679 167.264 42.1812 167.645 42.1812 167.836Z" fill="#EAEAE9"/>
        <path d="M40.5009 177.552C38.0745 179.076 36.768 181.362 36.2081 183.838C35.8348 182.314 36.0215 180.79 36.768 179.457C38.4478 175.837 42.9272 174.313 46.4733 175.266C49.6462 176.028 52.6325 178.885 53.379 182.314C50.7661 177.933 44.6069 174.885 40.5009 177.552Z" fill="#EAEAE9"/>
        <path d="M5.22633 175.647C8.02593 177.933 19.9709 183.458 24.4503 185.553C28.9297 187.649 33.969 189.363 36.9552 190.506C39.9415 191.649 41.2479 191.84 43.301 191.84C41.8079 191.459 40.688 190.887 38.635 190.316C33.969 188.601 29.8629 186.696 25.3835 184.601C20.5308 182.314 15.8648 179.838 11.0122 177.552C8.7725 176.409 4.29312 174.123 3.54656 170.884C3.17328 169.36 3.17328 167.265 5.22633 164.597C7.27937 162.121 20.9041 151.643 26.69 151.453C32.1026 151.453 35.2754 154.31 38.8216 157.739C43.1143 161.93 47.0338 166.883 51.1399 171.265C54.6861 175.075 58.4189 180.028 57.4857 185.363C56.9257 188.22 55.0593 190.697 52.633 191.649C56.7391 191.459 61.0318 191.268 65.1379 191.078C71.1104 190.887 76.1497 189.554 76.7096 182.695C77.0829 177.552 72.7902 172.599 69.6173 168.979C64.9513 163.645 59.912 158.311 54.1261 154.12C52.8196 154.12 51.5132 154.31 50.58 154.12C46.2872 153.167 36.7686 149.357 31.9159 146.88C25.3835 147.833 19.2244 152.405 13.6251 155.644C10.4523 157.549 5.59961 160.597 3.54656 162.883C1.68016 165.169 0.746955 166.502 0.933595 168.979C1.49352 172.218 2.61336 173.551 5.22633 175.647Z" fill="#8F8F87"/>
        <path d="M56.7383 16.1931C57.8581 16.1931 58.978 16.1931 59.5379 16.1931C59.3512 16.7646 59.5379 17.7172 59.7245 18.2887C59.1646 18.2887 58.2314 18.2887 57.1116 18.2887C56.9249 17.5267 56.7383 16.9551 56.7383 16.1931Z" fill="#706D69"/>
        <path d="M51.3262 16.1931C51.8861 16.1931 53.0059 16.1931 54.3124 16.1931C54.3124 16.7646 54.4991 17.5267 54.4991 18.0982C53.3792 18.0982 52.2594 18.0982 51.6995 18.0982C51.6995 17.7172 51.3262 16.5741 51.3262 16.1931Z" fill="#706D69"/>
        <path d="M67.5636 16.574C68.3102 16.574 69.2434 16.574 69.9899 16.574C69.9899 17.1455 69.9899 17.5265 69.9899 18.098C68.6834 18.098 67.7502 18.098 67.377 18.098C67.377 17.717 67.5636 16.955 67.5636 16.574Z" fill="#706D69"/>
        <path d="M122.062 101.159C122.809 100.206 123.369 99.2536 123.742 98.8726C124.116 99.8251 124.675 100.016 125.422 100.587C124.862 101.349 124.116 102.302 123.369 103.635C122.622 102.873 122.249 101.921 122.062 101.159Z" fill="#706D69"/>
        <path d="M100.226 111.827C98.5463 111.065 97.2398 110.493 96.3066 110.112C96.3066 109.16 96.3066 108.398 96.3066 107.445C97.2398 107.826 98.5463 108.398 100.039 108.969C100.226 109.922 100.226 110.874 100.226 111.827Z" fill="#706D69"/>
        <path d="M9.89172 112.97C9.89172 112.208 9.70508 111.637 9.70508 111.256C10.265 111.256 11.1982 111.065 11.7581 110.875C11.7581 111.446 11.9448 112.208 11.9448 112.78C11.3848 112.97 10.6383 112.97 9.89172 112.97Z" fill="#706D69"/>
        <path d="M37.8887 105.159C38.262 105.159 38.4487 105.159 38.6353 105.159C39.3819 105.921 39.3819 107.636 38.8219 108.779C38.0754 108.779 37.3288 108.779 36.209 108.779C37.1422 107.636 37.7021 106.493 37.8887 105.159Z" fill="#706D69"/>
        <path d="M15.1186 105.159C15.8652 106.302 16.2384 107.636 16.0518 108.779C15.1186 108.779 14.372 108.779 13.8121 108.779C14.1854 107.636 13.8121 106.302 12.8789 105.159C13.8121 105.159 14.372 105.159 15.1186 105.159Z" fill="#706D69"/>
        <path d="M62.5254 9.90628C62.5254 9.14426 62.5254 8.38223 62.5254 8.00122C63.272 8.19173 64.0185 8.19173 64.7651 8.00122C64.7651 8.38223 64.5784 9.14426 64.5784 10.0968C64.0185 10.0968 63.272 10.0968 62.5254 9.90628Z" fill="#706D69"/>
        <path d="M62.3379 22.6702C62.3379 21.7177 62.3379 20.9556 62.3379 20.7651C62.7112 20.9556 64.0176 21.1461 64.5776 20.9556C64.5776 21.3367 64.5776 22.0987 64.5776 22.8607C63.831 22.8607 63.0845 22.8607 62.3379 22.6702Z" fill="#706D69"/>
        <path d="M66.258 87.2518C64.5783 87.2518 62.8985 87.2518 61.2188 86.8708C61.2188 85.7278 61.2188 84.3943 61.2188 83.2512C62.8985 83.4417 64.7649 83.4417 66.258 83.4417C66.258 84.5848 66.258 85.9183 66.258 87.2518Z" fill="#706D69"/>
        <path d="M61.2188 88.9664C61.2188 88.7759 61.2188 88.3949 61.2188 88.2043C62.8985 88.5854 64.5783 88.7759 66.4447 88.5854C66.4447 88.7759 66.4447 88.9664 66.4447 89.1569C64.5783 89.1569 62.8985 89.1569 61.2188 88.9664Z" fill="#706D69"/>
        <path d="M92.2011 151.071C91.2679 151.452 90.3347 152.024 89.4015 152.595C88.2816 153.357 87.5351 154.119 86.7885 155.072C84.5488 153.548 82.1225 152.595 79.8828 152.214C83.6156 151.833 88.4683 151.452 92.2011 151.071Z" fill="#706D69"/>
        <path d="M97.4258 188.792C101.719 188.601 103.958 184.791 104.331 181.933C110.117 181.933 115.903 181.362 121.502 180.028C121.502 181.171 121.316 182.314 120.942 183.457C120.383 185.362 119.076 186.887 116.463 187.839C113.85 188.792 103.212 190.506 96.6792 190.125C92.7598 189.744 90.3334 189.173 86.6006 187.649C83.9877 186.506 81.188 184.981 78.9484 183.838C78.9484 183.457 78.7617 182.695 78.7617 182.505C85.8541 186.125 90.7067 189.363 97.4258 188.792Z" fill="#706D69"/>
        <path d="M58.0449 185.743C58.0449 185.553 58.0449 185.172 58.2316 184.981C64.5773 186.315 71.483 186.505 77.2689 184.41C76.3357 190.125 71.483 191.459 65.8838 191.649C61.7777 191.84 57.485 191.84 53.3789 192.221C55.6186 191.268 57.485 188.792 58.0449 185.743Z" fill="#706D69"/>
        <path d="M3.17305 164.597C3.35969 165.55 3.54633 166.693 3.91962 167.645C3.54633 168.979 3.54633 170.122 3.91962 171.074C4.66618 174.313 9.14555 176.599 11.3852 177.742C16.2379 180.028 20.9039 182.505 25.7566 184.791C30.2359 186.886 34.342 188.791 39.008 190.506C40.8744 191.268 42.1809 191.649 43.674 192.03C41.621 192.03 40.3145 191.649 37.3283 190.696C34.342 189.553 29.3027 187.839 24.8233 185.743C20.1573 183.648 8.39899 178.123 5.59938 175.837C2.98641 173.741 1.86657 172.408 1.67993 169.931C1.30665 167.455 1.86657 166.121 3.17305 164.597Z" fill="#706D69"/>
        <path d="M47.2208 156.977C47.0341 156.977 47.0341 156.977 46.8475 156.977C41.6216 153.929 36.5823 150.881 31.543 147.642C31.7296 147.642 32.1029 147.452 32.2895 147.452C37.1422 149.928 46.6608 153.738 50.9536 154.691C51.7001 154.881 53.1933 154.691 54.4998 154.691C55.8062 155.643 56.9261 156.596 58.2326 157.548C54.6864 158.12 50.7669 157.548 47.2208 156.977Z" fill="#706D69"/>
        <path d="M38.8205 181.362C39.567 178.695 41.8067 176.79 44.7929 176.98C50.7654 177.171 53.7517 187.648 47.0326 188.601C46.846 188.601 46.846 188.41 47.0326 188.41C52.0719 186.315 49.8322 178.695 44.6063 178.695C42.5533 178.695 40.8735 180.409 40.3136 182.124C39.567 184.41 41.0601 186.505 42.9265 187.458C43.2998 187.648 42.9265 188.029 42.5533 188.029C39.567 186.886 37.8872 184.029 38.8205 181.362Z" fill="black"/>
        <path d="M31.9153 160.025C32.1019 160.025 31.9153 160.216 31.9153 160.216C28.929 159.454 28.1825 162.502 28.1825 164.788C28.1825 166.693 29.3023 168.598 31.1687 169.551C32.6619 170.313 34.5283 169.551 35.8347 168.598C37.7011 166.883 37.3279 164.026 36.5813 162.121C36.3947 161.93 37.3279 161.93 38.0744 164.026C39.1943 168.217 34.7149 172.789 30.2355 170.694C25.5695 168.598 25.5695 158.12 31.9153 160.025Z" fill="black"/>
        <path d="M13.0638 172.408C13.997 173.551 15.3035 174.122 16.9833 173.741C18.663 173.551 19.7829 171.836 20.1562 170.312C20.5294 168.598 19.7829 166.883 18.2898 165.931C16.61 164.597 13.997 165.359 13.0638 166.693C12.8772 166.883 12.6905 166.693 12.6905 166.502C13.0638 165.55 13.4371 164.788 14.557 164.407C15.4902 164.026 16.61 164.026 17.5432 164.407C19.5962 165.359 21.276 167.455 21.0894 169.741C20.9027 171.836 19.7829 173.932 17.7298 174.694C15.8634 175.265 13.0638 174.694 12.5039 172.598C12.6905 172.598 12.8772 172.408 13.0638 172.408Z" fill="black"/>
        <path d="M92.3866 175.456C92.5732 175.647 92.5732 176.028 92.2 176.028C89.0271 175.647 87.7206 177.361 88.4671 180.219C89.0271 182.314 90.1469 183.838 92.3866 184.219C94.253 184.6 95.9328 183.076 96.1194 181.552C96.4927 179.457 95.7461 177.742 93.8797 176.599C93.6931 176.599 93.8797 176.218 94.0664 176.409C98.919 177.552 97.6125 185.743 92.5732 185.553C89.2137 185.362 87.5339 182.886 87.1607 180.028C86.7874 177.171 89.4003 174.313 92.3866 175.456Z" fill="black"/>
        <path d="M76.8965 164.026C76.8965 163.835 77.2698 163.835 77.4564 164.026C78.0163 165.55 78.7629 166.693 80.4426 167.455C81.9358 168.217 83.8022 167.836 84.922 166.502C87.3483 163.645 83.6155 158.692 80.0694 159.644C79.8827 159.644 79.8827 159.454 80.0694 159.454C82.1224 158.311 84.1755 159.073 85.6686 160.978C87.1617 162.883 87.3483 165.55 85.8552 167.455C83.0556 171.074 75.9633 168.407 76.8965 164.026Z" fill="black"/>
        <path d="M76.8966 54.4848C77.6432 52.9608 79.323 51.6273 82.1226 51.8178C85.4821 52.1988 86.7886 54.4848 87.3485 56.7709C87.9084 60.2 86.042 64.2007 82.1226 64.2007C78.763 64.2007 77.2699 62.4861 76.5234 60.3905C75.9634 58.8665 75.7768 56.7709 76.8966 54.4848Z" fill="black"/>
        <path d="M77.2696 57.3424C77.083 60.7715 79.136 62.8671 81.749 63.0576C84.7352 63.2481 86.415 60.581 86.415 58.1044C86.415 55.4373 84.9219 53.1513 82.1223 52.7703C79.6959 52.7703 77.4562 53.9133 77.2696 57.3424Z" fill="#D10021"/>
        <path d="M61.9639 55.0563C63.0838 51.8177 67.3765 49.7222 70.7361 52.1987C74.0956 54.6753 74.0956 58.2949 73.1624 60.962C72.0425 64.5816 66.8166 65.7247 64.017 63.6291C61.404 61.724 61.0307 58.1044 61.9639 55.0563Z" fill="black"/>
        <path d="M64.391 62.105C66.8173 64.3911 71.1101 63.4386 72.2299 60.2C73.5364 56.5804 71.4833 53.1512 69.057 52.5797C66.2574 51.8177 63.8311 53.5323 63.0845 55.8183C62.5246 58.1044 62.7112 60.581 64.391 62.105Z" fill="#D10021"/>
        <path d="M78.7618 53.9133C76.8954 56.5804 78.7618 60.581 82.4946 60.7715C84.1744 60.7715 85.4809 60.0095 86.2274 58.8665C86.0408 61.1526 84.361 63.4386 81.5614 63.2481C78.9484 63.0576 77.082 60.9621 77.082 57.5329C77.2687 55.6279 77.8286 54.4848 78.7618 53.9133Z" fill="#960017"/>
        <path d="M63.0845 55.8183C63.4578 54.6752 64.2044 53.7227 65.3242 52.9607C63.4578 54.8658 64.0177 58.4854 66.2574 60.1999C68.1238 61.5335 70.3635 61.343 72.2299 60.0094V60.1999C71.1101 63.4385 66.8173 64.391 64.391 62.105C62.7112 60.5809 62.5246 58.1044 63.0845 55.8183Z" fill="#960017"/>
        <path d="M92.9468 99.4441L54.8722 99.8251L54.6855 108.398L92.9468 107.445V99.4441Z" fill="black"/>
        <path d="M92.9469 109.35L93.1335 148.023L87.3477 148.595V109.541L92.9469 109.35Z" fill="black"/>
        <path d="M85.2941 109.541L85.4808 148.404L78.7617 148.785L78.9484 109.732L85.2941 109.541Z" fill="black"/>
        <path d="M76.1483 148.595L54.498 150.5L54.8713 131.259L75.9617 130.306L76.1483 148.595Z" fill="black"/>
        <path d="M76.1494 109.922L75.9627 116.018L69.9902 116.209V109.922H76.1494Z" fill="black"/>
        <path d="M68.497 109.922L68.3104 116.018L62.3379 116.209V109.922H68.497Z" fill="black"/>
        <path d="M61.0322 109.922L60.8455 116.018L54.873 116.209V109.922H61.0322Z" fill="black"/>
        <path d="M92.1996 106.302V100.206L55.8047 100.397V107.255L92.1996 106.302Z" fill="#6BABCC"/>
        <path d="M57.4853 100.397C57.672 101.54 57.672 104.778 58.0452 104.778C64.391 105.159 86.7879 104.016 92.2004 103.826V106.112L55.9922 106.874V100.206L57.4853 100.397Z" fill="#3B82AD"/>
        <path d="M75.0288 115.066L75.2155 110.684H71.1094L71.296 115.066H75.0288Z" fill="#FFFF0F"/>
        <path d="M72.416 110.684H75.4023L75.2156 115.066C74.2824 113.351 73.3492 112.018 72.416 110.684Z" fill="#FFFF78"/>
        <path d="M67.7498 110.494V115.066H63.457V110.684L67.7498 110.494Z" fill="#FA6900"/>
        <path d="M90.1476 53.9133C91.0808 53.9133 92.014 53.9133 92.7605 54.2943C92.7605 56.5804 93.1338 58.8665 93.6937 61.1526C94.067 62.6766 94.6269 64.3912 95.1869 65.9152C94.8136 66.1057 94.4403 66.4867 94.067 66.6772C92.7605 67.2487 91.2674 67.6298 89.9609 67.6298C90.1476 66.6772 90.1476 54.2943 90.1476 53.9133Z" fill="#CF4D00"/>
        <path d="M39.3815 104.207C38.075 104.016 36.7685 104.016 35.2754 104.016C35.462 103.445 35.6487 102.683 35.8353 101.921C38.075 100.968 40.5013 101.73 41.8078 104.778C42.741 106.874 43.1143 109.541 42.3677 111.827C41.9945 112.208 41.4345 112.398 40.8746 112.398C38.2616 112.589 36.9552 111.446 36.3952 109.922C37.1418 109.922 38.6349 109.731 39.3815 109.731C41.0612 108.207 40.3147 104.969 39.3815 104.207Z" fill="#CF4D00"/>
        <path d="M38.2618 56.5802C40.5015 56.1992 42.7412 55.2467 44.2343 53.3416C45.9141 51.246 46.1007 48.96 46.2873 46.4834C46.474 46.4834 46.6606 46.6739 46.6606 46.6739C47.9671 49.341 48.3404 51.246 48.1537 55.2467C47.7805 59.2473 46.1007 62.4859 45.7274 62.4859C45.3541 62.4859 34.1557 62.1049 31.916 56.0087C33.7824 56.5802 36.0221 56.9612 38.2618 56.5802Z" fill="#CF4D00"/>
        <path d="M67.7498 110.494V115.066H63.457V110.684L67.7498 110.494Z" fill="#CF4D00"/>
        <path d="M67.3764 115.066C66.6298 113.542 65.8833 112.018 65.1367 110.494H67.7497V115.066H67.3764Z" fill="#FA8C5A"/>
        <path d="M60.2849 110.494V115.066H55.9922V110.684L60.2849 110.494Z" fill="#CC120A"/>
        <path d="M59.7258 115.066C59.1659 113.542 58.4193 112.018 57.8594 110.684H60.2857L60.0991 115.256L59.7258 115.066Z" fill="#F55E3D"/>
        <path d="M75.2162 131.068L56.1788 132.021L55.9922 148.976L75.2162 147.261V131.068Z" fill="#D4D4D1"/>
        <path d="M56.1788 132.021L59.9116 131.83C59.9116 136.021 59.725 145.166 59.9116 145.547C60.0983 146.118 73.5364 145.356 75.4028 145.166V147.071L55.9922 148.976L56.1788 132.021Z" fill="#B1B1AB"/>
        <path d="M92.1996 110.113L88.4668 110.303L88.6534 146.88L92.3862 146.69L92.1996 110.113Z" fill="#AB54C4"/>
        <path d="M89.2134 110.303C89.0267 112.208 89.7733 144.023 89.9599 144.594C90.1466 145.166 91.8263 144.594 92.3862 144.594V146.69L88.6534 146.88L88.4668 110.493L89.2134 110.303Z" fill="#8530AD"/>
        <path d="M84.5477 110.303L80.0684 110.493L80.255 146.88L84.5477 146.69V110.303Z" fill="#80BB7C"/>
        <path d="M81.0024 110.494C81.3757 122.115 81.3757 144.023 81.5623 144.594C81.749 145.166 83.802 144.975 84.5486 144.785V146.69L80.2559 146.88V110.494H81.0024Z" fill="#42995E"/>
        <path d="M103.399 187.267C105.825 186.696 114.597 185.362 119.077 184.41C119.263 184.41 119.45 184.6 119.263 184.791C114.97 187.458 108.438 188.03 103.585 187.839C103.212 187.839 103.026 187.458 103.399 187.267Z" fill="black"/>
        <path d="M106.385 184.219C108.251 183.648 117.583 182.124 120.196 181.933C120.383 181.933 120.57 182.124 120.196 182.314C118.33 182.886 109.185 184.791 106.572 184.981C106.012 184.981 105.825 184.41 106.385 184.219Z" fill="black"/>
        <path d="M106.384 180.981C108.251 179.647 118.329 178.504 120.569 178.885C120.756 178.885 120.756 179.076 120.569 179.076C118.703 179.838 109.184 181.552 106.571 181.362C106.198 181.552 106.198 181.171 106.384 180.981Z" fill="black"/>
        <path d="M105.824 177.552C110.117 176.409 115.343 175.266 119.822 175.647C120.009 175.647 120.009 175.837 119.822 176.028C115.53 177.171 110.49 178.314 106.011 178.314C105.451 178.504 105.264 177.742 105.824 177.552Z" fill="black"/>
        <path d="M105.079 175.266C106.759 174.694 115.344 172.598 117.957 172.408C118.144 172.408 118.33 172.598 117.957 172.789C115.904 173.741 107.318 176.028 105.079 175.837C104.892 175.837 104.706 175.456 105.079 175.266Z" fill="black"/>
        <path d="M104.518 172.789C106.011 171.836 114.037 170.312 116.276 170.122C116.463 170.122 116.65 170.503 116.463 170.503C114.597 171.265 106.758 173.36 104.705 173.36C104.331 173.17 104.145 172.789 104.518 172.789Z" fill="black"/>
        <path d="M103.026 169.741C105.079 169.169 111.798 167.645 113.478 167.455C113.664 167.455 113.851 167.836 113.664 167.836C112.358 168.598 105.265 170.312 103.212 170.122C102.839 170.312 102.652 169.931 103.026 169.741Z" fill="black"/>
        <path d="M100.599 167.836C101.906 167.074 109.371 165.359 111.611 165.359C111.798 165.359 111.984 165.74 111.798 165.74C110.304 166.502 102.839 168.598 100.786 168.407C100.413 168.217 100.413 167.836 100.599 167.836Z" fill="black"/>
        <path d="M98.3602 165.359C99.8533 164.597 107.692 162.883 109.932 162.692C110.119 162.692 110.305 162.883 110.119 163.073C108.625 164.026 100.787 165.74 98.7335 166.121C98.1736 166.312 97.9869 165.55 98.3602 165.359Z" fill="black"/>
        <path d="M96.6792 163.264C97.9857 162.311 105.638 160.406 107.878 160.597C108.064 160.597 108.251 160.978 107.878 160.978C106.385 161.549 98.9189 163.454 96.8659 163.835C96.4926 163.835 96.4926 163.454 96.6792 163.264Z" fill="black"/>
        <path d="M94.9995 160.787C96.4927 159.834 103.772 157.929 105.638 157.929C105.825 157.929 106.011 158.31 105.825 158.31C103.958 159.263 96.866 161.359 95.1862 161.359C94.8129 161.359 94.8129 160.787 94.9995 160.787Z" fill="black"/>
        <path d="M92.7601 158.31C94.4399 157.358 101.905 155.643 103.772 155.643C104.145 155.643 104.145 156.215 103.959 156.215C102.279 156.977 94.8132 158.691 92.9467 159.072C92.5735 159.072 92.3868 158.501 92.7601 158.31Z" fill="black"/>
        <path d="M91.2679 156.024C92.761 155.072 94.6274 154.881 96.3072 154.31C97.987 153.929 99.8534 153.357 101.533 153.167C101.72 153.167 101.906 153.548 101.72 153.738C100.413 154.31 98.9202 154.691 97.4271 155.262C95.5606 155.834 93.321 156.786 91.4546 156.596C91.0813 156.405 90.8946 156.024 91.2679 156.024Z" fill="black"/>
        <path d="M88.2806 153.738C89.9604 152.976 97.0527 151.452 98.9191 151.452C99.1058 151.452 99.8523 151.452 99.6657 151.452C97.9859 152.024 90.147 154.31 88.2806 154.119C88.094 154.119 88.094 153.738 88.2806 153.738Z" fill="black"/>
        <path d="M85.4816 152.786C87.348 151.833 94.627 150.69 96.3068 150.5C96.4934 150.5 96.8667 150.5 96.68 150.69C95.0003 151.452 87.348 153.357 85.6682 153.357C85.4816 153.357 85.295 152.786 85.4816 152.786Z" fill="black"/>
        <path d="M58.0445 190.315C60.4708 189.744 69.4295 188.41 73.7223 187.458C73.9089 187.458 74.0955 187.648 73.9089 187.839C69.6162 190.506 63.2704 191.077 58.2311 190.887C57.8578 190.887 57.8578 190.315 58.0445 190.315Z" fill="black"/>
        <path d="M61.0321 187.268C62.8985 186.696 72.2305 185.172 74.8435 184.981C75.0301 184.981 75.2168 185.172 75.0301 185.362C73.1637 185.934 64.0183 187.839 61.4054 188.03C60.8455 188.03 60.6588 187.268 61.0321 187.268Z" fill="black"/>
        <path d="M61.0308 184.029C62.8972 182.695 72.9758 181.552 75.2155 181.933C75.4021 181.933 75.4021 182.124 75.2155 182.124C73.3491 182.886 63.8304 184.6 61.2174 184.41C60.8442 184.6 60.8442 184.219 61.0308 184.029Z" fill="black"/>
        <path d="M60.4709 180.6C64.7636 179.457 69.9896 178.314 74.4689 178.695C74.6556 178.695 74.6556 178.885 74.4689 179.076C70.1762 180.219 65.1369 181.362 60.6575 181.362C60.0976 181.362 59.911 180.79 60.4709 180.6Z" fill="black"/>
        <path d="M59.724 178.314C61.4037 177.742 69.9892 175.647 72.6022 175.456C72.7888 175.456 72.9754 175.647 72.6022 175.837C70.5491 176.79 61.9636 179.076 59.724 178.885C59.5373 178.695 59.5373 178.314 59.724 178.314Z" fill="black"/>
        <path d="M59.1656 175.647C60.6587 174.694 68.6842 173.17 70.9239 172.979C71.1106 172.979 71.2972 173.36 71.1106 173.36C69.2441 174.123 61.4052 176.218 59.3522 176.218C58.9789 176.218 58.9789 175.837 59.1656 175.647Z" fill="black"/>
        <path d="M57.6711 172.789C59.7241 172.217 66.2565 170.693 68.1229 170.503C68.3096 170.503 68.4962 170.884 68.3096 170.884C67.0031 171.646 59.9107 173.361 57.8577 173.17C57.6711 173.17 57.4844 172.789 57.6711 172.789Z" fill="black"/>
        <path d="M55.432 170.693C56.7385 169.931 64.2041 168.217 66.4438 168.217C66.6304 168.217 66.817 168.598 66.6304 168.598C65.1373 169.36 57.6717 171.455 55.6186 171.265C55.2453 171.265 55.0587 170.884 55.432 170.693Z" fill="black"/>
        <path d="M53.0067 168.407C54.4998 167.645 62.3387 165.931 64.5784 165.74C64.7651 165.74 64.9517 165.931 64.7651 166.121C63.2719 167.074 55.433 168.788 53.38 169.169C52.8201 169.169 52.6334 168.598 53.0067 168.407Z" fill="black"/>
        <path d="M51.3254 166.312C52.6318 165.359 60.2841 163.454 62.5238 163.645C62.7104 163.645 62.8971 164.026 62.5238 164.026C61.0307 164.597 53.565 166.502 51.512 166.883C51.3254 166.693 51.1387 166.312 51.3254 166.312Z" fill="black"/>
        <path d="M49.8324 163.645C51.3255 162.692 58.6045 160.787 60.4709 160.787C60.6576 160.787 60.8442 161.168 60.6576 161.168C58.7912 162.121 51.6988 164.216 50.0191 164.216C49.4591 164.216 49.4591 163.835 49.8324 163.645Z" fill="black"/>
        <path d="M47.4066 161.168C49.0864 160.216 56.552 158.501 58.4184 158.501C58.7917 158.501 58.7917 159.073 58.605 159.073C56.9253 159.835 49.4596 161.549 47.5932 161.93C47.22 162.121 47.0333 161.359 47.4066 161.168Z" fill="black"/>
        <path d="M44.9808 159.263C46.4739 158.311 53.5663 156.596 55.246 156.596C55.4327 156.596 55.6193 156.977 55.4327 157.167C54.1262 157.739 47.2205 160.025 45.1675 160.025C44.7942 159.644 44.6075 159.263 44.9808 159.263Z" fill="black"/>
        <path d="M42.181 156.787C43.8608 156.025 50.9531 154.5 52.8195 154.5C53.0061 154.5 53.7527 154.5 53.5661 154.5C51.8863 155.072 44.0474 157.358 42.181 157.168C41.9944 157.168 41.9944 156.787 42.181 156.787Z" fill="black"/>
        <path d="M39.1937 155.072C40.8735 154.31 47.7792 153.167 49.4589 153.167C49.6456 153.167 50.0189 153.167 49.8322 153.357C48.3391 153.929 41.0601 155.643 39.3803 155.643C39.0071 155.643 38.8204 155.262 39.1937 155.072Z" fill="black"/>
        <path d="M36.2082 153.357C37.1414 152.786 45.7268 151.643 45.1669 151.643C44.9803 151.643 45.5402 151.643 45.5402 151.833C44.2337 152.405 37.8879 153.929 36.3948 153.929C36.2082 153.738 36.0215 153.357 36.2082 153.357Z" fill="black"/>
        <path d="M32.8486 151.643C34.1551 151.071 39.5676 150.119 40.8741 150.119C41.0608 150.119 41.2474 150.119 41.0608 150.309C39.9409 150.881 34.1551 152.024 32.8486 152.214C32.8486 152.024 32.6619 151.833 32.8486 151.643Z" fill="black"/>
        <path d="M29.675 150.309C30.7948 149.738 34.341 148.785 36.5807 148.404C36.7673 148.595 36.9539 148.595 37.1406 148.785C34.9009 149.547 30.9814 150.69 29.8616 150.69C29.675 150.69 29.4883 150.5 29.675 150.309Z" fill="black"/>
        <path d="M27.2495 149.357C28.3694 148.785 32.1022 147.833 34.1552 147.452C34.3419 147.452 34.5285 147.642 34.7152 147.642C32.6621 148.404 28.556 149.547 27.4362 149.738C27.0629 149.738 27.0629 149.547 27.2495 149.357Z" fill="black"/>
        <path d="M85.1079 56.5804C85.1079 55.0564 83.0548 53.3418 81.5617 53.9133C80.0686 54.2944 85.1079 59.057 85.1079 56.5804Z" fill="#FF7866"/>
        <path d="M71.1098 56.1993C71.1098 54.6753 69.0568 52.9607 67.5637 53.5322C66.0705 53.9133 71.1098 58.6759 71.1098 56.1993Z" fill="#FF7866"/>
        <path d="M38.448 47.0552C36.2083 46.6742 33.5954 47.8172 33.2221 50.2938C32.8488 52.5799 41.9942 47.6267 38.448 47.0552Z" fill="#FFAD57"/>
    </g>
    <defs>
        <clipPath id="clip0">
            <rect width="147.819" height="193.935" fill="white"/>
        </clipPath>
    </defs>
</svg>
