<svg width="294" height="190" viewBox="0 0 294 190" fill="none" xmlns="http://www.w3.org/2000/svg">
    <g clip-path="url(#clip0)">
        <path d="M293.008 85.058C292.732 81.4679 291.352 77.6017 288.866 74.84C286.104 71.2499 281.133 69.5929 275.334 68.4883C272.296 67.936 266.497 68.2121 263.459 69.0406C252.413 69.5929 238.052 72.0784 226.177 74.5639C225.349 74.0115 224.52 73.7354 223.415 73.7354C220.654 73.7354 218.445 75.6685 218.168 78.4301C213.75 81.4679 199.113 91.9621 188.067 99.9708C186.962 88.372 185.857 77.6017 184.753 66.8313C177.849 67.1075 136.977 69.0406 136.424 69.3168C136.148 66.8313 135.32 60.2034 135.043 57.4418C139.738 56.8894 162.384 55.7848 168.735 54.1278C168.735 52.1947 168.735 48.6046 168.459 46.6714C169.564 46.6714 171.773 46.3953 172.325 46.1191C172.325 43.6336 171.221 29.2732 170.392 27.0639C169.564 26.7877 167.354 26.5115 166.25 26.5115C166.25 25.4069 165.974 20.7121 165.697 19.0551C162.66 18.779 145.538 18.779 128.692 19.0551C128.415 15.7412 127.863 10.2179 127.863 8.00864C127.863 7.73247 126.482 7.73247 126.482 8.00864C126.482 10.7703 127.035 15.7412 127.311 19.0551C110.465 19.3313 99.6946 19.8836 93.3428 20.1598C93.0667 21.8168 93.0667 28.4447 93.0667 31.4825C91.6859 31.7586 90.0289 32.311 89.7527 33.1394C89.4765 33.9679 90.305 51.09 90.8574 51.9185C91.1335 52.4708 93.0667 53.2993 94.7236 53.0232C94.9998 55.5086 95.276 57.9941 95.5521 59.3749C97.4853 60.2034 117.921 58.5464 130.349 57.7179C130.625 60.7557 131.453 66.5551 131.729 69.5929C122.892 70.1453 94.4475 71.8022 89.4766 72.3546C89.7527 79.2586 90.305 95.5522 90.5812 101.352C88.0957 100.799 78.1539 96.933 67.3835 92.7906C66.8312 90.3051 64.6219 88.372 62.1364 88.372C61.0318 88.372 59.9271 88.6482 59.0986 89.4767C48.8806 85.3342 35.901 80.0871 33.9678 79.5348C40.3196 72.0784 42.2527 57.1656 36.7295 46.9476C35.6248 46.1191 32.8632 44.7383 31.7585 44.186C27.8923 46.6714 19.3312 55.2325 17.1219 57.7179C17.9504 58.2703 20.9882 61.308 22.9213 64.8982C24.5783 67.3836 26.5114 74.2877 22.9213 74.84C19.8835 75.6685 17.1219 68.4883 15.4649 61.0319C12.151 60.2034 6.07539 58.5464 4.41842 58.2703C3.58993 59.3749 1.93295 61.0319 0.828299 62.4127C-1.381 67.936 1.93295 75.6685 5.79923 80.3633C9.94167 85.3342 19.3312 92.7906 29.2731 84.7819C30.93 85.3342 45.2905 91.4098 56.6132 95.8284C57.1655 98.3139 59.3748 99.9708 61.8603 99.9708C62.9649 99.9708 64.0696 99.6947 64.8981 99.1423C76.7731 103.837 88.0957 108.256 90.8574 108.808C91.4097 119.855 92.7905 133.663 94.1713 143.605C98.8661 144.709 127.863 144.157 135.32 144.433C135.32 145.538 135.596 147.747 135.596 148.575C128.692 147.747 99.4184 148.575 91.6859 149.404C90.0289 146.642 86.9911 146.09 83.9533 146.642C78.1539 147.747 75.3923 154.651 79.8109 159.898C77.3254 162.384 69.5928 173.43 64.6219 181.163C62.4126 184.477 63.5173 188.343 67.3835 189.171C71.526 189.724 77.0492 190.276 83.1248 190.552C90.0289 190.828 95.5521 190.552 99.6946 190.552C103.285 190.276 105.218 187.238 103.561 183.648C99.9707 175.639 93.0667 162.107 91.6859 160.174C92.5143 159.07 93.0667 156.86 93.3428 155.203C101.075 154.375 126.759 153.823 136.148 153.27C136.148 153.823 136.148 154.651 136.424 154.927C139.462 156.032 149.68 155.48 152.442 154.927C152.442 154.375 152.442 153.546 152.442 152.994C156.032 153.546 193.866 154.651 197.18 155.203C197.18 156.308 197.456 157.137 198.008 157.965C195.247 161.279 186.962 177.849 185.581 181.715C183.924 186.134 185.581 188.343 188.067 188.895C192.761 190 213.474 190.828 217.34 190.276C219.549 190 220.654 187.238 219.825 184.477C217.34 176.744 211.54 163.764 209.055 158.241C210.712 155.756 210.16 151.889 207.95 149.68C205.465 147.195 201.875 147.471 199.665 149.404C196.075 148.575 158.517 148.575 152.994 148.575C152.994 148.023 152.718 145.538 152.718 144.433C158.517 144.433 188.895 144.157 191.381 143.881C191.657 140.014 190 109.913 190 109.084C197.732 103.561 216.511 89.7528 223.139 85.058C223.692 85.3342 224.244 85.3342 225.072 85.3342C227.558 85.3342 229.491 83.6772 230.32 81.7441C238.328 79.811 255.45 77.3255 265.116 77.0493C265.116 77.8778 265.116 80.0871 265.116 80.0871C265.392 80.3633 266.497 80.3633 267.602 80.3633C268.154 83.4011 267.602 86.9912 265.392 88.6482C262.354 91.1336 258.488 91.4098 255.45 91.4098C255.174 93.0668 255.727 98.0377 256.003 99.4185C256.831 100.247 262.354 104.113 264.011 104.666C267.878 104.389 274.506 101.904 277.267 96.1046C280.029 90.3051 279.753 85.6104 278.648 80.6394C285.276 83.1249 282.238 94.4476 276.715 99.6947C276.991 100.799 278.096 105.218 278.924 107.151C280.305 107.98 283.619 109.084 286.933 110.189C291.352 106.323 294.389 95.5522 293.008 85.058Z" fill="black"/>
        <path d="M22.0925 60.7558C21.264 59.6512 20.1593 58.2703 19.0547 57.4419C21.8163 54.6802 28.9965 47.2238 32.0343 45.843C32.3105 46.1192 34.5198 47.5 35.0721 47.7762C31.482 50.2616 24.0256 58.5465 22.0925 60.7558Z" fill="#DEDEDE"/>
        <path d="M17.3975 71.526C18.5021 73.7354 20.7114 77.0493 23.7492 75.9447C26.5109 74.84 26.5109 70.9737 25.9585 68.4883C27.0632 70.9737 27.6155 73.4592 27.0632 75.3923C26.2347 78.9824 22.9207 78.9824 20.7114 78.154C18.226 77.3255 13.255 73.183 12.1504 66.0028C12.9789 64.8981 13.8074 63.5173 14.6359 62.6888C15.1882 65.7266 16.0167 69.0406 17.3975 71.526Z" fill="#BFBFBF"/>
        <path d="M25.9599 68.4884C26.5123 70.9739 26.5123 74.8401 23.7506 75.9448C22.0937 76.7733 20.4367 75.6686 19.332 74.564C19.332 75.3925 19.332 76.4971 19.6082 77.3256C19.8844 77.6018 20.4367 77.6018 20.7128 77.8779C22.9221 78.7064 26.2361 78.9826 27.0646 75.1163C27.3408 73.4593 26.7884 70.9739 25.9599 68.4884Z" fill="#9F9F9F"/>
        <path d="M4.69445 59.375C7.73224 59.9273 10.77 60.4796 13.5317 61.5843C12.7032 62.6889 11.5985 64.3459 11.0462 65.1744C8.83689 64.3459 4.41829 62.9651 2.20898 62.4128C2.48515 61.5843 3.5898 60.2035 4.69445 59.375Z" fill="#DEDEDE"/>
        <path d="M25.9596 84.5059C19.6079 88.3722 12.4276 84.2297 7.73287 79.8111C4.41891 76.4972 1.10496 68.2123 1.93345 64.346C4.41891 64.8983 8.56136 66.003 10.7707 66.8315C12.1515 75.6687 19.6079 80.6396 23.198 80.3635C31.2067 79.8111 28.9974 68.4885 23.7503 61.5844C26.5119 58.8228 32.8637 52.1949 35.6253 49.4332C39.2154 58.8228 37.5584 67.1076 36.4538 70.9739C34.5207 76.4972 30.9305 81.4681 25.9596 84.5059Z" fill="#FFA00F"/>
        <path d="M30.9309 72.907C30.1024 73.4593 29.2739 74.0117 28.4454 74.2878C28.1692 77.3256 26.7884 79.8111 23.1983 80.0872C21.8175 80.0872 19.8844 79.5349 17.9512 78.1541C14.6373 78.9826 11.0471 79.5349 7.45703 79.2588C7.45703 79.2588 7.45703 79.2587 7.73319 79.5349C12.428 83.9535 19.6082 88.096 25.9599 84.2297C30.9309 81.1919 34.521 76.4971 36.4541 70.4215C36.7303 69.5931 37.0064 68.7646 37.2826 67.6599C35.3495 69.5931 33.1402 71.25 30.9309 72.907Z" fill="#CB7D00"/>
        <path d="M56.6128 93.0669C46.3948 88.9245 33.6913 83.4012 30.9297 82.8489C31.482 82.2966 32.0343 81.4681 32.5867 80.9158C35.3483 81.4681 47.7756 86.9914 57.7175 90.8576C57.1651 91.41 56.6128 92.2385 56.6128 93.0669Z" fill="#BFBFBF"/>
        <path d="M66.5547 97.2093C67.107 96.3809 67.3832 95.5524 67.3832 94.7239C77.325 98.5902 86.7146 102.456 90.5808 103.285C90.5808 104.113 90.857 105.494 90.857 106.323C87.8192 105.77 77.6012 101.628 66.5547 97.2093Z" fill="#BFBFBF"/>
        <path d="M79.2578 154.927C78.7055 151.061 80.9148 148.023 84.7811 147.471C88.6473 146.919 91.1328 149.404 91.6851 152.994C92.2375 156.861 90.0282 159.622 86.7142 160.174C83.4003 160.727 79.8101 159.346 79.2578 154.927Z" fill="#C9190F"/>
        <path d="M83.6762 172.878C80.9146 171.497 78.9815 166.25 81.7431 162.936C83.4001 161.003 86.4378 161.831 88.0948 163.488C90.3041 165.974 91.4088 169.564 90.3041 171.497C88.9233 173.43 86.4378 174.535 83.6762 172.878Z" fill="#BFBFBF"/>
        <path d="M85.8859 175.64C85.6097 176.192 85.3336 176.744 85.3336 177.297C85.3336 177.02 85.3336 177.02 85.3336 176.744C85.3336 176.192 85.0574 175.916 84.7812 175.363C85.0574 175.363 85.6097 175.64 85.8859 175.64Z" fill="#939393"/>
        <path d="M80.3626 160.174C80.9149 160.451 81.4672 161.003 82.0195 161.003C77.8771 163.488 78.9817 169.564 80.3626 172.049C76.7724 170.669 72.63 171.773 70.1445 173.983C70.6969 173.154 77.8771 163.212 80.3626 160.174Z" fill="#939393"/>
        <path d="M64.8981 184.477C64.3458 182.544 66.0027 180.334 67.3835 178.125C66.2789 181.163 67.1074 185.029 69.5928 187.238C67.3835 186.686 65.4504 186.41 64.8981 184.477Z" fill="#939393"/>
        <path d="M73.1825 187.791C71.2493 186.962 69.8685 185.581 69.04 183.648C68.2115 181.715 67.9354 178.677 69.3162 176.468C70.697 174.259 73.4586 172.602 76.7726 172.602C80.3627 172.878 83.4005 175.087 83.4005 179.782C83.4005 181.163 82.572 184.201 80.0865 186.134C77.6011 188.343 74.2871 188.067 73.1825 187.791Z" fill="#BFBFBF"/>
        <path d="M80.916 188.067C82.573 186.686 83.9538 185.029 84.7823 183.096C85.0585 185.305 85.8869 187.238 86.9916 188.343C84.7823 188.343 83.1253 188.343 80.916 188.067Z" fill="#939393"/>
        <path d="M101.628 185.029C101.076 186.962 98.8667 187.238 96.9336 187.515C99.6952 185.858 100.524 181.439 99.9714 178.125C100.248 179.23 101.905 183.372 101.628 185.029Z" fill="#939393"/>
        <path d="M91.6851 187.791C89.1996 187.791 87.2665 185.858 86.438 183.372C85.6095 180.887 86.1618 178.401 87.2665 176.744C88.0949 175.087 90.8566 172.602 94.1705 173.43C97.4845 174.259 98.313 177.849 98.313 180.887C98.313 183.924 95.8275 187.791 91.6851 187.791Z" fill="#BFBFBF"/>
        <path d="M93.0666 165.974C94.1713 167.907 95.2759 170.116 96.3806 172.326C95.8283 171.773 94.9998 171.497 94.1713 171.221C93.619 170.945 93.0666 170.945 92.2382 170.945V170.669C92.5143 167.355 90.5812 164.041 88.0957 161.831C88.9242 161.555 89.7527 161.279 90.305 160.727C91.1335 162.66 92.2381 164.317 93.0666 165.974Z" fill="#939393"/>
        <path d="M198.284 158.517C198.56 158.794 199.112 159.346 199.665 159.622C198.008 160.727 196.351 162.66 196.074 164.593C195.522 166.526 195.798 168.735 196.903 170.669C194.694 170.116 192.76 170.392 191.104 172.049C192.484 168.459 197.179 159.346 198.284 158.517Z" fill="#939393"/>
        <path d="M186.686 184.477C186.134 183.096 186.962 181.163 187.515 179.23C187.515 180.887 188.343 184.477 191.105 186.134C189.724 186.134 187.515 186.41 186.686 184.477Z" fill="#939393"/>
        <path d="M193.038 185.029C190 183.924 187.791 178.677 189.724 175.087C191.657 171.773 197.18 170.669 199.666 174.259C203.532 180.611 199.39 187.515 193.038 185.029Z" fill="#BFBFBF"/>
        <path d="M198.838 186.962C200.219 186.134 201.047 185.029 201.6 183.924C201.876 185.029 202.704 186.134 203.533 186.962C202.152 186.962 200.219 187.238 198.838 186.962Z" fill="#939393"/>
        <path d="M201.598 174.259C201.874 174.535 202.426 174.535 202.702 174.535C202.426 174.811 202.426 175.087 202.15 175.363C201.874 175.087 201.598 174.535 201.598 174.259Z" fill="#939393"/>
        <path d="M217.34 186.686C217.064 187.791 215.683 188.067 213.75 187.791C215.131 186.41 216.235 184.477 216.788 182.267C217.064 183.924 217.616 185.581 217.34 186.686Z" fill="#939393"/>
        <path d="M215.13 178.677C215.682 183.096 212.645 187.515 209.607 187.791C206.569 187.791 203.255 185.858 202.703 181.715C202.15 177.573 204.636 173.983 207.121 173.154C211.816 171.221 214.578 173.983 215.13 178.677Z" fill="#BFBFBF"/>
        <path d="M208.779 162.107C210.16 164.041 211.54 168.183 212.645 170.945C211.264 170.668 209.607 170.392 208.227 170.668C209.607 169.011 209.607 164.869 208.779 162.107Z" fill="#939393"/>
        <path d="M75.6678 166.25C72.9062 169.84 70.4207 173.43 70.1445 173.983C71.5253 172.878 73.1823 172.049 74.8393 171.497C75.944 169.564 77.0486 167.631 79.2579 166.802C79.2579 166.25 79.2579 165.421 79.5341 164.869C78.1533 165.421 76.7724 165.698 75.6678 166.25Z" fill="#747474"/>
        <path d="M65.1746 182.544C64.8984 183.096 64.8984 183.924 64.8984 184.477C65.4508 186.41 67.3839 186.686 69.5932 186.962C68.7647 186.134 68.2124 185.305 67.6601 184.477C66.8316 183.924 66.0031 183.372 65.1746 182.544Z" fill="#747474"/>
        <path d="M86.1631 187.238C85.0585 186.962 83.6776 186.686 82.573 186.134C82.0207 186.686 81.4683 187.238 80.916 187.791C83.1253 187.791 85.0585 188.067 86.9916 188.067C86.7154 188.067 86.4393 187.791 86.1631 187.238Z" fill="#747474"/>
        <path d="M99.4179 183.648C98.8656 185.305 98.0371 186.686 96.6562 187.514C98.5894 187.238 100.523 186.962 101.351 185.305C100.799 184.753 100.246 184.201 99.4179 183.648Z" fill="#747474"/>
        <path d="M91.6855 167.355C91.9617 168.459 92.2379 169.564 92.2379 170.669V170.945C92.7902 170.945 93.3425 170.945 94.171 171.221C94.9995 171.497 95.828 171.773 96.3803 172.326C95.828 171.221 95.2757 170.116 94.4472 168.735C93.6187 168.183 92.7902 167.631 91.6855 167.355Z" fill="#747474"/>
        <path d="M193.037 167.631C192.209 169.288 191.38 170.945 190.828 172.049C192.761 170.668 194.418 170.116 196.628 170.668C196.075 169.288 195.523 167.631 195.799 166.25C194.971 166.526 193.866 167.078 193.037 167.631Z" fill="#747474"/>
        <path d="M188.619 183.096C188.066 183.372 187.238 183.924 186.686 184.201C186.686 184.201 186.686 184.201 186.686 184.477C187.514 186.134 189.723 185.858 191.104 185.858C190 185.305 189.171 184.201 188.619 183.096Z" fill="#747474"/>
        <path d="M200.495 185.581C199.943 186.134 199.666 186.41 198.838 186.962C200.219 187.238 202.152 186.962 203.533 186.962C203.256 186.686 202.704 186.134 202.428 185.857C201.876 185.857 201.047 185.857 200.495 185.581Z" fill="#747474"/>
        <path d="M214.579 186.41C214.303 186.962 214.027 187.238 213.475 187.791C215.408 188.067 216.789 187.515 217.065 186.686C217.065 186.686 217.065 186.41 217.065 186.134C216.512 186.41 215.408 186.41 214.579 186.41Z" fill="#747474"/>
        <path d="M209.056 168.459C208.78 169.288 208.503 170.116 207.951 170.669C209.332 170.392 210.989 170.392 212.37 170.945C211.817 169.84 211.541 168.459 210.989 167.078C210.437 167.631 209.608 168.183 209.056 168.459Z" fill="#747474"/>
        <path d="M206.293 170.393C204.36 172.878 199.665 172.878 198.284 170.393C196.903 167.907 196.627 164.869 198.284 162.66C199.941 160.451 204.36 159.07 206.293 161.832C207.95 163.765 208.226 167.907 206.293 170.393Z" fill="#BFBFBF"/>
        <path d="M198.561 151.89C199.389 148.852 203.532 147.747 205.741 149.956C207.95 152.166 207.95 155.756 205.465 157.689C203.808 158.794 201.322 158.517 199.942 157.689C198.837 156.584 197.732 154.375 198.561 151.89Z" fill="#C9190F"/>
        <path d="M86.9916 148.852C88.9247 149.128 89.7532 149.956 90.8578 150.785C89.7532 148.299 87.82 146.919 84.7823 147.471C81.7445 147.747 80.0875 149.68 79.5352 152.442C80.916 149.68 83.6776 148.299 86.9916 148.852Z" fill="#FF845F"/>
        <path d="M203.808 149.956C205.465 150.509 206.293 151.061 207.122 152.166C206.845 151.337 206.293 150.509 205.741 149.956C203.531 147.747 199.389 148.852 198.561 151.89C199.389 150.233 201.598 149.128 203.808 149.956Z" fill="#FF845F"/>
        <path d="M197.456 149.956C196.903 150.509 196.627 151.337 196.627 152.166C191.656 151.613 157.136 151.337 151.889 150.785C151.889 150.233 151.889 149.128 151.889 149.128C155.479 149.128 194.142 149.404 197.456 149.956Z" fill="#BFBFBF"/>
        <path d="M169.287 28.1686C169.563 29.5494 171.22 43.3576 170.668 45.0145C170.116 45.2907 169.011 45.2907 168.459 45.2907C168.182 41.7006 167.078 30.9302 166.525 27.8925C167.63 27.8925 168.735 27.8925 169.287 28.1686Z" fill="#C9190F"/>
        <path d="M91.6855 51.0901C91.4093 50.5378 90.3047 34.5203 90.3047 33.968C90.5809 33.4157 92.514 33.1395 92.7901 33.1395C92.7901 35.9012 93.3425 47.7762 93.8948 51.9186C93.0663 51.9186 92.2378 51.6424 91.6855 51.0901Z" fill="#C9190F"/>
        <path d="M168.459 35.0727C168.183 34.5203 167.63 33.968 167.354 33.4157C167.354 33.4157 167.354 33.4157 167.078 33.1395C167.63 37.5581 168.183 42.8052 168.459 45.0145C169.011 45.0145 170.116 45.0145 170.668 44.7384C170.944 44.186 170.668 40.8721 170.392 37.5581C169.84 37.0058 169.011 36.1773 168.459 35.0727Z" fill="#A40B00"/>
        <path d="M91.1328 46.6715C91.409 48.8808 91.409 50.8139 91.6851 50.8139C91.9613 51.3662 93.066 51.6424 93.8944 51.6424C93.6183 49.7092 93.3421 45.843 93.3421 41.9767C92.5136 43.6337 91.9613 45.2906 91.1328 46.6715Z" fill="#A40B00"/>
        <path d="M127.864 56.6134C120.96 57.4419 98.5905 58.8227 96.3812 57.9942C94.7242 46.3954 94.448 32.0349 94.1719 21.5407C106.323 20.9884 158.794 19.3314 164.593 20.1599C165.146 25.407 167.355 49.4331 167.355 52.7471C161.556 54.1279 134.768 55.7849 127.864 56.6134Z" fill="#FFA00F"/>
        <path d="M164.593 21.2645C164.593 20.7122 164.593 20.4361 164.317 20.1599C158.794 19.3314 106.323 20.9884 94.1719 21.5407C94.1719 22.093 94.1719 22.6454 94.1719 22.9215C101.352 23.4738 156.861 20.9884 164.593 21.2645Z" fill="#FFCF74"/>
        <path d="M131.453 57.7181C132.282 57.7181 132.834 57.4419 133.662 57.4419C134.215 60.7558 134.767 65.7268 135.043 69.3169C134.491 69.3169 133.386 69.5931 132.834 69.5931C132.558 67.6599 131.729 61.032 131.453 57.7181Z" fill="#E35B0F"/>
        <path d="M92.7906 152.994C92.7906 152.166 92.5144 151.061 92.2383 150.509C95.8284 150.232 128.692 148.575 135.596 149.68C135.596 150.232 135.596 150.785 135.596 151.337C132.834 151.061 99.6947 152.166 92.7906 152.994Z" fill="#BFBFBF"/>
        <path d="M137.252 152.994C136.976 151.337 136.7 146.366 136.424 143.881C138.357 143.881 146.918 143.605 150.508 143.328C150.508 143.881 150.784 151.613 150.784 152.718C147.746 153.27 140.014 153.27 137.252 152.994Z" fill="#E35B0F"/>
        <path d="M150.508 146.642C150.508 144.985 150.508 143.881 150.508 143.605C146.918 143.605 138.357 143.881 136.424 144.157C136.424 144.985 136.7 146.366 136.7 147.747C141.395 147.471 145.813 147.195 150.508 146.642Z" fill="#B85100"/>
        <path d="M95.5522 141.119C93.3429 130.349 91.1336 85.0581 90.8574 74.2877C102.732 72.9069 159.346 70.1453 183.372 69.0406C185.029 83.6773 188.343 129.796 188.343 140.567C163.212 141.671 105.218 143.052 95.5522 141.119Z" fill="#FFA00F"/>
        <path d="M183.373 70.6977C183.373 69.8692 183.097 69.3169 183.097 68.7645C159.347 70.1453 102.457 72.6308 90.582 74.0116C90.582 74.8401 90.582 75.6686 90.582 76.7732C93.3437 76.4971 170.117 71.25 183.373 70.6977Z" fill="#FFCF74"/>
        <path d="M188.618 105.77C188.618 104.942 188.342 103.285 188.342 102.456C190.827 100.523 212.92 83.9534 218.444 80.3633C218.72 81.4679 219.272 82.2964 219.824 83.1249C214.853 86.715 196.903 99.6947 188.618 105.77Z" fill="#BFBFBF"/>
        <path d="M263.734 74.2877C254.897 74.5639 238.051 77.0494 229.214 78.7063C229.214 77.6017 228.662 76.497 228.109 75.6686C236.947 73.7354 249.926 71.25 263.734 70.6976C263.734 71.5261 263.734 73.7354 263.734 74.2877Z" fill="#BFBFBF"/>
        <path d="M35.6245 82.0204C34.2436 81.4681 33.139 81.1919 32.5867 80.9158C32.0343 81.4681 31.482 82.2966 30.9297 82.8489C31.482 82.8489 32.3105 83.4012 33.6913 83.6774C34.2436 83.1251 34.796 82.5728 35.6245 82.0204Z" fill="#9F9F9F"/>
        <path d="M88.3727 105.77C89.4774 106.046 90.3059 106.323 90.8582 106.323C90.8582 105.494 90.582 104.113 90.582 103.285C90.0297 103.009 89.2012 103.009 88.3727 102.732C88.0966 103.561 88.3727 104.666 88.3727 105.77Z" fill="#9F9F9F"/>
        <path d="M69.5925 95.5524C68.764 95.2762 68.2117 95 67.3832 94.7239C67.3832 95.5524 67.107 96.3809 66.5547 97.2093C67.3832 97.4855 68.2117 97.7617 69.0401 98.314C69.0401 97.4855 69.3163 96.3808 69.5925 95.5524Z" fill="#9F9F9F"/>
        <path d="M166.527 149.128C159.346 149.128 153.271 149.128 152.166 149.128C152.166 149.128 152.166 150.233 152.166 150.785C153.547 151.061 157.413 151.061 162.108 151.337C163.489 150.509 164.87 149.956 166.527 149.128Z" fill="#9F9F9F"/>
        <path d="M194.418 149.68C193.866 150.509 193.313 151.337 193.037 151.889C194.694 151.889 196.075 152.166 196.903 152.166C197.18 151.337 197.456 150.509 197.732 149.956C197.18 149.956 196.075 149.68 194.418 149.68Z" fill="#9F9F9F"/>
        <path d="M126.759 151.337C131.453 151.061 134.767 151.061 135.596 151.061C135.596 150.509 135.596 149.956 135.596 149.404C133.386 149.128 128.968 149.128 123.721 149.128C124.825 149.956 125.654 150.509 126.759 151.337Z" fill="#9F9F9F"/>
        <path d="M95.2761 150.233C93.6191 150.233 92.5144 150.509 92.2383 150.509C92.5144 151.061 92.7906 152.166 92.7906 152.994C93.6191 152.994 94.4476 152.718 95.5522 152.718C95.8284 151.89 95.5522 151.061 95.2761 150.233Z" fill="#9F9F9F"/>
        <path d="M217.339 84.7819C218.444 83.9534 219.272 83.4011 219.824 82.8488C218.996 82.0203 218.444 81.1918 218.444 80.0872C217.891 80.3633 217.063 80.9156 216.234 81.7441C216.511 82.8488 216.787 83.9534 217.339 84.7819Z" fill="#9F9F9F"/>
        <path d="M191.105 100.523C189.724 101.352 188.895 102.18 188.619 102.456C188.619 103.285 188.895 104.942 188.895 105.77C189.724 105.218 190.828 104.39 191.933 103.561C191.381 102.456 191.105 101.628 191.105 100.523Z" fill="#9F9F9F"/>
        <path d="M263.736 70.6976C263.184 70.6976 262.355 70.6976 261.803 70.6976C261.803 71.8023 261.803 72.9069 261.803 74.2877C262.631 74.2877 263.184 74.2877 263.736 74.2877C263.736 73.7354 263.736 71.5261 263.736 70.6976Z" fill="#9F9F9F"/>
        <path d="M265.668 88.372C267.325 86.7151 268.154 82.5726 267.601 79.2587C267.877 79.2587 269.534 79.2587 269.81 79.2587C272.02 88.9244 267.049 94.4476 261.526 95.5523C260.973 95.2761 257.659 92.7906 256.555 91.9621C260.145 91.686 263.459 90.5813 265.668 88.372Z" fill="#FFA00F"/>
        <path d="M266.221 87.8198C267.325 88.3721 268.154 88.9245 269.258 89.4768C270.363 86.9913 270.915 83.4012 269.811 79.5349C269.535 79.5349 267.878 79.5349 267.602 79.5349C268.154 82.0204 267.602 85.6105 266.221 87.8198Z" fill="#CB7D00"/>
        <path d="M256.003 98.3139C255.727 96.933 255.727 94.4476 255.451 93.0668C256.28 93.8953 259.317 96.1046 260.698 97.2092C260.974 98.8662 261.527 101.075 261.803 102.456C262.079 102.456 257.108 99.1423 256.003 98.3139Z" fill="#9A9A9A"/>
        <path d="M274.782 93.8953C272.573 98.3139 267.602 101.904 263.736 102.18C263.459 101.076 262.631 98.5901 262.631 96.9331C272.849 94.1715 272.02 83.125 271.192 78.9825C272.573 78.9825 273.954 78.9825 275.334 78.9825C277.267 84.5058 276.163 91.4099 274.782 93.8953Z" fill="#BFBFBF"/>
        <path d="M271.468 86.1628C272.848 87.8198 274.229 89.7529 275.61 91.4099C276.439 88.096 276.715 83.125 275.334 79.2588C273.953 78.9826 272.572 78.9826 271.191 79.2588C271.468 80.9157 271.744 83.4012 271.468 86.1628Z" fill="#9F9F9F"/>
        <path d="M280.857 80.6396C278.095 77.0495 273.676 76.7733 265.668 77.6018C265.668 75.1163 265.391 71.8024 265.668 70.4215C266.772 70.1454 270.915 69.8692 275.057 70.4215C278.371 70.6977 282.514 72.0785 284.999 75.3925C290.798 82.2965 287.208 93.6192 281.961 100.247C280.58 99.971 279.2 99.4186 277.819 98.5902C280.304 95.8285 285.828 86.9913 280.857 80.6396Z" fill="#FFA00F"/>
        <path d="M286.104 85.3343C284.447 82.2965 282.238 79.8111 278.924 78.7064C279.753 79.2587 280.581 79.8111 281.134 80.6396C285.828 86.9913 280.305 95.8285 278.096 98.5902C279.477 99.4186 280.857 99.971 282.238 100.247C284.724 97.2093 286.657 93.0669 287.485 88.9244C286.933 87.5436 286.657 86.439 286.104 85.3343Z" fill="#CB7D00"/>
        <path d="M278.647 105.494C278.371 104.113 277.266 101.075 276.99 99.9708C278.371 100.799 280.58 101.628 282.237 102.18C282.237 103.009 283.342 106.875 283.618 107.703C281.961 106.875 280.304 106.046 278.647 105.494Z" fill="#9A9A9A"/>
        <path d="M290.524 97.7616C289.419 101.628 287.762 105.77 285.277 107.703C284.725 106.599 283.62 102.18 283.344 101.352C289.143 95 291.352 82.8488 286.934 74.564C289.419 76.7733 291.076 81.1919 291.352 84.5058C291.905 88.6483 291.352 93.8954 290.524 97.7616Z" fill="#BFBFBF"/>
        <path d="M288.314 92.5145C289.143 94.1715 289.695 95.8285 290.524 97.7616C291.628 93.8953 291.904 88.9244 291.352 84.7819C291.076 81.468 289.419 77.0494 286.934 74.8401C289.695 80.0872 289.971 86.7151 288.314 92.5145Z" fill="#9F9F9F"/>
        <path d="M156.583 37.282C156.307 29.5495 150.784 24.8547 143.604 24.3024C136.7 23.7501 129.519 27.064 127.31 34.7966C124.825 27.3402 114.883 24.3024 107.15 28.1687C99.1415 32.3111 97.4845 41.1483 102.455 47.7762C106.874 53.5756 115.159 54.4041 121.234 50.814C124.548 48.8809 127.31 45.8431 127.586 40.596C129.243 48.0524 136.147 53.0233 144.432 51.9187C152.165 51.0902 156.86 45.2908 156.583 37.282Z" fill="#CB7D00"/>
        <path d="M156.859 35.6249C156.583 27.8924 151.06 23.1976 144.156 22.6453C137.528 22.0929 130.348 25.4069 128.415 32.8633C126.205 25.683 116.263 22.3691 108.807 26.2354C101.075 30.3778 99.4175 38.9389 104.388 45.8429C108.531 51.3662 116.816 52.1947 122.615 48.8807C125.929 46.9476 128.415 44.186 128.691 38.9389C130.348 46.3953 136.976 51.09 145.261 50.2615C152.441 49.1569 156.859 43.6336 156.859 35.6249Z" fill="black"/>
        <path d="M120.131 48.6047C114.884 50.5378 108.533 49.4332 105.219 45.0146C100.248 38.6628 102.733 26.2355 115.161 25.9593C123.722 25.6832 127.036 31.4826 127.588 36.7297C127.864 42.8053 125.102 46.6715 120.131 48.6047Z" fill="#E35B0F"/>
        <path d="M141.671 48.6048C132.558 47.7763 129.244 40.3199 129.244 34.7966C129.52 28.4449 136.148 23.4739 142.5 23.7501C148.576 24.0263 154.375 27.6164 154.927 34.2443C156.032 41.9768 151.889 49.4332 141.671 48.6048Z" fill="#E35B0F"/>
        <path d="M124.273 31.2064C126.482 33.968 127.311 38.1105 127.034 41.7006C127.587 40.3198 127.587 38.6628 127.587 36.7297C127.311 31.4826 123.72 25.6832 115.159 25.9593C109.084 26.2355 105.218 29.2733 103.561 33.1396C107.151 27.6163 119.026 24.5785 124.273 31.2064Z" fill="#FF924D"/>
        <path d="M142.776 24.8547C147.747 25.1309 151.89 27.8925 153.27 32.5873C154.651 37.5582 153.823 42.253 151.613 45.5669C154.375 42.8053 155.48 38.6629 155.203 34.2443C154.651 27.6164 148.852 24.0263 142.776 23.7501C137.805 23.4739 132.834 26.5117 130.625 30.6542C134.491 26.5117 138.358 24.5786 142.776 24.8547Z" fill="#FF924D"/>
        <path d="M148.851 30.1018C146.089 27.0641 140.29 26.5117 136.7 29.8257C133.11 33.1396 133.938 39.4914 137.252 42.5292C140.566 45.567 146.366 45.2908 149.403 41.7007C151.889 38.9391 152.441 33.692 148.851 30.1018Z" fill="black"/>
        <path d="M148.299 40.8721C145.813 43.9099 141.395 43.9099 138.909 42.2529C134.767 39.2151 135.319 33.6918 137.805 31.2064C140.014 28.7209 144.985 28.1686 147.747 31.2064C149.68 33.4157 150.508 37.8343 148.299 40.8721Z" fill="white"/>
        <path d="M87.8205 150.785C85.335 148.852 82.0211 149.956 81.4688 152.442C80.9164 154.375 81.7449 156.86 83.6781 157.689C85.335 158.241 87.5443 157.965 88.649 156.308C89.4775 154.375 89.2013 151.89 87.8205 150.785Z" fill="black"/>
        <path d="M85.0582 156.584C82.5727 156.584 81.4681 153.823 82.5727 151.889C83.4012 150.509 85.8867 149.68 87.2675 151.613C88.9245 153.27 88.3722 156.86 85.0582 156.584Z" fill="#BFBFBF"/>
        <path d="M75.9444 176.468C73.7351 176.468 72.0781 178.125 72.0781 180.334C72.0781 182.544 73.7351 184.201 75.9444 184.201C78.1537 184.201 79.8107 182.544 79.8107 180.334C79.5345 178.125 77.8775 176.468 75.9444 176.468Z" fill="black"/>
        <path d="M75.9452 177.296C74.2882 177.296 73.1836 178.677 73.1836 180.058C73.1836 181.715 74.2882 182.82 75.9452 182.82C77.6022 182.82 78.7068 181.439 78.7068 180.058C78.7068 178.677 77.326 177.296 75.9452 177.296Z" fill="#C9190F"/>
        <path d="M195.246 174.811C193.313 174.811 191.656 176.468 191.656 178.401C191.656 180.334 193.313 181.991 195.246 181.991C197.179 181.991 198.836 180.334 198.836 178.401C198.56 176.468 197.179 174.811 195.246 174.811Z" fill="black"/>
        <path d="M195.247 175.916C193.866 175.916 192.762 177.02 192.762 178.401C192.762 179.782 193.866 180.886 195.247 180.886C196.628 180.886 197.733 179.782 197.733 178.401C197.733 177.02 196.628 175.916 195.247 175.916Z" fill="#C9190F"/>
        <path d="M209.056 175.916C206.846 175.916 205.189 177.573 205.189 179.782C205.189 181.991 206.846 183.648 209.056 183.648C210.989 183.648 212.922 181.991 212.922 179.782C212.646 177.573 210.989 175.916 209.056 175.916Z" fill="black"/>
        <path d="M209.055 176.744C207.674 176.744 206.293 177.849 206.293 179.506C206.293 180.887 207.398 182.267 209.055 182.267C210.712 182.267 211.816 181.163 211.816 179.506C211.816 178.125 210.435 176.744 209.055 176.744Z" fill="#C9190F"/>
        <path d="M202.426 162.936C200.77 162.936 199.389 164.317 199.389 165.974C199.389 167.631 200.77 169.012 202.426 169.012C204.083 169.012 205.464 167.631 205.464 165.974C205.464 164.317 204.083 162.936 202.426 162.936Z" fill="black"/>
        <path d="M202.428 163.765C201.047 163.765 200.219 164.869 200.219 165.974C200.219 167.355 201.323 168.183 202.428 168.183C203.809 168.183 204.637 167.079 204.637 165.974C204.914 164.869 203.809 163.765 202.428 163.765Z" fill="#C9190F"/>
        <path d="M127.034 0C124.548 0 122.615 1.93314 122.615 4.4186C122.615 6.90407 124.548 8.83721 127.034 8.83721C129.519 8.83721 131.452 6.90407 131.452 4.4186C131.452 1.93314 129.519 0 127.034 0Z" fill="black"/>
        <path d="M127.035 1.65698C125.654 1.65698 124.273 2.76163 124.273 4.41861C124.273 6.07559 125.378 7.18024 127.035 7.18024C128.416 7.18024 129.797 6.07559 129.797 4.41861C129.797 2.76163 128.692 1.65698 127.035 1.65698Z" fill="#C9190F"/>
        <path d="M125.653 3.0378C126.206 2.76163 127.034 2.76163 127.587 3.0378C128.415 3.31396 129.244 3.86628 129.796 4.69477V4.41861C129.796 3.0378 128.691 1.65698 127.034 1.65698C125.93 1.65698 124.825 2.48547 124.549 3.59012C124.825 3.31396 125.101 3.0378 125.653 3.0378Z" fill="#FF845F"/>
        <path d="M202.703 150.785C201.322 150.785 199.941 151.889 199.941 153.546C199.941 154.927 201.046 156.308 202.703 156.308C204.084 156.308 205.465 155.203 205.465 153.546C205.465 151.889 204.084 150.785 202.703 150.785Z" fill="black"/>
        <path d="M202.703 151.337C201.598 151.337 200.77 152.166 200.77 153.27C200.77 154.375 201.598 155.204 202.703 155.204C203.807 155.204 204.636 154.375 204.636 153.27C204.636 152.442 203.807 151.337 202.703 151.337Z" fill="#BFBFBF"/>
        <path d="M85.6093 164.869C83.9523 164.869 82.8477 166.25 82.8477 167.631C82.8477 169.288 84.2285 170.392 85.6093 170.392C87.2663 170.392 88.3709 169.012 88.3709 167.631C88.3709 166.25 87.2663 164.869 85.6093 164.869Z" fill="black"/>
        <path d="M85.6097 165.698C84.505 165.698 83.4004 166.526 83.4004 167.907C83.4004 169.012 84.2289 170.116 85.6097 170.116C86.7143 170.116 87.819 169.288 87.819 167.907C87.819 166.526 86.7143 165.698 85.6097 165.698Z" fill="#C9190F"/>
        <path d="M92.5151 177.296C90.582 177.296 89.2012 178.677 89.2012 180.61C89.2012 182.543 90.582 183.924 92.5151 183.924C94.4483 183.924 95.8291 182.543 95.8291 180.61C95.8291 178.953 94.1721 177.296 92.5151 177.296Z" fill="black"/>
        <path d="M92.5148 178.125C91.134 178.125 90.0293 179.23 90.0293 180.61C90.0293 181.991 91.134 183.096 92.5148 183.096C93.8956 183.096 95.0002 181.991 95.0002 180.61C95.0002 179.23 93.8956 178.125 92.5148 178.125Z" fill="#C9190F"/>
        <path d="M73.4598 178.954C73.1836 179.23 73.1836 179.782 73.1836 180.334C73.1836 181.991 74.2882 183.096 75.9452 183.096C77.0499 183.096 78.1545 182.268 78.4307 181.439C76.4975 181.163 74.2882 180.334 73.4598 178.954Z" fill="#A40B00"/>
        <path d="M196.903 179.506C195.522 179.23 193.865 178.125 193.313 176.744C192.761 177.296 192.484 177.849 192.484 178.677C192.484 180.058 193.589 181.163 194.97 181.163C196.074 181.163 197.179 180.334 197.455 179.23C197.455 179.506 197.179 179.506 196.903 179.506Z" fill="#A40B00"/>
        <path d="M208.227 180.058C207.399 179.782 206.846 179.23 206.57 178.677C206.57 178.953 206.57 179.23 206.57 179.506C206.57 180.887 207.675 182.267 209.332 182.267C210.713 182.267 211.817 181.163 212.094 179.782C210.989 180.61 209.056 180.61 208.227 180.058Z" fill="#A40B00"/>
        <path d="M204.636 165.974C204.636 166.526 204.084 166.526 203.532 166.526C202.427 166.25 201.046 165.698 200.494 164.593C200.218 164.869 199.941 165.422 199.941 165.974C199.941 167.355 201.046 168.183 202.151 168.183C203.808 168.459 204.912 167.355 204.636 165.974C204.912 165.974 204.912 165.974 204.636 165.974Z" fill="#A40B00"/>
        <path d="M83.6765 166.802C83.4004 167.079 83.4004 167.355 83.4004 167.907C83.4004 169.012 84.2289 170.116 85.6097 170.116C86.4382 170.116 86.9905 169.564 87.5428 169.012C85.8859 168.735 84.505 168.183 83.6765 166.802Z" fill="#A40B00"/>
        <path d="M90.5816 179.23C90.3055 179.506 90.0293 180.058 90.0293 180.611C90.0293 181.991 91.134 183.096 92.5148 183.096C93.6194 183.096 94.4479 182.544 94.7241 181.439C93.0671 182.268 91.4101 181.163 90.5816 179.23Z" fill="#A40B00"/>
        <path d="M133.11 48.6046C131.453 48.8808 127.311 48.8808 125.102 48.6046C124.826 49.7093 125.654 51.6424 126.206 52.1947C127.035 53.0232 128.14 53.5755 129.244 53.5755C132.006 53.5755 133.663 51.3662 133.11 48.6046Z" fill="black"/>
        <path d="M128.969 52.471C127.588 52.471 126.483 51.0902 126.207 49.7094C127.588 49.9855 131.454 49.9855 132.283 49.7094C132.006 51.6425 130.626 52.7471 128.969 52.471Z" fill="white"/>
        <path d="M142.223 33.1395C140.29 33.1395 138.633 34.7965 138.633 36.7296C138.633 38.6628 140.29 40.3198 142.223 40.3198C144.156 40.3198 145.813 38.6628 145.813 36.7296C145.813 34.7965 144.156 33.1395 142.223 33.1395Z" fill="black"/>
        <path d="M62.137 90.5814C60.2039 90.5814 58.5469 92.2384 58.5469 94.1715C58.5469 96.1047 60.2039 97.7617 62.137 97.7617C64.0701 97.7617 65.7271 96.1047 65.7271 94.1715C65.7271 92.2384 64.0701 90.5814 62.137 90.5814Z" fill="#C9190F"/>
        <path d="M223.692 75.1162C221.759 75.1162 220.102 76.7732 220.102 78.7063C220.102 80.6395 221.759 82.2964 223.692 82.2964C225.625 82.2964 227.282 80.6395 227.282 78.7063C227.282 76.7732 225.625 75.1162 223.692 75.1162Z" fill="#C9190F"/>
        <path d="M65.7271 93.3431C65.4509 91.6861 63.794 90.5814 62.137 90.5814C60.2039 90.5814 58.5469 92.2384 58.5469 94.1715C60.7562 92.7907 63.794 91.9622 65.7271 93.3431Z" fill="#FF845F"/>
        <path d="M227.282 78.7063C227.282 76.7732 225.625 75.1162 223.692 75.1162C221.759 75.1162 220.102 76.7732 220.102 78.7063V78.9825C222.035 77.0493 225.349 77.0493 227.282 78.7063Z" fill="#FF845F"/>
        <path d="M143.328 34.2443C142.5 34.2443 141.947 34.7966 141.947 35.6251C141.947 36.4536 142.5 37.0059 143.328 37.0059C144.157 37.0059 144.709 36.4536 144.709 35.6251C144.709 34.7966 144.157 34.2443 143.328 34.2443Z" fill="white"/>
        <path d="M141.671 36.1772C141.395 36.1772 141.119 36.4534 141.119 36.7296C141.119 37.0057 141.395 37.2819 141.671 37.2819C141.948 37.2819 142.224 37.0057 142.224 36.7296C142.224 36.4534 141.948 36.1772 141.671 36.1772Z" fill="white"/>
        <path d="M115.989 29.8255C111.57 29.5493 107.98 32.3109 107.428 36.7295C106.876 41.1482 109.913 44.7383 114.608 45.2906C119.027 45.8429 122.893 43.0813 123.445 38.6627C124.274 34.2441 120.408 30.1016 115.989 29.8255Z" fill="black"/>
        <path d="M114.055 43.9098C110.741 43.0813 108.256 40.5958 108.256 37.2819C108.532 33.6918 111.57 30.654 115.988 31.2063C120.131 31.4825 122.34 35.3487 122.064 38.3865C122.064 42.8051 117.369 44.4621 114.055 43.9098Z" fill="white"/>
        <path d="M117.645 34.5204C115.712 34.5204 114.055 36.1774 114.055 38.1105C114.055 40.0436 115.712 41.7006 117.645 41.7006C119.578 41.7006 121.235 40.0436 121.235 38.1105C121.235 36.1774 119.578 34.5204 117.645 34.5204Z" fill="black"/>
        <path d="M118.75 35.625C117.921 35.625 117.369 36.1773 117.369 37.0058C117.369 37.8343 117.921 38.3866 118.75 38.3866C119.578 38.3866 120.131 37.8343 120.131 37.0058C120.131 36.1773 119.578 35.625 118.75 35.625Z" fill="white"/>
        <path d="M117.369 37.8342C117.093 37.8342 116.816 38.1104 116.816 38.3866C116.816 38.6627 117.093 38.9389 117.369 38.9389C117.645 38.9389 117.921 38.6627 117.921 38.3866C117.645 38.1104 117.645 37.8342 117.369 37.8342Z" fill="white"/>
        <path d="M122.063 103.837C119.577 103.285 117.092 104.942 117.368 107.703C117.368 108.532 117.644 109.36 118.473 110.189C117.644 111.846 112.949 120.959 112.673 121.235C112.397 120.959 111.569 120.407 111.292 120.407C111.016 120.407 101.351 121.235 101.074 121.512C100.522 122.064 101.351 131.177 101.627 136.424C101.627 136.977 101.903 137.253 102.455 136.977C103.284 136.977 109.912 135.596 112.673 135.044C113.778 134.767 116.263 128.139 114.054 122.34C114.33 122.064 119.854 111.57 120.406 110.741C122.339 111.57 124.548 110.465 125.377 108.532C125.653 106.599 123.996 104.389 122.063 103.837Z" fill="#CB7D00"/>
        <path d="M120.959 102.732C118.197 102.18 115.988 103.837 115.988 106.599C115.988 107.427 116.264 108.256 117.093 109.084C116.264 110.741 111.293 119.855 111.293 120.131C111.017 119.855 110.189 119.302 109.912 119.302C109.636 119.302 99.9706 120.131 99.6944 120.407C99.4182 120.683 99.9706 129.796 100.247 135.32C100.247 135.872 100.523 136.148 101.075 135.872C101.904 135.872 108.532 134.491 111.293 133.939C112.398 133.663 114.883 127.035 112.674 121.235C112.95 120.959 118.473 110.465 119.026 109.636C120.959 110.465 123.168 109.36 123.997 107.427C124.549 105.494 122.892 103.285 120.959 102.732Z" fill="black"/>
        <path d="M109.636 119.855C109.912 119.855 110.741 120.407 111.017 120.683C110.464 121.788 109.636 123.445 109.36 123.997C108.807 122.34 107.979 120.959 107.15 119.855C107.427 120.131 109.36 119.855 109.636 119.855Z" fill="#BFBFBF"/>
        <path d="M101.352 134.768C101.076 130.625 100.8 125.102 100.523 120.959C106.323 120.959 106.599 132.834 101.352 134.768Z" fill="#C9190F"/>
        <path d="M100.799 125.654C100.799 128.692 101.075 132.006 101.351 134.767C103.284 134.215 104.389 132.006 104.941 129.796C103.56 128.416 102.18 127.035 100.799 125.654Z" fill="#A40B00"/>
        <path d="M103.56 134.491C106.874 131.177 107.15 122.892 103.008 120.407C103.836 120.407 104.665 120.131 105.769 120.131C108.807 122.892 109.36 130.073 107.15 133.663C106.046 134.215 104.941 134.491 103.56 134.491Z" fill="#BFBFBF"/>
        <path d="M111.017 132.834C110.741 133.11 108.807 133.387 108.531 133.387C109.36 131.73 109.636 128.692 109.636 126.482C110.188 125.102 111.845 122.892 112.121 122.064C113.778 127.035 111.569 132.558 111.017 132.834Z" fill="#BFBFBF"/>
        <path d="M109.637 129.244C110.741 127.863 111.57 126.759 112.674 125.378C112.674 124.273 112.398 123.445 112.122 122.34C111.846 122.893 110.465 125.378 109.637 126.759C109.637 127.587 109.637 128.416 109.637 129.244Z" fill="#9F9F9F"/>
        <path d="M122.341 107.427C121.788 108.532 120.408 108.808 119.027 108.256C117.646 107.703 117.094 106.047 117.37 104.942C117.922 103.561 119.855 102.733 121.236 103.837C122.617 104.666 123.169 106.047 122.341 107.427Z" fill="#C9190F"/>
        <path d="M121.511 106.047C122.063 106.323 122.339 106.875 122.615 107.151C123.168 105.77 122.615 104.666 121.511 103.837C120.13 103.009 118.197 103.561 117.645 104.666C119.025 104.942 120.406 105.218 121.511 106.047Z" fill="#FF845F"/>
        <path d="M179.229 104.666C179.229 106.875 177.572 108.808 175.362 109.084L138.08 112.951C135.871 113.227 133.938 111.294 133.662 109.084L132.005 81.7443C131.729 79.2589 133.662 77.3257 135.871 77.0496L173.705 75.3926C175.915 75.3926 177.848 77.0496 178.124 79.2589L179.229 104.666Z" fill="#CB7D00"/>
        <path d="M179.781 103.285C179.781 105.494 178.125 107.427 175.915 107.703L139.738 111.294C137.529 111.57 135.595 109.913 135.595 107.427L133.938 81.1918C133.662 78.9825 135.595 76.7732 137.805 76.7732L174.534 75.1162C176.744 75.1162 178.677 76.7732 178.677 78.9825L179.781 103.285Z" fill="black"/>
        <path d="M178.402 101.904C178.402 104.113 176.745 106.046 174.536 106.323L141.396 109.36C139.187 109.637 137.254 107.98 136.978 105.494L135.597 82.0202C135.321 79.5348 137.254 77.6016 139.463 77.6016L173.155 76.2208C175.364 76.2208 177.297 77.8778 177.573 80.0871L178.402 101.904Z" fill="#DCFF8A"/>
        <path d="M159.897 99.6947C162.935 94.7237 165.973 89.7528 169.011 84.7819C170.668 82.0202 172.325 78.9825 173.982 76.2208C173.706 76.2208 173.153 76.2208 172.877 76.2208L161.554 76.7731C158.793 80.6394 156.307 84.5057 153.546 88.6481C148.851 95.5522 144.708 102.732 140.014 109.637C140.29 109.637 140.842 109.637 141.118 109.637L154.65 108.256C156.583 105.218 158.24 102.456 159.897 99.6947Z" fill="#F2FFC1"/>
        <path d="M95.8289 96.1047C95.0004 96.1047 94.1719 96.9332 94.1719 97.7617C94.1719 98.5902 95.0004 99.4187 95.8289 99.4187C96.6573 99.4187 97.4858 98.5902 97.4858 97.7617C97.4858 96.9332 96.6573 96.1047 95.8289 96.1047Z" fill="black"/>
        <path d="M101.628 95.8284C100.799 95.8284 99.9707 96.6569 99.9707 97.4853C99.9707 98.3138 100.799 99.1423 101.628 99.1423C102.456 99.1423 103.285 98.3138 103.285 97.4853C103.285 96.6569 102.732 95.8284 101.628 95.8284Z" fill="black"/>
        <path d="M107.704 95.5522C106.875 95.5522 106.047 96.3807 106.047 97.2092C106.047 98.0377 106.875 98.8662 107.704 98.8662C108.532 98.8662 109.361 98.0377 109.361 97.2092C109.361 96.1046 108.532 95.5522 107.704 95.5522Z" fill="black"/>
        <path d="M107.427 89.2007C106.598 89.2007 105.77 90.0292 105.77 90.8577C105.77 91.6862 106.598 92.5146 107.427 92.5146C108.255 92.5146 109.083 91.6862 109.083 90.8577C109.083 90.0292 108.255 89.2007 107.427 89.2007Z" fill="black"/>
        <path d="M107.151 82.5728C106.323 82.5728 105.494 83.4012 105.494 84.2297C105.494 85.0582 106.323 85.8867 107.151 85.8867C107.98 85.8867 108.808 85.0582 108.808 84.2297C108.808 83.4012 107.98 82.5728 107.151 82.5728Z" fill="black"/>
        <path d="M106.598 76.4971C105.77 76.4971 104.941 77.3256 104.941 78.154C104.941 78.9825 105.77 79.811 106.598 79.811C107.427 79.811 108.255 78.9825 108.255 78.154C108.255 77.0494 107.427 76.4971 106.598 76.4971Z" fill="black"/>
        <path d="M175.364 127.587C174.536 127.587 173.707 128.139 173.707 129.244C173.707 130.073 174.259 130.901 175.364 130.901C176.192 130.901 177.021 130.073 177.021 129.244C176.745 128.416 176.192 127.587 175.364 127.587Z" fill="black"/>
        <path d="M175.639 133.663C174.811 133.663 173.982 134.491 173.982 135.32C173.982 136.148 174.811 136.977 175.639 136.977C176.468 136.977 177.296 136.148 177.296 135.32C177.02 134.215 176.468 133.663 175.639 133.663Z" fill="black"/>
        <path d="M175.087 121.788C174.258 121.788 173.43 122.616 173.43 123.445C173.43 124.273 173.982 125.102 175.087 125.102C175.915 125.102 176.744 124.273 176.744 123.445C176.467 122.616 175.915 121.788 175.087 121.788Z" fill="black"/>
        <path d="M174.811 115.436C173.983 115.436 173.154 116.265 173.154 117.093C173.154 117.922 173.983 118.75 174.811 118.75C175.64 118.75 176.468 117.922 176.468 117.093C176.192 116.265 175.64 115.436 174.811 115.436Z" fill="black"/>
        <path d="M174.259 109.636C173.43 109.636 172.602 110.465 172.602 111.293C172.602 112.122 173.43 112.95 174.259 112.95C175.087 112.95 175.916 112.122 175.916 111.293C175.916 110.465 175.087 109.636 174.259 109.636Z" fill="black"/>
        <path d="M114.055 95C113.227 95 112.398 95.8285 112.398 96.657C112.398 97.4855 113.227 98.3139 114.055 98.3139C114.884 98.3139 115.712 97.4855 115.712 96.657C115.712 95.8285 114.884 95 114.055 95Z" fill="black"/>
        <path d="M119.854 94.7239C119.026 94.7239 118.197 95.5524 118.197 96.3809C118.197 97.2093 119.026 98.0378 119.854 98.0378C120.683 98.0378 121.511 97.2093 121.511 96.3809C121.511 95.5524 120.683 94.7239 119.854 94.7239Z" fill="black"/>
        <path d="M125.378 94.1715C124.549 94.1715 123.721 95 123.721 95.8285C123.721 96.657 124.549 97.4855 125.378 97.4855C126.206 97.4855 127.035 96.657 127.035 95.8285C127.035 95 126.482 94.1715 125.378 94.1715Z" fill="black"/>
        <path d="M131.177 93.8954C130.348 93.8954 129.52 94.7239 129.52 95.5524C129.52 96.3809 130.348 97.2094 131.177 97.2094C132.005 97.2094 132.833 96.3809 132.833 95.5524C132.833 94.7239 132.005 93.8954 131.177 93.8954Z" fill="black"/>
        <path d="M129.244 128.692C126.483 128.692 124.273 130.901 124.273 133.663C124.273 136.424 126.483 138.91 129.244 138.91C132.006 138.91 134.215 136.7 134.215 133.663C134.215 130.901 132.006 128.692 129.244 128.692Z" fill="#CB7D00"/>
        <path d="M144.156 128.14C141.395 128.14 139.186 130.349 139.186 133.387C139.186 136.148 141.395 138.634 144.156 138.634C146.918 138.634 149.127 136.425 149.127 133.387C149.127 130.349 146.918 128.14 144.156 128.14Z" fill="#CB7D00"/>
        <path d="M158.793 127.587C156.032 127.587 153.822 129.796 153.822 132.834C153.822 135.596 156.032 138.081 158.793 138.081C161.555 138.081 163.764 135.872 163.764 132.834C163.764 129.796 161.555 127.587 158.793 127.587Z" fill="#CB7D00"/>
        <path d="M130.348 127.587C127.586 127.587 125.377 129.796 125.377 132.834C125.377 135.596 127.586 138.081 130.348 138.081C133.11 138.081 135.319 135.872 135.319 132.834C135.319 129.796 133.11 127.587 130.348 127.587Z" fill="black"/>
        <path d="M145.262 127.035C142.5 127.035 140.291 129.244 140.291 132.282C140.291 135.044 142.5 137.529 145.262 137.529C148.024 137.529 150.233 135.32 150.233 132.282C150.233 129.244 148.024 127.035 145.262 127.035Z" fill="black"/>
        <path d="M159.899 126.483C157.137 126.483 154.928 128.692 154.928 131.73C154.928 134.768 157.137 136.977 159.899 136.977C162.66 136.977 164.87 134.768 164.87 131.73C164.87 128.692 162.66 126.483 159.899 126.483Z" fill="black"/>
        <path d="M160.451 127.863C158.794 127.863 157.137 129.52 157.137 131.454C157.137 133.387 158.518 135.044 160.451 135.044C162.108 135.044 163.488 133.387 163.488 131.454C163.488 129.52 162.108 127.863 160.451 127.863Z" fill="#FFEB00"/>
        <path d="M163.212 132.834C163.488 132.282 163.488 131.73 163.488 131.177C163.488 129.244 162.107 127.587 160.45 127.587C159.898 127.587 159.345 127.863 158.793 128.139C160.174 129.796 161.831 131.453 163.212 132.834Z" fill="#FFF8A6"/>
        <path d="M145.538 128.416C143.881 128.416 142.5 130.073 142.5 132.006C142.5 133.939 143.881 135.596 145.538 135.596C147.195 135.596 148.852 133.939 148.852 132.006C148.852 130.073 147.195 128.416 145.538 128.416Z" fill="#46C000"/>
        <path d="M148.298 133.387C148.574 132.834 148.574 132.282 148.574 131.73C148.574 129.797 147.194 128.14 145.26 128.14C144.708 128.14 144.156 128.416 143.604 128.692C145.537 130.349 146.917 132.006 148.298 133.387Z" fill="#A2DF56"/>
        <path d="M130.626 128.692C128.969 128.692 127.588 130.349 127.588 132.282C127.588 134.215 128.969 135.872 130.626 135.872C132.283 135.872 133.663 134.215 133.663 132.282C133.663 130.349 132.283 128.692 130.626 128.692Z" fill="#3DB1FF"/>
        <path d="M133.385 133.663C133.662 133.11 133.662 132.558 133.662 132.006C133.662 130.073 132.281 128.416 130.624 128.416C130.071 128.416 129.519 128.692 128.967 128.968C130.348 130.625 132.005 132.282 133.385 133.663Z" fill="#94D4FF"/>
        <path d="M141.395 101.076L141.671 105.494L145.537 105.218L145.261 100.799L141.395 101.076Z" fill="black"/>
        <path d="M141.119 95.8284L141.395 100.247L145.262 99.9709L144.985 95.5522L141.119 95.8284Z" fill="black"/>
        <path d="M146.643 100.799L146.919 105.218L150.785 104.666L150.509 100.247L146.643 100.799Z" fill="black"/>
        <path d="M151.613 100.247L151.889 104.666L155.756 104.113L155.48 99.9708L151.613 100.247Z" fill="black"/>
        <path d="M171.221 98.3139V102.456L175.087 102.18L174.811 98.0377L171.221 98.3139Z" fill="black"/>
        <path d="M156.859 99.6947L157.136 104.113L160.726 103.561V99.4186L156.859 99.6947Z" fill="black"/>
        <path d="M146.365 95.5523L146.641 99.9709L150.508 99.4186L150.232 95.2761L146.365 95.5523Z" fill="black"/>
        <path d="M165.697 98.8661L165.973 103.009L169.564 102.732V98.59L165.697 98.8661Z" fill="black"/>
        <path d="M165.697 93.8952V98.0376L169.564 97.7615V93.619L165.697 93.8952Z" fill="black"/>
        <path d="M140.566 90.3052L140.843 94.7238L144.709 94.4477L144.433 90.0291L140.566 90.3052Z" fill="black"/>
        <path d="M156.584 94.7237L156.86 98.8661L160.726 98.5899L160.45 94.4475L156.584 94.7237Z" fill="black"/>
        <path d="M156.307 89.2005L156.583 93.6191L160.449 93.3429L160.173 88.9243L156.307 89.2005Z" fill="black"/>
        <path d="M140.014 85.058L140.566 89.4766L144.432 89.2005L144.156 84.7819L140.014 85.058Z" fill="black"/>
    </g>
    <defs>
        <clipPath id="clip0">
            <rect width="293.285" height="190" fill="white"/>
        </clipPath>
    </defs>
</svg>
