<svg width="55" height="56" viewBox="0 0 55 56" fill="none" xmlns="http://www.w3.org/2000/svg">
    <path d="M3.53255 4.67417C-0.710947 9.08192 0.157553 13.7642 0.157553 27.9887C0.157553 39.8012 -1.90345 51.6429 8.88305 54.4307C12.2513 55.2969 42.0953 55.2969 45.4591 54.4262C49.9501 53.2674 53.604 49.6247 54.1035 43.2729C54.1733 42.3864 54.1733 13.6067 54.1013 12.7022C53.5703 5.93642 49.4055 2.03717 43.9178 1.24742C42.66 1.06517 42.4081 1.01117 35.9551 0.999921C13.0658 1.01117 8.0483 -0.00807911 3.53255 4.67417Z" fill="url(#paint0_linear)"/>
    <path d="M27.1533 8.0627C18.9835 8.0627 11.2255 7.33595 8.26229 14.9409C7.03829 18.0819 7.21604 22.1612 7.21604 28.0022C7.21604 33.1277 7.05179 37.945 8.26229 41.0612C11.2188 48.6707 19.0398 47.9417 27.1488 47.9417C34.972 47.9417 43.0383 48.7562 46.0375 41.0612C47.2638 37.8887 47.0838 33.8702 47.0838 28.0022C47.0838 20.2127 47.5135 15.1839 43.7358 11.4084C39.9108 7.58345 34.738 8.0627 27.1443 8.0627H27.1533ZM25.3668 11.6559C42.4083 11.6289 44.5773 9.73445 43.3803 36.0527C42.955 45.361 35.8675 44.3394 27.1555 44.3394C11.2705 44.3394 10.8138 43.8849 10.8138 27.9932C10.8138 11.9169 12.0738 11.6649 25.3668 11.6514V11.6559ZM37.7958 14.9657C36.475 14.9657 35.404 16.0367 35.404 17.3574C35.404 18.6782 36.475 19.7492 37.7958 19.7492C39.1165 19.7492 40.1875 18.6782 40.1875 17.3574C40.1875 16.0367 39.1165 14.9657 37.7958 14.9657ZM27.1533 17.7624C21.499 17.7624 16.9158 22.348 16.9158 28.0022C16.9158 33.6565 21.499 38.2397 27.1533 38.2397C32.8075 38.2397 37.3885 33.6565 37.3885 28.0022C37.3885 22.348 32.8075 17.7624 27.1533 17.7624ZM27.1533 21.3557C35.9395 21.3557 35.9508 34.6487 27.1533 34.6487C18.3693 34.6487 18.3558 21.3557 27.1533 21.3557Z" fill="white"/>
    <defs>
        <linearGradient id="paint0_linear" x1="3.6361" y1="51.5509" x2="53.8234" y2="8.11438" gradientUnits="userSpaceOnUse">
            <stop stop-color="#FFDD55"/>
            <stop offset="0.5" stop-color="#FF543E"/>
            <stop offset="1" stop-color="#C837AB"/>
        </linearGradient>
    </defs>
</svg>
