<svg width="304" height="211" viewBox="0 0 304 211" fill="none" xmlns="http://www.w3.org/2000/svg">
    <ellipse cx="148" cy="198.709" rx="109" ry="11.6962" fill="#2A4261"/>
    <ellipse cx="148" cy="198.709" rx="109" ry="11.6962" fill="#2A4261"/>
    <g clip-path="url(#clip0)">
        <path d="M301.282 110.513C299.327 109.538 296.87 108.228 295.256 107.427C291.969 108.609 285.736 109.745 282.777 109.037C280.361 108.462 279.41 105.65 279.028 104.186C278.305 101.447 279.865 99.0757 281.947 97.5392C286.587 94.1053 292.753 90.972 297.365 88.3933C297.071 86.4893 295.203 79.3877 294.165 77.5906C293.094 76.9426 289.74 74.4707 288.053 73.5755C276.19 75.907 266.938 79.8954 259.774 86.6296C256.762 89.4555 253.642 94.7867 253.783 102.236C248.936 103.685 210.314 116.613 195.197 121.717C195.104 117.889 194.213 110.426 193.932 108.723C192.881 108.689 176.091 109.424 158.155 110.446C158.202 106.331 158.109 101.955 158.008 99.1492C180.824 98.6348 226.89 95.6218 230.599 94.6197C233.846 90.8184 237.401 87.0839 239.65 83.9038C239.697 81.1314 239.402 75.406 238.914 68.3512C239.918 68.2309 240.869 68.0973 241.592 67.9503C245.608 67.1553 249.645 65.9795 252.979 64.3828C259.513 61.2496 262.298 58.1364 263.617 55.7046C264.702 53.6937 266.174 49.9124 265.927 44.4342C265.679 38.9494 264.079 25.127 263.898 22.4614C268.069 21.4459 272.95 18.0588 272.34 10.1555C271.811 3.37459 266.563 -0.146148 260.578 0.00750856C253.669 0.181207 248.815 5.69279 249.317 12.6741C249.772 18.9674 255.376 22.8221 261.18 23.0159C261.488 25.8685 262.178 32.0883 262.74 37.2324C260.959 35.1814 258.589 34.0056 255.811 33.5848C247.978 32.3956 239.938 35.6624 237.709 36.6913C237.24 36.9051 236.785 37.1322 236.33 37.3527C235.158 24.9666 234.006 14.498 233.464 12.3668C196.208 12.1798 133.291 17.4108 88.7246 23.39C85.0224 25.4209 76.3862 33.0369 75.5896 34.7672C75.5226 34.8073 75.4624 34.8541 75.4222 34.8942C74.2841 36.0299 76.3528 91.6134 78.6825 93.4773C80.3027 94.7667 106.512 96.7241 127.072 97.9935C127.306 102.356 127.581 108.268 127.741 112.284C119.333 112.831 112.986 113.299 111.138 113.566C107.932 114.996 96.9926 121.636 95.2988 123.113C95.2252 123.621 95.2318 126.914 95.339 128.711C92.795 127.021 84.1923 121.095 83.1948 120.434C81.809 119.512 68.8212 114.441 66.7124 112.13C64.6705 109.872 54.7021 77.7376 50.9129 64.1356C60.8545 60.8621 67.4555 54.963 71.4121 40.82C73.1795 34.5 74.746 14.0504 69.9727 3.96249C64.7308 4.14955 53.2895 5.80636 48.9848 6.83519C47.9873 8.11121 44.0843 13.2954 43.0667 14.999C44.4257 22.2476 44.5529 31.1196 41.3127 36.8316C35.0665 39.4972 29.7844 37.2257 27.9902 34.1125C24.9977 28.9417 23.4177 17.0968 23.0763 12.5806C19.3139 12.3869 9.68687 14.4111 6.88179 15.3331C5.67005 16.3485 1.14442 22.6618 0.187082 24.3854C-0.783651 31.1597 2.12855 42.3899 5.62318 48.9637C11.6083 60.2408 18.7515 66.9215 31.7459 67.0017C34.1493 76.976 43.8031 115.377 44.9412 119.926C46.1998 124.97 50.2166 128.13 55.0636 130.442C59.2344 132.433 87.6735 138.666 95.8478 140.576C96.3566 151.539 97.1198 163.698 97.7223 164.299C97.9901 164.567 103.587 164.179 111.868 163.431C111.152 167.673 110.174 175.309 109.659 180.908C100.922 184.789 86.0467 192.686 83.3086 196.681C84.2994 199.487 89.2401 201.972 94.6025 202.734C99.965 203.495 108.621 202.493 113.174 200.83C116.28 202.5 125.666 204.524 131.932 198.919C131.142 192.111 129.214 170.005 128.371 161.841C140.783 160.592 154.821 159.075 166.156 157.792C166.022 164.58 165.653 188.283 166.959 195.291C168.231 196.2 179.137 195.792 180.04 195.251C180.951 194.703 180.402 193.254 180.77 191.804C182.584 193.254 188.65 195.011 190.444 195.225C192.231 195.438 214.07 189.659 214.431 187.849C209.644 183.834 194.909 179.064 185.503 176.251C184.379 171.408 182.136 161.126 181.239 156.009C185.336 155.494 186.916 155.2 187.98 154.96C189.48 153.757 195.324 148.399 197.112 146.175C197.152 144.905 196.811 140.135 196.603 137.597C213.655 133.495 253.434 123.701 261.448 121.583C263.624 124.289 268.357 126.607 271.825 127.883C275.139 129.106 278.874 129.68 282.456 129.46C286.366 129.219 290.075 128.812 293.837 127.729C296.883 126.854 301.067 125.251 304.013 122.465C303.611 120.381 302.159 114 301.282 110.513Z" fill="black"/>
        <path d="M70.9517 22.6343C71.1392 28.7605 70.7911 33.6307 69.4521 39.6367C68.3944 44.3533 65.1474 51.9626 61.2109 55.4165C69.2647 43.1841 68.7023 24.6852 65.8772 12.5063C67.0153 10.6758 68.5283 8.36427 68.95 7.62939C70.4563 11.7714 70.8178 18.3519 70.9517 22.6343Z" fill="#839196"/>
        <path d="M50.3516 8.62463C52.1324 8.31063 62.1477 6.84756 67.2022 6.28638C66.8273 7.12815 65.1402 9.55324 63.8615 11.4907C59.3426 11.8915 51.6705 13.0606 46.2344 14.3166C46.5758 13.7688 49.3809 10.0009 50.3516 8.62463Z" fill="#CDD4D6"/>
        <path d="M22.8903 26.4488C23.7873 30.2167 24.8116 34.4923 27.4962 37.4118C29.4779 39.563 32.0085 40.7522 34.9073 40.6252C36.9826 40.5384 38.6362 40.1242 39.935 39.4761C38.0136 41.4737 35.8378 42.8967 32.6378 43.0837C25.5614 43.4979 20.4333 37.4185 18.1973 21.4316C18.927 19.8215 20.5672 16.8686 21.2701 16.0269C21.2835 17.2361 22.3346 24.1239 22.8903 26.4488Z" fill="#839196"/>
        <path d="M7.71924 17.1359C10.3302 16.3676 16.6701 15.1049 19.5488 14.8711C19.0668 15.5191 16.978 19.0666 16.4759 20.0486C13.0616 20.6232 6.96274 21.8925 3.11328 23.3422C3.61538 22.447 6.13929 18.786 7.71924 17.1359Z" fill="#CDD4D6"/>
        <path d="M29.383 63.0792C12.9074 62.4846 3.68205 41.2199 3.09961 26.3153C5.04107 25.3466 13.2287 23.0484 15.6187 22.7277C16.9777 36.0825 23.2373 48.4418 34.2501 45.9833C47.6395 42.997 47.3583 28.1057 46.5148 17.2162C50.9199 16.0537 59.9645 14.7977 63.6465 14.604C67.3956 33.2833 64.0348 48.7892 57.2263 55.3029C52.0379 60.2667 42.5917 63.5536 29.383 63.0792Z" fill="#B7C2C4"/>
        <path d="M46.8422 24.5115C46.8422 28.7136 46.4271 32.9826 45.0078 36.637C50.0021 41.6475 55.1101 46.5378 60.3052 51.3412C62.1864 48.1812 63.599 44.0926 64.4091 39.3159C58.3504 34.5993 52.3988 29.7358 46.8422 24.5115Z" fill="#D1D8D9"/>
        <path d="M5.54987 25.3867C4.46533 25.7475 3.58163 26.0748 3.09961 26.3153C3.22681 29.6557 3.79586 33.3167 4.77998 36.9911C12.8672 46.2372 21.8582 54.7618 30.9228 63.1127C35.4417 63.1795 39.4987 62.7786 43.0737 62.0371C29.7579 50.6665 17.1719 38.4609 5.54987 25.3867Z" fill="#D1D8D9"/>
        <path d="M57.3999 126.526C54.0057 125.183 50.404 121.756 49.5738 119.291C48.4558 115.944 38.6748 77.2357 36.1309 66.7937C39.5251 66.4731 43.9101 65.5845 48.0809 64.4622C52.1513 79.2466 61.2896 111.18 63.7331 113.619C66.2637 116.144 81.0925 121.896 81.8758 122.417C82.7193 122.979 92.179 129.759 95.2451 131.77C95.3522 133.04 95.4058 136.153 95.3522 136.948C87.5529 135.478 60.7942 127.869 57.3999 126.526Z" fill="#FF9900"/>
        <path d="M46.2466 72.7796C47.5253 72.3855 48.7839 71.9379 50.0291 71.4569C49.306 68.8848 48.6433 66.5065 48.0809 64.4622C43.9101 65.5845 39.5251 66.4731 36.1309 66.7937C36.566 68.5708 37.2087 71.1629 37.9786 74.2628C40.7971 74.196 43.6356 73.5813 46.2466 72.7796Z" fill="#E57500"/>
        <path d="M63.7332 113.619C62.9164 112.804 61.3499 108.682 59.4753 103.016C54.8225 103.952 50.6316 106.597 47.1035 110.145C48.3487 114.921 49.2793 118.389 49.5806 119.291C50.404 121.756 54.0125 125.176 57.4067 126.526C59.1406 127.207 66.96 129.525 75.2414 131.824C75.5761 131.403 75.9042 130.955 76.1987 130.467C77.8791 127.641 78.7025 124.448 79.1042 121.188C74.4782 119.237 65.6278 115.516 63.7332 113.619Z" fill="#E57500"/>
        <path d="M95.246 131.777C94.9381 131.576 94.5565 131.316 94.1347 131.029C94.041 132.899 93.9271 134.763 93.8066 136.627C94.3824 136.754 94.8979 136.861 95.3531 136.954C95.4067 136.153 95.3531 133.046 95.246 131.777Z" fill="#E57500"/>
        <path d="M299.608 111.374C300.285 114.193 301.536 119.317 301.885 120.988C301.557 120.814 299.059 119.197 298.444 118.897C297.794 117.079 296.716 112.557 295.859 109.463C296.509 109.924 298.531 110.793 299.608 111.374Z" fill="#CDD4D6"/>
        <path d="M278.374 97.9259C276.573 100.311 276.131 103.13 277.089 105.943C277.363 106.758 277.771 107.559 278.294 108.261C273.895 106.564 271.083 101.707 274.022 96.2624C276.734 91.2385 285.136 86.6488 289.561 85.2993C290.846 86.0008 293.129 87.9783 293.47 88.2522C289.099 90.6038 280.463 95.1667 278.374 97.9259Z" fill="#839196"/>
        <path d="M292.927 78.5986C293.355 79.8078 294.888 84.7114 295.277 86.7023C294.982 86.5286 291.682 84.2237 290.697 83.4822C289.948 80.7765 289.285 78.485 288.066 75.5388C288.421 75.7192 292.538 78.2846 292.927 78.5986Z" fill="#CDD4D6"/>
        <path d="M258.442 40.8192C261.609 42.4626 262.914 44.6606 262.921 47.9943C263.758 42.1152 261.334 38.354 258.971 37.0847C254.238 34.5527 243.326 34.4859 233.176 41.4004C232.922 42.3491 232.574 43.2376 232.232 44.5604C240.514 41.5541 249.833 36.3297 258.442 40.8192Z" fill="#FFE89E"/>
        <path d="M255.698 41.6876C248.708 39.3226 237.227 44.3064 232.105 46.6714C232.775 52.8043 234.154 61.409 234.797 65.2838C244.042 64.736 256.441 61.3489 260.692 54.2673C262.68 48.8626 261.877 43.7853 255.698 41.6876Z" fill="#FFCF00"/>
        <path d="M232.166 46.6448C232.146 46.6515 232.126 46.6581 232.105 46.6715C232.775 52.8044 234.154 61.4091 234.797 65.2839C237.16 65.1436 239.731 64.8163 242.322 64.2952C239.242 58.9707 235.58 53.0716 232.166 46.6448Z" fill="#EAAE00"/>
        <path d="M231.791 17.4033C232.528 23.2757 233.298 30.7647 234.021 38.5812C233.653 38.7883 231.832 39.9641 231.075 40.5854C230.727 41.4338 229.803 44.2397 229.321 46.2239C230.098 53.6595 232.454 67.0677 232.668 68.8648C233.244 68.8581 234.998 68.7312 236.458 68.5976C236.886 74.8441 237.174 79.7811 237.227 82.2196C235.735 84.3908 232.2 88.4259 230.486 90.6239C229.924 77.5765 225.853 33.6107 224.494 25.801C225.806 23.9437 230.319 18.833 231.791 17.4033Z" fill="#E1A100"/>
        <path d="M90.2314 25.4334C113.824 22.2601 169.999 16.0938 230.854 14.9714C229.468 16.3477 223.737 22.1933 222.927 23.3624C215.931 23.0083 181.654 23.7967 157.527 25.4134C140 26.5825 93.5855 31.0853 79.7676 33.7776C81.0664 32.3947 87.5468 27.3775 90.2314 25.4334Z" fill="#FFE881"/>
        <path d="M127.495 94.2446C105.288 93.1022 82.9415 90.8909 82.0578 90.136C80.4243 88.7397 77.2175 38.5476 78.8443 37.1513C80.4778 35.755 96.5251 33.684 100.977 33.2231C119.026 31.3591 137.155 29.4551 155.271 28.1724C173.802 26.8563 218.188 24.939 221.12 26.7962C221.817 27.4309 227.212 89.7352 226.744 91.1314C226.275 92.5277 181.079 94.8058 169.946 95.1131C160.948 95.367 146.307 95.2133 127.495 94.2446Z" fill="#FFCF00"/>
        <path d="M154.935 113.445C150.624 115.569 135.407 116.344 130.901 114.12C130.68 109.597 130.406 101.981 130.285 98.1863C138.031 98.6472 144.672 99.0013 148.428 99.155C150.048 99.2218 152.251 99.2352 154.895 99.2018C155.009 104.773 155.062 109.63 154.935 113.445Z" fill="#F6D300"/>
        <path d="M142.818 105.876C147.129 105.602 151.173 104.379 154.955 102.469C154.935 101.413 154.915 100.324 154.895 99.2083C152.25 99.2417 150.048 99.2284 148.428 99.1616C144.679 99.0079 138.031 98.6538 130.285 98.1929C130.325 99.5357 130.392 101.366 130.459 103.37C133.86 105.622 139.296 106.11 142.818 105.876Z" fill="#C69A00"/>
        <path d="M111.836 115.583C112.672 115.509 119.039 115.109 127.843 114.554C127.869 115.349 127.889 115.97 127.896 116.344C132.1 119.017 150.23 119.244 158.042 114.895C158.076 114.187 158.103 113.445 158.123 112.683C174.993 111.635 190.257 110.693 191.349 110.566C188.731 112.697 184.647 116.805 183.081 118.248C174.351 118.001 114.46 121.295 99.5977 122.965C103.213 120.634 108.535 117.347 111.836 115.583Z" fill="#FFE881"/>
        <path d="M140.743 119.484C151.139 119.043 165.968 117.293 168.238 112.055C165.004 112.256 161.597 112.463 158.115 112.683C158.095 113.445 158.068 114.187 158.035 114.895C150.222 119.244 132.093 119.017 127.889 116.344C127.882 115.97 127.862 115.349 127.835 114.554C123.517 114.821 119.788 115.055 117.01 115.235C118.496 119.164 130.6 119.912 140.743 119.484Z" fill="#F1C93F"/>
        <path d="M120.177 185.029C123.076 184.942 125.171 184.347 126.765 183.252C125.881 175.582 124.79 166.69 124.201 162.261C121.262 162.548 118.45 162.822 115.832 163.069C114.995 168.735 113.174 181.956 113.107 182.904C115.176 184.321 118.095 185.089 120.177 185.029Z" fill="#F6D300"/>
        <path d="M118.784 185.677C116.742 185.51 114.225 184.615 112.364 183.252C105.816 186.291 93.2301 192.03 87.5195 196.627C93.2636 202.165 112.404 199.112 118.556 192.545C119.674 193.573 118.523 196.439 116.575 197.575C120.25 199.873 125.987 198.925 128.096 196.82C128.17 196.092 127.601 190.634 126.851 184.1C125.043 185.303 122.158 185.951 118.784 185.677Z" fill="#FFA100"/>
        <path d="M113.027 183.706C112.793 183.559 112.565 183.412 112.358 183.252C105.81 186.291 93.2243 192.03 87.5137 196.626C88.2367 197.321 89.1673 197.882 90.2652 198.317C94.0745 195.097 108.843 185.677 113.027 183.706Z" fill="#FFC68C"/>
        <path d="M182.887 177.747C181.247 171.487 179.634 160.965 178.964 156.288C176.213 156.629 172.946 157.01 169.331 157.424C169.19 161.887 169.337 170.632 169.558 178.141C173.039 180.172 179.386 179.758 182.887 177.747Z" fill="#F6D300"/>
        <path d="M124.824 167.158C124.583 165.241 124.368 163.557 124.194 162.261C121.255 162.548 118.444 162.822 115.826 163.069C115.645 164.292 115.418 165.882 115.17 167.612C118.082 168.761 122.581 168.514 124.824 167.158Z" fill="#C69A00"/>
        <path d="M179.7 161.159C179.399 159.248 179.145 157.551 178.97 156.288C176.219 156.629 172.952 157.01 169.337 157.424C169.297 158.653 169.283 160.223 169.283 161.987C172.262 163.283 177.873 162.722 179.7 161.159Z" fill="#C69A00"/>
        <path d="M207.53 187.461C205.903 185.009 188.282 180.513 183.221 178.375C181.788 179.29 179.385 180.125 176.553 180.259C174.371 180.366 171.599 180.185 169.584 179.036C169.785 185.677 170.046 191.148 170.207 191.469C170.588 192.231 177.477 192.805 177.859 192.043C178.24 191.282 178.234 187.808 178.22 186.552C179.927 187.761 189.153 191.663 190.686 191.663C192.219 191.669 203.894 189.184 207.53 187.461Z" fill="#FFA100"/>
        <path d="M204.651 188.523C205.829 188.162 206.833 187.795 207.536 187.467C205.909 185.015 188.289 180.519 183.227 178.382C182.98 178.542 182.692 178.689 182.391 178.843C185.992 180.934 201.611 187.08 204.651 188.523Z" fill="#FFC68C"/>
        <path d="M134.819 122.832C115.685 124.001 98.3395 124.976 98.2592 125.691C98.0985 127.06 99.7253 158.794 100.221 159.195C100.984 159.809 118.343 158.226 137.196 156.429C136.834 152.033 135.194 128.53 134.819 122.832Z" fill="#FFA100"/>
        <path d="M181.381 120.573C181.193 120.159 157.494 121.522 136.064 122.825C136.366 125.404 138.066 151.739 138.448 156.335C159.757 154.304 183.175 151.472 183.63 150.904C184.501 149.828 181.823 121.682 181.381 120.573Z" fill="#FFCF00"/>
        <path d="M167.649 133.1C167.602 133.147 167.542 133.187 167.455 133.2C167.428 133.207 167.408 133.22 167.388 133.227C167.093 133.387 166.096 134.102 165.935 133.962C164.717 134.957 164.081 136.654 164.469 138.231C165.139 140.896 168.727 141.531 170.742 139.567C172.175 138.177 171.833 136.287 170.782 134.583C169.979 133.274 168.807 132.639 167.649 133.1Z" fill="#EAAE00"/>
        <path d="M158.906 135.792C156.724 136.073 155.244 138.063 155.305 139.954C155.398 142.974 158.143 144.203 160.138 143.695C162.347 143.127 163.646 141.457 163.077 139.126C162.662 137.422 161.082 135.505 158.906 135.792Z" fill="#EAAE00"/>
        <path d="M173.949 127.368C172.871 128.63 172.791 130.975 173.688 132.478C174.779 134.315 177.136 134.569 179.03 133.414C181.226 132.064 181.393 128.563 179.412 126.853C177.624 125.317 175.609 126.205 173.949 127.368Z" fill="#EAAE00"/>
        <path d="M187.747 150.73C187.01 143.428 185.551 126.646 185.002 120.166C186.649 118.616 190.244 115.122 192.373 112.998C192.681 115.423 193.049 120.627 193.136 122.357C191.764 122.812 189.407 123.693 188.925 123.86C189.119 125.497 190.538 137.489 190.692 138.765C191.71 138.511 192.754 138.284 194.508 137.863C194.595 140.328 194.783 143.989 194.877 144.617C193.062 146.267 189.119 149.748 187.747 150.73Z" fill="#E1A100"/>
        <path d="M194.448 145.005C194.595 144.871 194.756 144.731 194.883 144.617C194.789 143.989 194.608 140.328 194.515 137.863C192.854 138.264 191.83 138.484 190.859 138.725C191.85 140.929 193.102 143.001 194.448 145.005Z" fill="#CA8A00"/>
        <path d="M192.706 134.402C192.445 132.218 191.836 127.635 191.662 125.363C207.508 119.838 241.263 108.782 253.856 104.807C254.151 106.931 256.005 114.267 258.636 117.734C252.992 119.284 205.44 131.202 192.706 134.402Z" fill="#FF9900"/>
        <path d="M251.875 115.115C252.551 116.471 253.368 117.714 254.278 118.876C256.354 118.342 257.874 117.948 258.63 117.741C255.999 114.273 254.145 106.945 253.85 104.813C252.692 105.181 251.346 105.608 249.867 106.083C249.826 109.29 250.663 112.663 251.875 115.115Z" fill="#E57500"/>
        <path d="M232.066 111.935C232.039 111.922 232.019 111.895 231.999 111.875C225.05 114.146 217.559 116.618 210.583 118.95C209.251 122.497 209.492 126.432 211.011 129.806C219.996 127.548 230.379 124.936 239.196 122.711C238.714 118.469 236.056 114.534 232.066 111.935Z" fill="#E57500"/>
        <path d="M260.23 114.795C256.648 109.33 256.34 101.239 257.304 97.0774C258.134 93.5099 260.237 88.7866 266.771 84.3707C273.305 79.9547 280.127 77.563 285.817 76.0933C286.627 77.6031 288.053 81.4111 288.261 83.0946C281.097 85.8271 273.894 90.1962 271.363 95.0331C268.833 99.8699 270.051 104.186 272.729 107.566C276.083 111.815 283.434 112.984 293.764 110.252C293.764 110.252 295.585 116.839 295.792 118.102C291.595 120.754 283.815 122.831 277.067 122.831C270.332 122.831 263.818 120.266 260.23 114.795Z" fill="#B7C2C4"/>
        <path d="M290.489 111C281.887 112.683 275.721 111.347 272.735 107.566C270.057 104.186 268.839 99.8698 271.369 95.033C271.737 94.3248 272.226 93.6234 272.782 92.9353C270.425 90.3431 268.116 87.7109 265.853 85.032C261.963 87.8646 259.787 90.7908 258.549 93.4363C259.881 94.8526 261.22 96.2422 262.512 97.6251C268.484 104.025 274.107 110.713 280.28 116.946C281.94 118.623 283.621 120.286 285.308 121.936C289.432 121.081 293.268 119.698 295.791 118.101C295.718 117.661 295.45 116.578 295.135 115.356C293.576 113.919 292.029 112.463 290.489 111Z" fill="#D1D8D9"/>
        <path d="M260.471 115.135C261.502 116.618 262.747 117.874 264.159 118.917C262.928 117.661 261.703 116.398 260.471 115.135Z" fill="#D1D8D9"/>
        <path d="M286.942 126.94C280.073 128.062 271.966 126.94 269 124.488C279.076 126.566 289.687 124.822 297.459 120.146C297.914 120.587 300.318 121.97 300.86 122.277C298.738 124.027 293.804 125.824 286.942 126.94Z" fill="#839196"/>
        <path d="M260.665 2.26465C256.019 2.26465 252.25 6.02589 252.25 10.6623C252.25 15.3054 256.019 19.06 260.665 19.06C265.318 19.06 269.081 15.3054 269.081 10.6623C269.081 6.02589 265.318 2.26465 260.665 2.26465Z" fill="#FF9900"/>
        <path d="M259.796 4.75655C263.143 4.54277 265.834 6.53362 267.227 9.86729C267.89 11.4439 267.957 13.6152 267.682 15.3054C268.573 13.9759 269.088 12.3792 269.088 10.6623C269.088 6.02589 265.326 2.26465 260.673 2.26465C256.274 2.26465 252.666 5.63841 252.291 9.9341C254.092 6.26639 257.232 4.91689 259.796 4.75655Z" fill="#FFC058"/>
        <path d="M59.0015 100.905C49.5552 100.905 41.8965 108.541 41.8965 117.968C41.8965 127.394 49.5552 135.03 59.0015 135.03C68.4477 135.03 76.1064 127.394 76.1064 117.968C76.0998 108.541 68.4477 100.905 59.0015 100.905Z" fill="black"/>
        <path d="M59.7227 104.266C52.5392 104.266 46.7148 110.078 46.7148 117.246C46.7148 124.408 52.5392 130.22 59.7227 130.22C66.9061 130.22 72.7305 124.408 72.7305 117.246C72.7305 110.078 66.9061 104.266 59.7227 104.266Z" fill="#B7C2C4"/>
        <path d="M225.378 109.016C218.664 109.016 213.221 114.44 213.221 121.148C213.221 127.842 218.67 133.273 225.378 133.273C232.093 133.273 237.543 127.842 237.543 121.148C237.536 114.44 232.093 109.016 225.378 109.016Z" fill="black"/>
        <path d="M225.886 111.401C220.778 111.401 216.641 115.536 216.641 120.633C216.641 125.731 220.778 129.859 225.886 129.859C230.994 129.859 235.138 125.731 235.138 120.633C235.138 115.536 231.001 111.401 225.886 111.401Z" fill="#B7C2C4"/>
        <path d="M60.0847 111.668C59.596 111.708 59.3416 111.387 59.3081 111.007C56.8578 111.26 53.8318 113.465 52.8745 115.095C51.636 117.193 51.0736 119.945 52.3791 122.177C53.9189 124.809 56.898 126.392 59.9642 126.272C63.4722 126.145 67.1074 124.001 67.1208 120.072C67.1275 115.977 64.8245 111.22 60.0847 111.668Z" fill="#92A1A9"/>
        <path d="M231.074 123.626C231.951 119.618 230.344 117.654 227.419 116.03C227.251 116.057 227.077 116.051 226.897 115.95C224.741 114.761 221.32 116.177 220.148 118.122C219.151 119.798 218.716 122.611 219.646 124.388C221.025 127.02 223.663 128.022 225.926 127.768C228.456 127.481 230.478 126.332 231.074 123.626Z" fill="#92A1A9"/>
        <path d="M225.639 115.409C222.68 115.409 220.283 117.801 220.283 120.754C220.283 123.7 222.68 126.098 225.639 126.098C228.598 126.098 230.995 123.707 230.995 120.754C230.995 117.801 228.598 115.409 225.639 115.409Z" fill="black"/>
        <path d="M225.865 116.465C223.616 116.465 221.795 118.282 221.795 120.527C221.795 122.771 223.616 124.589 225.865 124.589C228.115 124.589 229.942 122.771 229.942 120.527C229.942 118.282 228.115 116.465 225.865 116.465Z" fill="#FF9900"/>
        <path d="M59.9117 110.586C56.1426 110.586 53.0898 113.632 53.0898 117.393C53.0898 121.155 56.1493 124.201 59.9117 124.201C63.6809 124.201 66.7337 121.155 66.7337 117.393C66.7337 113.632 63.6809 110.586 59.9117 110.586Z" fill="black"/>
        <path d="M60.2001 111.922C57.3281 111.922 55.0117 114.24 55.0117 117.099C55.0117 119.959 57.3348 122.277 60.2001 122.277C63.0655 122.277 65.3885 119.959 65.3885 117.099C65.3885 114.24 63.0655 111.922 60.2001 111.922Z" fill="#FF9900"/>
        <path d="M226.515 122.618C223.663 122.618 222.397 120.166 222.712 117.981C222.15 118.676 221.795 119.551 221.795 120.52C221.795 122.765 223.616 124.582 225.865 124.582C228.115 124.582 229.936 122.765 229.936 120.52C229.373 121.722 228.235 122.618 226.515 122.618Z" fill="#E57500"/>
        <path d="M61.6261 119.939C61.5993 119.939 61.5792 119.939 61.5525 119.932C60.2202 119.859 59.0352 119.451 58.0712 118.496C57.154 117.58 56.6318 116.318 56.6318 115.028C56.6318 114.28 56.7992 113.599 57.0871 112.971C55.8285 113.919 55.0117 115.416 55.0117 117.113C55.0117 119.972 57.3348 122.29 60.2001 122.29C62.637 122.29 64.6789 120.613 65.2345 118.349C64.3308 119.351 63.0387 120.019 61.6261 119.939Z" fill="#E57500"/>
        <path d="M183.548 69.7065C182.524 69.7065 167.146 72.8198 159.334 74.1893C151.521 75.5655 143.481 76.5543 136.987 76.8081C131.008 77.0353 123.564 76.414 117.124 75.492C110.69 74.5768 100.809 72.7396 100.126 72.7396C99.4362 72.7396 98.7332 79.1063 101.498 83.9498C104.263 88.7867 107.938 90.6239 119.199 90.851C130.459 91.0781 135.012 92.2406 144.016 92.9087C153.027 93.5767 166.075 92.8686 169.295 90.851C178.728 84.9118 184.921 69.7065 183.548 69.7065Z" fill="black"/>
        <path d="M166.07 88.7666C159.864 90.37 150.839 90.7574 145.718 90.3833C141.226 90.056 137.376 89.8221 132.81 89.3812C129.061 89.0205 124.033 88.8601 119.943 88.4994C114.627 88.0317 107.752 87.7578 104.532 82.5535C103.722 81.2441 101.707 75.0778 102.872 75.492C109.995 78.0107 126.551 79.2132 131.592 79.614C137.343 80.075 150.625 78.6253 157.313 77.396C163.994 76.1735 176.774 73.5413 178.669 73.1939C179.941 72.9667 172.276 87.1565 166.07 88.7666Z" fill="white"/>
        <path d="M203.017 42.7965C201.725 41.6274 192.171 40.9326 184.017 40.9326C176.379 40.9326 126.483 43.1306 124.126 43.2575C117.74 42.5894 110.844 38.8416 108.514 37.6791C106.185 36.5167 106.419 41.4003 111.567 45.0479C108.213 45.9699 104.973 47.433 102.195 49.524C100.561 50.7533 99.0681 52.1161 97.7425 53.6794C96.2563 55.4298 94.9843 57.3404 93.8864 59.358C93.3106 60.4136 92.8152 61.5025 92.36 62.6182C92.032 63.4132 91.7575 64.2349 91.6035 65.0834C91.2955 66.6734 91.3223 68.3369 92.1725 69.7732C93.5985 72.1783 97.0999 71.1562 103.393 70.929C109.686 70.6952 166.069 69.5261 171.043 68.7979C179.257 67.5887 186.113 67.9027 189.145 65.5778C193.142 62.5113 197.273 58.8169 201.035 54.1872C204.992 49.2969 205.286 44.8475 203.017 42.7965Z" fill="black"/>
        <path d="M186.114 61.8567C181.689 64.4087 159.295 64.8563 154.461 64.9699C149.132 65.0968 100.361 67.1812 95.2868 67.2213C93.8341 67.2346 96.2375 61.2153 99.0292 57.2603C101.821 53.3054 104.8 50.4327 108.763 49.0431C112.727 47.6535 117.259 46.451 124.241 46.0568C132.978 45.5557 155.399 45.0747 158.692 44.8075C163.077 44.9144 199.684 42.7832 200.387 45.8029C201.097 48.8226 188.926 60.2266 186.114 61.8567Z" fill="#F26200"/>
        <path d="M132.904 47.0588C130.588 47.0321 127 47.2124 124.623 47.3995C127.977 53.5057 130.635 59.4983 133.708 65.7581C136.868 65.6312 139.88 65.5109 142.598 65.404C139.358 59.1108 136.258 53.3053 132.904 47.0588Z" fill="#FF9354"/>
        <path d="M195.118 45.7028C187.077 45.2686 167.623 45.8832 167.723 46.0903C170.528 52.1029 173.628 57.9753 176.855 63.7875C181.079 63.3399 184.627 62.7186 186.12 61.8568C188.644 60.4004 198.733 51.034 200.239 46.9588C199.73 46.264 197.488 45.8364 195.118 45.7028Z" fill="#FF9354"/>
        <path d="M116.93 54.4609C115.551 54.4609 114.393 55.61 114.393 56.9929C114.393 58.3692 115.544 59.5249 116.93 59.5249C118.316 59.5249 119.467 58.3758 119.467 56.9929C119.467 55.6167 118.316 54.4609 116.93 54.4609Z" fill="black"/>
        <path d="M180.141 50.7532C178.755 50.7532 177.604 51.9023 177.604 53.2852C177.604 54.6681 178.755 55.8172 180.141 55.8172C181.527 55.8172 182.678 54.6681 182.678 53.2852C182.678 51.9023 181.527 50.7532 180.141 50.7532Z" fill="black"/>
        <path d="M118.69 77.2622C118.241 79.4936 118.06 87.7175 118.181 89.361C119.145 89.2541 119.801 89.0203 120.772 88.9935C120.725 88.1718 120.645 81.0502 120.986 77.5495C120.076 77.3491 119.466 77.309 118.69 77.2622Z" fill="black"/>
        <path d="M138.936 78.064C138.105 78.2844 137.269 78.4782 136.432 78.6385C135.561 82.2528 135.608 86.1343 135.903 89.9155C135.97 90.1761 138.279 90.6304 138.353 90.2429C138.012 87.6842 137.931 81.4377 138.936 78.064Z" fill="black"/>
        <path d="M154.507 92.4875C155.324 92.2537 156.167 92.1936 157.018 92.1936C156.254 87.8044 156.181 79.5871 156.696 76.6008C156.609 76.6142 155.029 76.8213 154.313 76.848C153.543 82.1659 154.219 91.285 154.507 92.4875Z" fill="black"/>
        <path d="M156.676 103.858C153.328 105.963 148.334 107.86 142.858 108.087C137.676 108.301 132.441 107.773 128.236 104.333C128.156 104.266 127.942 104.453 128.009 104.533C131.162 108.134 138.707 108.909 143.072 108.762C149.131 108.561 154.868 106.437 156.977 104.854C157.305 104.613 157.01 103.644 156.676 103.858Z" fill="black"/>
        <path d="M156.952 107.96C153.604 110.071 148.61 111.969 143.141 112.189C137.959 112.403 132.724 111.882 128.519 108.441C128.439 108.374 128.225 108.561 128.298 108.642C131.452 112.236 138.99 113.011 143.361 112.871C149.42 112.663 155.158 110.546 157.26 108.956C157.588 108.722 157.286 107.753 156.952 107.96Z" fill="black"/>
        <path d="M156.676 99.7496C153.328 101.861 148.334 103.751 142.858 103.978C137.676 104.192 132.441 103.664 128.236 100.224C128.156 100.157 127.942 100.344 128.009 100.431C131.162 104.025 138.707 104.8 143.072 104.66C149.131 104.459 154.868 102.335 156.977 100.752C157.305 100.504 157.01 99.5358 156.676 99.7496Z" fill="black"/>
        <path d="M128.893 177.079C126.905 178.555 123.953 179.871 120.719 180.032C117.646 180.179 114.533 179.811 112.036 177.4C111.989 177.346 111.862 177.48 111.902 177.54C113.777 180.072 118.249 180.613 120.846 180.513C124.375 180.372 127.729 178.929 129.027 177.827C128.987 177.573 128.934 177.326 128.893 177.079Z" fill="black"/>
        <path d="M128.318 173.999C126.356 175.308 123.651 176.411 120.719 176.551C117.646 176.698 114.533 176.33 112.036 173.919C112.036 173.912 112.023 173.919 112.023 173.919C112.009 173.999 111.996 174.079 111.982 174.159C113.897 176.604 118.289 177.139 120.846 177.039C123.946 176.912 126.898 175.789 128.458 174.767C128.411 174.513 128.364 174.259 128.318 173.999Z" fill="black"/>
        <path d="M127.782 171.046C125.88 172.202 123.39 173.131 120.712 173.264C117.8 173.404 114.854 173.077 112.431 170.993C112.417 171.106 112.404 171.213 112.391 171.327C114.466 173.378 118.449 173.839 120.846 173.745C123.611 173.632 126.269 172.723 127.916 171.801C127.875 171.547 127.829 171.3 127.782 171.046Z" fill="black"/>
        <path d="M127.319 168.207C125.485 169.236 123.182 170.031 120.712 170.151C117.96 170.278 115.182 169.997 112.839 168.207C112.819 168.327 112.799 168.447 112.785 168.568C114.941 170.318 118.596 170.712 120.846 170.632C123.356 170.538 125.773 169.77 127.433 168.948C127.4 168.694 127.36 168.447 127.319 168.207Z" fill="black"/>
        <path d="M126.919 165.207C125.091 166.223 122.802 167.004 120.351 167.131C117.915 167.252 115.451 167.038 113.295 165.742C113.268 165.855 113.242 165.976 113.215 166.089C115.397 167.379 118.49 167.679 120.479 167.606C122.962 167.512 125.352 166.771 127.006 165.949C126.979 165.702 126.946 165.454 126.919 165.207Z" fill="black"/>
        <path d="M126.672 162.682C124.884 163.637 122.688 164.359 120.352 164.479C118.102 164.586 115.846 164.419 113.818 163.377C113.791 163.49 113.771 163.611 113.744 163.724C115.873 164.773 118.645 165.02 120.479 164.953C122.822 164.86 125.092 164.192 126.732 163.423C126.705 163.183 126.692 162.936 126.672 162.682Z" fill="black"/>
        <path d="M183.335 171.607C181.386 173.184 178.468 174.627 175.241 174.874C172.523 175.075 169.771 174.854 167.395 173.111C167.408 173.258 167.421 173.398 167.428 173.545C169.644 175.202 173.192 175.509 175.381 175.362C178.909 175.128 182.217 173.552 183.489 172.369C183.442 172.122 183.388 171.868 183.335 171.607Z" fill="black"/>
        <path d="M182.685 168.441C180.757 169.837 178.079 171.053 175.153 171.273C172.388 171.48 169.59 171.253 167.193 169.429C167.2 169.57 167.207 169.717 167.213 169.857C169.416 171.601 173.058 171.915 175.294 171.774C178.387 171.567 181.312 170.331 182.839 169.229C182.792 168.962 182.738 168.701 182.685 168.441Z" fill="black"/>
        <path d="M181.949 165.461C180.088 166.67 177.678 167.659 175.067 167.853C172.268 168.066 169.43 167.826 167.02 165.935C167.026 166.076 167.033 166.216 167.04 166.356C169.229 168.16 172.938 168.494 175.207 168.347C177.919 168.167 180.503 167.191 182.129 166.216C182.069 165.969 182.009 165.715 181.949 165.461Z" fill="black"/>
        <path d="M181.326 162.575C179.545 163.624 177.349 164.452 174.98 164.633C172.262 164.84 169.51 164.613 167.14 162.869C167.133 163.003 167.12 163.129 167.113 163.256C169.323 164.953 172.918 165.267 175.127 165.12C177.544 164.96 179.847 164.172 181.473 163.31C181.427 163.069 181.38 162.822 181.326 162.575Z" fill="black"/>
        <path d="M180.777 159.515C179.023 160.537 176.861 161.339 174.538 161.513C172.107 161.7 169.637 161.539 167.455 160.25C167.428 160.377 167.408 160.497 167.381 160.617C169.597 161.893 172.696 162.141 174.685 162.007C177.035 161.853 179.284 161.098 180.904 160.263C180.864 160.01 180.817 159.762 180.777 159.515Z" fill="black"/>
        <path d="M180.395 156.937C178.695 157.878 176.66 158.593 174.477 158.76C172.235 158.927 169.972 158.807 167.917 157.785C167.896 157.905 167.876 158.032 167.85 158.152C170.005 159.181 172.784 159.375 174.618 159.255C176.814 159.108 178.916 158.446 180.503 157.678C180.456 157.424 180.422 157.184 180.395 156.937Z" fill="black"/>
        <path d="M155.452 95.6342C152.104 97.7386 147.11 99.636 141.641 99.8631C136.466 100.077 131.224 99.5491 127.019 96.1085C126.939 96.0417 126.725 96.2288 126.798 96.3156C129.952 99.9165 137.497 100.692 141.861 100.545C147.92 100.344 153.658 98.2196 155.76 96.6363C156.088 96.3891 155.793 95.4271 155.452 95.6342Z" fill="black"/>
        <path d="M130.882 126.103L101.344 128.338L103.367 154.963L132.905 152.728L130.882 126.103Z" fill="black"/>
        <path d="M102.275 129.138L104.13 153.536L131.551 151.472L129.697 127.06L102.275 129.138Z" fill="#FFFFB5"/>
        <path d="M131.143 146.194L129.691 127.06L105.857 128.864C114.145 134.85 122.547 140.676 131.143 146.194Z" fill="#FFFFE7"/>
        <path d="M106.072 130.298L103.648 130.481L103.82 132.74L106.243 132.557L106.072 130.298Z" fill="black"/>
        <path d="M106.504 135.293L104.08 135.472L104.248 137.731L106.671 137.552L106.504 135.293Z" fill="black"/>
        <path d="M106.726 137.751L104.303 137.934L104.474 140.186L106.897 140.003L106.726 137.751Z" fill="black"/>
        <path d="M106.955 140.262L104.525 140.446L104.696 142.697L107.126 142.513L106.955 140.262Z" fill="black"/>
        <path d="M107.191 142.739L104.768 142.924L104.941 145.182L107.364 144.997L107.191 142.739Z" fill="black"/>
        <path d="M107.439 145.212L105.016 145.395L105.186 147.646L107.61 147.463L107.439 145.212Z" fill="black"/>
        <path d="M107.652 147.721L105.229 147.902L105.397 150.154L107.82 149.973L107.652 147.721Z" fill="black"/>
        <path d="M105.469 150.369L105.643 152.614L108.066 152.44L107.899 150.182L105.469 150.369Z" fill="black"/>
        <path d="M109.103 132.529L106.68 132.714L106.852 134.965L109.275 134.781L109.103 132.529Z" fill="black"/>
        <path d="M109.341 135.038L106.918 135.223L107.09 137.474L109.514 137.29L109.341 135.038Z" fill="black"/>
        <path d="M109.798 140.028L107.375 140.21L107.544 142.461L109.968 142.28L109.798 140.028Z" fill="black"/>
        <path d="M110.039 142.48L107.615 142.661L107.785 144.92L110.208 144.738L110.039 142.48Z" fill="black"/>
        <path d="M110.493 147.479L108.07 147.665L108.244 149.923L110.667 149.737L110.493 147.479Z" fill="black"/>
        <path d="M110.728 149.93L108.305 150.114L108.477 152.372L110.9 152.188L110.728 149.93Z" fill="black"/>
        <path d="M112.171 134.805L109.748 134.987L109.918 137.239L112.341 137.056L112.171 134.805Z" fill="black"/>
        <path d="M112.398 137.266L109.975 137.45L110.146 139.702L112.569 139.518L112.398 137.266Z" fill="black"/>
        <path d="M112.638 139.78L110.215 139.959L110.382 142.217L112.806 142.039L112.638 139.78Z" fill="black"/>
        <path d="M112.884 142.237L110.461 142.419L110.631 144.671L113.054 144.489L112.884 142.237Z" fill="black"/>
        <path d="M110.678 144.904L110.852 147.156L113.275 146.976L113.101 144.724L110.678 144.904Z" fill="black"/>
        <path d="M113.33 147.236L110.906 147.417L111.076 149.676L113.5 149.494L113.33 147.236Z" fill="black"/>
        <path d="M113.572 149.696L111.148 149.877L111.318 152.136L113.741 151.954L113.572 149.696Z" fill="black"/>
        <path d="M115.238 136.968L112.814 137.15L112.985 139.408L115.408 139.226L115.238 136.968Z" fill="black"/>
        <path d="M115.478 139.479L113.055 139.661L113.225 141.913L115.648 141.731L115.478 139.479Z" fill="black"/>
        <path d="M115.943 144.414L113.52 144.598L113.692 146.85L116.115 146.665L115.943 144.414Z" fill="black"/>
        <path d="M116.176 146.927L113.752 147.106L113.919 149.365L116.343 149.186L116.176 146.927Z" fill="black"/>
        <path d="M117.558 131.802L115.135 131.984L115.305 134.236L117.728 134.054L117.558 131.802Z" fill="black"/>
        <path d="M118.017 136.78L115.594 136.965L115.767 139.223L118.19 139.038L118.017 136.78Z" fill="black"/>
        <path d="M118.484 141.746L116.061 141.927L116.23 144.179L118.653 143.998L118.484 141.746Z" fill="black"/>
        <path d="M116.301 144.41L116.468 146.668L118.892 146.481L118.724 144.223L116.301 144.41Z" fill="black"/>
        <path d="M118.954 146.729L116.531 146.914L116.704 149.172L119.127 148.987L118.954 146.729Z" fill="black"/>
        <path d="M119.183 149.201L116.76 149.385L116.932 151.636L119.355 151.452L119.183 149.201Z" fill="black"/>
        <path d="M120.148 129.077L117.725 129.262L117.897 131.514L120.32 131.329L120.148 129.077Z" fill="black"/>
        <path d="M118.604 139.219L118.778 141.477L121.201 141.297L121.034 139.039L118.604 139.219Z" fill="black"/>
        <path d="M121.271 141.488L118.848 141.675L119.023 143.927L121.446 143.739L121.271 141.488Z" fill="black"/>
        <path d="M121.496 143.977L119.072 144.157L119.24 146.409L121.664 146.229L121.496 143.977Z" fill="black"/>
        <path d="M121.972 148.941L119.549 149.121L119.717 151.373L122.14 151.193L121.972 148.941Z" fill="black"/>
        <path d="M121.154 136.407L121.328 138.658L123.745 138.478L123.578 136.219L121.154 136.407Z" fill="black"/>
        <path d="M124.034 141.186L121.611 141.369L121.783 143.628L124.206 143.445L124.034 141.186Z" fill="black"/>
        <path d="M124.505 146.178L122.082 146.358L122.25 148.61L124.673 148.43L124.505 146.178Z" fill="black"/>
        <path d="M124.746 148.646L122.322 148.828L122.492 151.087L124.916 150.905L124.746 148.646Z" fill="black"/>
        <path d="M125.896 130.991L123.473 131.172L123.642 133.431L126.066 133.25L125.896 130.991Z" fill="black"/>
        <path d="M126.591 138.476L124.168 138.66L124.34 140.918L126.763 140.734L126.591 138.476Z" fill="black"/>
        <path d="M124.629 143.608L124.796 145.866L127.226 145.686L127.052 143.428L124.629 143.608Z" fill="black"/>
        <path d="M127.281 145.945L124.857 146.126L125.027 148.378L127.45 148.197L127.281 145.945Z" fill="black"/>
        <path d="M129.539 140.701L127.115 140.883L127.285 143.141L129.709 142.959L129.539 140.701Z" fill="black"/>
        <path d="M129.775 143.184L127.352 143.366L127.522 145.618L129.945 145.436L129.775 143.184Z" fill="black"/>
        <path d="M127.816 148.338L127.984 150.59L130.414 150.403L130.24 148.151L127.816 148.338Z" fill="black"/>
        <path d="M176.74 123.513L175.964 123.566C175.575 123.593 175.288 124.014 175.321 124.515L176.526 142.426C176.56 142.92 176.901 143.301 177.289 143.281L178.066 143.228C178.454 143.201 178.742 142.773 178.709 142.279L177.51 124.368C177.47 123.874 177.129 123.486 176.74 123.513Z" fill="black"/>
        <path d="M167.696 124.161L166.913 124.214C166.525 124.241 166.237 124.662 166.27 125.163L167.475 143.074C167.509 143.575 167.85 143.956 168.238 143.929L169.022 143.882C169.41 143.856 169.698 143.428 169.664 142.934L168.459 125.023C168.426 124.515 168.084 124.134 167.696 124.161Z" fill="black"/>
        <path d="M158.771 124.802L157.995 124.849C157.607 124.876 157.319 125.303 157.345 125.798L158.551 143.709C158.584 144.203 158.925 144.584 159.314 144.564L160.09 144.517C160.479 144.49 160.766 144.063 160.733 143.568L159.528 125.657C159.508 125.163 159.166 124.776 158.771 124.802Z" fill="black"/>
        <path d="M176.694 125.13C174.807 125.13 173.273 126.66 173.273 128.543C173.273 130.427 174.807 131.951 176.694 131.951C178.582 131.951 180.115 130.421 180.115 128.543C180.115 126.66 178.582 125.13 176.694 125.13Z" fill="black"/>
        <path d="M176.702 126.078C175.343 126.078 174.238 127.181 174.238 128.537C174.238 129.893 175.343 130.995 176.702 130.995C178.061 130.995 179.166 129.893 179.166 128.537C179.172 127.181 178.068 126.078 176.702 126.078Z" fill="#F82739"/>
        <path d="M176.949 127.234C177.826 127.234 178.609 127.648 179.145 128.283C179.017 127.047 177.98 126.085 176.708 126.085C175.349 126.085 174.244 127.187 174.244 128.543C174.244 128.71 174.264 128.877 174.291 129.031C174.726 127.982 175.757 127.234 176.949 127.234Z" fill="#FF876F"/>
        <path d="M167.964 133.086C166.605 133.086 165.5 134.189 165.5 135.545C165.5 136.901 166.605 138.003 167.964 138.003C169.323 138.003 170.427 136.908 170.427 135.545C170.427 134.182 169.323 133.086 167.964 133.086Z" fill="#FF876F"/>
        <path d="M167.964 133.086C166.605 133.086 165.5 134.189 165.5 135.545C165.5 136.901 166.605 138.003 167.964 138.003C169.323 138.003 170.427 136.908 170.427 135.545C170.427 134.182 169.323 133.086 167.964 133.086Z" fill="#FF876F"/>
        <path d="M159.221 135.939C157.856 135.939 156.758 137.041 156.758 138.397C156.758 139.76 157.862 140.856 159.221 140.856C160.581 140.856 161.685 139.754 161.685 138.397C161.685 137.041 160.581 135.939 159.221 135.939Z" fill="#FF876F"/>
        <path d="M167.958 132.138C166.07 132.138 164.537 133.668 164.537 135.552C164.537 137.435 166.07 138.965 167.958 138.965C169.846 138.965 171.379 137.442 171.379 135.552C171.379 133.668 169.846 132.138 167.958 132.138Z" fill="black"/>
        <path d="M167.966 133.086C166.607 133.086 165.502 134.189 165.502 135.545C165.502 136.901 166.607 138.003 167.966 138.003C169.325 138.003 170.429 136.908 170.429 135.545C170.429 134.182 169.325 133.086 167.966 133.086Z" fill="#F82739"/>
        <path d="M168.073 134.289C169.204 134.289 169.987 134.83 170.429 135.565C170.429 135.558 170.429 135.552 170.429 135.545C170.429 134.189 169.325 133.086 167.966 133.086C166.607 133.086 165.502 134.189 165.502 135.545C165.502 135.679 165.522 135.799 165.542 135.926C165.924 135.004 166.761 134.289 168.073 134.289Z" fill="#FF876F"/>
        <path d="M159.214 134.997C157.326 134.997 155.793 136.527 155.793 138.411C155.793 140.295 157.319 141.825 159.214 141.825C161.102 141.825 162.635 140.295 162.635 138.411C162.635 136.527 161.102 134.997 159.214 134.997Z" fill="black"/>
        <path d="M159.221 135.939C157.856 135.939 156.758 137.041 156.758 138.397C156.758 139.76 157.862 140.856 159.221 140.856C160.581 140.856 161.685 139.754 161.685 138.397C161.685 137.041 160.581 135.939 159.221 135.939Z" fill="#F82739"/>
        <path d="M159.274 137.041H159.361C160.298 137.041 161.142 137.516 161.671 138.231C161.584 136.961 160.526 135.946 159.227 135.946C157.862 135.946 156.764 137.048 156.764 138.404C156.764 138.451 156.77 138.491 156.777 138.538C157.266 137.656 158.203 137.041 159.274 137.041Z" fill="#FF876F"/>
    </g>
    <defs>
        <clipPath id="clip0">
            <rect width="304" height="203" fill="white"/>
        </clipPath>
    </defs>
</svg>
