<svg width="54" height="54" viewBox="0 0 54 54" fill="none" xmlns="http://www.w3.org/2000/svg">
    <path d="M27 54C41.9117 54 54 41.9117 54 27C54 12.0883 41.9117 0 27 0C12.0883 0 0 12.0883 0 27C0 41.9117 12.0883 54 27 54Z" fill="#827DDC"/>
    <path d="M9.82227 38.2489L28.1196 41.4591V12.119L9.82227 15.3291V38.2489Z" fill="#302C89"/>
    <path d="M29.4376 36.5976C30.1216 37.1503 30.9917 37.4819 31.9395 37.4819C34.14 37.4819 35.9239 35.698 35.9239 33.4975V23.9176H29.4375L29.4376 36.5976Z" fill="#302C89"/>
    <path d="M31.9394 22.4274C33.6878 22.4274 35.1052 21.0102 35.1052 19.2617C35.1052 17.5133 33.6879 16.0959 31.9394 16.0959C30.9216 16.0959 30.0165 16.5769 29.4375 17.3233V21.2001C30.0166 21.9466 30.9216 22.4274 31.9394 22.4274Z" fill="#302C89"/>
    <path d="M44.1143 25.9702H37.2344V34.4324C37.9576 35.2835 39.0354 35.8233 40.2383 35.8233C41.291 35.8233 42.2997 35.4023 43.0399 34.654C43.7801 33.9057 44.19 32.8923 44.1786 31.84L44.1143 25.9702Z" fill="#302C89"/>
    <path d="M40.1741 24.496C41.9034 24.496 43.3053 23.0941 43.3053 21.3648C43.3053 19.6355 41.9034 18.2336 40.1741 18.2336C38.4448 18.2336 37.043 19.6355 37.043 21.3648C37.043 23.0941 38.4448 24.496 40.1741 24.496Z" fill="#302C89"/>
    <path d="M22.579 23.5085H19.8495V31.4834H18.2022V23.5085H15.4727V21.8703H22.5789V23.5085H22.579Z" fill="white"/>
</svg>
