<svg width="54" height="54" viewBox="0 0 54 54" fill="none" xmlns="http://www.w3.org/2000/svg">
    <path d="M27 54C41.9117 54 54 41.9117 54 27C54 12.0883 41.9117 0 27 0C12.0883 0 0 12.0883 0 27C0 41.9117 12.0883 54 27 54Z" fill="#039BE5"/>
    <path d="M12.3551 26.415L38.3876 16.3777C39.5958 15.9412 40.6511 16.6725 40.2596 18.4995L40.2618 18.4972L35.8293 39.3795C35.5008 40.86 34.6211 41.22 33.3903 40.5225L26.6403 35.5477L23.3846 38.6842C23.0246 39.0442 22.7208 39.348 22.0233 39.348L22.5026 32.4787L35.0126 21.177C35.5571 20.6977 34.8911 20.4277 34.1733 20.9047L18.7136 30.6382L12.0491 28.5592C10.6023 28.1002 10.5708 27.1125 12.3551 26.415Z" fill="white"/>
</svg>
