<svg xmlns="http://www.w3.org/2000/svg" viewBox="0 0 1109.85 288.46"><defs><style>.cls-1{fill:#006c8a;}.cls-2{fill:#00a9c2;}</style></defs><title>unistarlogo-default</title><g id="Layer_2" data-name="Layer 2"><g id="Layer_1-2" data-name="Layer 1"><path class="cls-1" d="M144.72,288.46c-7.55-.35-13.52-2.78-18.43-7.69q-43-43-86.12-86.06c-1.79-1.79-3.17-3.12-.8-5.71C52.52,174.64,67,161.91,84,152.29a203.08,203.08,0,0,1,67.59-23.81c1.23-.2,2.28-.59,3.14.47,5.48,6.73,12.73,12.72,12.82,22.22.06,5.67-1.64,11.38-2.74,17-4.47,23.15-9,46.28-13.52,69.43-.38,1.93-1,4.16.87,5.56,2.07,1.55,4.05.19,6-.89q31.11-17.66,62.22-35.31c3.81-2.17,7.84-2.52,12-2.28,1.15.07,2.59-.06,3.07,1.16s-1,1.91-1.74,2.66q-20.64,20.69-41.33,41.3-15.56,15.53-31.06,31.1C156.83,285.43,149.72,288.53,144.72,288.46Z"/><path class="cls-1" d="M182.64,200.11c2.15-11.09,4.29-22.27,6.51-33.45,1.54-7.76,3-15.56,4.86-23.25,1.62-6.66-.63-11.83-4.72-16.9-11.51-14.32-22.78-28.83-34.16-43.25-1.13-1.43-3-2.85-1.92-4.71s3.45-1.75,5.46-1.4c6.58,1.14,13.24.3,19.88.94,9.23.89,18.59.42,27.85,1.1,6.37.47,9.91-2.61,12.55-7.71,6.12-11.77,12.24-23.55,18.45-35.28.78-1.47.86-4.05,3.26-3.81,2.11.22,2.46,2.45,3.07,4.15,5.36,15,10.92,29.86,16,44.94,2.06,6.18,6,9.45,11.85,11.56,10.1,3.65,20.09,7.65,30.08,11.61,4.4,1.74,4.79,3.87,1.62,7.46-7,8-13.72,16.19-21.17,23.7-5.36,5.41-6.79,11.36-5.83,18.51q3,22.08,5.6,44.21c.21,1.67,1,3.92-.95,5s-3.29-.54-4.8-1.62c-10.94-7.75-22-15.34-32.91-23.13-4.32-3.08-8.32-3.06-12.86-.38-14.11,8.32-28.35,16.42-42.54,24.62-1.32.76-2.73,1.56-4.19.8S182.84,201.47,182.64,200.11Z"/><path class="cls-2" d="M149.75,66.16H113.26c-2.3,0-4.92-.46-6.25,2-1.5,2.77.7,4.79,2.2,6.61q13.13,15.88,26.52,31.55c2.06,2.4,2.92,3.32-1.24,4.09a223,223,0,0,0-56,17.94c-18.38,8.79-35.06,20.15-49,35.24-2.58,2.8-5.77,5-7.81,8.36-.81,1.31-2.25,2-3.35.76C11.82,165.57,2.91,160.33.7,149.81c-1.75-8.38-.36-15.92,5.74-22Q67,67.13,127.63,6.64c9.17-9.14,24-8.84,34,.9,13.63,13.2,26.86,26.8,40.38,40.12,1.78,1.75,1.7,3.07.84,5.18-3.79,9.33-9.9,14.21-20.65,13.48S160.58,66.16,149.75,66.16Z"/><path class="cls-1" d="M607.05,158.41c0,14.65-.1,29.3.07,44,0,3.53-1.09,4.8-4.57,4.53-3-.24-6,0-9-.07-6.4-.23-9.72-3.62-9.73-10q0-37,0-73.93c0-13.46-4.17-18.58-17.53-21.89a54.44,54.44,0,0,0-29,.56c-12,3.59-15.13,8-15.31,20.63-.37,26.3-.22,52.61,0,78.91,0,4.62-1.17,6.22-5.83,5.83a125.35,125.35,0,0,0-14-.06c-2.47.06-3.63-.68-3.63-3.37.07-29.13-.45-58.28.24-87.4.42-17.87,10.9-29.72,27.37-35.43,22.1-7.66,44.1-7.5,64.34,5.72,10.86,7.09,16.77,17.57,16.58,31.06C606.9,131.1,607.05,144.76,607.05,158.41Z"/><path class="cls-1" d="M469.41,126.49c0,12.82-.36,25.65.08,38.45.72,21-11.55,35.33-30.73,41.12-18.79,5.68-37.64,5.41-55.55-3.43-14.79-7.3-22.46-19.43-22.39-36.26q.18-41.19-.06-82.39c0-4,1.08-5.37,5-5,3.13.32,6.33,0,9.49.07,6.07.11,8.79,2.83,8.79,8.85q0,36.21,0,72.4c0,16.33,4.46,22.07,20.71,24.62,10.29,1.62,20.73,1.65,30.64-2.74,7.19-3.18,10.49-8.68,10.48-16.43,0-27.3.07-54.59-.1-81.89,0-3.88.91-5.23,4.89-4.9a70.49,70.49,0,0,0,13.47,0c4.72-.52,5.38,1.46,5.32,5.57C469.26,98.53,469.41,112.51,469.41,126.49Z"/><path class="cls-2" d="M699.58,173.74c8.31,6.08,17.07,10.31,27,11.39,7.86.85,15.79,1.38,23.58-.91,5.47-1.61,8.89-5.13,9.58-10.77.83-6.8-1.83-12.06-7.59-14.83-12.1-5.81-24.36-11.26-36.44-17.11-17.43-8.44-24.52-26.95-16.76-43.67C704.32,86.25,714,80,726.18,77.64A89.37,89.37,0,0,1,774,81.48c2.91,1,4.36,2.29,4.21,5.62-.26,5.81-.23,11.65,0,17.47.14,4-1.2,4.08-4.32,2.53-12.94-6.41-26.56-9.12-40.95-6.83a30.27,30.27,0,0,0-6.65,1.91c-3.75,1.54-6.57,4.18-6.84,8.43s1.87,7.4,5.61,9.19c7.47,3.58,15.11,6.8,22.55,10.44C758,135.3,769.1,139,776.46,149c15.58,21.18,4.2,52.68-21.43,58.47a84.22,84.22,0,0,1-46.86-2.61c-7.78-2.68-9.38-5-9.37-13.1q0-8.24.08-16.48C698.88,175,699.12,174.7,699.58,173.74Z"/><path class="cls-2" d="M809.55,107.63c0-19.66.13-39.31-.1-59-.05-4.39,1.49-5.45,5.48-5.07,11.17,1,18.39,9,18.74,21.11a87.58,87.58,0,0,1,0,10c-.3,3.43.73,4.58,4.33,4.47,9.15-.26,18.32,0,27.48-.15,2.83,0,3.8.8,3.63,3.63-.22,3.66,0,7.33-.06,11-.07,5.23-3.42,8.66-8.67,8.71-7.67.08-15.33.13-23,0-2.82-.06-3.73.82-3.71,3.67.1,21.32,0,42.64.1,64,0,8.37,6.62,14.93,15.09,15.56,5.79.42,11.54.65,16.94-2.25C868,182,869.07,183,869,185.6c-.08,6.33-.1,12.66,0,19a3.17,3.17,0,0,1-2.78,3.5c-19.48,4.55-42.81-.81-52.71-22.19-3-6.44-3.95-13.31-4-20.31C809.51,146.27,809.55,127,809.55,107.63Z"/><path class="cls-2" d="M1050.88,158.36c0-14-.05-28,0-42,.11-22.6,17.19-39.46,40-40.21,5.3-.18,10.59-.2,15.82,1.13,2,.52,3.19,1.19,3.14,3.57-.14,6.33-.09,12.66,0,19,0,2.82-.83,3.57-3.55,2.24a26.18,26.18,0,0,0-19.35-1.56c-8.71,2.54-12.6,8.11-12.61,17.83,0,27.48-.12,55,.11,82.44,0,4.81-1.24,6.56-6.12,6.1a85.21,85.21,0,0,0-13,0c-3.56.22-4.55-1.1-4.51-4.57C1051,187.68,1050.88,173,1050.88,158.36Z"/><path class="cls-1" d="M664.71,142.5c0,19.79-.11,39.59.09,59.38,0,4-1.19,5.29-5.13,5a118.38,118.38,0,0,0-14,0c-3.51.2-4.64-1.05-4.58-4.54.17-11.31.06-22.62.06-33.93,0-28,.09-55.89-.09-83.83,0-4.28.93-6,5.5-5.61a81.74,81.74,0,0,0,13.46,0c3.68-.27,4.8.76,4.76,4.61C664.6,103.24,664.71,122.87,664.71,142.5Z"/><path class="cls-2" d="M1016.82,143c0-19.48-.2-38.95.13-58.42.09-5-1.72-5.88-6-5.55-6.48.5-11.82,3.36-14.7,8.86-2.11,4-3.43,3.11-5.92,1.07-14.57-12-31.37-14.31-49.53-12-29.76,3.7-59,34.42-55.48,71.08a67.82,67.82,0,0,0,18.37,41.12c22.7,24.39,63.9,27.86,88,6.17,2.16-1.95,2.66-1,3.7,1,3.28,6.43,9,9.4,15.9,10.49,3.67.58,5.7-.2,5.64-4.89C1016.65,182.27,1016.82,162.63,1016.82,143Zm-64.67,43c-25.42.2-44.46-21.59-43.31-43.56-1.2-21.83,19.11-43.2,43.42-43,22.39.15,43.2,18.59,43.08,43.11S976.51,185.84,952.15,186Z"/></g></g></svg>