<svg width="54" height="54" viewBox="0 0 54 54" fill="none" xmlns="http://www.w3.org/2000/svg">
    <path d="M27.0068 0H26.9932C12.1061 0 0 12.1095 0 27C0 32.9062 1.9035 38.3805 5.14012 42.8254L1.77525 52.8559L12.1534 49.5382C16.4228 52.3665 21.5156 54 27.0068 54C41.8939 54 54 41.8871 54 27C54 12.1129 41.8939 0 27.0068 0Z" fill="#4CAF50"/>
    <path d="M42.7169 38.1274C42.0655 39.9667 39.4802 41.4922 37.4181 41.9377C36.0074 42.2381 34.1646 42.4777 27.9614 39.906C20.0267 36.6187 14.917 28.5559 14.5188 28.0327C14.1374 27.5096 11.3125 23.7634 11.3125 19.8889C11.3125 16.0144 13.2801 14.1277 14.0733 13.3177C14.7246 12.6529 15.8012 12.3491 16.834 12.3491C17.1681 12.3491 17.4685 12.366 17.7385 12.3795C18.5316 12.4132 18.9299 12.4605 19.453 13.7126C20.1044 15.282 21.6906 19.1565 21.8796 19.5547C22.072 19.953 22.2644 20.493 21.9944 21.0161C21.7413 21.5561 21.5185 21.7957 21.1202 22.2547C20.722 22.7137 20.344 23.0647 19.9457 23.5575C19.5812 23.9861 19.1695 24.4451 19.6285 25.2382C20.0875 26.0145 21.6737 28.6031 24.0092 30.6821C27.0231 33.3652 29.4666 34.2225 30.3407 34.587C30.9921 34.857 31.7684 34.7929 32.2442 34.2866C32.8484 33.6352 33.5942 32.5552 34.3536 31.4921C34.8936 30.7294 35.5754 30.6349 36.2909 30.9049C37.0199 31.158 40.8775 33.0649 41.6706 33.4597C42.4637 33.858 42.9869 34.047 43.1792 34.3811C43.3682 34.7152 43.3682 36.2846 42.7169 38.1274Z" fill="#FAFAFA"/>
</svg>
